<svg id="Layer_1" data-name="Layer 1" xmlns="http://www.w3.org/2000/svg" viewBox="0 0 85.04 76.71"><defs><style>.cls-1{fill:#ee992e;}.cls-2{fill:#5a8dee;}</style></defs><title>الايقونات جاهزة2</title><path class="cls-1" d="M52.27,58.59c-1.59,3.55-3,6.92-4.67,10.12-2.27,4.21-3.93,4.51-7.89,2C37.93,69.5,36.3,68,34.38,67.19a22,22,0,0,0-7.08-1.82A19.51,19.51,0,0,1,13.71,59.1a5,5,0,0,1-1-6.28,45.09,45.09,0,0,1,4.36-6.54c2.58-3.13,5.38-6.08,8.17-9.18l-2.54-2a67.15,67.15,0,0,0-5.65,5.38A92,92,0,0,0,9,51.11c-2.15,3.47-1.36,7.19,1.27,10.22A21.72,21.72,0,0,0,26.68,69.2a12.13,12.13,0,0,1,6.81,2.08,65.79,65.79,0,0,0,5.89,3.82c4.1,2.15,7.59,1.43,10.23-2.37a60.74,60.74,0,0,0,4.17-8c.6-1.23,1.09-2.52,1.59-3.71ZM75.21,7.24C69.12,4.89,62.94,2.79,56.74.76,51.19-1.06,47.47.24,44.12,5.05c-2.56,3.68-4.94,7.47-7.41,11.2-.64.95-1.31,1.87-2,2.81-.28-.18-.56-.37-.83-.57l3.91,3.14c2.9-4.42,5.65-8.68,8.44-12.9,3.38-5.09,5.16-5.67,10.88-3.66,5.06,1.77,10.14,3.45,15.15,5.32a20.46,20.46,0,0,1,5.22,2.78C80.66,15.59,82,19,80.59,22.75a21.93,21.93,0,0,1-4,6.41c-2.37,2.8-5.12,5.26-7.66,7.91a1.82,1.82,0,0,0,.15,2.9c1,.85,2,.57,2.89-.37,2.76-2.85,5.6-5.62,8.36-8.47C88.3,22.87,85.88,11.35,75.21,7.24Z"/><path class="cls-2" d="M78.29,56c-2.26-1-4.46-2.1-6.84-3.22,1.6-3.13.45-5.12-2-6.81-2.21-1.57-4.32-3.33-6.46-5L32.85,17.55l-4.12-3.3,0,0c-.28-.21-.56-.44-.84-.67l-.13-.11c-2.49-2-4.79-4.29-8.51-1.29-1.93-2.33-3.7-4.5-5.48-6.65C11.06,2.31,7.64,2,4.6,4.83a20,20,0,0,0-3,3.58c-2.87,4.36-1.91,7.81,2.72,10.11,2.36,1.16,4.73,2.29,7.23,3.5-1.15,2.51-.7,4.07.36,5.31a30.21,30.21,0,0,0,3.69,3l.14.12,10.39,8.14.85.67,3.8,3,8.89,6.91L53.18,59.6h0c3.28,2.21,5.63,6.51,10.76,3.11,1.61,1.92,3.21,3.8,4.76,5.73,3.65,4.52,7.39,4.58,11.18.1a19.24,19.24,0,0,0,1.54-2C84.47,61.87,83.36,58.26,78.29,56Zm-.56,8.78c-.18.26-.36.51-.56.75-2.31,2.9-3.2,2.86-5.46,0a66.08,66.08,0,0,0-5.07-5.76c-2.93-2.91-3.35-2.84-6.2.18L15.25,24.8c2.14-3.63,2-4.2-1.57-6.21C11.18,17.18,8.6,15.88,6,14.67,4.09,13.78,3.9,12.58,5,11A16.25,16.25,0,0,1,6.18,9.27c2.13-2.54,3.09-2.52,5.27,0,1.66,2,3.32,3.91,5.11,5.75,2.78,2.89,3.37,2.85,6.2-.15L68,50.21c-.24.4-.41.73-.61,1-1.47,2.13-1.44,2.94.81,4.33A87.39,87.39,0,0,0,76.43,60C79.41,61.39,79.66,62.06,77.73,64.8Z"/></svg>