<svg id="Layer_1" data-name="Layer 1" xmlns="http://www.w3.org/2000/svg" viewBox="0 0 85.04 85.04"><defs><style>.cls-1{fill:#ee992e;}.cls-2{fill:#5a8dee;}</style></defs><title>الايقونات جاهزة2</title><path class="cls-1" d="M83,.53H2L.55,2V83c.49.5,1,1,1.48,1.49H83c.5-.49,1-1,1.48-1.49V2Zm-56,2.94c6,0,12.07,0,18.11,0a5.4,5.4,0,0,1,.69.08c.06.1.11.2.16.3-.61.57-1.24,1.11-1.83,1.69l-9.76,9.71c-.37.37-.8.67-1.16,1-3.16,3.14-6.29,6.3-9.46,9.42C21.9,27.58,20,29.4,18,31.28c-.41.39-.69.37-1.08,0q-4.61-4.62-9.22-9.21c-.39-.4-.45-.65,0-1.06C13.79,15.3,19.82,9.6,25.89,3.93A1.76,1.76,0,0,1,27.05,3.47ZM4.42,3.39c5.63,0,11.25,0,16.87,0a7.34,7.34,0,0,1,.82.08l.06.21Q12.92,12.4,3.68,21.1L3.47,21c0-.28,0-.56,0-.85,0-5.24,0-10.48,0-15.72C3.4,3.6,3.64,3.38,4.42,3.39Zm.84,20.09a7.39,7.39,0,0,1,.61.54c3,3,6,6,9.06,9,.52.51.5.8,0,1.31-3.56,3.46-7.09,7-10.63,10.44-.21.19-.45.35-.87.68V44.31c0-5.84.07-11.69,0-17.53A3.39,3.39,0,0,1,5.26,23.48Zm55.8,56.34a4.89,4.89,0,0,1-4.39,1.86c-5.18-.14-10.36-.05-15.55-.05h-.81c3.94-3.93,7.88-7.87,11.89-11.89a4.33,4.33,0,0,1,.42.37c2.81,2.8,5.6,5.61,8.42,8.38C61.54,79,61.51,79.27,61.06,79.82Zm2.07-3c-3-3-6-6-8.91-8.94l-.11-.15L81.59,40.2c0,.21,0,.48,0,.76,0,5.82,0,11.64,0,17.46a2,2,0,0,1-.52,1.28q-8.43,8.49-16.9,17C63.87,77,63.6,77.25,63.13,76.78Zm17.49,4.87c-5.46,0-10.92,0-16.38,0h-.57c6-6,12-12,18-18v.65c0,5.42,0,10.86,0,16.29C81.67,81.42,81.46,81.66,80.62,81.65Zm1-76.73c0,1.32,0,2.67,0,4V19.3c0,5.27,0,10.55,0,15.83a2,2,0,0,1-.5,1.28Q72.84,44.77,64.5,53.06a2.54,2.54,0,0,1-.37.33l-8.66-8.66L81.65,18.55,53.19,47l8.65,8.67a5.89,5.89,0,0,1-.48.56Q49,68.58,36.62,81a2.11,2.11,0,0,1-1.65.68c-5.17,0-10.34,0-15.49,0H12.55c-1.23,0-2.46,0-3.68,0H4c-.38,0-.56-.21-.58-.68l0-2.53c0-1.36,0-2.71,0-4.07a.28.28,0,0,1,0-.09l0-4.54c0-.5,0-.76,0-1,0-6.15,0-12.3,0-18.44A1.79,1.79,0,0,1,4,48.84c2.23-2.19,4.43-4.38,6.66-6.56l11.38-11.2c2.45-2.41,4.91-4.81,7.34-7.26.54-.53.86-.6,1.44,0,2.87,2.93,5.77,5.82,8.69,8.7.35.34.47.59.29.92l2.53-2.52c-.34.27-.5.13-1-.43-2.86-2.86-5.71-5.73-8.6-8.57-.5-.49-.54-.79,0-1.3C36,17.4,39.24,14.17,42.51,11c2.33-2.3,4.67-4.58,7-6.89a2.05,2.05,0,0,1,1.58-.67c5.84,0,11.69,0,17.54,0h.87l6.19,0h0c1.68,0,3.35,0,5,0a1.25,1.25,0,0,1,.5.06.58.58,0,0,1,.39.58,2.72,2.72,0,0,1,0,.3C81.65,4.53,81.65,4.72,81.65,4.92Z"/><path class="cls-1" d="M4,81.63H3.41V81C3.43,81.42,3.61,81.59,4,81.63Z"/><path class="cls-1" d="M81.65,3.45V4a.58.58,0,0,0-.39-.58Z"/><path class="cls-1" d="M81.65,4.92v4C81.65,7.59,81.62,6.24,81.65,4.92Z"/><path class="cls-2" d="M81.24,3.44a.57.57,0,0,1,.42.58V3.44Zm.41,5.48c0,.46,0,.93,0,1.39V5.11C81.63,6.37,81.65,7.66,81.65,8.92Zm-.45,5.74c-2.74,2.79-5.51,5.54-8.26,8.31-.45.45-.72.4-1.14,0-2.72-2.75-5.47-5.5-8.22-8.22-.48-.47-.42-.77,0-1.19,3.22-3.2,6.42-6.41,9.64-9.6a2,2,0,0,1,1.21-.51h-5l.09.23c-.21.24-.42.48-.64.71Q55.9,17.4,42.82,30.48a5,5,0,0,1-.44.42h0l-2.53,2.51v0a1.71,1.71,0,0,1-.26.31Q21.9,51.38,4.26,69c-.19.19-.39.36-.77.7l0,4.52a1.77,1.77,0,0,1,.44-1c2.89-2.93,5.82-5.84,8.72-8.77.44-.45.72-.41,1.14,0q4.09,4.14,8.24,8.24c.48.47.41.75,0,1.19-2.41,2.38-4.79,4.79-7.22,7.16a2,2,0,0,1-1.21.5l-1.41,0h6.35C18.66,81,52.07,47.41,53,46.83l.15.14L81.65,18.56v-6.7c0,.58,0,1.16,0,1.74A1.7,1.7,0,0,1,81.2,14.66ZM69.79,26.13Q47.46,48.42,25.14,70.75c-.19.19-.4.36-.63.57A5.4,5.4,0,0,1,24,71q-4.22-4.23-8.46-8.45c-.37-.37-.34-.64,0-.94.17-.15.3-.32.46-.47L60.23,16.92c.87-.87.87-.87,1.75,0,2.59,2.6,5.17,5.2,7.79,7.75C70.32,25.23,70.35,25.56,69.79,26.13ZM3.42,81v.68H4C3.62,81.6,3.44,81.43,3.42,81Z"/></svg>