<svg id="Layer_1" data-name="Layer 1" xmlns="http://www.w3.org/2000/svg" viewBox="0 0 85.04 85.04"><defs><style>.cls-1{fill:#ee992e;}.cls-2{fill:#5a8dee;}</style></defs><title>الايقونات جاهزة2</title><path class="cls-1" d="M41.36,84.35c-1.63-.21-3.26-.4-4.88-.65C23,81.66,12.72,74.88,5.89,63A39.41,39.41,0,0,1,.47,44.56C-.2,25.85,10,10.53,26.17,3.67A38.74,38.74,0,0,1,40.47.53,6.21,6.21,0,0,0,41.59.29H43a7.27,7.27,0,0,0,1.12.26A51.05,51.05,0,0,1,54.66,2.38,41.58,41.58,0,0,1,83.92,38.51c.09,1.12.27,2.23.41,3.34v.94c-.08.3-.2.58-.25.88-.39,2.76-.54,5.57-1.19,8.26A41.35,41.35,0,0,1,46.71,84l-3.7.4Zm1.07-81C24.63,3.38,4,16,3.3,42.14,2.8,60.2,16.17,80.55,42,81.25c18.09.49,38.49-12.94,39.12-38.73C81.62,24,67.81,4.33,42.43,3.3Z"/><path class="cls-2" d="M72.63,33.58H11.88c2.08-10.47,13.51-23.1,30-23.23C59.73,10.21,70.69,23.84,72.63,33.58ZM15.92,30.69H68.57C66,21.34,53.5,13.19,41.86,13.26,30.73,13.32,18.18,21.74,15.92,30.69Z"/><path class="cls-2" d="M38.46,74.2a59.73,59.73,0,0,1-7.45-2c-12.23-5-19.24-14.07-20.6-27.33-.1-1-.09-2-.17-2.94-.06-.71.22-.94.93-1A21.47,21.47,0,0,1,26,45.58C33.2,51,37,58.45,38.25,67.26c.31,2.16.4,4.36.58,6.54Zm-2.82-3.8a3.79,3.79,0,0,0,0-.58,33.09,33.09,0,0,0-2.8-11c-3-6.2-7.15-11.2-13.76-13.71-1.83-.69-3.79-1.05-5.78-1.59C13.46,57.48,25,68.65,35.64,70.4Z"/><path class="cls-2" d="M45.92,73.89c-.81-11.24,5-26.51,18.72-31.7A19.3,19.3,0,0,1,74,41C75.48,55.64,63.49,72.24,45.92,73.89Zm2.93-3.5c5.6-.81,12.92-5.21,17.37-11.77a27,27,0,0,0,5-14.83C59,44.56,49.41,56.88,48.85,70.39Z"/><path class="cls-2" d="M42.25,48.92a6.6,6.6,0,0,1,0-13.19,6.6,6.6,0,1,1,0,13.19ZM45.9,42.4a3.6,3.6,0,0,0-3.65-3.77,3.69,3.69,0,1,0,0,7.38A3.57,3.57,0,0,0,45.9,42.4Z"/></svg>