<svg id="Layer_1" data-name="Layer 1" xmlns="http://www.w3.org/2000/svg" viewBox="0 0 85.04 78.29"><defs><style>.cls-1{fill:#ee992e;}.cls-2{fill:#5a8dee;}</style></defs><title>الايقونات جاهزة2</title><path class="cls-1" d="M.31,75.38c1.07,0,2.13.06,3.2.07H11.1c1.44,0,2-.56,2-2,0-1,0-2,0-3,0-.7-.24-.89-.9-.88-2.42,0-4.84,0-7.26,0-1.19,0-1.61-.38-1.64-1.55,0-1.68,0-3.35,0-5,0-1.15.42-1.51,1.56-1.53s1.25,0,1.25-1.34q0-17.38,0-34.79a9,9,0,0,1,2.16-6.21A8.32,8.32,0,0,1,21.5,20.44,9,9,0,0,1,22.67,25q0,17.56,0,35.12c0,1.27,0,1.27,1.26,1.3s1.54.41,1.55,1.54c0,1.71,0,3.41,0,5.11,0,1-.45,1.45-1.47,1.46-2.47,0-4.95,0-7.42,0-.72,0-1,.24-1,1,0,1,0,2,0,3,0,1.47.62,2,2.1,2H39.08c1.63,0,2.18-.54,2.19-2.16V70.65c0-1.11,0-1.12-1.09-1.12-2.36,0-4.72,0-7.09,0-1.23,0-1.69-.46-1.7-1.68,0-1.6,0-3.19,0-4.79,0-1.21.43-1.62,1.64-1.64s1.16,0,1.16-1.21V24.93a8.31,8.31,0,0,1,16.5-1.64,19,19,0,0,1,.15,2.38q0,17.27,0,34.55c0,1.17,0,1.17,1.16,1.2s1.64.44,1.64,1.64c0,1.6,0,3.19,0,4.79,0,1.22-.47,1.68-1.7,1.68-2.37,0-4.73,0-7.09,0-1.09,0-1.09,0-1.09,1.12s0,2,0,3a1.65,1.65,0,0,0,1.85,1.83H67.56c1.13,0,1.73-.5,1.81-1.61s0-2.47,0-3.7c0-.59-.41-.61-.86-.61q-3.66,0-7.34,0c-1.23,0-1.63-.4-1.64-1.62,0-1.68,0-3.35,0-5,0-1,.42-1.43,1.46-1.46,1.34-.05,1.34-.05,1.34-1.38q0-17.64,0-35.29a8.3,8.3,0,0,1,6.71-8.24,8.22,8.22,0,0,1,9.79,7.63c.1,5.82.05,11.65.05,17.48,0,6.12,0,12.25,0,18.38,0,1.38,0,1.38,1.33,1.42,1,0,1.45.4,1.47,1.45q0,2.59,0,5.19c0,1.07-.47,1.47-1.55,1.47-2.44,0-4.89,0-7.34,0-.66,0-.94.18-.9.88,0,1.13,0,2.26,0,3.38,0,.94.52,1.63,1.41,1.63,3.78,0,7.57,0,11.36,0V78L83.67,78c-3.27,0-6.54,0-9.81,0a4.86,4.86,0,0,1-2.8-.77.85.85,0,0,0-.79,0,4.55,4.55,0,0,1-2.8.78c-7.28,0-14.56,0-21.83,0a12.37,12.37,0,0,1-2.65-.7,2,2,0,0,0-.94,0,10.75,10.75,0,0,1-2.32.69q-11.28.08-22.58,0a5.52,5.52,0,0,1-2.22-.69,1.08,1.08,0,0,0-1.1,0,6.71,6.71,0,0,1-2.4.68C8.08,78,4.72,78,1.37,78L.31,78Zm48-32.56c0-4.37,0-8.74,0-13.1,0-1.84,0-3.68-.11-5.51A5.68,5.68,0,0,0,40,19.5c-2.4,1.19-3.27,3.27-3.27,5.82q0,17.51,0,35c0,1,.08,1.08,1.08,1.08,3.07,0,6.15,0,9.22,0,1.27,0,1.29,0,1.29-1.29Zm-28.16-.19c0-5.74,0-11.48,0-17.22A11.22,11.22,0,0,0,20,23.77a5.72,5.72,0,0,0-11.38.84c0,12,0,23.89,0,35.84,0,.79.29,1,1,1,3.14,0,6.27,0,9.4,0,1.13,0,1.14,0,1.14-1.15C20.17,54.38,20.16,48.5,20.16,42.63Zm56.24-.17c0-6,0-11.92,0-17.88a5.4,5.4,0,0,0-2.84-4.88c-4-2.31-8.66.55-8.67,5.32,0,11.78,0,23.57,0,35.35,0,.86.31,1.07,1.11,1.06q4.69-.06,9.39,0c.84,0,1.06-.26,1.06-1.09C76.39,54.38,76.4,48.42,76.4,42.46ZM42.5,63.92c-2.22,0-4.45,0-6.67,0s-1.92-.39-1.92,1.93c0,1.16,0,1.17,1.21,1.17,4.65,0,9.29,0,13.93,0,2.31,0,2.05.39,2.1-2.12,0-.81-.3-1-1.07-1C47.55,64,45,63.92,42.5,63.92Zm-28,0H7.81c-2,0-2,0-2,2,0,1.1,0,1.1,1.08,1.1,4.62,0,9.24,0,13.85,0,2.58,0,2.15.4,2.22-2.23,0-.69-.23-.9-.91-.89C19.54,63.94,17,63.92,14.49,63.92ZM70.62,67h6.52c2.08,0,2,0,2.09-2.09,0-.89-.31-1-1.09-1-4.67,0-9.35,0-14,0-2.07,0-2.05,0-2.07,2.12,0,.74.22,1,1,1C65.57,67,68.09,67,70.62,67Z"/><path class="cls-2" d="M56.59,17.43a6.85,6.85,0,0,1-6.89-6.74,7.16,7.16,0,0,1,1.71-4.38c1.26-1.68,2.67-3.26,4.07-4.84.66-.74,1.34-.8,2-.22A23.43,23.43,0,0,1,63,8.45a6.55,6.55,0,0,1-2.63,7.9A6.4,6.4,0,0,1,56.59,17.43ZM56.6,4a28,28,0,0,0-3.66,4.64,4.06,4.06,0,0,0,1.36,5.64,4.32,4.32,0,0,0,4.81-.15c1.35-1,2.2-2.79,1.71-4.16A17.18,17.18,0,0,0,56.6,4Z"/></svg>