<svg id="Layer_1" data-name="Layer 1" xmlns="http://www.w3.org/2000/svg" viewBox="0 0 85.04 85.04"><defs><style>.cls-1{fill:#ee992e;}.cls-2{fill:#5a8dee;}</style></defs><title>الايقونات جاهزة2</title><path class="cls-1" d="M85.08,47.1c-.09.47-.19.94-.27,1.42a8.83,8.83,0,0,1-8.1,7.35c-.33,0-.65.06-1.09.09.08.36.13.63.21.89.3.87.61,1.73.92,2.6,1,2.93-.49,5.27-3.48,5.43a5.12,5.12,0,0,1-5.09-2.49c-1.27-2-2.78-3.87-4.16-5.82a1.44,1.44,0,0,0-1.32-.69H22.61a1.45,1.45,0,0,0-1.32.69c-1.44,2-3,4-4.35,6.1-1.67,2.62-4.51,2.53-6.58,1.83a3.53,3.53,0,0,1-2-4.48c.28-1,.66-1.89,1-2.84.12-.35.21-.7.36-1.21-.53,0-1-.09-1.37-.1C4.52,55.76.76,52,.46,48a6,6,0,0,0-.23-.9V33.24a6.59,6.59,0,0,0,.24-.71,4,4,0,0,1,3.77-3.39c2-.08,2-.08,2-2.21a50.77,50.77,0,0,1,.17-5.79,6.29,6.29,0,0,1,5.67-5.5c1.45-.14,2.92-.12,4.38-.16a1.88,1.88,0,0,1,.57.09A1.08,1.08,0,0,1,18,16.72a1,1,0,0,1-1.11,1.05c-1.07,0-2.16-.07-3.22.05a9.15,9.15,0,0,0-3.09.74,4.28,4.28,0,0,0-2.12,4c0,1.9,0,3.81,0,5.71,0,.7.27.93.89.9s1.11,0,1.66,0a3.94,3.94,0,0,1,3.88,3.24c.15.68.46.78,1,.78,6.27,0,12.53,0,18.8,0a8.87,8.87,0,0,1,6.19,2,3.14,3.14,0,0,0,.61.33c0-.43.07-.76.07-1.09V23.29c0-3.69-1.66-5.47-5.22-5.49-4.5,0-9,0-13.5,0a2.63,2.63,0,0,1-1.06-.07c-.37-.19-.84-.57-.88-.91a1.61,1.61,0,0,1,.61-1.14,1.82,1.82,0,0,1,1.11-.2H36.47a6.88,6.88,0,0,1,5.85,2.65,1.45,1.45,0,0,0,.18.17,1.37,1.37,0,0,0,.26.07,15.18,15.18,0,0,1,1-1.12,6.66,6.66,0,0,1,4.72-1.76q11.73,0,23.44,0c4.3,0,7.08,3,7.08,7.46,0,1.74,0,3.47,0,5.2,0,.77.26,1,1,1a6.06,6.06,0,0,1,1.81.09,4,4,0,0,1,3,3.3,6.59,6.59,0,0,0,.24.71ZM42.62,53.59H58.44c6,0,12,0,18,0A6.44,6.44,0,0,0,82.67,47q0-6.75,0-13.51a1.81,1.81,0,0,0-1.77-2.05c-2.18,0-4.37,0-6.55,0a1.8,1.8,0,0,0-1.78,2c0,.63,0,1.27,0,1.9,0,2.89,0,5.78,0,8.66,0,1.23-.45,1.82-1.42,1.84-2.12,0-4.25,0-6.37,0-.83,0-1.39-.55-1.32-1.23.08-.84.64-1.06,1.36-1.05h4.31c1.11,0,1.11,0,1.11-1.13,0-1.88,0-3.75,0-5.63,0-1.25,0-1.25-1.18-1.25q-9.31,0-18.64,0a9.72,9.72,0,0,0-2.29.22c-2.89.76-4.4,3.08-4.4,6.57,0,1.21,0,1.22,1.15,1.22H58.72a2.25,2.25,0,0,1,1,.05c.36.19.84.54.87.86A1.57,1.57,0,0,1,60,45.59a2.32,2.32,0,0,1-1.28.21h-44c-1.58,0-2-.42-2-2.12,0-3.38,0-6.76,0-10.13,0-1.36-.68-2.12-2-2.13q-3.1,0-6.21,0A1.84,1.84,0,0,0,2.64,33.5q0,6.89,0,13.78a4.61,4.61,0,0,0,.12,1.11,6.4,6.4,0,0,0,6.46,5.2Zm1.12-18.06a4.9,4.9,0,0,0,.6-.33,9.21,9.21,0,0,1,6.49-2.06c6.19,0,12.37,0,18.55,0,.61,0,.92-.13,1.08-.84a4,4,0,0,1,3.84-3.18c.61,0,1.21,0,1.82,0s.75-.22.75-.78c0-2,0-4,0-6a4.32,4.32,0,0,0-4.09-4.45c-1.79-.12-3.59-.11-5.38-.12q-9.11,0-18.22,0c-3.77,0-5.41,1.72-5.41,5.64V35.53Zm-15.5,8H39.66c2.15,0,2,.26,1.89-2.07a5.75,5.75,0,0,0-5.41-5.86c-2.1,0-4.19-.08-6.29-.08q-6.78,0-13.58,0c-1.2,0-1.2,0-1.2,1.21v5.63c0,1.17,0,1.17,1.16,1.17Zm-9.35,12.4c-2.28,0-4.31,0-6.34,0-.19,0-.47.31-.56.54-.52,1.39-1,2.79-1.49,4.2a1.3,1.3,0,0,0,.48,1.6,3.54,3.54,0,0,0,3.93-.69c1.17-1.6,2.32-3.21,3.48-4.82C18.53,56.57,18.63,56.35,18.89,55.91ZM66.43,56c.27.41.4.65.56.87,1,1.38,2.1,2.69,3,4.15a3.09,3.09,0,0,0,3.47,1.5c1.32-.15,1.73-.82,1.29-2.12s-.89-2.48-1.3-3.73a1,1,0,0,0-1.1-.78c-1.65,0-3.3,0-5,0C67.12,55.89,66.89,55.94,66.43,56Z"/><path class="cls-2" d="M69.36,33.16H50.81a9.51,9.51,0,0,0-6,1.65c-.17.13-.33.26-.5.41a1.1,1.1,0,0,1-.27.16h0a5.56,5.56,0,0,0-1.52,1.54,11.54,11.54,0,0,0-1.66-1.78l-.08-.07q-.27-.23-.54-.42L40,34.48c-.12-.07-.23-.15-.36-.21a9.72,9.72,0,0,0-5-1.12H15.59v2.36a6,6,0,0,1,.66,0c4.53,0,9.06,0,13.58,0,2.09,0,4.19.07,6.29.08a5.75,5.75,0,0,1,5.41,5.86c0,1.34.11,1.82-.23,2H44c-.27-.11-.27-.41-.27-1.14,0-3.5,1.5-5.81,4.38-6.57a8.93,8.93,0,0,1,2.31-.22c6.21,0,12.42,0,18.63,0,.53,0,.83,0,1,.13V33A1.34,1.34,0,0,1,69.36,33.16ZM70,43.43H70v0Z"/></svg>