<svg id="Layer_1" data-name="Layer 1" xmlns="http://www.w3.org/2000/svg" viewBox="0 0 85.04 85.04"><defs><style>.cls-1{fill:#ee992e;}.cls-2{fill:#5a8dee;}</style></defs><title>الايقونات جاهزة2</title><path class="cls-1" d="M85,25.48c-.13.84-.25,1.68-.38,2.51a17.1,17.1,0,0,1-8.61,12.54,3.36,3.36,0,0,0-1.72,2.21c-1.57,5.95-3,11.93-4.84,17.81a52.09,52.09,0,0,1-9.87,18.82,12.8,12.8,0,0,1-6.5,4.54,6,6,0,0,1-4.06-.29A96.75,96.75,0,0,1,30.23,72.54c-4.74-3.67-9-7.8-12-13.05A41.85,41.85,0,0,1,16,54.67,1.67,1.67,0,0,0,15,53.57,20.67,20.67,0,0,1,1.1,39.6a35.54,35.54,0,0,1-.87-4.86C.16,34.36.08,34,0,33.62v-.33c.13-1,.26-2,.41-3a6.93,6.93,0,0,1,.26-1.2,1.51,1.51,0,0,1,1.7-1,1.47,1.47,0,0,1,1.36,1.43,12.05,12.05,0,0,1-.16,1.89,17.69,17.69,0,0,0,13.1,19.26,2.75,2.75,0,0,1,2.25,2.25c1.22,4.44,3.85,8,6.93,11.35A62.69,62.69,0,0,0,41,75.75c3,1.7,6.13,3.19,9.19,4.77a3.17,3.17,0,0,0,2.95-.06A13.42,13.42,0,0,0,58,76.2a50.92,50.92,0,0,0,7.92-15.33c1.3-4,2.27-8.07,3.38-12.11.47-1.71.92-3.41,1.38-5.12.08-.31.14-.62.21-.94a26.49,26.49,0,0,1-4.69.09c-1.63-.25-2.39.43-3.35,1.58a44.54,44.54,0,0,1-4.65,4.34,28.82,28.82,0,0,0-6.69,8.7c-.52,1.05-.8,2.23-1.26,3.32a14.31,14.31,0,0,1-1.1,2,1.64,1.64,0,0,1-2.38.76,1.79,1.79,0,0,1-.43-2.43,29.48,29.48,0,0,0,1.85-4.49,14.35,14.35,0,0,0-6.5-15.44,33.71,33.71,0,0,0-3.94-1.71,4.52,4.52,0,0,0-.83-.11c.44,1.54.85,2.93,1.25,4.33.11.4.24.79.33,1.2a1.59,1.59,0,0,1-1,1.87,1.55,1.55,0,0,1-2-.75,5.9,5.9,0,0,1-.44-1.24c-.94-3.43-1.73-6.91-2.83-10.29C29.62,26.28,24,21.38,15.52,19.75a6.38,6.38,0,0,1-1-.24,1.58,1.58,0,0,1-1.1-1.81A1.4,1.4,0,0,1,15,16.44a32.63,32.63,0,0,1,5.93,1.41,23.88,23.88,0,0,1,14.9,16.84A1.41,1.41,0,0,0,37,35.88,18.4,18.4,0,0,1,46.69,41a17.82,17.82,0,0,1,4.74,8.68c.07.32.16.63.27,1,.19-.11.36-.15.45-.26a43.43,43.43,0,0,1,7-6.78,17.4,17.4,0,0,0,1.69-1.85L60,41.32A17.59,17.59,0,1,1,78.36,11.61a16.75,16.75,0,0,1,6.29,11L85,25.15Zm-3.42-.17a14.32,14.32,0,1,0-28.64,0,14.32,14.32,0,0,0,28.64,0Z"/><path class="cls-2" d="M80,25.31A12.68,12.68,0,1,1,67.45,12.6,12.72,12.72,0,0,1,80,25.31Zm-3.33,0c.21-5.1-4.38-9.3-9.19-9.38a9.4,9.4,0,1,0-.2,18.8A9.27,9.27,0,0,0,76.65,25.27Z"/><path class="cls-2" d="M67.33,29.75a4.41,4.41,0,0,1-4.5-4.41,4.47,4.47,0,0,1,4.49-4.57,4.6,4.6,0,0,1,4.52,4.5A4.54,4.54,0,0,1,67.33,29.75Zm1.17-4.49a1.19,1.19,0,0,0-1.23-1.17,1.27,1.27,0,0,0-1.2,1.22,1.33,1.33,0,0,0,1.25,1.21A1.28,1.28,0,0,0,68.5,25.26Z"/></svg>