<svg id="Layer_1" data-name="Layer 1" xmlns="http://www.w3.org/2000/svg" viewBox="0 0 85.04 85.04"><defs><style>.cls-1{fill:#ee992e;}.cls-2{fill:#5a8dee;}</style></defs><title>الايقونات جاهزة2</title><path class="cls-1" d="M42.66.37A42.15,42.15,0,1,1,.49,42.31,42.23,42.23,0,0,1,42.66.37ZM18.61,44c.43,3.55.73,6.8,1.25,10,.93,5.79,1,5.78,6.72,6.72.31.05.61.15.92.19L41,62.3V44Zm-.26-3.15H41V22.53c-6.44.83-12.63,1.62-18.8,2.49A1.82,1.82,0,0,0,21,26.17C20.07,31,19.25,35.79,18.35,40.87Zm25.8,0H66.36a27.3,27.3,0,0,0,0-2.73c-.3-2.57-.56-5.14-1-7.68-1-5.33-1-5.32-6.45-6.18-.31,0-.61-.15-.92-.18L44.15,22.72Zm22.78,3.27H44.25V62.51c6.44-.83,12.63-1.62,18.8-2.49a1.82,1.82,0,0,0,1.23-1.14C65.2,54.07,66,49.25,66.93,44.17ZM41.06,19.82V3.5C33.43,4,23.74,13.76,22.71,21.82Zm0,61.84V65.05c-3.24-.24-6.28-.39-9.3-.72s-6.12-.84-9.27-1.28C25.32,72.81,33,80.51,41,81.66Zm3.16,0c7.94-.88,16.45-9.47,18.52-18.42l-18.52,2ZM62.7,21.83C60.6,12.69,51.2,3.38,44.21,3.62V19.81ZM17.83,25.75c-3.59.63-7,1.2-10.35,1.84A2.18,2.18,0,0,0,6,28.44,33.46,33.46,0,0,0,3.45,41h12.2C16.38,35.87,17.08,31,17.83,25.75ZM69.62,40.91h12.8c-1.07-4.31-2-8.3-3.08-12.27a1.62,1.62,0,0,0-1.1-.95c-3.57-.69-7.15-1.29-10.79-1.92ZM2.86,44.09c1,4.28,1.94,8.14,2.91,12,.12.47.53,1.14.91,1.21,3.71.72,7.44,1.34,11.15,2L15.66,44.09Zm66.76,0c-.73,5.12-1.43,10.08-2.16,15.21,3.64-.64,7.1-1.23,10.54-1.88a1.86,1.86,0,0,0,1.24-.79,33.75,33.75,0,0,0,2.59-12.54ZM29.35,5.76C19.84,9.15,12.76,15.28,7.7,24.6,11.59,24,15,23.4,18.33,22.78a1.5,1.5,0,0,0,1-.87A43.05,43.05,0,0,1,29.35,5.76Zm26.57,0a43.09,43.09,0,0,1,10,16A1.82,1.82,0,0,0,67,22.79c3.35.63,6.73,1.16,10.59,1.8C72.51,15.27,65.42,9.13,55.92,5.75ZM29.37,79.28a42.66,42.66,0,0,1-10-16c-.13-.39-.52-.9-.87-1-3.42-.65-6.85-1.21-10.8-1.89C12.81,69.76,19.84,76,29.37,79.28ZM77.6,60.42C74,61,71,61.65,68,62c-1.41.18-1.9.91-2.46,2.06-1.63,3.36-3.31,6.71-5.26,9.89-1.17,1.92-2.87,3.5-4.73,5.7A40.41,40.41,0,0,0,77.6,60.42Z"/><path class="cls-2" d="M41,44V40.81H18.35c.9-5.07,1.73-9.9,2.66-14.7A1.83,1.83,0,0,1,22.23,25c6.06-.87,12.14-1.64,18.46-2.46v-2.7l-18,2c1-7.93,10.4-17.55,18-18.28V.37a42.16,42.16,0,0,0,0,84.22H41v-3l-.31,0C32.76,80.24,25.28,72.62,22.46,63c3.15.44,6.19.95,9.26,1.29,2.91.31,5.86.47,9,.7L41,65V62.24l-.31,0L27.51,60.89c-.32,0-.62-.14-.93-.18-5.73-1-5.78-.94-6.72-6.72-.51-3.23-.82-6.47-1.24-10ZM29.35,5.7a43.17,43.17,0,0,0-10,16.16,1.53,1.53,0,0,1-1,.87c-3.37.62-6.75,1.16-10.64,1.82C12.76,15.23,19.85,9.09,29.35,5.7ZM6,28.39c.17-.43.92-.75,1.46-.86,3.37-.63,6.75-1.21,10.34-1.83-.75,5.2-1.45,10.12-2.17,15.19H3.45A33.46,33.46,0,0,1,6,28.39ZM5.78,56c-1-3.84-1.88-7.7-2.91-12h12.8c.71,5,1.41,9.92,2.16,15.18-3.7-.64-7.44-1.26-11.15-2C6.31,57.15,5.89,56.48,5.78,56Zm13.58,7.21a42.64,42.64,0,0,0,10,16C19.85,75.89,12.81,69.7,7.68,60.37c4,.68,7.39,1.25,10.8,1.89C18.83,62.33,19.22,62.84,19.36,63.22Z"/><path class="cls-2" d="M41,62.24V65l-.31,0V62.21Z"/><path class="cls-2" d="M40.69,81.55l.31,0v3h-.31Z"/><rect class="cls-2" x="40.69" y="40.81" width="0.31" height="3.16"/></svg>