<svg id="Layer_1" data-name="Layer 1" xmlns="http://www.w3.org/2000/svg" viewBox="0 0 85.04 81.43"><defs><style>.cls-1{fill:#5a8dee;}.cls-2{fill:#ee992e;}</style></defs><title>الايقونات جاهزة2</title><path class="cls-1" d="M80.22,41.44c-.77-11-1.55-22.08-2.28-33.13-.1-1.48-.68-2.14-2.19-2.08-2.22.07-4.44.13-6.65,0-2-.12-2.57.82-2.69,2.65C65.65,20.93,64.76,33,64,45.06c0,.2,0,.37,0,.54h2.82c.83-12.15,1.66-24.2,2.5-36.44h5.85C76,21.32,76.81,33.38,77.65,45.6h2.91C80.44,44.22,80.32,42.83,80.22,41.44Z"/><path class="cls-1" d="M66.8,2.7c-4.83,3-4.83,3-8.93,0-.42.33-.87.68-1.3,1.06-2.32,2-3.59,2-5.9.07a20.85,20.85,0,0,1-2-1.39A2,2,0,0,1,48.14.79,1.89,1.89,0,0,1,49.75.13a5.08,5.08,0,0,1,2,1,23.26,23.26,0,0,1,1.93,1.7c2.8-3.85,5.72-3.48,8.45-.06.55-.43.92-.68,1.25-1C66.13-.71,67.42-.67,70,2c.25.26.66.4.84.69.4.65.7,1.35,1,2-.81.11-1.78.56-2.39.26A13.75,13.75,0,0,1,66.8,2.7Z"/><path class="cls-2" d="M83,46H60.89a5.11,5.11,0,0,1-1.43-.34c0-2.47.07-4.9,0-7.34,0-.69-.36-1.74-.83-1.94a2.7,2.7,0,0,0-2.07.62c-1.49,1-2.87,2.23-4.29,3.37C50.11,42,48,43.73,45.38,45.82c0-3,.06-5.4,0-7.76-.08-2.05-1.09-2.49-2.78-1.31-.59.41-1.12.89-1.67,1.33l-9.62,7.68c0-2.73.09-4.84,0-6.94,0-.86-.33-2.11-.91-2.42s-1.76.27-2.43.77C24.4,39.86,21,42.65,17,45.81c0-2.77,0-5,0-7.17,0-2.65-.91-3.14-3.2-1.78-4,2.37-8,4.85-12,7.16A3.43,3.43,0,0,0,0,47.48C0,57.77,0,68.05,0,78.34c0,3,.09,3,3.1,3q39.41,0,78.81,0c3,0,3.12-.11,3.12-3q0-13.63,0-27.3C85,46.74,85.3,46.08,83,46ZM56.47,78.43H48.38V61.71h8.09ZM82,78.35H59.47c0-5.41,0-10.77,0-16.13,0-3.55,0-3.55-3.56-3.55-2.54,0-5.08.12-7.6,0-2.35-.15-3,.86-3,3.07.1,4.66,0,9.34,0,14V78.4H3c0-.66-.14-1.34-.14-2,0-9.18,0-18.36,0-27.55a3.06,3.06,0,0,1,1.79-3.17c3.1-1.7,6.08-3.6,9.55-5.68,0,3-.07,5.32,0,7.69,0,.79.3,2,.83,2.22s1.63-.23,2.24-.69c3-2.3,6-4.71,8.94-7.07.58-.47,1.21-.89,2.2-1.61,0,2.33-.1,4.21,0,6.06A23,23,0,0,0,29.26,50a18.4,18.4,0,0,0,3.23-1.62c3.2-2.43,6.3-5,10-7.95,0,2.7-.1,4.78,0,6.84A11.28,11.28,0,0,0,43.43,50a10.45,10.45,0,0,0,2.49-1c3.44-2.64,6.8-5.38,10.69-8.48V43.4c0,5.82-.47,5.48,5.57,5.47H82Z"/><path class="cls-1" d="M17.06,64.15c.08-2-.72-2.67-2.65-2.65-6.94.07-5.77-.54-5.86,5.72.09,6.51-.93,5.55,5.62,5.62.24,0,.48,0,.71,0,1.52.12,2.17-.61,2.16-2.09C17,68.56,17,66.34,17.06,64.15Zm-3,5.74H11.45V64.52H14Z"/><path class="cls-1" d="M28.44,64.1c.06-1.93-.81-2.63-2.72-2.6-6.74.09-5.78-.66-5.86,5.75.08,6.49-.78,5.51,5.69,5.59.23,0,.47,0,.71,0,1.55.13,2.14-.74,2.16-2.12C28.44,68.51,28.38,66.31,28.44,64.1Zm-3,5.84H22.86V64.56H25.4Z"/><path class="cls-1" d="M39.86,64.17c.06-1.94-.82-2.64-2.72-2.61-6.74.1-5.78-.66-5.86,5.75.08,6.49-.79,5.51,5.68,5.6.24,0,.48,0,.71,0,1.56.13,2.15-.74,2.17-2.13C39.86,68.58,39.8,66.37,39.86,64.17Zm-3,5.84H34.27V64.62h2.55Z"/></svg>