<svg id="Layer_1" data-name="Layer 1" xmlns="http://www.w3.org/2000/svg" viewBox="0 0 85.04 73.37"><defs><style>.cls-1{fill:#ee992e;}.cls-2{fill:#5a8dee;}</style></defs><title>الايقونات جاهزة2</title><path class="cls-1" d="M84.76,51.66a2.53,2.53,0,0,0-.22.51,4.46,4.46,0,0,1-4.39,3.91c-2.05.14-2,.14-2.07,2.23-.09,4-.21,7.91-.33,11.87A3,3,0,0,1,75.39,73a13,13,0,0,1-3.84.08c-1.74-.26-2.69-1.64-2.72-3.51q-.09-6.1-.19-12.2c0-1.23,0-1.26-1.25-1.26H17.65c-1.2,0-1.23,0-1.25,1.26q-.11,6.09-.19,12.2a3.41,3.41,0,0,1-3.7,3.62A15.11,15.11,0,0,1,9.73,73a3.09,3.09,0,0,1-2.45-3.1c-.07-3.05-.12-6.1-.19-9.15,0-1.32-.11-2.63-.13-4,0-.5-.2-.7-.67-.71s-1,0-1.56-.06A4.46,4.46,0,0,1,.5,52.25a3,3,0,0,0-.22-.59V48a3.73,3.73,0,0,0,.22-.61,4.39,4.39,0,0,1,2.73-3.55A1,1,0,0,0,4,42.75c0-.25,0-.5,0-.75,0-8.16.06-16.33,0-24.49A4.59,4.59,0,0,1,8.83,12.6c3.3.21,6.63-.29,10.13.36,0-.73,0-1.43,0-2.12a4.3,4.3,0,0,1,4.63-4.47c3.39.07,6.8-.32,10.27.32,0-.57,0-1.11,0-1.66C33.94,2.08,35.69.14,38.4.1s5.5,0,8.24,0a4.31,4.31,0,0,1,4.4,4c.11.88.16,1.76.22,2.52,1.33-.08,2.58-.2,3.83-.22,2.15,0,4.29,0,6.44,0a4.57,4.57,0,0,1,1,.07,4.28,4.28,0,0,1,3.56,4.24c0,.75,0,1.51,0,2.32a13.85,13.85,0,0,1,2.14-.35c2.89,0,5.78,0,8.66,0a4.16,4.16,0,0,1,2.77,1.1,4.81,4.81,0,0,1,1.46,4c0,8.28,0,16.55,0,24.83A1.32,1.32,0,0,0,82,44a4.27,4.27,0,0,1,2.59,3.47,3.73,3.73,0,0,0,.22.61ZM42.51,53.88H79.88a2.28,2.28,0,0,0,2.49-2.51c0-1.12,0-2.25,0-3.38a2.17,2.17,0,0,0-1.67-2.17,6.19,6.19,0,0,0-1.55-.16H5.9c-.3,0-.6,0-.9,0a2.39,2.39,0,0,0-2.33,2.56c0,1,.07,1.93,0,2.89A2.49,2.49,0,0,0,5.4,53.91C17.77,53.86,30.14,53.88,42.51,53.88Zm-36.37-24c0,4.21,0,8.41,0,12.61,0,.78.19,1,1,1,3.49,0,7,0,10.46,0,1.36,0,1.36,0,1.36-1.35V18c0-.3,0-.61,0-.91a2.31,2.31,0,0,0-2.58-2.28H8.68a2.27,2.27,0,0,0-2.54,2.54Zm72.76,0V17.35a2.29,2.29,0,0,0-2.59-2.56H68.89c-1.88,0-2.79.86-2.79,2.76,0,8.33,0,16.65,0,25,0,.74.25,1,1,1q5.4-.06,10.8,0c.77,0,1-.2,1-1C78.88,38.29,78.9,34.08,78.9,29.88ZM48.81,32.22a4.23,4.23,0,0,0,.06-.49c0-4.78,0-9.56,0-14.34,0-.74-.4-.77-.94-.77-3.59,0-7.19,0-10.79,0-.72,0-1,.18-1,1,0,4.58,0,9.17,0,13.75,0,.29,0,.58,0,.88Zm-15-.39c-.2,0-.36,0-.52,0-3.82,0-7.64,0-11.45,0-.58,0-.68.24-.68.74,0,3.38,0,6.76,0,10.14,0,.64.19.86.84.85,3.68,0,7.37,0,11.05,0,.65,0,.84-.19.84-.84,0-3.36,0-6.71,0-10.06C33.85,32.35,33.82,32.11,33.8,31.83Zm17.39,0c0,3.75,0,7.4,0,11.06,0,.65.41.59.83.59,3.68,0,7.36,0,11,0,.64,0,.85-.19.85-.84,0-3.35,0-6.71,0-10.06,0-.65-.2-.83-.84-.83-3.68,0-7.37,0-11.05,0C51.77,31.78,51.53,31.81,51.19,31.83ZM27.43,18.22c1.85,0,3.69,0,5.53,0,.66,0,.92-.18.91-.89,0-2.17,0-4.34,0-6.51a2.11,2.11,0,0,0-2.1-2.28q-4.24-.09-8.49,0a2.14,2.14,0,0,0-2.1,2.29c0,2.18,0,4.35,0,6.52,0,.64.21.88.85.87C23.81,18.2,25.62,18.22,27.43,18.22Zm30.1,0c1.82,0,3.63,0,5.45,0,.64,0,.93-.16.92-.88,0-2.17,0-4.34,0-6.51a2.17,2.17,0,0,0-2.19-2.3c-2.78,0-5.56,0-8.33,0a2.14,2.14,0,0,0-2.17,2.3c0,2.14,0,4.29,0,6.43,0,.8.29,1,1,1C54,18.2,55.75,18.22,57.53,18.22ZM33.73,29.46a1.7,1.7,0,0,0,.11-.33c0-2.72,0-5.44,0-8.16,0-.51-.27-.58-.68-.58H21.81c-.5,0-.66.2-.66.69,0,2.58,0,5.16,0,7.74,0,.52.21.66.68.65,1,0,1.93,0,2.89,0Zm17.46-.19c.13.11.15.14.17.14,4,0,8,0,12,0,.17,0,.47-.35.47-.55q0-3.94,0-7.91a.83.83,0,0,0-.57-.55c-3.84,0-7.69,0-11.53,0a.78.78,0,0,0-.55.49C51.18,23.71,51.19,26.51,51.19,29.27ZM42.5,8.15c1.85,0,3.69,0,5.53,0,.63,0,.89-.2.85-.86-.05-.85,0-1.7,0-2.56A2.16,2.16,0,0,0,46.66,2.3q-4.12-.1-8.25,0A2.18,2.18,0,0,0,36.17,4.7c0,.86,0,1.71,0,2.56s.24.91.9.9C38.88,8.13,40.69,8.15,42.5,8.15ZM14,59.56h.2c0-.88,0-1.76,0-2.64,0-.55-.17-.82-.74-.81H10c-.58,0-.85.24-.81.85.06,1,.11,2.08.13,3.12.07,3.18.11,6.36.17,9.55A1.21,1.21,0,0,0,10.74,71c.49,0,1,0,1.48,0,1.39,0,1.78-.35,1.79-1.74C14,66,14,62.79,14,59.56Zm59.36-3.44h0c-.5,0-1,0-1.49,0-.77-.05-1.11.17-1.09,1,.12,4,.15,8.07.22,12.1a2,2,0,0,0,0,.25c.08,1.14.45,1.49,1.61,1.51.52,0,1,0,1.57,0,1,0,1.37-.45,1.39-1.44s0-2.25.07-3.37q.1-4.69.23-9.38c0-.51-.27-.69-.71-.69ZM42.43,14.44c1.9,0,3.79,0,5.68,0,.56,0,.8-.16.77-.74,0-.91,0-1.82,0-2.72,0-.5-.18-.67-.67-.67-3.79,0-7.58,0-11.37,0-.57,0-.69.24-.68.74,0,.88,0,1.76,0,2.64,0,.58.19.76.76.75C38.76,14.42,40.59,14.44,42.43,14.44ZM36.17,34.62c0,1.14,0,2.18,0,3.22,0,.64.18.88.83.86,1.27,0,2.53,0,3.8,0,2.42,0,4.84,0,7.26,0,.27,0,.77-.26.77-.43.07-1.19,0-2.39,0-3.62Zm6.3,8.86c1.6,0,3.19,0,4.78,0,1.88,0,1.56.24,1.63-1.61,0-.78-.19-1-1-1-3.29,0-6.59,0-9.88,0-2.14,0-1.78-.31-1.84,1.83,0,.6.18.81.79.8C38.79,43.46,40.63,43.48,42.47,43.48Z"/><path class="cls-2" d="M16.7,24.53a6.77,6.77,0,0,1-1.39,3.87,3.42,3.42,0,0,1-5.48.13,6.51,6.51,0,0,1-.06-7.94c1.92-2.23,5-1.67,6.22,1.18A19.25,19.25,0,0,1,16.7,24.53Zm-2.31,0a3.77,3.77,0,0,0-1.06-2.75,1.08,1.08,0,0,0-1.61,0,4.14,4.14,0,0,0,0,5.52,1.08,1.08,0,0,0,1.67,0A3.72,3.72,0,0,0,14.39,24.54Z"/><path class="cls-2" d="M76.62,24.53A6.06,6.06,0,0,1,75,28.77a3.36,3.36,0,0,1-5-.07,6.48,6.48,0,0,1-.21-8.12,3.45,3.45,0,0,1,5.69.28A6.48,6.48,0,0,1,76.62,24.53Zm-6,0a3.77,3.77,0,0,0,1,2.68,1.12,1.12,0,0,0,1.79,0,4.18,4.18,0,0,0,0-5.35,1.12,1.12,0,0,0-1.79,0A3.83,3.83,0,0,0,70.65,24.52Z"/><path class="cls-2" d="M36.17,9.5a3.17,3.17,0,0,0-2.32-3.07h0a22.62,22.62,0,0,0-4.27-.13H27.85c-1.43,0-2.84.07-4.27,0A4.29,4.29,0,0,0,19,10.81c0,.29,0,.6,0,.9s0,.81,0,1.23h0V43.37a.1.1,0,0,0,.1.1H22c-.65,0-.85-.21-.84-.86,0-3.38,0-6.75,0-10.14,0-.49.11-.74.68-.74,3.82,0,7.64,0,11.46,0,.16,0,.31,0,.51.05a7.25,7.25,0,0,1,.05.77c0,3.35,0,6.7,0,10,0,.65-.19.85-.84.85h3a.1.1,0,0,0,.1-.1V43a1.37,1.37,0,0,1,0-.3c0-.52,0-.89,0-1.16V38.15a1.22,1.22,0,0,1,0-.34c0-.27,0-.54,0-.81V35.61c0-.33,0-.66,0-1h0V24.44c0-2.3,0-4.59,0-6.88a1.58,1.58,0,0,1,0-.32V14a1,1,0,0,1,0-.3c0-.14,0-.29,0-.44V11.36c0-.11,0-.21,0-.33a1.85,1.85,0,0,1,0-.24ZM33.83,29.1a2.32,2.32,0,0,1-.1.33H21.83c-.48,0-.69-.12-.69-.64,0-2.58,0-5.16,0-7.74,0-.49.15-.69.66-.69,3.79,0,7.57,0,11.37,0,.4,0,.67.07.67.59C33.83,23.66,33.84,26.38,33.83,29.1ZM33,18.2c-1.84,0-3.68,0-5.52,0s-3.63,0-5.44,0c-.65,0-.86-.22-.85-.86,0-2.18,0-4.35,0-6.52a2.13,2.13,0,0,1,2.11-2.29q4.23-.09,8.49,0a2.11,2.11,0,0,1,2.09,2.28c0,2.17,0,4.35,0,6.52C33.88,18,33.62,18.21,33,18.2Z"/></svg>