<svg id="Layer_1" data-name="Layer 1" xmlns="http://www.w3.org/2000/svg" viewBox="0 0 85.04 74.99"><defs><style>.cls-1{fill:#ee992e;}.cls-2{fill:#5a8dee;}</style></defs><title>الايقونات جاهزة2</title><path class="cls-1" d="M84.93,29.61c-.13.72-.23,1.45-.4,2.16a11.59,11.59,0,0,1-9.28,9.15c-.67.15-.84.4-.84,1,0,4.17,0,8.34,0,12.5,0,3.53-3,5.39-6.17,3.84-2.49-1.23-5-2.56-7.48-3.72a91.69,91.69,0,0,0-23.23-7.15c-2.06-.35-4.13-.64-6.2-.94a7.74,7.74,0,0,0-.84,0c.15.5.25.91.39,1.31l7.59,20.92c.91,2.52-.06,4.84-2.39,5.58a6.5,6.5,0,0,1-1.86.28c-2.76,0-5.52,0-8.29,0a4.29,4.29,0,0,1-4.61-3.24q-4.51-12.44-9-24.88a2.28,2.28,0,0,0-1-1.29,5.94,5.94,0,0,1-2.9-4c-.14-.64-.44-.77-1-.76a20.57,20.57,0,0,1-2.72-.15A5,5,0,0,1,.34,35.93a3.49,3.49,0,0,0-.23-.69V23.48a3.69,3.69,0,0,0,.23-.6,4.83,4.83,0,0,1,3.75-4.25,12.18,12.18,0,0,1,3.2-.2,1,1,0,0,0,1.13-.88A5.8,5.8,0,0,1,13.1,13a20.27,20.27,0,0,1,4.2-.18A103.33,103.33,0,0,0,40,11a96.06,96.06,0,0,0,19.35-6.1c3-1.31,5.84-2.74,8.68-4.26a4.2,4.2,0,0,1,6.45,3.9c-.16,4.08,0,8.16-.06,12.25,0,.72.23,1,.93,1.16a11.6,11.6,0,0,1,9.21,9.18c.14.72.26,1.45.39,2.17Zm-14.4,25.5V3.76c-.4.16-.7.27-1,.41-3,1.44-5.89,3-8.93,4.32a100.43,100.43,0,0,1-30,7.75c-.85.09-1.05.37-1.05,1.16q0,12,0,24c0,.83.32,1.11,1.08,1.18A93.78,93.78,0,0,1,44.83,45a101.71,101.71,0,0,1,24.51,9.54C69.67,54.73,70,54.87,70.53,55.11ZM25.7,29.43c0-4,0-8,0-12,0-.66-.21-.84-.85-.84-3.31,0-6.62.08-9.93,0a2.69,2.69,0,0,0-3,3c0,2.37,0,4.74,0,7.12,0,4.13,0,8.27,0,12.41,0,2.18.95,3.14,3.11,3.14,3.23,0,6.46,0,9.68,0,.72,0,.95-.2.95-.94C25.68,37.37,25.7,33.4,25.7,29.43ZM16.35,46.15c.12.43.18.75.29,1.05,2.74,7.56,5.5,15.12,8.22,22.68a1.13,1.13,0,0,0,1.26.88c2.62,0,5.24,0,7.86,0,1.06,0,1.14-.11.78-1.09Q30.64,58.25,26.5,46.82a1,1,0,0,0-1.1-.74c-2.73,0-5.46,0-8.19,0C17,46.09,16.73,46.12,16.35,46.15ZM74.52,21.8V37.06c3.93-.38,6.7-4.29,6.34-8.8C80.61,25.18,77.18,21.67,74.52,21.8ZM8.14,29.47c0-2.13,0-4.25,0-6.38,0-.62-.14-.93-.82-.86-.52.05-1,0-1.57,0-1.12,0-1.69.46-1.7,1.57Q4,29.39,4.06,35c0,1.1.58,1.59,1.68,1.63.52,0,1,0,1.57,0s.86-.22.84-.87C8.12,33.66,8.14,31.57,8.14,29.47Z"/><path class="cls-2" d="M84.54,27.14A11.61,11.61,0,0,0,75.33,18a1,1,0,0,1-.81-.49v4.37c2.67-.13,6.1,3.39,6.34,6.47.36,4.5-2.4,8.41-6.34,8.81V41.4c.12-.23.33-.35.74-.45a11.54,11.54,0,0,0,9.27-9.14c.17-.71.27-1.45.4-2.17v-.32C84.81,28.58,84.68,27.86,84.54,27.14Z"/></svg>