<svg id="Layer_1" data-name="Layer 1" xmlns="http://www.w3.org/2000/svg" viewBox="0 0 85.04 82.87"><defs><style>.cls-1{fill:#5a8dee;}.cls-2{fill:#ee992e;}</style></defs><title>الايقونات جاهزة2</title><path class="cls-1" d="M37.68,29.37c-4.16-4.16-8.11-8.13-12.08-12.09-.2-.2-.52-.49-.73-.45-3.14.5-4.37-2.12-6.19-3.76C17.74,12.23,17,11.19,16,10.4,14.23,9,14.12,7.78,15.86,6.23S19.38,2.77,21.09,1c1.14-1.19,2.2-1.4,3.43-.11,1.91,2,3.91,3.92,5.83,5.91.4.41.94,1,.89,1.49C31,10.61,32.61,11.76,34,13.11L43.9,23c.51-.46,1-.88,1.48-1.34a9.38,9.38,0,0,1,10.56-2.17,9.27,9.27,0,0,1,6.21,8.56c.28,3.91,2,5.43,5.93,5.35,6.37-.13,11.68,1.73,14.84,7.69a14.12,14.12,0,0,1-2.26,16.63q-3.94,4.14-8.08,8.11c-4.35,4.14-9.5,5.42-15.11,3.25s-8.76-6.54-9.27-12.64c-.1-1.11,0-2.24-.06-3.37-.07-3.35-1.67-5.08-5-5.41-5.69-.57-9.58-4.32-9.78-9.55C33.24,34.6,35,31.86,37.68,29.37ZM46,25.23c4.49,4.45,9,8.86,13.41,13.31a6.37,6.37,0,0,0,4.15,2.23c3.28.3,5.82,3.68,5.72,7a7,7,0,0,1-6,6.76c-3.67.38-7.3-1.67-7.63-5-.26-2.6-1.72-4-3.27-5.56l-11-11c-.51-.5-1.06-1-1.93-1.75-1.07,1.69-2.36,3.06-2.88,4.68-1.39,4.35,1.65,8.3,6.58,8.92,5.37.67,7.79,3.38,7.87,8.75a30,30,0,0,0,.25,4c1.29,8.5,11.42,12.75,18.11,7.34a70.5,70.5,0,0,0,10.1-10.19c4.31-5.28,2.73-12.91-3-16.66-2.73-1.79-5.8-1.72-8.87-1.79-4.9-.12-7.73-2.74-8.18-7.46-.33-3.63-2.15-6.26-5-7C50.92,21,48.24,22.34,46,25.23ZM28,14.91,56.29,43.37,58,41.67,29.59,13.46ZM17.87,8.53a62.56,62.56,0,0,0,4.65,4.36c.72.55,2.39,1,2.78.62,1.29-1.26,3.53-2,3.05-4.53A1.36,1.36,0,0,0,28,8.43L23.24,3.25ZM62.12,51.81a4.16,4.16,0,0,0,4.3-4,4.37,4.37,0,0,0-4.13-4.45A4.23,4.23,0,0,0,58,47.67,4.09,4.09,0,0,0,62.12,51.81Z"/><path class="cls-2" d="M5.93,77A5.75,5.75,0,0,1,.39,71.61q0-13.36,0-26.74c0-4.26,1-5.4,5.54-5.78,0-3.25.08-6.53,0-9.81-.06-2,.67-2.78,2.74-2.75,7.93.08,15.86,0,24,0v2.72H9V79.69H42.45V50.6h2.79c0,.63.12,1.28.12,1.92q0,13.6,0,27.19c0,2.81-.25,3.06-3.09,3.06q-16.29,0-32.58,0c-3.74,0-3.75,0-3.76-3.74ZM3.19,54.71c0,5.75,0,11.41.05,17.06,0,.62.8,1.23,1.26,1.88,1.52-1.51,2.13-15,1.07-18.94Zm3.09-8.64c-.41-1.52-.67-2.68-1.09-3.78a2,2,0,0,0-1.33.07c-.37,1.17-.58,2.4-.87,3.71Zm-3,5.77L6,51.71,5.81,49l-2.55.13Z"/><path class="cls-1" d="M32.66,54.52V49.25H24.3c0,2.24,0,4.6,0,7a20.9,20.9,0,0,1-.14,3.36,4.16,4.16,0,0,1-4.31,3.48,4.24,4.24,0,0,1-4-4.07,4.15,4.15,0,0,1,3.53-4.27,20.88,20.88,0,0,1,2.16-.16c0-1.88.14-3.75,0-5.6-.22-2.28.8-2.87,2.87-2.79,2.84.12,5.69.1,8.53,0,1.9-.06,2.75.63,2.69,2.6-.1,3.07,0,6.14,0,9.21s-1.65,5-4.2,5.08a4.28,4.28,0,0,1-4.28-4.29c0-2.54,1.94-4.07,5.09-4.12A2.59,2.59,0,0,0,32.66,54.52ZM20,57c-.6.84-1.31,1.43-1.21,1.78.16.56.87,1,1.35,1.42.38-.47,1-.93,1.08-1.42S20.61,57.83,20,57Zm11.24,0c-.6.84-1.31,1.43-1.21,1.78.16.56.87,1,1.35,1.42.38-.47,1-.93,1.08-1.42S31.85,57.83,31.25,57Z"/><path class="cls-1" d="M75.47,54.72c-.06,2.05-4.19,6.08-6.22,6.09-2.43,0-4.3-2.67-3-4.71a15.58,15.58,0,0,1,4.35-4.4C72.69,50.31,75.55,52.24,75.47,54.72Zm-2.79-.1L72,54l-3.3,3.52.73.66Z"/></svg>