<svg id="Layer_1" data-name="Layer 1" xmlns="http://www.w3.org/2000/svg" viewBox="0 0 85.04 85.04"><defs><style>.cls-1{fill:#ee992e;}.cls-2{fill:#5a8dee;}</style></defs><title>الايقونات جاهزة2</title><path class="cls-1" d="M84.33,61.94c-.54,1.38-1.64,1.58-3,1.58q-21.72,0-43.43,0a3.16,3.16,0,0,1-1.45-.2c-.44-.23-1-.69-1-1.11-.3-2.67-.08-5.27,2.16-7.14a18.14,18.14,0,0,1,2.83-1.6l.5-.26c-3-4.27-2.81-8.39.76-12.56h-2a4.26,4.26,0,0,1-4.16-3.22A4.07,4.07,0,0,1,39,32.25c3.13-.16,6.29-.12,9.43,0a4.77,4.77,0,0,1,4.1,4.22c.13,1.67.12,3.34.17,5,0,.32,0,.65,0,1,.3,0,.54.07.77.07,2.47,0,4.94,0,7.41,0,.65,0,.87-.2.86-.84q0-2.72,0-5.43a4.21,4.21,0,0,1,8.42,0c0,1.17,0,2.35,0,3.53,0,.29,0,.58.06,1,.39-.19.65-.31.9-.45a8.59,8.59,0,0,1,13,6.47,3.43,3.43,0,0,0,.21.69V48a2.29,2.29,0,0,0-.2.53,8.14,8.14,0,0,1-2.45,5.31c-.41.41-.41.66,0,1.05a6.5,6.5,0,0,1,2.39,4.52,2.94,2.94,0,0,0,.21.61ZM59.75,60.21H80c1,0,1.07-.1.82-1a3.58,3.58,0,0,0-3.72-2.73H47.63c-1.81,0-3.62,0-5.43,0a3.66,3.66,0,0,0-3.49,2.63c-.27,1-.17,1.14.88,1.14Zm-7.09-7.09h9.66a2,2,0,0,0,.48-.1,5.46,5.46,0,0,0,4.14-5.62c0-3.48,0-7,0-10.44a1.34,1.34,0,0,0-.13-.79,1.36,1.36,0,0,0-.87-.58,1.46,1.46,0,0,0-1,.59,1.7,1.7,0,0,0-.13.95c0,2.3,0,4.6,0,6.9A1.69,1.69,0,0,1,63,45.9H53.43c-.33,0-.77-.09-.77.47Zm22.86,0a5.35,5.35,0,1,0-5.36-5.38A5.27,5.27,0,0,0,75.52,53.13ZM49.35,49.54c0-1,0-2,0-2.95,0-.48-.17-.7-.67-.69-1.94,0-3.89,0-5.83,0a.94.94,0,0,0-.68.58,6.21,6.21,0,0,0,.07,2.11,5.76,5.76,0,0,0,6.57,4.48.8.8,0,0,0,.51-.6C49.38,51.52,49.35,50.53,49.35,49.54Zm-4.79-7.32.21.37c1.39,0,2.77,0,4.16,0,.15,0,.4-.4.4-.62,0-1.53.05-3.07,0-4.6a1.88,1.88,0,0,0-1.91-2c-2.58,0-5.16,0-7.73,0a1.45,1.45,0,0,0-1,.64c-.37.62.15,1.28,1,1.29,1.86,0,3.73,0,5.59,0a1.85,1.85,0,0,1,1.91,1,1.76,1.76,0,0,1-.63,2.12C45.86,41.05,45.21,41.64,44.56,42.22Z"/><path class="cls-1" d="M14.06,84.65c-1.35-.43-1.57-1.52-1.76-2.74-.54-3.52-1.2-7-1.73-10.53-.13-.8-.48-1-1.19-.95-1.84,0-3.68,0-5.52,0-1.44,0-2.07-.81-1.79-2.23C3,63.35,4,58.49,5,53.64c.11-.53,0-.73-.54-.84A5,5,0,0,1,.35,46.85q1.8-10,3.59-20A6.6,6.6,0,0,1,9.7,21.71c4.88-.13,9.76-.21,14.63-.14,3.54.05,6.19,2.07,6.9,5,.41,1.73.67,3.49,1,5.24q1.36,7.63,2.7,15.27a4.93,4.93,0,0,1-3.86,5.64c-.76.15-.88.44-.75,1.08,1,4.72,1.88,9.44,2.86,14.15.31,1.5-.31,2.55-2,2.47-1.83-.09-3.67,0-5.51,0a.84.84,0,0,0-1,.83c-.6,3.75-1.24,7.5-1.81,11.26a2.49,2.49,0,0,1-1.74,2.13Zm3.56-59.82H11.45a6.75,6.75,0,0,0-1.56.08c-1.93.44-2.68,1.83-3,3.66C5.82,34.83,4.68,41.07,3.56,47.31a1.81,1.81,0,0,0,1.79,2.35c.49,0,1,0,1.48,0a1.68,1.68,0,0,1,1.79,2.21c-1,4.86-1.92,9.71-2.91,14.57-.14.67.09.83.69.82h5c1.28,0,1.79.4,2,1.68.32,1.77.58,3.56.88,5.34.34,2.07.69,4.15,1,6.23.09.54.33.8.93.76a25.63,25.63,0,0,1,2.63,0c.65,0,.91-.19,1-.85.62-3.86,1.28-7.71,1.94-11.57a1.64,1.64,0,0,1,1.91-1.59h5.1c.64,0,.83-.23.68-.85-.2-.83-.34-1.66-.51-2.49-.79-3.92-1.59-7.83-2.36-11.74-.35-1.77.3-2.51,2.11-2.52h.74c1.69,0,2.44-1,2.14-2.6-.54-2.9-1.05-5.81-1.57-8.72-.64-3.52-1.25-7-1.94-10.56a3.49,3.49,0,0,0-3.71-2.95Z"/><path class="cls-2" d="M17.84.39C18.4.51,19,.62,19.5.75a8.61,8.61,0,0,1,6.77,8.34A8.74,8.74,0,0,1,18,17.79,8.74,8.74,0,0,1,9.1,10.55,8.62,8.62,0,0,1,16.66.61a5.06,5.06,0,0,0,.85-.22Zm-.22,3.38a5.29,5.29,0,0,0-5.37,5.4,5.18,5.18,0,0,0,5.38,5.37A5.29,5.29,0,0,0,23,9.16,5.45,5.45,0,0,0,17.62,3.77Z"/></svg>