<svg id="Layer_1" data-name="Layer 1" xmlns="http://www.w3.org/2000/svg" viewBox="0 0 85.04 59"><defs><style>.cls-1{fill:#ee992e;}.cls-2{fill:#5a8dee;}</style></defs><title>الايقونات جاهزة2</title><path class="cls-1" d="M0,54.2a2.25,2.25,0,0,0,.22-.51,3.84,3.84,0,0,1,3.92-3.24c1,0,2,0,3,0l0-.27c-.3-.13-.6-.28-.91-.39C4,49,3.25,48,3.23,45.56q-.09-10.5-.16-21A5.47,5.47,0,0,1,7.39,19a11.12,11.12,0,0,1,2.31-.13c1.47,0,2.94,0,4.4,0a5.42,5.42,0,0,1,5,4.25l-7.59-1.68-.1.19A4.5,4.5,0,0,0,12,22c3.5,1.71,7,3.43,10.52,5.1a1.44,1.44,0,0,0,1.13-.05c2.52-1.28,5-2.63,7.5-3.92A6.36,6.36,0,0,1,33,22.41a3.22,3.22,0,0,1,1.89,6c-1.49.84-3,1.62-4.54,2.42-1.81.95-3.63,1.88-5.43,2.85a3.84,3.84,0,0,1-3.73,0c-3.27-1.62-6.55-3.21-9.84-4.81-.3-.15-.63-.27-.94-.4l-.14.19c.24.24.46.5.71.72,2.55,2.28,5.13,4.55,7.66,6.86a1.82,1.82,0,0,1,.48,1.21c0,2.54-.06,5.09-.12,7.63,0,.55.31.69.73.82,2.28.76,4.57,1.5,6.84,2.29a5.1,5.1,0,0,1-1.46,10c-7,0-13.95,0-20.92,0a3.89,3.89,0,0,1-4-3.38A4,4,0,0,0,0,54.36Z"/><path class="cls-1" d="M85,55.86a1.94,1.94,0,0,0-.22.43,2.58,2.58,0,0,1-2.63,2H68.58a3.4,3.4,0,0,1-3.37-2.77,3.29,3.29,0,0,1,2.26-3.71c2.84-1,5.7-1.94,8.58-2.83A2.41,2.41,0,0,0,77.83,47c.62-2.49,1.36-4.95,2-7.43.08-.28.14-.56.21-.84l-.2-.08c-.15.21-.31.41-.45.63-1.18,1.94-2.39,3.86-3.52,5.82a3,3,0,0,1-2.5,1.65c-2.34.18-4.67.39-7,.53A2,2,0,0,1,64,45.44a2.21,2.21,0,0,1,2.23-2.29c1.89-.16,3.79-.32,5.68-.51a1.23,1.23,0,0,0,.82-.42c1.37-2.21,2.7-4.44,4-6.66,0-.07,0-.16-.08-.37l-4,4c-.15-.2-.27-.28-.27-.37-.06-1.51-.31-3.05.32-4.5a2.82,2.82,0,0,1,2.72-1.83,36.83,36.83,0,0,1,4.7,0A3.37,3.37,0,0,1,83,36q0,6.6,0,13.2c0,1.7-.45,3.13-2.38,3.57-.07,0-.13.08-.2.13s0,0-.08.27c2.07-.08,4.18-.13,4.74,2.5Z"/><path class="cls-1" d="M62.79,31.21l-1.93,3.17c-.66,1.09-1.38,2.15-2,3.27a2.94,2.94,0,0,1-2.57,1.67c-2.29.17-4.58.32-6.86.54A2.14,2.14,0,0,1,47,37.92a2.29,2.29,0,0,1,2.39-2.25q2.85-.22,5.69-.51a1,1,0,0,0,.66-.4c1.35-2.19,2.68-4.39,4-6.59,0-.07,0-.16,0-.05l-4,4-.44-.26a33.55,33.55,0,0,1,.23-4.38,2.84,2.84,0,0,1,2.58-2.38,22.15,22.15,0,0,1,5,0,3.21,3.21,0,0,1,2.79,3.3c0,.78,0,1.55,0,2.33,0,.29.06.58.12,1a38.65,38.65,0,0,0,3.82-1.36c.3-.13.32-.89.45-1.31l2,2.29a5.83,5.83,0,0,0-2.15,3.75A12.09,12.09,0,0,0,70,37.56c0,.71-.17,1-.93,1s-1.6,0-2.4,0c-.62,0-.88.22-.83.82,0,.17,0,.33,0,.5.09.71-.13,1.06-.92,1.24a4.37,4.37,0,0,0,.62,8.57,4,4,0,0,1,.42.12,3.44,3.44,0,0,1-2.29,1.07c-4,0-8,0-12,0a3.36,3.36,0,0,1-3.59-3,3.29,3.29,0,0,1,2.46-3.56c2.9-1,5.81-2,8.73-2.91A1.92,1.92,0,0,0,60.78,40q1.13-4.2,2.23-8.4a1.19,1.19,0,0,0,0-.32Z"/><path class="cls-1" d="M15.56,16a7.29,7.29,0,0,1,.1-14.57A7.19,7.19,0,0,1,23,8.72,7.17,7.17,0,0,1,15.56,16Z"/><path class="cls-2" d="M34.87,32c3.31-1.44,5.32-3.67,4.81-7.31-.45-3.26-2.29-4.76-6.41-5.59.39-1.15.73-2.3,1.18-3.41.23-.58.79-.36,1.23-.21L42,17.55a2,2,0,0,0,1,.08c-.17-.23-.33-.47-.52-.68l-3.18-3.61c-.38-.43-.65-.92-.13-1.38s1-.05,1.32.36C42,14,43.56,15.76,45.09,17.46a1.42,1.42,0,0,1,.3,1.53q-2.28,6.92-4.53,13.85c-.24.75-.62.95-1.36.69C38,33,36.52,32.55,34.87,32Z"/><path class="cls-1" d="M76.82,30.56a5.32,5.32,0,0,1-5.33-5.5,5.41,5.41,0,0,1,10.81.13A5.4,5.4,0,0,1,76.82,30.56Z"/><path class="cls-1" d="M65.23,17.74a5.39,5.39,0,1,1-10.78-.08,5.3,5.3,0,0,1,5.4-5.39A5.36,5.36,0,0,1,65.23,17.74Z"/><path class="cls-2" d="M74.52,10.79a5.37,5.37,0,0,1-5.44-5.4,5.42,5.42,0,1,1,10.84.05A5.33,5.33,0,0,1,74.52,10.79Z"/><path class="cls-2" d="M70,22c0-1.94,0-3.68,0-5.42,0-2.21,1-3.54,3.27-3.84a17.61,17.61,0,0,1,4,0c2.09.22,3.23,1.68,3.33,4,.08,1.82.08,1.82-1.63,1.3C75.52,16.88,72.19,18.32,70,22Z"/></svg>