<svg id="Layer_1" data-name="Layer 1" xmlns="http://www.w3.org/2000/svg" viewBox="0 0 85.04 85.04"><defs><style>.cls-1{fill:#ee992e;}.cls-2{fill:#5a8dee;}</style></defs><title>الايقونات جاهزة2</title><path class="cls-1" d="M16.55,71.23c1.27-1.26,2.55-2.57,3.87-3.83A1,1,0,0,0,20.67,66c-.58-1.23-1.09-2.49-1.56-3.76a.91.91,0,0,0-1-.69c-1.61,0-3.23,0-4.84,0-.6,0-.83-.18-.83-.81q0-6,0-11.91c0-.62.21-.83.82-.82,1.56,0,3.12,0,4.67,0a1.11,1.11,0,0,0,1.27-.87,38.05,38.05,0,0,1,1.53-3.68,1,1,0,0,0-.25-1.3c-1.14-1.1-2.25-2.23-3.37-3.35l-.49-.53,9.52-9.52c1.2,1.2,2.47,2.43,3.68,3.73a1.24,1.24,0,0,0,1.71.31A35,35,0,0,1,35,31.41a1,1,0,0,0,.76-1.09c0-1.47-.08-2.94,0-4.41a2,2,0,0,0-1.12-2.05,11.2,11.2,0,0,1-5.1-6.36C28,12.26,29.28,7.7,33,3.81A13.89,13.89,0,0,1,39.61.15v1c0,3.08,0,6.17,0,9.25,0,.69.28.93.86,1.2a4.84,4.84,0,0,0,4.22,0,1,1,0,0,0,.76-1.1c0-3.09,0-6.17,0-9.25v-1c.81.29,1.51.52,2.2.79a13.73,13.73,0,0,1,8.45,14,11.69,11.69,0,0,1-5.79,9.06,1.8,1.8,0,0,0-1,1.85c.07,1.47.05,2.94,0,4.41a1.12,1.12,0,0,0,.86,1.28A38.15,38.15,0,0,1,53.81,33,.91.91,0,0,0,55,32.77c1.29-1.34,2.62-2.64,3.85-3.88l9.5,9.51a3.37,3.37,0,0,1-.33.38c-1.17,1.18-2.34,2.36-3.53,3.53a.84.84,0,0,0-.23,1.09c.59,1.32,1.13,2.65,1.65,4a.9.9,0,0,0,1,.68c1.64,0,3.28,0,4.92,0,.56,0,.79.16.79.75q0,6,0,12c0,.58-.2.78-.78.78-1.66,0-3.33,0-5,0a1.14,1.14,0,0,0-.84.55c-.62,1.33-1.13,2.71-1.72,4.05a.83.83,0,0,0,.23,1.09c1.13,1.11,2.24,2.25,3.37,3.35a4.26,4.26,0,0,0,.7.45l-9.68,9.67c-1-1-2.1-2.15-3.22-3.25-1.42-1.4-.94-1.28-2.7-.49-1,.44-2,.85-3,1.2a.91.91,0,0,0-.72,1c0,1.61,0,3.22,0,4.83,0,.58-.13.86-.78.85q-6,0-12,0c-.61,0-.76-.24-.75-.8,0-1.61,0-3.22,0-4.83A1,1,0,0,0,35,78.21c-1.27-.47-2.53-1-3.76-1.58a1,1,0,0,0-1.31.24c-1.29,1.34-2.61,2.65-3.86,3.91ZM49.28,33.72c0,1.91,0,3.55,0,5.18a1.34,1.34,0,0,0,.85,1.41,16.36,16.36,0,1,1-23.8,12.17,15.55,15.55,0,0,1,8-11.76A2.51,2.51,0,0,0,35.79,38c-.11-1.34,0-2.7,0-4.16a6.55,6.55,0,0,0-1,.27c-1.35.65-2.71,1.29-4,2-.44.23-.7.25-1.06-.13-1-1.09-2.13-2.12-3.17-3.2-.4-.41-.68-.42-1.09,0q-2.45,2.51-5,5c-.47.45-.38.75.05,1.15,1,1,2,2.06,3.08,3a.78.78,0,0,1,.15,1.19A21.43,21.43,0,0,0,21,49.83a.83.83,0,0,1-1,.76c-1.47,0-2.94,0-4.42,0-.54,0-.75.2-.75.72q0,3.51,0,7c0,.55.21.8.79.78,1.45,0,2.89,0,4.34,0a.85.85,0,0,1,1,.79,21.47,21.47,0,0,0,2.77,6.65.83.83,0,0,1-.18,1.26c-1,1-2,2-3.08,3-.4.39-.45.67,0,1.09q2.5,2.44,4.95,5c.45.46.75.39,1.16,0,1-1,2.06-2,3.05-3.08a.79.79,0,0,1,1.2-.15,21.61,21.61,0,0,0,6.73,2.79c.61.13.74.43.73,1,0,1.44,0,2.88,0,4.33,0,.52.14.74.7.73q3.54,0,7.08,0c.54,0,.74-.17.73-.71,0-1.47,0-3,0-4.42a.77.77,0,0,1,.71-.91,21.64,21.64,0,0,0,6.74-2.78.79.79,0,0,1,1.2.12c1,1.07,2.09,2.08,3.11,3.14.4.41.69.42,1.1,0q2.45-2.49,4.95-4.95c.4-.4.44-.68,0-1.08-1.08-1-2.12-2.13-3.2-3.17a.7.7,0,0,1-.13-1.06,21.56,21.56,0,0,0,2.83-6.81c.14-.59.44-.73,1-.72,1.41,0,2.83,0,4.25,0,.63,0,.9-.2.9-.85q0-3.42,0-6.83c0-.66-.27-.86-.91-.84-1.41,0-2.83,0-4.25,0a.83.83,0,0,1-1-.74,21.43,21.43,0,0,0-2.79-6.74c-.35-.55-.23-.85.19-1.25,1-1,2-2,3.08-3,.41-.4.43-.69,0-1.1q-2.51-2.45-4.95-5c-.45-.47-.74-.38-1.15,0-1,1.08-2.12,2.12-3.17,3.19a.62.62,0,0,1-.92.14,24.18,24.18,0,0,0-2.34-1.28C51.21,34.46,50.33,34.14,49.28,33.72ZM37.1,3.87c-.39.21-.59.29-.77.41a11.1,11.1,0,0,0-4.58,11.94,9.84,9.84,0,0,0,5.68,6.38A1.3,1.3,0,0,1,38.29,24c0,5.86,0,11.72,0,17.58,0,8.5,0,17,0,25.5,0,.76.24,1,1,1.21a14.44,14.44,0,0,0,6.57,0c.74-.17,1-.46,1-1.21,0-6,0-12,0-18,0-.82.25-1.12,1-1a1.48,1.48,0,0,0,.42,0c.83-.13,1.09.18,1.09,1,0,5.55,0,11.11,0,16.66,0,.31,0,.62.07,1a13.59,13.59,0,0,0,7.06-12.6c-.3-5.88-4.18-10.14-7.13-11.26,0,.51,0,1,0,1.42s-.17.84-.76.78c-.22,0-.45,0-.67,0-1.08,0-1.08,0-1.08-1.11,0-6.61,0-13.22,0-19.83a1.5,1.5,0,0,1,1-1.59c4-2,6.17-5.14,5.89-9.72a10.79,10.79,0,0,0-5.12-8.69A2.06,2.06,0,0,0,47.94,4V5c0,2.41,0,4.83,0,7.25a.92.92,0,0,1-.77,1.06c-1.33.4-2.62.9-4,1.28a2.81,2.81,0,0,1-1.44,0c-1.25-.36-2.47-.84-3.72-1.2a1.16,1.16,0,0,1-1-1.34c.06-2.36,0-4.72,0-7.08Zm-1.39,39c-3.42,1.39-7.12,6.12-7.09,12s3.8,10.48,7.09,11.81Z"/><path class="cls-2" d="M11.83,13.68c1.75,0,3.5,0,5.25,0a1.35,1.35,0,0,0,1.39-.78,3.85,3.85,0,0,1,4.8-1.74,4,4,0,0,1,2.49,4.57,4,4,0,0,1-3.92,3.14,3.75,3.75,0,0,1-3.39-2.05,1.26,1.26,0,0,0-1.32-.75c-3.25,0-6.5,0-9.75,0-1.59,0-2.11.52-2.11,2.07q0,24.18,0,48.34A1.41,1.41,0,0,0,6,68a3.86,3.86,0,0,1,1.85,4.13,4.06,4.06,0,0,1-3.27,3.15A4,4,0,0,1,.41,73.05a3.84,3.84,0,0,1,1.44-5,1.66,1.66,0,0,0,.92-1.72q0-24.21,0-48.42A3.87,3.87,0,0,1,5.14,14a5.24,5.24,0,0,1,1.94-.33c1.58,0,3.17,0,4.75,0Zm8.6,1.16a1.44,1.44,0,0,0,1.4,1.54,1.54,1.54,0,0,0,1.54-1.45,1.51,1.51,0,0,0-1.45-1.52A1.4,1.4,0,0,0,20.43,14.84Zm-15,56.49A1.43,1.43,0,0,0,4,69.84a1.53,1.53,0,0,0-1.51,1.47A1.5,1.5,0,0,0,4,72.79,1.41,1.41,0,0,0,5.43,71.33Z"/><path class="cls-2" d="M82.28,42.11q0,12.26,0,24.5A1.22,1.22,0,0,0,83,67.87a3.86,3.86,0,0,1,1.93,4.54,3.93,3.93,0,0,1-3.6,2.85,3.88,3.88,0,0,1-4-2.83A3.83,3.83,0,0,1,79,68a1.41,1.41,0,0,0,.8-1.45q0-24.19,0-48.41c0-1.46-.52-2-2-2-3.27,0-6.55,0-9.83,0a1.35,1.35,0,0,0-1.37.79,3.87,3.87,0,0,1-4.88,1.7,4,4,0,0,1,1.6-7.66,3.63,3.63,0,0,1,3.22,1.91,1.54,1.54,0,0,0,1.59.87q5,0,10,0a3.87,3.87,0,0,1,4.08,3.1,5.07,5.07,0,0,1,.1,1.24ZM64.61,14.91a1.39,1.39,0,0,0-1.42-1.5,1.52,1.52,0,0,0-1.52,1.46,1.54,1.54,0,0,0,1.48,1.51A1.43,1.43,0,0,0,64.61,14.91Zm15,56.38A1.42,1.42,0,0,0,81,72.79a1.51,1.51,0,0,0,1.52-1.44,1.53,1.53,0,0,0-1.47-1.51A1.44,1.44,0,0,0,79.61,71.29Z"/><path class="cls-2" d="M9.46,21.59c-1.2,0-1.2,0-1.2-1.23s0-1.17,1.35-1.17c1.16,0,1.16,0,1.16,1.28S10.77,21.6,9.46,21.59Z"/><path class="cls-2" d="M75.49,19.19c1.29,0,1.29,0,1.29,1.15s0,1.25-1.26,1.25-1.25,0-1.25-1.18S74.27,19.19,75.49,19.19Z"/><path class="cls-2" d="M9.48,27.1c-1.22,0-1.22,0-1.22-1.21s0-1.2,1.33-1.19c1.18,0,1.18,0,1.18,1.25S10.77,27.1,9.48,27.1Z"/><path class="cls-2" d="M75.57,24.7c1.21,0,1.21,0,1.21,1.3,0,1.1,0,1.1-1.33,1.1s-1.18,0-1.18-1.26S74.27,24.7,75.57,24.7Z"/><path class="cls-2" d="M9.55,30.2c1.22,0,1.22,0,1.22,1.21s0,1.19-1.24,1.19-1.27,0-1.27-1.25S8.26,30.2,9.55,30.2Z"/><path class="cls-2" d="M75.53,30.2c1.25,0,1.25,0,1.25,1.18s0,1.22-1.29,1.22-1.22,0-1.22-1.22S74.27,30.2,75.53,30.2Z"/><path class="cls-2" d="M42.52,52.22c1.26,0,1.26,0,1.26,1.18s0,1.23-1.3,1.23-1.21,0-1.21-1.23S41.27,52.22,42.52,52.22Z"/><path class="cls-2" d="M42.52,57.72c1.26,0,1.26,0,1.26,1.18s0,1.24-1.3,1.24-1.21,0-1.21-1.24S41.27,57.72,42.52,57.72Z"/><path class="cls-2" d="M42.54,63.23c1.24,0,1.24,0,1.24,1.2s0,1.22-1.24,1.22-1.27,0-1.27-1.27S41.27,63.22,42.54,63.23Z"/></svg>