<svg id="Layer_1" data-name="Layer 1" xmlns="http://www.w3.org/2000/svg" viewBox="0 0 85.04 85.04"><defs><style>.cls-1{fill:#ee992e;}.cls-2{fill:#5a8dee;}</style></defs><title>الايقونات جاهزة2</title><path class="cls-1" d="M81.2,76.63c-1.26-.12-2.53-.16-3.84-.23,0-.28-.06-.47-.06-.66,0-9.8,0-19.6-.06-29.4,0-.82.43-1,1-1.24,5.87-2.75,7.4-8.72,6.56-14.24H61.64a3.83,3.83,0,0,1-.61,0c-6.31-.05-12.63,0-18.94,0H4.18c-1.06,0-2.12-.11-3.3-.17,0,1.32-.09,2.56,0,3.78C1.27,39.19,3.12,43,7.67,45.08a1.48,1.48,0,0,1,1,1.63q0,14.22,0,28.43v1.27c-1.58.09-3,.13-4.37.27a3.42,3.42,0,0,0-3.12,3.24c-.22,2.69,1.53,4.46,4.4,4.46H80.87a4,4,0,0,0,3.91-3.78A3.61,3.61,0,0,0,81.2,76.63ZM61.79,33.88c.59,4.68-3.31,9-8.31,9.35-5.25.31-9.16-3.66-9.12-9.35ZM42.17,41.41c.23-.32.44-.64.76-1.1a10.72,10.72,0,0,0,10.18,5.87,10.76,10.76,0,0,0,10.12-5.89A12.07,12.07,0,0,0,69,45.35c.27.12.43.79.43,1.2,0,6.44,0,12.88,0,19.32v10.5H34.22c0-.4,0-.83,0-1.25,0-9.24,0-18.48,0-27.72,0-.93.25-1.3,1.2-1.48A10.69,10.69,0,0,0,42.17,41.41ZM42,33.91A47.89,47.89,0,0,1,39.43,40,7.14,7.14,0,0,1,34,43.17c-.8.12-1.58.41-2.51.65a6.25,6.25,0,0,0-1.43-1c-4.1-1.53-5.71-4.7-6-8.91ZM28.35,45.33c.3.13.49.83.49,1.27,0,6.24,0,12.47,0,18.71,0,3.23,0,6.47,0,9.71v1.34H16.5c0-.38-.09-.76-.09-1.14,0-9.55,0-19.1,0-28.66a1.29,1.29,0,0,1,.9-1.43,11.31,11.31,0,0,0,5.36-4.93A11.76,11.76,0,0,0,28.35,45.33Zm53.39,35.1c-.08.42-.84.74-1.35,1-.26.13-.63,0-1,0h-73A3.64,3.64,0,0,1,5,81.29c-.38-.17-.59-.68-.88-1.05.35-.23.7-.65,1.06-.66,2.07-.07,4.15,0,6.4,0V77.8c0-10.52,0-21,0-31.56a3.5,3.5,0,0,0-2.41-3.77,8.56,8.56,0,0,1-5.23-8.58H21a8.29,8.29,0,0,1-5.17,8.61,3.37,3.37,0,0,0-2.39,3.63c.06,10,0,20,0,30,0,1,.11,2.06.17,3.18H72.42v-1.2c0-10.68,0-21.36,0-32a3.36,3.36,0,0,0-2.28-3.52A7.91,7.91,0,0,1,65,35.91c-.08-.63-.24-1.25-.39-2H81.89c.53,2.54-1.38,6.41-3.92,7.93a11.45,11.45,0,0,1-1.83.89,2.57,2.57,0,0,0-1.82,2.66l.09,33c0,.28,0,.55.06,1.11,1.61,0,3.19,0,4.77,0,.4,0,.8,0,1.2,0C81.08,79.55,81.93,79.52,81.74,80.43Z"/><path class="cls-1" d="M71.73.28a6.25,6.25,0,0,0,.6.24A2.41,2.41,0,0,1,74.18,3a2.35,2.35,0,0,1-2,2.32,7.11,7.11,0,0,1-1.38.15H14.54a7.16,7.16,0,0,1-1.3-.13A2.36,2.36,0,0,1,11.2,3,2.39,2.39,0,0,1,13.13.51a3.43,3.43,0,0,0,.52-.23Z"/><path class="cls-2" d="M84.29,28.36q-4.82-9.62-9.6-19.25a1.35,1.35,0,0,0-1.4-.84H12.08a1.34,1.34,0,0,0-1.39.84C7.51,15.54,4.29,22,1.09,28.36c-.12.24-.22.48-.36.82H84.65C84.51,28.84,84.4,28.6,84.29,28.36ZM22.84,14.1A9.36,9.36,0,0,1,22,16c-1.41,2.8-2.8,5.6-4.21,8.41-.3.61-.69,1.12-1.48,1.08a1.39,1.39,0,0,1-1.36-1.81,3.94,3.94,0,0,1,.32-.76c1.6-3.2,3.18-6.4,4.81-9.57a2.1,2.1,0,0,1,1-1.09,1.67,1.67,0,0,1,1.46.33A2,2,0,0,1,22.84,14.1Zm10.55,0A8.18,8.18,0,0,1,32.52,16q-2.07,4.17-4.16,8.33c-.32.64-.7,1.2-1.54,1.15a1.38,1.38,0,0,1-1.34-1.75,2.67,2.67,0,0,1,.27-.69c1.63-3.27,3.25-6.54,4.92-9.79a2,2,0,0,1,1.06-1,1.56,1.56,0,0,1,1.38.36A2.12,2.12,0,0,1,33.39,14.11Zm10.69,9.82a1.4,1.4,0,1,1-2.78,0c0-1.73,0-3.45,0-5.18s0-3.4,0-5.11c0-1,.5-1.54,1.39-1.54s1.39.54,1.39,1.55Q44.1,18.79,44.08,23.93ZM59,25.39a1.39,1.39,0,0,1-1.7-.68c-.62-1.09-1.23-2.21-1.83-3.31Q53.58,18,51.75,14.68c-.07-.11-.13-.24-.19-.36a1.5,1.5,0,0,1,.52-2.08,1.46,1.46,0,0,1,2,.69c.52.89,1,1.81,1.5,2.72,1.32,2.39,2.62,4.77,3.91,7.16a9.79,9.79,0,0,1,.41,1C59.94,24.73,59.59,25.22,59,25.39Zm10.63,0A1.32,1.32,0,0,1,68,25a5.59,5.59,0,0,1-.52-.84C66,21,64.38,17.89,62.82,14.77c-.65-1.29-.51-2.16.38-2.58s1.6,0,2.22,1.25c1.56,3.12,3.13,6.23,4.68,9.36a10,10,0,0,1,.38,1C70.51,24.7,70.18,25.16,69.58,25.37Z"/><path class="cls-1" d="M46.62,66.36,45.18,65,59.87,50.29l1.35,1.47Z"/><path class="cls-1" d="M52.44,50.31l1.32,1.53L46.63,59,45.3,57.47Z"/><path class="cls-1" d="M54.07,66.4l-1.39-1.48,7.2-7.16,1.32,1.49Z"/><path class="cls-1" d="M24,68.73a2.24,2.24,0,0,1-2-1.42,2.38,2.38,0,0,1,.46-2.66A1.76,1.76,0,0,0,23,63.2c0-1.51,0-3,0-4.53a2.15,2.15,0,0,0-.48-1.21,2.47,2.47,0,1,1,3.8-3.13,2.42,2.42,0,0,1-.27,3,1.79,1.79,0,0,0-.56,1.45c0,1.48,0,3,0,4.45A1.66,1.66,0,0,0,26,64.62a2.32,2.32,0,0,1,.49,2.67A2.44,2.44,0,0,1,24,68.73Z"/></svg>