<svg id="Layer_1" data-name="Layer 1" xmlns="http://www.w3.org/2000/svg" viewBox="0 0 85.04 72.97"><defs><style>.cls-1{fill:#ee992e;}.cls-2{fill:#5a8dee;}</style></defs><title>الايقونات جاهزة2</title><path class="cls-1" d="M84.93,4.32V68.6a1,1,0,0,0-.15.29c-.63,2.65-2.07,3.8-4.8,3.8q-37.5,0-75,0H4.39a4.37,4.37,0,0,1-4.07-3.4c0-.23-.14-.46-.21-.69V4.32A1,1,0,0,0,.26,4C.89,1.38,2.33.23,5.06.23q37.5,0,75,0h.58a4.38,4.38,0,0,1,4.08,3.4C84.77,3.86,84.86,4.09,84.93,4.32ZM42.5,8.93H4.15c-1.27,0-1.27,0-1.27,1.24V67c0,2.76.28,3.05,3,3.05H79.36c2.41,0,2.8-.39,2.8-2.77V10.37c0-1.54.22-1.44-1.4-1.44Zm-21.4-6c0,1.08,0,2,0,2.9a.77.77,0,0,0,.47.5,4.07,4.07,0,0,0,1,0H73.91c2.19,0,2.19,0,2.19-2.16,0-1.27,0-1.27-1.25-1.27H21.1ZM12.37,4.62c0-1.94.3-1.74-1.77-1.73C8.69,2.89,9,2.64,9,4.56S8.74,6.29,10.7,6.31,12.36,6.5,12.37,4.62Zm6-1.72c-1.06,0-2,0-2.92,0-.17,0-.43.31-.46.5-.35,2.76-.15,3,2.6,2.88.08,0,.2,0,.24,0s.5-.36.51-.55C18.42,4.85,18.39,3.94,18.39,2.9ZM6.28,4.61c0-1.87,0-1.87-1.76-1.68-1.27.13-1.76.91-1.64,2.71.09,1.19,1.06.45,1.59.67,0,0,0,0,.08,0C6.6,6.3,6.25,6.47,6.28,4.61ZM78.75,3V4.48c0,1.83,0,1.83,1.85,1.83,1.68,0,1.68,0,1.56-1.69A1.64,1.64,0,0,0,80.89,3,18.91,18.91,0,0,0,78.75,3Z"/><path class="cls-2" d="M57.82,33.26h-7.1a4,4,0,0,1-1-.11,1.29,1.29,0,0,1,0-2.46,3.3,3.3,0,0,1,.89-.12h8.12c1.32,0,1.8.48,1.8,1.78q0,5.88,0,11.76a4.47,4.47,0,0,1-4.29,4.74L39.11,51c-.9.11-1.81.1-2.71.2a1.1,1.1,0,0,0-.73.37c-.62.95-1.2,1.92-1.76,2.9-.33.58.49,1.94,1.17,2,1.3,0,2.59,0,3.89,0,4,0,8,0,12,0a1.34,1.34,0,0,0,1.42-.8,4.27,4.27,0,0,1,5.33-2,4.35,4.35,0,0,1-1.68,8.43,4.16,4.16,0,0,1-3.72-2.36,1,1,0,0,0-1.09-.64q-8,0-15.9,0a1.09,1.09,0,0,0-1.14.69,4.26,4.26,0,0,1-5,2.15A4.4,4.4,0,0,1,26,57.76a4.33,4.33,0,0,1,3.28-4.25,2.16,2.16,0,0,1,1-.11c.93.17,1.4-.27,1.79-1s1.24-1.58,1.33-2.43-.57-1.63-.88-2.46q-3.49-9.28-7-18.57c-.54-1.45-1-1.74-2.51-1.74-.61,0-1.22,0-1.82,0A1.22,1.22,0,0,1,20,25.83a1.16,1.16,0,0,1,1.14-1.26,20.18,20.18,0,0,1,3.39,0A4,4,0,0,1,27.7,27.1a25.36,25.36,0,0,1,1,2.63,1,1,0,0,0,1.18.84c2.43-.05,4.86,0,7.29,0,.19,0,.38,0,.58,0,.93.06,1.58.64,1.55,1.39a1.42,1.42,0,0,1-1.54,1.31c-1,0-2.1,0-3.15,0l-4.22,0a1.08,1.08,0,0,0-.23.09,8.56,8.56,0,0,0,.23.83q2.37,6.34,4.77,12.68c.52,1.39.89,1.69,2.33,1.55,2.49-.25,5-.59,7.46-.9l9.91-1.25c.5-.06,1-.1,1.48-.19a1.66,1.66,0,0,0,1.5-1.61,5.66,5.66,0,0,0,.06-.82V34.3C57.9,34,57.85,33.65,57.82,33.26ZM30.34,59.37a1.69,1.69,0,0,0,1.72-1.64A1.74,1.74,0,0,0,30.37,56a1.67,1.67,0,0,0-1.65,1.62A1.63,1.63,0,0,0,30.34,59.37Zm27.49-1.68a1.65,1.65,0,1,0-3.3,0,1.65,1.65,0,1,0,3.3,0Z"/><path class="cls-2" d="M42.52,15H8.31a2.09,2.09,0,0,1-1.19-.18,1.78,1.78,0,0,1-.76-1.2c0-.4.47-.85.83-1.16a1.66,1.66,0,0,1,1-.15H76.89a3.8,3.8,0,0,1,.89.11,1.28,1.28,0,0,1,0,2.48,4.15,4.15,0,0,1-1.06.1Z"/><path class="cls-2" d="M42.72,38.94V38q0-7.45,0-14.91c0-1.21.92-1.94,1.84-1.4a1.7,1.7,0,0,1,.72,1.08,12.82,12.82,0,0,1,.06,2.15V38.05c0,.31,0,.63.08,1.18l2.08-2.06a1.37,1.37,0,0,1,1.57-.41,1.27,1.27,0,0,1,.5,2.05C48.06,40.42,46.49,42,44.9,43.5a1.22,1.22,0,0,1-1.85-.09c-1.5-1.46-3-2.94-4.45-4.45a1.34,1.34,0,0,1,0-1.93,1.32,1.32,0,0,1,1.92.09c.68.63,1.32,1.29,2,1.94Z"/></svg>