<svg id="Layer_1" data-name="Layer 1" xmlns="http://www.w3.org/2000/svg" viewBox="0 0 74.38 85.04"><defs><style>.cls-1{fill:#ee992e;}.cls-2{fill:#5a8dee;}</style></defs><title>الايقونات جاهزة2</title><path class="cls-1" d="M43.32.21c1.27.4,2.54.77,3.8,1.2a29.51,29.51,0,0,1,11.11,7,3.88,3.88,0,0,1,1.05,3.85,1.45,1.45,0,0,0,.2,1,27.13,27.13,0,0,1,5.26,13.68c.29,3,.57,6-.27,9a6.38,6.38,0,0,1-.83,2A3.84,3.84,0,0,0,63,40.32c0,1.07,0,2.14,0,3.21A3.42,3.42,0,0,1,59.49,47q-3.5,0-7,0a1.89,1.89,0,0,0-1.45.59,18.72,18.72,0,0,1-12.64,5.68c-8.26.39-14.44-3.14-18.69-10.16-.21-.35-.37-.58-.86-.55A9.06,9.06,0,0,1,9.55,35a40.33,40.33,0,0,1-.06-7.77,33.59,33.59,0,0,1,1.06-5.95,23.82,23.82,0,0,1,3.84-7.75,1.75,1.75,0,0,0,.4-1.63,3.56,3.56,0,0,1,1.28-3.74A30.12,30.12,0,0,1,30,.51a6.47,6.47,0,0,0,.84-.3Zm3.3,47,0-.23c-1,0-2.07,0-3.11,0a1,1,0,0,0-1,.56,3.53,3.53,0,0,1-2.71,1.93,30.13,30.13,0,0,1-4.75.11,4.14,4.14,0,0,1,.32-8.26c1.17,0,2.35,0,3.53,0a4,4,0,0,1,3.64,2.1,1,1,0,0,0,1.07.56c1.91,0,3.83,0,5.75,0a1.62,1.62,0,0,0,1.55-.81c3.83-5.74,4.31-11.77,1.06-17.83C48.76,19.52,43.63,16.56,37,16.5a16.18,16.18,0,0,0-11.44,4.58,16.84,16.84,0,0,0,14.87,28.8A15.45,15.45,0,0,0,46.62,47.22Zm-34-21.57c1.34-.53,2.69-1,4-1.59.95-.42,2.13.38,2.91-.45s1.12-1.76,1.77-2.56c5.31-6.44,12.1-8.88,20.25-7.12a19.35,19.35,0,0,1,12.83,9.58.82.82,0,0,0,.82.44,10.64,10.64,0,0,1,2.83.32,33.26,33.26,0,0,1,3.48,1.54A24.14,24.14,0,0,0,57.05,15a.76.76,0,0,0-.59-.27,4.63,4.63,0,0,1-4-1.53A22.59,22.59,0,0,0,27.17,9.47a28.47,28.47,0,0,0-6.08,4.3,3.66,3.66,0,0,1-2.34,1,2.23,2.23,0,0,0-2.39,1.44c-.24.43-.52.84-.76,1.27A25.28,25.28,0,0,0,12.66,25.65Zm24.18-23c-.72,0-1.74.05-2.74.17A26,26,0,0,0,22.42,7c-1.51,1-2.88,2.27-4.29,3.43-.36.3-.59.78-.15,1.12A1.32,1.32,0,0,0,19,11.44a6,6,0,0,0,1.07-.89,25.43,25.43,0,0,1,19.57-6.3A24.2,24.2,0,0,1,52.81,9.51c.81.64,1.56,1.37,2.37,2a1.11,1.11,0,0,0,.82.16.66.66,0,0,0,.35-.55,1.91,1.91,0,0,0-.47-.9A27.13,27.13,0,0,0,36.84,2.65ZM57.2,27.24V39.18a6.15,6.15,0,0,0,0-11.94ZM17,39.13V27.24a6.17,6.17,0,0,0-4.64,6.54C12.6,36.71,15.29,39.08,17,39.13Zm20.09,5.24c-.55,0-1.09,0-1.64,0a1.11,1.11,0,0,0-1.19,1,1,1,0,0,0,1,1.11,33.69,33.69,0,0,0,3.76,0,1,1,0,0,0,.93-1.13,1.05,1.05,0,0,0-1.12-1C38.24,44.35,37.67,44.38,37.09,44.37Zm22.78-2.75A7.29,7.29,0,0,1,59,42a30.38,30.38,0,0,1-3.27.62c-1,.1-1.25.24-1.42,1.34a2,2,0,0,0,.24.05h3.6c2,0,2-.08,1.86-2A1.3,1.3,0,0,0,59.87,41.62Z"/><path class="cls-2" d="M64.73,26.93a27.15,27.15,0,0,0-5.25-13.68,1.39,1.39,0,0,1-.2-1,3.88,3.88,0,0,0-1.05-3.85A29.47,29.47,0,0,0,47.12,1.42C45.87,1,44.59.62,43.31.21H30.83A5.7,5.7,0,0,1,30,.52,30.19,30.19,0,0,0,16.06,8.16a3.61,3.61,0,0,0-1.28,3.74,1.74,1.74,0,0,1-.39,1.63,23.5,23.5,0,0,0-3.83,7.75,32.73,32.73,0,0,0-1.07,5.95A38.79,38.79,0,0,0,9.56,35a9,9,0,0,0,9.31,7.56.74.74,0,0,1,.34,0,.54.54,0,0,1,.3.21,2,2,0,0,1,.22.3l0-.71,0-.65-.47-17.87c-.77.36-1.74-.18-2.57.18-1.3.57-2.65,1.06-4,1.59a25.49,25.49,0,0,1,2.95-8.21c.24-.43.52-.84.76-1.27a2.24,2.24,0,0,1,2.4-1.44,3.71,3.71,0,0,0,2.33-1,28.3,28.3,0,0,1,6.07-4.3,22.6,22.6,0,0,1,25.33,3.76,4.64,4.64,0,0,0,4,1.54.74.74,0,0,1,.61.27,24.3,24.3,0,0,1,4.49,10.77,31.29,31.29,0,0,0-3.48-1.54A10.25,10.25,0,0,0,55.24,24a.81.81,0,0,1-.8-.4c.31,1.06-.06,19.81-.06,19.81.18-.59.51-.71,1.3-.79A28.52,28.52,0,0,0,59,42a5.23,5.23,0,0,0,.91-.33c0,.17.1.24.11.32.16,2,.09,2-1.86,2H54.49l-5.12,0h-.09c-1.92-.05-3.83,0-5.75,0a1,1,0,0,1-1.06-.55,4,4,0,0,0-3.65-2.1c-1.18,0-2.36,0-3.53,0A4.14,4.14,0,0,0,35,49.59a27.93,27.93,0,0,0,4.75-.11,3.51,3.51,0,0,0,2.7-1.92A1,1,0,0,1,43.48,47h9.39q3.3.06,6.62,0A3.41,3.41,0,0,0,63,43.53c0-1.07,0-2.13,0-3.2a3.82,3.82,0,0,1,.64-2.47,6.87,6.87,0,0,0,.83-2C65.31,32.94,65,29.91,64.73,26.93ZM17,27.25V39.14c-1.7,0-4.4-2.42-4.64-5.36A6.19,6.19,0,0,1,17,27.25ZM56,11.7a1.1,1.1,0,0,1-.81-.17c-.81-.65-1.55-1.37-2.37-2A24.28,24.28,0,0,0,39.68,4.25a25.5,25.5,0,0,0-19.58,6.3,5.62,5.62,0,0,1-1.06.9c-.3.16-.84.28-1.06.12-.45-.33-.2-.81.15-1.12,1.41-1.16,2.78-2.4,4.28-3.42A26,26,0,0,1,34.09,2.82c1-.11,2-.12,2.75-.16a27.06,27.06,0,0,1,19,7.59,1.69,1.69,0,0,1,.46.9A.62.62,0,0,1,56,11.7ZM39,46.49a31.28,31.28,0,0,1-3.75,0,1,1,0,0,1-1-1.11,1.11,1.11,0,0,1,1.19-1c.54,0,1.09,0,1.64,0s1.15,0,1.72,0a1,1,0,0,1,1.11,1A1,1,0,0,1,39,46.49ZM57.2,39.18V27.24a6.14,6.14,0,0,1,0,11.94Z"/><path class="cls-1" d="M.42,84.83a17.59,17.59,0,0,1-.23-3.06A27.61,27.61,0,0,1,7.66,64.86a27.73,27.73,0,0,1,17.25-8.75,26.78,26.78,0,0,1,3.35-.2c6.22,0,12.43,0,18.64,0a26,26,0,0,1,13.52,4A27.37,27.37,0,0,1,73.68,79.74,33,33,0,0,1,74,83.58a4.78,4.78,0,0,1-.28,1.25Zm2.8-2.58H71c-.14-1-.23-1.91-.39-2.82a24.42,24.42,0,0,0-8.91-15,25.15,25.15,0,0,0-16.42-5.61c-5.48,0-11,0-16.44,0a32.08,32.08,0,0,0-5.7.54,24.12,24.12,0,0,0-12.49,6.64A24.48,24.48,0,0,0,3.22,82.25Z"/></svg>