<svg id="Layer_1" data-name="Layer 1" xmlns="http://www.w3.org/2000/svg" viewBox="0 0 85.04 85.04"><defs><style>.cls-1{fill:#ee992e;}.cls-2{fill:#5a8dee;}</style></defs><title>الايقونات جاهزة2</title><path class="cls-1" d="M86.21,35c-.13.88-.25,1.75-.38,2.63A19.76,19.76,0,0,1,80,49.09a1.37,1.37,0,0,1-1.76.37c-.75-.43-.76-1.22-.11-2A35.89,35.89,0,0,0,80.89,44,17.47,17.47,0,1,0,49.52,29.15a17.19,17.19,0,0,0,5.64,19.19C59.65,51.71,64.38,54.76,69,58a4.42,4.42,0,0,0,.64.28v-3c0-.74,0-1.47,0-2.2A1.24,1.24,0,0,1,71,51.69c.74,0,1.15.48,1.15,1.38,0,2.47,0,5,0,7.42,0,.57-.06,1.21-.65,1.35a2.22,2.22,0,0,1-1.58-.24c-3.39-2.26-6.75-4.57-10.1-6.88-2.08-1.43-4.2-2.82-6.18-4.38a19.43,19.43,0,0,1-7.3-12.49A20,20,0,0,1,85,28.49a40.18,40.18,0,0,1,1,5.16c.06.34.15.68.22,1Z"/><path class="cls-1" d="M2.71,34.5c.13-.93.24-1.86.39-2.79a19.67,19.67,0,0,1,9.12-13.84,1.34,1.34,0,0,1,1.89.21c.45.63.33,1.28-.45,1.82a20.16,20.16,0,0,0-4.37,3.87A17,17,0,0,0,5.4,34.5a17.06,17.06,0,0,0,5.15,12.68,16.57,16.57,0,0,0,7,4.25c1.49.46,1.68.72,1.68,2.25,0,1.23,0,2.45,0,3.67,0,.26,0,.52.06.93.39-.23.67-.37.93-.55,4-2.75,8.08-5.49,12.1-8.28a17.49,17.49,0,0,0,7.89-16.6,16.87,16.87,0,0,0-13.81-15.2,30.68,30.68,0,0,0-3.31-.34c-.92-.07-1.5-.55-1.5-1.29s.57-1.19,1.53-1.19A19.44,19.44,0,0,1,42.5,30.93c1.26,7.7-1,14.43-7.23,19.38-3.51,2.8-7.36,5.2-11.06,7.77L19.1,61.57a1.59,1.59,0,0,1-1.67.32c-.65-.32-.66-.93-.66-1.55,0-1.85,0-3.69,0-5.54a1.19,1.19,0,0,0-.89-1.32A19.78,19.78,0,0,1,3.16,38.27C3,37.53,3,36.76,2.92,36c0-.34-.14-.68-.21-1Z"/><path class="cls-2" d="M58.43,27.74c-.51,0-.86,0-1.19,0a1.24,1.24,0,0,1-1.3-1.28c0-.73.48-1.17,1.35-1.18H68.54c.91,0,1.43.45,1.45,1.19s-.55,1.27-1.48,1.28c-2.09,0-4.18,0-6.27,0a1.17,1.17,0,0,0-1.18.66c-.54,1-1.12,1.89-1.74,2.92a4.68,4.68,0,0,0,.69.15h4.24c.46,0,.71-.15.67-.67a1.14,1.14,0,0,1,1-1.35,1.22,1.22,0,0,1,1.37.79c.59,1.16,1.19,2.32,1.74,3.5a1.22,1.22,0,0,1-.51,1.69,1.24,1.24,0,0,1-1.71-.6c-.2-.3-.42-.78-.69-.83a8.53,8.53,0,0,0-2,0c-.11,0-.27.27-.28.43,0,.68,0,1.36,0,2,0,.5.33.56.72.55h3.58c1,0,1.57.46,1.55,1.26s-.53,1.19-1.51,1.2c-1.14,0-2.28,0-3.42,0-.56,0-.94.06-1,.77s.39.84,1,.83c1.17,0,2.34,0,3.51,0,.86,0,1.36.44,1.39,1.15a1.21,1.21,0,0,1-1.34,1.31q-5.74,0-11.49,0a1.25,1.25,0,0,1-1.37-1.29c0-.72.53-1.15,1.39-1.17,1.22,0,2.44,0,3.66,0,.59,0,.83-.2.83-.81s-.27-.8-.84-.79c-1.2,0-2.39,0-3.59,0-.92,0-1.43-.44-1.45-1.18S56,37,56.92,37c1.22,0,2.44,0,3.67,0,.5,0,.75-.17.74-.7,0-2.94.4-2.32-2.23-2.39-.66,0-1.31,0-2,0A1.26,1.26,0,0,1,56,32c.59-1.07,1.27-2.09,1.89-3.14C58.05,28.53,58.19,28.22,58.43,27.74Z"/><path class="cls-2" d="M16.58,44.2c-1.22,0-1.8-.86-1.44-1.8.5-1.31,1.07-2.61,1.61-3.91q2.31-5.61,4.64-11.21c.25-.62.53-1.2,1.34-1.22s1.12.55,1.38,1.17q3.18,7.46,6.33,14.91a1.69,1.69,0,0,1,.13,1.23,1.52,1.52,0,0,1-1.08.78,1.69,1.69,0,0,1-1.19-.79,35.47,35.47,0,0,1-1.55-3.58,1.07,1.07,0,0,0-1.2-.8c-1.88,0-3.75,0-5.63,0a.85.85,0,0,0-.92.6c-.49,1.21-1,2.43-1.52,3.6A4.7,4.7,0,0,1,16.58,44.2Zm3.78-7.88h4.89l-2.33-5.49h-.28Z"/><path class="cls-2" d="M77.5,34.07c0,2.31,0,4.62,0,6.93a6.49,6.49,0,0,1-5.78,6.32,4.08,4.08,0,0,1-1.35,0,1,1,0,0,1-.82-1.22c.11-.42.57-.77.94-1.07a1.64,1.64,0,0,1,.79-.16A4.1,4.1,0,0,0,75,40.62c0-4.43,0-8.86,0-13.29,0-.25,0-.49,0-.74a1.31,1.31,0,0,1,1.26-1.25,1.26,1.26,0,0,1,1.19,1.31C77.51,29.12,77.5,31.59,77.5,34.07Z"/><path class="cls-2" d="M73.26,33.78c0,1.76,0,3.53,0,5.29,0,.94-.46,1.51-1.21,1.52s-1.25-.56-1.25-1.5c0-3.55,0-7.1,0-10.65,0-.93.52-1.51,1.27-1.49s1.19.58,1.19,1.46C73.26,30.2,73.26,32,73.26,33.78Z"/></svg>