<svg id="Layer_1" data-name="Layer 1" xmlns="http://www.w3.org/2000/svg" viewBox="0 0 80.72 85.04"><defs><style>.cls-1{fill:#ee992e;}.cls-2{fill:#5a8dee;}</style></defs><title>الايقونات جاهزة2</title><path class="cls-1" d="M64,29.9l1.58-1.29c8.49,6.53,14.26,22,7.06,36.22A30.48,30.48,0,1,1,58.32,23.66a16.82,16.82,0,0,1-1,1.57c-.1.13-.5.12-.72,0a15,15,0,0,0-2.48-.77,1.8,1.8,0,0,0,.25.43A28.24,28.24,0,0,1,60.45,35.1c.41,1.1.42,1.15,1.51.65,1.67-.76,3.31-1.59,5.21-2.51ZM36.86,51c2.15,0,4.31,0,6.47,0,.66,0,.94-.17.93-.88,0-2.76,0-5.53,0-8.29,0-.7-.29-.95-.93-.95s-1.38,0-2.07-.06a49.3,49.3,0,0,1-9.42-1.73c-.44-.13-.72-.05-.85.48a46.93,46.93,0,0,0-1.34,10.56c0,.72.24.88.9.87C32.65,51,34.76,51,36.86,51Zm16.75,0c2.16,0,4.31,0,6.47,0,.61,0,.8-.18.8-.8a45.26,45.26,0,0,0-1.33-10.56c-.13-.56-.37-.62-.88-.48a44.86,44.86,0,0,1-11.34,1.72c-.67,0-.9.31-.9,1,0,2.76,0,5.53,0,8.29,0,.66.24.86.88.85C49.41,51,51.51,51,53.61,51Zm14.86-16.1a4.51,4.51,0,0,0-.45.15c-2,1-4,2-6,3-.44.22-.47.48-.39.93.44,2.46.89,4.93,1.24,7.4.21,1.5.25,3,.37,4.63h8.89c1.41,0,1.39,0,1.35-1.37a26.19,26.19,0,0,0-2.92-11.11C70,37.29,69.17,36.12,68.47,34.92ZM22.27,51c1.41,0,2.82,0,4.23,0,.57,0,.82-.09.85-.75a50.35,50.35,0,0,1,1.52-11.2c.19-.68,0-.91-.61-1.18-1.74-.82-3.48-1.68-5.16-2.61-.65-.36-.92-.27-1.31.31a28.89,28.89,0,0,0-4.72,14.63c0,.62.21.82.81.8C19.35,51,20.81,51,22.27,51Zm9.67,14.43c0,.23-.05.29,0,.33a24.57,24.57,0,0,0,6.7,11,10.7,10.7,0,0,0,4.56,2.44c.93.23,1.08.11,1.08-.83,0-4.56,0-9.12,0-13.68,0-.87-.29-1.13-1.1-1-2.54.32-5.09.58-7.62.95C34.31,64.78,33.1,65.17,31.94,65.45Zm-.11-28.7a3.54,3.54,0,0,0,.53.26,48.87,48.87,0,0,0,11,1.73c.62,0,.89-.16.89-.83q0-7,0-14.1c0-.67-.29-.9-.85-.65a19.38,19.38,0,0,0-4,1.88C35.48,28,33.42,32.17,31.83,36.75ZM46.44,79.19a2.94,2.94,0,0,0,.61,0,9.58,9.58,0,0,0,4.24-2C55,74.32,57.05,70.34,58.58,66c.19-.54-.15-.61-.52-.71a48.15,48.15,0,0,0-10.61-1.65c-.81,0-1,.24-1,1,0,4.32,0,8.63,0,13ZM46.55,23a6.24,6.24,0,0,0-.1.72c0,4.76,0,9.51,0,14.26,0,.71.34.82.93.79A50,50,0,0,0,58,37.12c.67-.19.8-.45.52-1-1.09-2.23-2-4.55-3.3-6.66a13.66,13.66,0,0,0-6.27-5.72C48.19,23.4,47.41,23.24,46.55,23ZM37,53.36c-2.13,0-4.26,0-6.39,0-.77,0-1,.27-.88,1,.44,2.78.88,5.55,1.29,8.33.1.64.39.71,1,.58,2-.46,4-1,6-1.27,1.69-.27,3.4-.34,5.11-.48,1.15-.09,1.21-.13,1.21-1.26q0-2.87,0-5.73c0-1.11,0-1.11-1.08-1.11Zm16.79,0c-2.1,0-4.2,0-6.3,0-.83,0-1,.27-1,1,0,2,.06,3.93,0,5.88,0,.9.32,1.16,1.12,1.2a35.42,35.42,0,0,1,3.87.3c2.47.42,4.92.94,7.37,1.45.46.1.69,0,.76-.45l1.32-8.65c.08-.57-.16-.77-.74-.76C58,53.37,55.86,53.36,53.74,53.36ZM68.36,67.5a27.74,27.74,0,0,0,5.12-14,3.26,3.26,0,0,0-.39-.09c-3.12,0-6.24,0-9.36,0-.61,0-.66.36-.68.81a41.44,41.44,0,0,1-1.37,9.05c-.19.72.06,1,.65,1.22,1.51.68,3,1.41,4.48,2.14C67.32,66.83,67.79,67.16,68.36,67.5ZM17.3,53.41a1.49,1.49,0,0,0-.07.36c0,.41.1.82.15,1.23a27.61,27.61,0,0,0,4.54,12c.3.45.54.45,1,.21,1.77-.94,3.57-1.85,5.39-2.71.54-.26.72-.51.56-1.14a41.4,41.4,0,0,1-1.39-9.13c0-.64-.27-.84-.91-.84-2.85,0-5.69,0-8.54,0C17.8,53.36,17.56,53.39,17.3,53.41Zm49.82,15.7c-1.82-.89-3.43-1.72-5.08-2.47-1.17-.54-1.18-.49-1.61.69a28.06,28.06,0,0,1-6,10.08,2.44,2.44,0,0,0-.28.43A26.59,26.59,0,0,0,67.12,69.11ZM23.55,33.25c1.81.88,3.42,1.71,5.06,2.47,1.08.49,1.09.44,1.49-.66A28.18,28.18,0,0,1,36,25.1a3.06,3.06,0,0,0,.3-.49A26.7,26.7,0,0,0,23.55,33.25ZM36.2,77.9l.16-.18-.48-.6c-.52-.61-1.06-1.2-1.54-1.84A29.33,29.33,0,0,1,30,67c-.24-.66-.53-.81-1.15-.5l-4.44,2.21a5.89,5.89,0,0,0-.72.53A28,28,0,0,0,36.2,77.9Z"/><path class="cls-1" d="M23.9,84.76A12.93,12.93,0,0,1,18.71,83a32.64,32.64,0,0,1-9-8A44.15,44.15,0,0,1,2.33,62.46a22.33,22.33,0,0,1-1.4-7C.86,53.64.77,51.76.76,49.88A42.21,42.21,0,0,1,5.08,31.07Q14.47,11.86,35.2,6.3A41.46,41.46,0,0,1,48.92,5.07c2.41.16,4.8.62,7.17.95a3.87,3.87,0,0,1-4.52,4.05,39.46,39.46,0,0,0-27,5.84A40.06,40.06,0,0,0,6.35,42a37.91,37.91,0,0,0-.63,12.84,40.56,40.56,0,0,0,10.87,23C18.87,80.27,21.48,82.47,23.9,84.76Z"/><path class="cls-2" d="M53.57,13.41c1.63-1.59,3.38-2.74,4.31-4.36s1-3.72,1.52-5.65c.48.43,1,.87,1.52,1.39a1.44,1.44,0,0,1,.28.9c0,1.08,0,2.16,0,3.24a1.14,1.14,0,0,0,.51.8c2,.91,4,1.75,6,2.65.65.29.83-.13,1.06-.56l5.68-10.5c.2-.36.41-.7.61-1a2.31,2.31,0,0,1,1.78,2.81c-1,3.69-2.12,7.37-3.21,11-.36,1.2-.39,1.19.64,1.81,1.8,1.1,3.6,2.17,5.38,3.3A2.53,2.53,0,0,1,80.5,23a1.51,1.51,0,0,1-2,.83c-1.85-.79-3.67-1.63-5.48-2.5A25.12,25.12,0,0,1,70.53,20c-.55-.34-.86-.22-1.24.25-1.81,2.25-3.62,4.48-5.47,6.68-.67.8-1.44,1.52-2.17,2.28a1.83,1.83,0,0,1-2.74-.41c-.13-.17,0-.67.18-.94,1.88-3.19,3.79-6.37,5.69-9.54,1.14-1.89,1.14-1.89-.68-3.14-1.14-.79-2.31-1.53-3.4-2.37A1.33,1.33,0,0,0,59,12.68c-1,.6-2,1.09-3,1.69a.92.92,0,0,1-1.36-.18A5.36,5.36,0,0,0,53.57,13.41Z"/></svg>