<svg id="Layer_1" data-name="Layer 1" xmlns="http://www.w3.org/2000/svg" viewBox="0 0 85.04 85.04"><defs><style>.cls-1{fill:#ee992e;}.cls-2{fill:#5a8dee;}</style></defs><title>الايقونات جاهزة2</title><path class="cls-1" d="M42.19,49.2c-12,0-23.94-.12-35.9,0-6.09.08-6.58-4-5.47-8.66A2.82,2.82,0,0,1,2.41,38.7c2.4-.46,2.32-2.23,2.57-4,2.11-14.52,10-24.62,23.41-30.45a4,4,0,0,0,1.77-1.61A4.5,4.5,0,0,1,34.33.13H50.52a4.5,4.5,0,0,1,4.17,2.52,4,4,0,0,0,1.78,1.61q20.7,9,23.51,31.38c.18,1.42.46,2.28,2,2.82,2.27.78,3.09,3.71,2.33,7.21A4.15,4.15,0,0,1,80,49.15c-5.09.06-10.17,0-15.26,0ZM43.85,3v3.1q0,12.92,0,25.81A5.72,5.72,0,0,1,43.67,34a1.74,1.74,0,0,1-1.27,1,1.83,1.83,0,0,1-1.25-1.07A6,6,0,0,1,41,31.81q0-13,0-26c0-.9-.08-1.79-.13-2.81h-4.7c-3.49,0-3.58.08-3.59,3.49V29.21a5.15,5.15,0,0,1-.1,1.85c-.19.48-.87,1.16-1.19,1.09A2.2,2.2,0,0,1,30,30.93a6.3,6.3,0,0,1-.07-2.09V7.05C18.62,9.35,6.24,26.62,7.78,37.69h69.5C76.8,21.73,64.7,9.58,55,7.08c0,7.22.06,14.4-.05,21.59,0,1.22,1.05,3.53-1.38,3.45-2.06-.07-1.19-2.22-1.21-3.44-.08-7.67-.07-15.33,0-23,0-1.94-.62-2.92-2.73-2.76C47.78,3.06,46,3,43.85,3Zm-1.67,43.4c12.19,0,24.39,0,36.58,0,2,0,3-.58,2.89-2.82-.16-2.62-.23-2.81-3.32-2.81H6.56a5,5,0,0,0-1.86.11,2.49,2.49,0,0,0-1.38,1.28c-.84,3.09.05,4.21,3.2,4.21Z"/><path class="cls-2" d="M7.74,77.11c-1.91,0-3.63,0-5.35,0-1.4,0-2-.62-2-2,0-3.36,0-6.73,0-10.09,0-1.42.76-1.94,2.06-1.94H7.09c1.88-5.74,3.68-7,9.56-7,17.29,0,34.57,0,51.86,0,3.81,0,6.92.94,8.58,4.79.21.5,1.39.83,2.12.83,6,0,5.2-.14,5.23,5.42,0,2.11-.06,4.23,0,6.34.06,1.73-.68,2.47-2.39,2.29-2.83-.3-5.06-.11-6.09,3.43a6.84,6.84,0,0,1-5.85,4.56c-5.81.71-11.68,1.2-17.37-.81a17.59,17.59,0,0,1-8.54-6.68c-1.51-2.11-2.09-2.1-3.62,0a18.24,18.24,0,0,1-15.42,7.91c-2,0-4.07-.08-6.1,0C13.71,84.46,9.84,82.35,7.74,77.11ZM42.53,58.89q-13.49,0-27,0c-3.74,0-5.26,1.48-5.28,5s0,6.73,0,10.09c0,4.45,2.86,7.27,7.35,7.33,2.66,0,5.32.06,8,0A15.22,15.22,0,0,0,38.2,74.76c2.89-4,5.58-4,8.46,0,2.38,3.33,5.54,5.65,9.59,6.15a89.2,89.2,0,0,0,11.22.38c4.29,0,7.07-3,7.1-7.32,0-3.13,0-6.26,0-9.39,0-4.36-1.34-5.69-5.76-5.7Zm35,10v3.91h3.91V68.86ZM7.27,74.25v-4H3.42v4Zm70.06-8.61h4.5C80.33,64.12,78.48,64.16,77.33,65.64ZM7.58,67.16c-1.26-1.71-3.44-1.65-4.34,0Z"/><path class="cls-2" d="M26.42,64.52c-2.74,0-5.47,0-8.2,0-1.67,0-2.47.62-2.4,2.34a24.37,24.37,0,0,1-.06,4.44c-.08.58-.87,1-1.34,1.58-.46-.52-1.28-1-1.32-1.57a31.55,31.55,0,0,1,.05-6.07,3.86,3.86,0,0,1,4.08-3.48c5.86-.11,11.71-.09,17.57,0,.65,0,1.29.95,1.93,1.46-.7.43-1.39,1.19-2.12,1.23C31.89,64.61,29.15,64.52,26.42,64.52Z"/><path class="cls-2" d="M42.24,65.16c-1-.78-2.37-1.32-2.4-1.93-.1-1.85,1.55-1.5,2.72-1.52s2.7-.1,2.44,1.55C44.9,63.93,43.41,64.39,42.24,65.16Z"/></svg>