<?xml version="1.0" encoding="UTF-8"?>
<svg width="120px" height="114px" viewBox="0 0 120 114" version="1.1" xmlns="http://www.w3.org/2000/svg" xmlns:xlink="http://www.w3.org/1999/xlink">
    <!-- Generator: Sketch 53.2 (72643) - https://sketchapp.com -->
    <title>Combined Shape Copy</title>
    <desc>Created with Sketch.</desc>
    <g id="Page-1" stroke="none" stroke-width="1" fill="none" fill-rule="evenodd">
        <g id="-خدمة-استشاري-تجارة-إلكترونية" transform="translate(-97.000000, -296.000000)" fill="#7E5497" fill-rule="nonzero">
            <path d="M203.318153,296 C207.078518,296 210.508166,297.583767 212.982412,300.122823 C215.456658,302.661878 217,306.168792 217,310.040223 L217,339.189082 C217,343.047944 215.456658,346.567427 212.982412,349.106482 C210.508166,351.645538 207.078518,353.229305 203.318153,353.229305 L174.766332,353.229305 L160.570038,366 L159.320666,365.208116 C158.181533,364.227689 156.981156,363.29754 155.719535,362.430239 L158.01005,353.216736 C158.656081,350.510086 159.166911,348.419345 159.542539,346.944514 L161.941897,346.944514 L165.873744,346.944514 L164.906093,350.853654 L163.975188,354.637098 L171.642902,347.723828 L172.512563,346.944514 L173.651696,346.944514 L203.342651,346.944514 C205.424937,346.944514 207.311244,346.064644 208.683103,344.65685 C210.054962,343.249057 210.912374,341.300772 210.912374,339.176513 L210.912374,310.027653 C210.912374,307.890824 210.054962,305.955109 208.683103,304.547315 C207.311244,303.139522 205.412688,302.272221 203.342651,302.272221 L152.681847,302.272221 C150.59956,302.272221 148.713254,303.139522 147.341394,304.547315 C145.969535,305.955109 145.112123,307.903394 145.112123,310.027653 L145.112123,314.150476 C143.201319,313.107201 141.155779,312.277608 139,311.699407 L139,310.040223 C139,306.181361 140.543342,302.661878 143.017588,300.122823 C145.491834,297.571198 148.909234,296 152.681847,296 L203.318153,296 Z M193.499971,318 C196.546321,318 199.013727,320.467419 198.999943,323.5 C198.999943,326.532581 196.532537,329 193.499971,329 C190.467406,329 188,326.546366 188,323.5 C188,320.467419 190.453621,318 193.499971,318 Z M176.5,318 C179.546366,318 182,320.467419 182,323.5 C182,326.532581 179.546366,329 176.5,329 C173.467419,329 171,326.546366 171,323.5 C171,320.467419 173.467419,318 176.5,318 Z M161.5,318 C164.532581,318 167,320.467419 167,323.5 C167,326.532581 164.546366,329 161.5,329 C158.467419,329 156,326.546366 156,323.5 C156,320.467419 158.453634,318 161.5,318 Z M131.999994,317 C143.049714,317 152.012265,325.950276 151.999987,337 C151.999987,348.049724 143.049714,357 131.999994,357 C120.950273,357 112,348.049724 112,337 C112,325.950276 120.950273,317 131.999994,317 Z M167,403.290981 C144.994061,411.922376 121.762875,412.54489 97.0031609,403.290981 C96.7969311,383.298705 106.708095,370.872369 119.11828,366 L131.880269,386.973932 L145.285209,366.478857 C157.258672,371.63854 166.805901,383.897276 167,403.290981 Z" id="Combined-Shape-Copy"></path>
        </g>
    </g>
</svg>