<svg id="Layer_1" data-name="Layer 1" xmlns="http://www.w3.org/2000/svg" viewBox="0 0 85.04 69.25"><title>الايقونات جاهزة2</title><path d="M42.66.14H76.87c5.22,0,7.88,2.68,7.89,7.9V36q0,12.81,0,25.62c0,4.82-2.78,7.59-7.61,7.59q-34.57,0-69.14,0c-4.91,0-7.71-2.79-7.71-7.67q0-26.89,0-53.79C.28,3,3.1.14,7.87.14Q25.27.13,42.66.14ZM5,16.29V34.75Q5,47.92,5,61.08c0,2.9.56,3.47,3.43,3.47H76.83c2.61,0,3.26-.63,3.26-3.23q0-21.75,0-43.5c0-.5,0-1-.07-1.53ZM22.93,8.35A2.46,2.46,0,0,0,18,8.46a2.46,2.46,0,0,0,4.92-.11ZM14,8.4a2.44,2.44,0,1,0-2.37,2.44A2.42,2.42,0,0,0,14,8.4Z"/><path d="M50.32,25.58c-1.49,4.13-2.9,8.05-4.32,12-2.2,6-4.44,12.05-6.59,18.1-.38,1.06-.84,1.53-2,1.4-1-.1-2,0-3.12,0,.58-1.62,1.1-3.07,1.63-4.52C39,44,42.15,35.42,45.2,26.86a1.6,1.6,0,0,1,1.92-1.3C48.09,25.65,49.08,25.58,50.32,25.58Z"/><path d="M21.19,41.82c3.08,1.43,5.91,2.88,8.85,4,1.7.67,2.49,1.57,2.17,3.4a12.9,12.9,0,0,0,0,2c-.49-.21-.83-.33-1.14-.49L18.09,44c-.65-.34-1.39-.56-1.25-1.59S16.6,40.48,18,39.77c4.61-2.38,9.09-5,13.62-7.54a2.73,2.73,0,0,1,.6-.15c0,1.3,0,2.54,0,3.77,0,.25-.39.57-.67.72-2.95,1.51-5.93,3-8.89,4.49Z"/><path d="M53,51c-.28-4.25-.28-4.25,3.28-5.88l7.15-3.3a3.65,3.65,0,0,0,.35-.29l-4.47-2.28c-1.84-.93-3.67-1.88-5.53-2.76A1.36,1.36,0,0,1,52.86,35c.07-1,0-1.95,0-3a1.71,1.71,0,0,1,.56.08L66,39a6,6,0,0,0,.74.41c.85.32,1.62.56,1.53,1.81s-.1,2-1.41,2.68c-4.26,2.07-8.41,4.35-12.61,6.54C53.85,50.61,53.47,50.77,53,51Z"/></svg>