<svg id="Layer_1" data-name="Layer 1" xmlns="http://www.w3.org/2000/svg" viewBox="0 0 85.04 80.47"><title>الايقونات جاهزة2</title><path d="M74.35,63.2c-.27-2.7-.76-5.39-1.16-8.09-.06-.45-.31-1-.19-1.37.48-1.85,1.07-3.66,1.75-5.93H71.59c0,.89.06,1.57.11,2.26.13,1.46-.56,2-2,2-3.38,0-6.78-.07-10.17,0-.73,0-1.46.65-2.19,1,.72.46,1.44,1.26,2.18,1.29a86.87,86.87,0,0,0,8.69,0c1.66-.07,2.52.56,2.84,2.1s.66,3.11,1,4.67c-8.67-8.65-22.57-4.92-24.71,7.76-5.81,0-11.67.1-17.51-.12-.76,0-1.45-1.66-2.17-2.56l.39-.54H39.16c3.78,0,4-.23,4-4.1V54.44H49.1a16.06,16.06,0,0,0,3.18-.06c.66-.14,1.22-.8,1.83-1.21-.63-.38-1.26-1.06-1.91-1.09-2.82-.14-5.64-.1-8.47-.13-.06,0-.12-.06-.31-.16-.37-1.08-.17-1.8,1.25-1.8s2.84.1,4.24,0,2.91-.11,3.86-.83c2.09-1.59,4.35-1.3,6.64-1.31h2.3l-.19-2.66h-5c.09-9.63-.68-18.88-8.47-25.87.39-.54.78-1,1.11-1.57A11.58,11.58,0,0,0,48.91,5,10.33,10.33,0,0,0,38.33.74,10.64,10.64,0,0,0,30,9.51c-.27,1.59-.4,3.09,1.87,3.07-.24,5.17,2.2,8.3,6.76,9.83-.14,1.19-.3,2.23-.36,3.28a5.45,5.45,0,0,1-4.61,4.83,21,21,0,0,1-12-1.46A24.89,24.89,0,0,0,18.23,28c-1.7-.47-2.6.33-2.72,2-.12,1.47,0,3-.07,4.43-.13,2,.13,3.55,2.73,3.48-.73,2.54-1.47,4.9-2,7.29-.12.53.5,1.22.79,1.85.5-.39,1.25-.69,1.44-1.2.66-1.78,1.13-3.63,1.67-5.45.86-3,.86-3,4.19-2.45-1.59,5.09-2.78,10.3-2,15.58s2.2,10.23,3.41,15.63A6.8,6.8,0,0,1,23.37,68q-3.95-4.14-7.61-8.52a3.26,3.26,0,0,1-.45-2.41c.32-1.72,1-3.38,1.32-5.1.1-.49-.48-1.11-.75-1.67-.53.35-1.33.59-1.53,1.08A29.07,29.07,0,0,0,13,56c-.26,1.18-.82,1.5-2,1.64A12,12,0,0,0,1,64.89c-1.38,3-1.29,3.16,1.69,4.46.06.47.13,1,.19,1.45.62,4.54,3.33,7.57,7.61,8.52,3.94.87,7.77-1,10.23-4.76.3-.49,1.13-.63,1.73-.92s1.37-.63,2-1,1.21-1.09,1.83-1.1c7.55-.07,15.12,0,22.67-.07,1.13,0,1.7.21,2.11,1.44a10.44,10.44,0,0,0,10.13,7.53c4.61,0,8.41-2.91,10.13-7.6a2.46,2.46,0,0,1,1.46-1.33,2,2,0,0,0,1.68-2.45C74.36,67.11,74.55,65.14,74.35,63.2ZM11.24,77a7,7,0,0,1-5.8-7.24l13,3C18.07,75.68,13.65,77.46,11.24,77ZM22,71,3.26,66.68c.41-3.54,5.23-6.76,8.85-6.55a2,2,0,0,1,1.24.59c3,3.25,5.9,6.53,8.84,9.8C22.11,70.67,22.05,70.81,22,71Zm18.5-7.81H32.05c-.11-2.87,2.43-3.2,8.42-2.49Zm9.62-15.73c-1.76.15-3.53.08-5.29.1-2.87.06-3.88.91-4,3.71-.11,2.09,0,4.18,0,6.5H36.14c.09-3.79-.59-7.57.88-11.21a5.53,5.53,0,0,1,5.54-3.77H53.74C54,45.59,52.78,47.17,50.09,47.41Zm3.42-11.92c.25,1.5.33,3,.5,4.67H42.71c-.15-.47-.26-.8-.36-1.14-1-3.25-1-3.25,1.87-5.16l.53-.34c2.57-1.81,3.43-3.91,2.49-6.06-1-2.31-3-3-6.9-2.06.67-1.26,1-2.77,1.64-2.91,1.73-.37,3.38-2.33,5.41-.36C51.19,25.82,52.7,30.49,53.51,35.49ZM32.72,10c-.11-3.55,3.67-6.78,7-7a8,8,0,0,1,8.34,5.77A8.49,8.49,0,0,1,43.8,19c0-2.05,0-3.88,0-5.71,0-2.49-.78-3.23-3.32-3.26S35.3,10,32.72,10Zm1.88,2.5h6.56v7.16C37.07,20.54,33.87,17.18,34.6,12.53ZM33.32,33.68c1.79-1.07,3.61-2.08,5.35-3.22a29.22,29.22,0,0,0,2.58-2.16c1.1-.9,2.33-1.66,3.44-.19s0,2.39-1.06,3.13a29.45,29.45,0,0,1-5.5,3.48c-1.52.63-3.38.43-5.26.63l-.14-2ZM28,33.48a10.64,10.64,0,0,1,2.14-.15v1.85a11.66,11.66,0,0,1-2.15,0,5.38,5.38,0,0,1-1.41-.76A6.21,6.21,0,0,1,28,33.48ZM23.81,35.1H18.16V30.52l6.14,2C24.12,33.47,24,34.26,23.81,35.1Zm2.37,26.27A37.52,37.52,0,0,1,26.53,39c.33-1.09,1-1.33,2-1.31,3.51.06,7,0,10.83,0l.73,2.72C32,44,34,51.23,33.56,57.89A5.79,5.79,0,0,0,29.3,63C27.48,63.71,26.7,63.1,26.18,61.37ZM61.86,77.9a7.76,7.76,0,0,1-8.37-6.26H68.73C68.44,74.86,65.35,77.66,61.86,77.9ZM50.33,68.84c-.24-4.92,5-9.83,10.44-9.89,5.77-.08,11.11,4.72,10.9,9.89Z"/><path d="M84.86,28.85a4.4,4.4,0,0,0-4.56-4.57q-7.11-.12-14.21,0a4.41,4.41,0,0,0-4.56,4.56c-.08,1.69,0,3.38,0,5.07,0,3.71,0,7.42,0,11.23l.18,2.66h18a2.54,2.54,0,0,0,.39,0c2.92-.15,4.75-1.81,4.8-4.57Q85,36.05,84.86,28.85ZM67.61,26.73h11c3.56,0,4.1.65,3.6,4.49H64.37C63.51,27.67,64.2,26.73,67.61,26.73ZM64.12,34H82.29c0,.73.06,1.47.1,2.33H64.12ZM77,45.26H64.18V39h17.9c.13.2.25.31.25.44C82.68,45.18,82.61,45.26,77,45.26Z"/></svg>