<svg id="Layer_1" data-name="Layer 1" xmlns="http://www.w3.org/2000/svg" viewBox="0 0 85.04 85.04"><title>الايقونات جاهزة2</title><path d="M9.16,84.43l-.67-.27a2.24,2.24,0,0,1-1.58-2c0-1.18,0-2.36-.07-3.54a1.85,1.85,0,0,0-.45-1.16,7,7,0,0,1-2.26-5.39q0-7.17,0-14.36a7.75,7.75,0,0,1,1.56-4.77c1.16-1.53,2.25-3.12,3.36-4.69.18-.24.32-.5.58-.9-.44,0-.74-.11-1-.12H3.06c-1.07,0-1.52-.35-1.55-1.38-.06-1.56-.06-3.13,0-4.7,0-1,.48-1.37,1.47-1.37,2,0,4,0,5.94,0a1.34,1.34,0,0,1,1.51,1.19c.18.83.41,1.65.64,2.47a6.68,6.68,0,0,0,.33.78c.39-1,.69-1.87,1-2.68q2.53-7.2,5.08-14.38a6.38,6.38,0,0,1,4.88-4.44A8.13,8.13,0,0,1,24,22.57c12.24,0,24.48,0,36.73,0a6.77,6.77,0,0,1,6.6,4.71C69.11,32.5,71,37.72,72.84,43c.12.33.26.65.47,1.17a6.47,6.47,0,0,0,.32-.7c.23-.82.46-1.64.64-2.47a1.32,1.32,0,0,1,1.49-1.2c2,0,4,0,5.95,0,1,0,1.42.32,1.47,1.28q.1,2.43,0,4.86c0,1-.48,1.31-1.52,1.32H76.22c-.32,0-.64,0-1.13.06.22.39.34.65.5.88,1.13,1.59,2.26,3.19,3.41,4.77A6.81,6.81,0,0,1,80.47,57c0,5.28,0,10.56,0,15.84a6.2,6.2,0,0,1-2,4.46,2.15,2.15,0,0,0-.57,1.27c-.08,1,0,2.09,0,3.13a2.28,2.28,0,0,1-1.93,2.49,1.55,1.55,0,0,0-.35.21H67.45a2.92,2.92,0,0,0-.43-.22,2.47,2.47,0,0,1-2-2.51c0-.41,0-.82,0-1.24,0-1.49,0-1.49-1.46-1.49H20.37c-.5,0-.76.19-.73.74s0,1.32,0,2a2.46,2.46,0,0,1-2,2.51,2.58,2.58,0,0,0-.44.22ZM71.14,45c-.1-.38-.17-.66-.26-.94Q68,36,65.2,28a4.27,4.27,0,0,0-4.52-3.21H24A4.27,4.27,0,0,0,19.5,28Q16.65,36,13.83,44c-.1.28-.16.56-.27.94.52,0,.93.06,1.33.06H57.4a5.53,5.53,0,0,1,.91,0,1,1,0,0,1,1,1.12,1,1,0,0,1-1,1,8.18,8.18,0,0,1-1,0H13.55c-.55,0-1.05,0-1.45.53-1.63,2.35-3.35,4.64-4.93,7a4.5,4.5,0,0,0-.7,2.31c-.06,4.49,0,9,0,13.46,0,.77.23,1,1,1q10.48,0,21,0c.81,0,1-.27,1-1q0-4.22,0-8.42a6.31,6.31,0,0,1,6.23-6.39c4.48-.07,9-.06,13.45,0A6.31,6.31,0,0,1,55.32,62c0,2.83,0,5.67,0,8.5,0,.73.2,1,1,1q10.53,0,21,0c.72,0,.93-.19.93-.92,0-4.43,0-8.86,0-13.29a4.51,4.51,0,0,0-.87-2.78c-1.58-2.21-3.17-4.42-4.73-6.65a1.39,1.39,0,0,0-1.31-.64c-2.51,0-5,0-7.52,0-.84,0-1.39-.43-1.42-1.05S63,45,63.87,45h6C70.27,45,70.65,45,71.14,45ZM6.57,73.77a8.63,8.63,0,0,0,.47,1,4.07,4.07,0,0,0,3.59,2q31.72,0,63.46,0h.5a3.86,3.86,0,0,0,3.4-3Zm35.75-7.59h8.9c2,0,2,0,1.94-2,0-1.13,0-1.13-1.17-1.13H33.69c-2.54,0-2.08-.3-2.16,2.13,0,.74.2,1,1,1C35.77,66.16,39,66.18,42.32,66.18Zm0,5.28h9.07c1.77,0,1.77,0,1.77-1.8,0-1.29,0-1.29-1.34-1.29q-9.06,0-18.13,0c-2.55,0-2.08-.3-2.16,2.21,0,.69.21.9.89.9C35.72,71.45,39,71.46,42.32,71.46ZM31.91,60.83H53a9.09,9.09,0,0,0-.62-1.25,4.35,4.35,0,0,0-3.78-1.79H36.12a7.21,7.21,0,0,0-1.46.19A3.56,3.56,0,0,0,31.91,60.83ZM6.38,45H8.52c.44,0,.61-.19.5-.62a15.62,15.62,0,0,0-.5-1.9A1.08,1.08,0,0,0,7.78,42c-1.12-.06-2.25,0-3.37,0-.47,0-.63.21-.61.66,0,.6,0,1.21,0,1.81s.23.66.69.65C5.12,45,5.75,45,6.38,45Zm69.16,0c1.79,0,3.4,0,5,0,.13,0,.33-.34.34-.53a11.78,11.78,0,0,0,0-2c0-.2-.32-.53-.5-.53-1.18-.05-2.36-.05-3.54,0a.71.71,0,0,0-.56.35C76,43.13,75.8,44,75.54,45Z"/><path d="M42.51.1a1,1,0,0,1,1.1,1.09,5.65,5.65,0,0,0,1.55,3.72,5.25,5.25,0,0,0,3.48,1.67,1.83,1.83,0,0,1,.94.24,1.43,1.43,0,0,1,.58.89,1.66,1.66,0,0,1-.51,1,1.23,1.23,0,0,1-.69.22c-3.32.44-4.91,2-5.35,5.43-.09.68-.43,1.12-1.09,1.12a1,1,0,0,1-1.09-1.11,1.94,1.94,0,0,0,0-.24A5.52,5.52,0,0,0,37.06,9c-.34-.09-.71-.06-1.06-.13-.61-.1-1.12-.35-1.16-1.07s.44-1,1.06-1.15a11.74,11.74,0,0,0,2.37-.59,5.4,5.4,0,0,0,3.15-4.78C41.48.57,41.77.14,42.51.1Zm0,5.6-2,2.08,2,2L44.56,7.7Z"/><path d="M.46,23.55c0-.51.3-.83.91-1a9.89,9.89,0,0,0,2.46-.82,3.66,3.66,0,0,0,1.79-3c.07-.63.14-1.3,1-1.45s1.23.31,1.35,1.19c.35,2.41,1.41,3.53,3.78,4a4,4,0,0,0,.48.09,1,1,0,0,1,1,1.06,1.08,1.08,0,0,1-1,1.08c-.4.08-.82.09-1.21.2A4.2,4.2,0,0,0,7.9,28.58a2.48,2.48,0,0,1-.77,1.32c-.16.15-.8,0-1-.2a2.06,2.06,0,0,1-.49-1.16,4.17,4.17,0,0,0-3.9-3.79C.87,24.66.47,24.32.46,23.55Zm6.32-1.47c-.46.44-.9.81-1.27,1.24a.61.61,0,0,0,0,.6c.39.44.84.83,1.26,1.23,1.76-1.29,1.77-1.35.36-2.8A2.86,2.86,0,0,0,6.78,22.08Z"/><path d="M84.58,23.33c0,1-.46,1.32-1.1,1.41-2.56.36-3.68,1.45-4.07,4-.13.84-.6,1.38-1.21,1.32-.79-.07-1-.67-1.09-1.33a4.13,4.13,0,0,0-4-3.93c-.69-.08-1.19-.41-1.2-1.11s.43-1,1.11-1.09a4.24,4.24,0,0,0,4-3.23c.1-.36.09-.76.18-1.13a1,1,0,0,1,1.1-.9,1,1,0,0,1,1,.9,11.49,11.49,0,0,0,.3,1.44,3.94,3.94,0,0,0,3.24,2.8,2.7,2.7,0,0,1,.88.17A5.5,5.5,0,0,1,84.58,23.33Zm-6.33-1.25c-.47.44-.91.82-1.28,1.24a.63.63,0,0,0,0,.61c.39.44.85.83,1.18,1.15l1.63-1.48Z"/><path d="M42.36,43.24H18.25c-1.66,0-2.08-.58-1.53-2.14q2.22-6.3,4.45-12.59a2.53,2.53,0,0,1,2.77-2H60.76a2.53,2.53,0,0,1,2.77,2Q65.76,34.8,68,41.1a3.71,3.71,0,0,1,.22,1,1,1,0,0,1-1,1.09,7.63,7.63,0,0,1-.83,0ZM65.5,41a5.16,5.16,0,0,0-.1-.53c-1.3-3.71-2.61-7.41-3.9-11.13-.21-.61-.62-.65-1.15-.65q-18,0-36,0a1.13,1.13,0,0,0-1.24.9c-1.21,3.53-2.47,7.05-3.71,10.57-.08.25-.13.51-.22.85Z"/><path d="M18.52,68.36a9.12,9.12,0,0,1-6.07-1.91,3.79,3.79,0,0,1-.18-6.07,9.29,9.29,0,0,1,7.09-2.08,8.8,8.8,0,0,1,5.31,2,3.81,3.81,0,0,1,.07,6.08A9.22,9.22,0,0,1,18.52,68.36Zm0-2.19c.22,0,.44,0,.66,0a7.09,7.09,0,0,0,3.92-1.34,1.7,1.7,0,0,0,.08-2.91,2.84,2.84,0,0,0-.67-.48,8.48,8.48,0,0,0-8.2.13c-1.74,1-1.72,2.46,0,3.52A7.48,7.48,0,0,0,18.55,66.17Z"/><path d="M66.2,68.35a9.09,9.09,0,0,1-5.68-1.58c-2.82-2-2.73-5.34.28-7.06a10.33,10.33,0,0,1,10.61-.08,4.08,4.08,0,0,1,2.42,3.83,4.31,4.31,0,0,1-2.48,3.63A9.18,9.18,0,0,1,66.2,68.35Zm-.07-2.18c.25,0,.5,0,.75,0a6.86,6.86,0,0,0,4-1.47,1.62,1.62,0,0,0,0-2.74,3,3,0,0,0-1-.66,16.47,16.47,0,0,0-3.33-.8,7.18,7.18,0,0,0-4.85,1.25c-1.36,1-1.32,2.26.06,3.22A7.34,7.34,0,0,0,66.13,66.17Z"/><path d="M18.51,56.46H14.8c-.87,0-1.27-.36-1.28-1.06s.43-1.1,1.25-1.1q3.75,0,7.51,0a1.19,1.19,0,0,1,1.31,1.09c0,.6-.52,1.07-1.29,1.08Z"/><path d="M66.12,56.46H62.41c-.77,0-1.31-.47-1.3-1.07a1.19,1.19,0,0,1,1.31-1.1q3.75,0,7.5,0c.83,0,1.26.41,1.26,1.09s-.4,1.06-1.26,1.07Z"/></svg>