<svg id="Layer_1" data-name="Layer 1" xmlns="http://www.w3.org/2000/svg" viewBox="0 0 85.04 82.82"><title>الايقونات جاهزة2</title><path d="M2.25,48.49a12.25,12.25,0,0,1,.29-1.73,23.52,23.52,0,0,1,1.38-4C6.78,37.14,9.75,31.59,12.67,26a1.51,1.51,0,0,1,1.44-1,1.54,1.54,0,0,1,1.4,1L22.83,40c.16.3.35.57.61,1,.33-.74.55-1.34.85-1.9q4-7.73,8.07-15.44l3.52-6.72c.34-.64.73-1.22,1.54-1.22S38.61,16.32,39,17q4.92,9.39,9.86,18.78c.26.49.54,1,.86,1.54a2.35,2.35,0,0,0,.3-.4c1.81-3.63,3.57-7.28,5.44-10.88,3.17-6.11,6.4-12.19,9.6-18.28.33-.63.71-1.13,1.51-1.12A1.59,1.59,0,0,1,68,7.66c4.73,9,9.48,18,14.18,27.08a15.67,15.67,0,0,1,1.73,6.83,5.15,5.15,0,0,0,.2.93v.32l-.36,2.45A17.77,17.77,0,0,1,68.59,60.39c-.52.07-.74.28-.73.83,0,1.54,0,3.07,0,4.61,0,.66.17.89.85.88,2.13,0,4.26,0,6.39,0a4.39,4.39,0,0,1,1.25.18,1.28,1.28,0,0,1,1,1.4c0,1-.73,1.49-2.14,1.49q-35.28,0-70.55,0a4.4,4.4,0,0,1-1.25-.19,1.44,1.44,0,0,1,0-2.7,4.92,4.92,0,0,1,1.26-.18h6.71c1.19,0,1.19,0,1.19-1.16s-.05-2.59,0-3.89c0-.82-.23-1.16-1-1.37A11.54,11.54,0,0,1,2.8,51.55c-.24-.9-.37-1.83-.55-2.74ZM67.87,33.37l.23.09c.23-.21.48-.4.7-.62.72-.72,1.42-1.47,2.17-2.15a1.4,1.4,0,0,1,2.07,0,1.49,1.49,0,0,1-.2,2.15c-1.46,1.42-2.93,2.82-4.32,4.31a2.61,2.61,0,0,0-.63,1.56c-.06,2.86,0,5.72,0,8.58,0,.25,0,.5.07.94.35-.31.57-.48.77-.68,1.92-1.94,3.84-3.89,5.77-5.83a3.09,3.09,0,0,1,.81-.64,1.34,1.34,0,0,1,2,1.26,2.64,2.64,0,0,1-.74,1.44c-2.68,2.77-5.41,5.5-8.1,8.26a1.87,1.87,0,0,0-.55,1.09c-.07,1.21,0,2.43,0,3.64,0,.56.22.7.73.61a14.78,14.78,0,0,0,8-4.17,15.31,15.31,0,0,0,2.54-18Q73,23.66,66.94,12a7.18,7.18,0,0,0-.45-.66c-.19.3-.33.49-.44.69Q60,23.61,53.89,35.16a15.84,15.84,0,0,0-1.7,9.77,15,15,0,0,0,12,12.45c.59.09.73-.13.73-.62,0-1,0-2.11,0-3.16A2,2,0,0,0,64.31,52c-2.69-2.69-5.36-5.41-8-8.12a5,5,0,0,1-.66-.8,1.43,1.43,0,0,1,2.07-1.88,6.22,6.22,0,0,1,.71.65q2.82,2.86,5.65,5.72c.21.21.46.36.8.63a7.71,7.71,0,0,0,.1-.8c0-2.94,0-5.88,0-8.82a1.9,1.9,0,0,0-.56-1.17c-1.45-1.54-3-3-4.44-4.54a1.52,1.52,0,0,1-.14-2.22,1.45,1.45,0,0,1,2.19.14c.57.54,1.1,1.11,1.65,1.65.34.35.71.67,1.22,1.16,0-.55.11-.86.11-1.17,0-2.08,0-4.15,0-6.23,0-1,0-2.11,0-3.16a1.42,1.42,0,0,1,1.28-1.5,1.45,1.45,0,0,1,1.53,1.23,4.54,4.54,0,0,1,.08,1c0,2.88,0,5.77,0,8.65ZM38.8,57.65a30,30,0,0,0,3.77-1.4,12.12,12.12,0,0,0,5-16.49c-3.2-6.16-6.45-12.28-9.68-18.42-.13-.25-.3-.48-.54-.86-.25.43-.43.72-.59,1-3.19,6.06-6.42,12.11-9.56,18.21a11.91,11.91,0,0,0,.69,12.71,11.27,11.27,0,0,0,7.25,4.9c.51.12.7,0,.69-.54s0-1.19,0-1.78a2.1,2.1,0,0,0-.71-1.78C33.07,51.15,31,49,28.94,46.94c-.26-.27-.61-.55-.69-.87a2.07,2.07,0,0,1,.09-1.42A1.69,1.69,0,0,1,29.58,44a2.06,2.06,0,0,1,1.22.66c1.42,1.38,2.79,2.82,4.19,4.22a8.34,8.34,0,0,0,.83.63c0-.46,0-.73,0-1,0-1.94,0-3.89,0-5.83a2.26,2.26,0,0,0-.55-1.33C34.2,40.16,33,39,31.88,37.85c-.79-.82-.82-1.62-.14-2.27s1.42-.55,2.19.19c.44.43.86.88,1.3,1.31a6.24,6.24,0,0,0,.64.41V36.42c0-2.24,0-4.48,0-6.71a2,2,0,0,1,.69-1.41c1-.71,2.15.09,2.17,1.47,0,2.24,0,4.48,0,6.72,0,.28,0,.56,0,1,.37-.32.59-.5.79-.69.48-.46.93-1,1.45-1.38a1.31,1.31,0,0,1,1.81.12,1.44,1.44,0,0,1,.19,1.85,4.58,4.58,0,0,1-.57.67c-1.09,1.12-2.2,2.2-3.26,3.34a1.71,1.71,0,0,0-.44,1c0,2.08,0,4.15,0,6.23a8.26,8.26,0,0,0,.11.82c.35-.33.57-.51.78-.72,1.41-1.43,2.81-2.87,4.24-4.28a1.46,1.46,0,0,1,2.6.51,1.68,1.68,0,0,1-.67,1.7Q42.6,50,39.35,53.35c-.22.22-.51.5-.53.76C38.76,55.18,38.8,56.26,38.8,57.65ZM51.06,51c-.25.45-.43.77-.6,1.09s-.34.73-.55,1.07a14.73,14.73,0,0,1-10.39,7.21c-.58.1-.76.32-.75.89,0,1.53,0,3.07,0,4.61,0,.62.15.84.8.84q12.27,0,24.54,0c.62,0,.86-.2.85-.83,0-1.51,0-3,0-4.53,0-.61-.19-.89-.84-1a17.6,17.6,0,0,1-11.58-7.11C52,52.56,51.6,51.83,51.06,51Zm-37-21.31c-.47.87-.83,1.51-1.17,2.17-2.25,4.31-4.61,8.57-6.72,13A9,9,0,0,0,9.93,56.53a23.56,23.56,0,0,0,2.62,1.07c0-.9-.05-1.52,0-2.13a2.19,2.19,0,0,0-.78-1.91c-1.43-1.38-2.81-2.8-4.19-4.22a1.48,1.48,0,0,1-.13-2.22,1.45,1.45,0,0,1,2.19.14c.71.69,1.39,1.42,2.1,2.11a9,9,0,0,0,.8.63c0-1.09.06-2,0-2.8A2.84,2.84,0,0,0,12,45.87c-.46-.59-1.06-1.07-1.55-1.63a1.41,1.41,0,0,1-.2-1.79,1.39,1.39,0,0,1,1.66-.64l.67.13c0-1.06,0-2,0-3A1.52,1.52,0,0,1,14,37.42a1.54,1.54,0,0,1,1.46,1.45c0,.27,0,.54,0,.81v2.25a2.14,2.14,0,0,0,.48-.06,1.4,1.4,0,0,1,1.86.63,1.51,1.51,0,0,1-.41,2c-.48.5-1,1-1.46,1.49-.16.17-.41.38-.41.57,0,1.09,0,2.18,0,3.5.38-.32.6-.49.8-.68a29.7,29.7,0,0,1,2.11-2.09,2.06,2.06,0,0,1,1.42-.48c1.22.19,1.53,1.57.6,2.54-1.46,1.53-3,3-4.43,4.55a2.41,2.41,0,0,0-.52,1.26,12,12,0,0,0,0,1.7c0,.56.21.69.74.55a8.42,8.42,0,0,0,4.24-2.6,9,9,0,0,0,1.23-10.65C19.56,40,17.4,36,15.27,31.91,14.92,31.24,14.57,30.59,14.09,29.69Zm10.8,23.69c-.18.28-.32.46-.43.67a11.68,11.68,0,0,1-8.28,6.35.8.8,0,0,0-.74.93q0,2.27,0,4.53c0,.61.15.85.81.85q9.41,0,18.83,0c.59,0,.81-.19.8-.78,0-1.46-.05-2.91,0-4.37,0-.79-.22-1.13-1-1.28A14.41,14.41,0,0,1,25.45,54,8.32,8.32,0,0,0,24.89,53.38Z"/><path d="M43.65,82.8c-.18-.1-.36-.19-.54-.3a1.43,1.43,0,0,1-.81-1.45,1.34,1.34,0,0,1,1.08-1.25,4.47,4.47,0,0,1,1.09-.15q11.42,0,22.83,0a5.24,5.24,0,0,1,.79,0,1.53,1.53,0,0,1,1.47,1.35c.1.68-.32,1.21-1.2,1.57a1.51,1.51,0,0,0-.26.18Z"/><path d="M30.86,82.8c-.08-.06-.16-.16-.25-.18A1.37,1.37,0,0,1,29.47,81a1.3,1.3,0,0,1,1.37-1.3c1.75-.06,3.5-.07,5.25,0A1.36,1.36,0,0,1,37.5,81a1.4,1.4,0,0,1-1.12,1.61c-.1,0-.16.13-.24.19Z"/><path d="M18.23,82.8c-.21-.1-.49-.15-.62-.31a3.4,3.4,0,0,1-.81-1.36,1.18,1.18,0,0,1,1-1.3,12.67,12.67,0,0,1,2.13-.18c1.09,0,2.18,0,3.27.06a1.47,1.47,0,0,1,1.47,1.34c.1.68-.32,1.21-1.21,1.57a1.44,1.44,0,0,0-.25.18Z"/><path d="M23.85,9a5.49,5.49,0,0,1,3.55,1.55c.55.52.88.56,1.43,0A5.42,5.42,0,0,1,32.89,9a1.33,1.33,0,0,1,1.42,1.13,1.37,1.37,0,0,1-1,1.67,1.18,1.18,0,0,1-.3.1c-2.12.15-3.18,1.35-3.46,3.42A1.48,1.48,0,0,1,28,16.81c-.76,0-1.28-.69-1.41-1.69a3.31,3.31,0,0,0-2.53-3.06c-.3-.08-.63-.08-.94-.16a1.52,1.52,0,0,1-1.3-1.57A1.47,1.47,0,0,1,23.5,9Z"/><path d="M2.46,5.59A1.41,1.41,0,0,1,4,4.11,5.89,5.89,0,0,1,8,5.78c.5.5.83.46,1.31,0A6,6,0,0,1,13.38,4.1a1.55,1.55,0,0,1,1.56,1.34A1.48,1.48,0,0,1,13.79,7c-.38.1-.78.12-1.17.22a3.38,3.38,0,0,0-2.45,2.88A4.38,4.38,0,0,1,10,11a1.3,1.3,0,0,1-1.38.88,1.35,1.35,0,0,1-1.29-1A6.09,6.09,0,0,1,7.13,10,3.18,3.18,0,0,0,4.25,7.13C3,7,2.46,6.5,2.46,5.59Z"/><path d="M42.89.12a5.66,5.66,0,0,1,4,1.62c.5.5.81.46,1.3,0a5.54,5.54,0,0,1,4-1.61,1.44,1.44,0,0,1,1.56,1.3A1.45,1.45,0,0,1,52.51,3c-.33.09-.68.1-1,.18A3.36,3.36,0,0,0,49,6.05c-.18,1.49-1.07,2.18-2.14,1.67A1.75,1.75,0,0,1,46,6.19a3.32,3.32,0,0,0-3.07-3.14,2.36,2.36,0,0,1-1.4-.76,1.85,1.85,0,0,1,0-1.48A1.22,1.22,0,0,1,42.89.12Z"/><path d="M37.09,76.25H20.4a4.3,4.3,0,0,1-1.34-.19,1.44,1.44,0,0,1,0-2.69,4.07,4.07,0,0,1,1.25-.18q16.86,0,33.71,0a4,4,0,0,1,1.25.18,1.31,1.31,0,0,1,.93,1.36,1.29,1.29,0,0,1-.94,1.34,4.66,4.66,0,0,1-1.34.18Z"/><path d="M68,76.25H63c-1.19,0-2-.67-2-1.56s.79-1.51,1.93-1.51c3.41,0,6.81,0,10.22,0a2.73,2.73,0,0,1,.93.17,1.44,1.44,0,0,1,0,2.73,4.25,4.25,0,0,1-1.18.16C71.23,76.26,69.61,76.25,68,76.25Z"/><path d="M83.88,68.26a1.4,1.4,0,1,1-1.37-1.44A1.33,1.33,0,0,1,83.88,68.26Z"/><path d="M13.87,74.72a1.32,1.32,0,0,1-1.4,1.4,1.41,1.41,0,0,1,0-2.82A1.32,1.32,0,0,1,13.87,74.72Z"/></svg>