<svg id="Layer_1" data-name="Layer 1" xmlns="http://www.w3.org/2000/svg" viewBox="0 0 85.04 85.04"><title>الايقونات جاهزة2</title><path d="M.16,46c.38-1.18,1.22-1.5,2.42-1.48,4.59.05,9.18.09,13.77,0A3.41,3.41,0,0,1,20,48.23c-.06.79-.26,1.93.15,2.3s1.56.22,2.37.22c3.1,0,6.2,0,9.29,0a11,11,0,0,1,8.74,3.6c2.14,2.31,4.44,4.47,6.65,6.73a.9.9,0,0,0,1.33.2c3-1.79,6.12-3.55,9.18-5.32a1,1,0,0,0,.47-.53h-11c-2.58,0-3.87-1.3-3.87-3.88V4.68c0-3,.39-3.58,3.09-4.61H82A5.43,5.43,0,0,1,83.8.93a11.44,11.44,0,0,1,1.33,2.29V52.34c-1,2.69-1.63,3.09-4.61,3.09-4.93,0-9.85,0-14.77,0a2.86,2.86,0,0,0-1.4.36Q58.16,59.33,52,62.92c-.22.12-.42.28-.63.42l.07.18h.8c1.69,0,3.38,0,5.06,0a5.79,5.79,0,0,1,6,6c-.1,3.16-2.69,5.49-6.18,5.51q-5.8,0-11.61,0a10.11,10.11,0,0,1-5.64-1.66c-1.56-1-3.15-2-4.72-3.08a3.23,3.23,0,0,1-.7-.57,1.4,1.4,0,0,1-.12-1.83,1.43,1.43,0,0,1,1.81-.6,4.54,4.54,0,0,1,.87.46l4.59,3a6.52,6.52,0,0,0,3.74,1.11c4,0,8.08,0,12.11,0a2.55,2.55,0,1,0,0-5.09c-1.91,0-3.82,0-5.72,0A7.56,7.56,0,0,1,46,64.32c-2.66-2.74-5.38-5.41-8.07-8.12A6.93,6.93,0,0,0,32.88,54c-4,0-8,0-12,0-.66,0-.84.2-.84.85q0,9.78,0,19.58a1.15,1.15,0,0,0,.66,1.11c2,1.18,4,2.41,6,3.6a18.61,18.61,0,0,0,9.84,2.71c8.22,0,16.43,0,24.64,0a15.37,15.37,0,0,0,9.09-2.63c3.73-2.66,7.28-5.58,10.81-8.5A2.79,2.79,0,0,0,80,66a3.2,3.2,0,0,0-3.27.54Q72.36,69.8,68,73.08a1.58,1.58,0,0,1-2.41-.19,1.56,1.56,0,0,1,.5-2.3c3-2.27,6-4.58,9-6.77a6.22,6.22,0,0,1,9.74,3.42c.13.5.2,1,.3,1.53v.33c-.06.09-.16.18-.17.27a6.41,6.41,0,0,1-2.7,4.38c-2.54,2-5.07,4.1-7.6,6.15A21.47,21.47,0,0,1,65,84.5c-1.19.22-2.39.36-3.58.53H35.67a7.87,7.87,0,0,0-1-.17,17.16,17.16,0,0,1-6.63-1.58c-2.39-1.18-4.67-2.59-7-3.9-.3-.17-.61-.32-1.05-.54,0,1.07,0,2,0,2.88a3.25,3.25,0,0,1-2.17,3l-.76.27H1.66a2.62,2.62,0,0,1-1.5-1.49ZM46.62,3.37v48.8H81.8V3.37ZM16.83,81.72c0-.31.07-.58.07-.85q0-16.12,0-32.26c0-.78-.29-1-1-1q-5.77,0-11.53,0c-.78,0-1,.24-1,1q0,16.08,0,32.17v.91Z"/><path d="M20.12,19.34a3.8,3.8,0,0,1,2.08-3q5.43-3.1,10.84-6.25c1.22-.7,2.43-1.42,3.66-2.1a1.41,1.41,0,0,1,1.84.13A2.1,2.1,0,0,1,39,9.63a2.42,2.42,0,0,1-1.11,1.22c-3.5,2.07-7,4.08-10.54,6.11-1.08.62-2.14,1.27-3.24,1.85-.63.33-.73.6-.35,1.26Q29.67,30.17,35.48,40.3c.75,1.29,1.51,2.57,2.24,3.87a1.64,1.64,0,0,1-.43,2.45c-.81.47-1.65.16-2.27-.85-.09-.14-.17-.28-.25-.43L28.51,34.51c-2.54-4.4-5.09-8.8-7.61-13.21A16.66,16.66,0,0,1,20.12,19.34Z"/><path d="M76.44,19a12.16,12.16,0,0,1-12.2,12.18A12,12,0,0,1,52,18.94,12,12,0,0,1,64.23,6.8,12.16,12.16,0,0,1,76.44,19Zm-4.65,4.8c2.42-3.11,1.78-8.52-1.37-11.34a9,9,0,0,0-12.55.13c-3.55,3.48-3.22,8.69-1.2,11.2,1-.81,2.09-1.6,3.1-2.42a.58.58,0,0,0,.08-.56,6.37,6.37,0,0,1-.56-3.3,5,5,0,0,1,3.87-4.68,4.89,4.89,0,0,1,5.31,2.35,6.23,6.23,0,0,1,.21,5.43c-.09.23-.12.66,0,.77C69.68,22.18,70.71,23,71.79,23.78ZM59,26.26c2.76,2.32,8.05,2.3,10.38,0a5.91,5.91,0,0,0-5-2.8A6.05,6.05,0,0,0,59,26.26Zm7-8.19a2,2,0,0,0-1.81-2.23c-1.06,0-1.82.92-1.82,2.22s.68,2.13,1.77,2.15S66,19.41,66,18.07Z"/><path d="M64.89,37.41H56.18c-.19,0-.38,0-.58,0-1.16,0-1.94-.71-1.91-1.64a1.71,1.71,0,0,1,1.9-1.56q9.28,0,18.57,0c1.45,0,2.29,1.13,1.73,2.26a1.85,1.85,0,0,1-1.89.93Z"/><path d="M61.39,44.71c-1.93,0-3.87,0-5.8,0-1.39,0-2.18-1-1.78-2.12a1.61,1.61,0,0,1,1.63-1.06c4,0,8,0,11.94,0a1.62,1.62,0,0,1,1.76,1.6,1.66,1.66,0,0,1-1.86,1.58C65.32,44.73,63.36,44.71,61.39,44.71Z"/><path d="M76.07,43.09a1.64,1.64,0,0,1-1.53,1.58,1.56,1.56,0,1,1,0-3.12A1.64,1.64,0,0,1,76.07,43.09Z"/><path d="M11.72,66.1c0,1,0,2,0,3s-.59,1.79-1.51,1.81a1.5,1.5,0,0,1-1.64-1.66c-.07-2.07-.07-4.15,0-6.22a1.53,1.53,0,0,1,1.66-1.66c.9,0,1.47.74,1.49,1.84S11.72,65.13,11.72,66.1Z"/><path d="M8.62,75.09a1.46,1.46,0,0,1,1.51-1.52,1.57,1.57,0,0,1,1.58,1.49,1.7,1.7,0,0,1-1.59,1.6A1.57,1.57,0,0,1,8.62,75.09Z"/></svg>