<svg id="Layer_1" data-name="Layer 1" xmlns="http://www.w3.org/2000/svg" viewBox="0 0 85.04 85.04"><title>الايقونات جاهزة2</title><path d="M3.8,67.11l-2.33,1a34.68,34.68,0,0,1-.54-3.93A138,138,0,0,1,6.79,22.61c.23-.78.44-1.56.7-2.45-3.08-1.4-4.13-3.86-3.86-7.06.1-1.18,0-2.37,0-3.55C3.75,4.5,7.06.92,12.12.87c12.51-.11,25-.08,37.53,0,3.36,0,6.29,1.5,7.45,4.68,1.69,4.62,2.81,9.45,4.23,14.4l-2.79.62c-1.16-4.32-2.23-8.53-3.43-12.7a5.46,5.46,0,0,0-6.26-4.09C46,4.14,44.28,6,44.14,9.2c1.9,0,3.8.09,5.69,0s2.55.77,2.49,2.5c0,1,0,2.07-.1,3.1-.34,3.55-2.39,5.45-5.95,5.54-.8,0-1.61,0-2.59,0-1.17,4.19-2.32,8.31-3.52,12.64l-2.66-.38c1.06-4.11,2.09-8.07,3.15-12.15H10.4A135.13,135.13,0,0,0,3.8,67.11ZM42.94,3.75c-10.75,0-21.16-.08-31.57.06-2.86,0-4.72,2.33-4.94,5.33-.1,1.39,0,2.8,0,4.21,0,3.36.85,4.21,4.18,4.21q14.52,0,29.05,0c.62,0,1.24-.08,1.75-.12C41.36,12.81,40.24,8.28,42.94,3.75Zm1.2,8.33c0,1.83-.82,3.8,1.1,4.9a3.49,3.49,0,0,0,3-.07c1.8-1.12,1.25-3,1.08-4.83Z"/><path d="M36.32,64.74c6.44,0,12.88,0,19.32,0a10.57,10.57,0,0,1,8.3,3.53,3.47,3.47,0,0,0,2.21,1c3.37.2,5.56,2.29,5.5,5.41S69.38,79.52,66,79.68a3.42,3.42,0,0,0-2.13,1,10,10,0,0,1-7.64,3.49q-19.87,0-39.76,0A10.28,10.28,0,0,1,8.64,80.7a3.4,3.4,0,0,0-2.13-1C3.23,79.53,1,77.57.93,74.59s2.15-5.14,5.56-5.37a3.59,3.59,0,0,0,2.18-1,10.31,10.31,0,0,1,7.87-3.46C23.13,64.76,29.72,64.74,36.32,64.74ZM23.47,67.5c3.22,7,3.22,7.61.13,13.62.18.08.37.24.55.24,10.87,0,21.74.1,32.6-.06,4.08-.06,6.63-3.17,6.51-7.17a6.76,6.76,0,0,0-7-6.61C45.43,67.45,34.56,67.5,23.47,67.5Zm-12,2.19c3.17.49,7.17,0,7.28,4.63s-3.89,4.49-7.24,4.93a6.53,6.53,0,0,0,9.46.12,7,7,0,0,0,.1-9.76C18.76,67.2,14.15,66.55,11.51,69.69ZM7.2,76.79c2.63-.24,4.92-.33,7.16-.72A2.77,2.77,0,0,0,16,74.41c.12-.31-.73-1.41-1.22-1.47a69.93,69.93,0,0,0-9-.69,2.87,2.87,0,0,0-1.92,2.11c.08.87,1.17,1.73,2,2.38C6.19,77,7,76.79,7.2,76.79ZM66.07,72.2v4.5c1.73.25,2.67-.61,2.76-2.08C68.93,73,67.94,72.09,66.07,72.2Z"/><path d="M73.39,51.73l-6.14-3.24.8-2.83,8.09,4.74-.19.76a39.7,39.7,0,0,0,3.62-2c2.45-1.71,2.52-3.4-.08-4.95a55.92,55.92,0,0,0-7.08-3.09c-.67-.27-1.39-.43-2.27-.71l.43-2.65c4.56,1.16,8.94,2.21,12.15,5.66A6.14,6.14,0,0,1,84.08,47a13,13,0,0,1-.55,5c-2.09,5.84-4.38,11.61-6.64,17.39a13.27,13.27,0,0,1-1.27,2L73.76,70,80.7,52.5a92.54,92.54,0,0,1-62.34,0l3.34,8.91-2.49,1c-1.79-4.66-3.91-9-4.42-14a6.68,6.68,0,0,1,3.45-6.88c4.63-2.89,9.86-3.94,15.11-4.81,2.91-.49,5.86-.72,9-1.09l.23,2.53c-4.91.83-9.74,1.43-14.46,2.53a33.54,33.54,0,0,0-8.41,3.28c-2.95,1.62-2.84,3.46,0,5.33A36.44,36.44,0,0,0,23,51.13c3.95-5,9.6-5.33,15.16-6.53l.38,2.67C34.2,48.41,29.63,48.59,26,51.71,34.06,55.77,61.88,56.27,73.39,51.73Z"/><path d="M55.44,52.87,53,51.58c2.72-5.13,5.41-10.13,8-15.17a16.74,16.74,0,0,0,.93-3.09,18.33,18.33,0,0,0-2.75,1.89c-4.26,4.17-6.78,9.46-9.43,14.68-.4.78-.82,1.56-1.35,2.57L46,51.28c3.66-7.63,7.25-15.12,13.68-20.84A19.32,19.32,0,0,0,49,38.2C46.5,41.91,44.5,46,42.2,50L40,49c3.76-9,8.26-17.12,17.7-21.26a6.42,6.42,0,0,0,2.65-2.39C64,19.66,67.4,13.86,71,8.15c1.85-3,5-3.82,7.61-2.24a5.29,5.29,0,0,1,2,7.33c-3.89,6.46-8,12.81-11.86,19.26a5.15,5.15,0,0,0-.54,2.68c.22,6.46-2,12.15-5.42,17.63L60.33,51.6c2.86-5.07,5.29-10.19,4.52-16.34Zm6.47-24c.61.73,1.1,1.77,1.89,2.1a3.81,3.81,0,0,0,2.63-.35c.52-.23.85-1,1.2-1.55q5-8.13,10-16.28c1.22-2,1-3.57-.43-4.46S74.3,8,73,10.07q-5,8.15-9.94,16.3C62.68,27.05,62.4,27.81,61.91,28.86Z"/></svg>