<svg id="Layer_1" data-name="Layer 1" xmlns="http://www.w3.org/2000/svg" viewBox="0 0 85.04 85.04"><title>الايقونات جاهزة2</title><path d="M56.94,84.64c0-.38.06-.76.06-1.15,0-6.52.07-13,0-19.57a4.27,4.27,0,0,1,4.52-4.52c1.06.09,2.15,0,3.22,0,.52,0,.74-.2.74-.73,0-4.44,0-8.87,0-13.3a1.12,1.12,0,0,0-.52-.81,4.22,4.22,0,0,1-2.27-4c0-1.62,0-3.25,0-4.87,0-1.25.48-1.73,1.75-1.74h9.83c2.81,0,5.62,0,8.42,0A2.2,2.2,0,0,1,85,35.21V41a5.58,5.58,0,0,0-.23.69,3.5,3.5,0,0,1-1.76,2.57,1.77,1.77,0,0,0-1,1.93c0,7.08,0,14.16,0,21.24,0,3.09,0,6.17,0,9.26a8.33,8.33,0,0,1-6.7,7.68L74,84.64h-.33a4.28,4.28,0,0,0-.78-.21,8.34,8.34,0,0,1-7.4-8.08c0-4.41,0-8.81,0-13.22,0-1.2,0-1.21-1.17-1.21H61.71c-1.69,0-2.2.53-2.2,2.23q0,9.76,0,19.51c0,.33.05.66.07,1ZM79.5,65.48c0-3.72,0-7.43,0-11.15,0-.64-.18-.86-.84-.86q-5,0-9.91,0c-.6,0-.83.21-.82.81,0,1.43,0,2.86,0,4.29,0,.68.29.86.9.84,1,0,2,0,3,0,1.88,0,1.65-.32,1.7,1.73,0,.65-.27.8-.85.78-1.18,0-2.36,0-3.55,0S68,61.92,68,63.13q0,5.91,0,11.81a15.46,15.46,0,0,0,.15,2,5.65,5.65,0,0,0,6.26,4.92,5.73,5.73,0,0,0,5.13-5.61C79.51,72.69,79.5,69.08,79.5,65.48Zm-5.77-29H66c-.45,0-.91,0-.91.66,0,1.21,0,2.42,0,3.63a1.53,1.53,0,0,0,1.71,1.6h13.8c1.11,0,1.64-.55,1.65-1.69s0-2.15,0-3.22c0-.79-.27-1-1-1C78.8,36.53,76.26,36.51,73.73,36.51Zm.07,8.54c-1.71,0-3.41,0-5.12,0-.52,0-.74.17-.74.71,0,1.48,0,3,0,4.45,0,.54.24.75.75.75H78.75c.57,0,.77-.23.76-.8,0-1.45,0-2.91,0-4.37,0-.58-.19-.76-.76-.75C77.1,45.07,75.45,45.05,73.8,45.05Z"/><path d="M85,7.11a1.78,1.78,0,0,0-.21.52,7,7,0,0,1-2.33,4.68c-2.67,2.67-5.33,5.35-8,8-.5.5-.57.83-.13,1.43a3.88,3.88,0,0,1-.25,4.89c-.65.75-1.36,1.44-2.08,2.13a4.07,4.07,0,0,1-6,0c-1.08-1-.86-1.08-1.95,0q-8.72,8.7-17.41,17.41c-.68.67-1.3,1.41-2.41.77-.13-.07-.54.2-.73.39-1.23,1.19-2.4,2.44-3.65,3.59a4,4,0,0,1-6.69-2,3.88,3.88,0,0,1,1.05-3.87c1.16-1.19,2.32-2.36,3.5-3.52A.86.86,0,0,0,38,40.42a1.81,1.81,0,0,1,.18-1.22c.11-.28.42-.49.66-.73L56.44,20.83c.8-.8.79-.8,0-1.6-2-2.07-2-4.35,0-6.39.58-.59,1.15-1.19,1.76-1.74a3.92,3.92,0,0,1,5.21-.32c.57.41.85.23,1.24-.16C67.27,8,69.89,5.4,72.49,2.77a7.33,7.33,0,0,1,5-2.57c.15,0,.29-.13.44-.2h.17a2.36,2.36,0,0,0,.59.22,6.75,6.75,0,0,1,6.13,6.13,2.36,2.36,0,0,0,.22.59ZM82.32,7a4.08,4.08,0,0,0-2.53-3.92A4.19,4.19,0,0,0,74.9,4C72,6.81,69.21,9.68,66.35,12.51c-.41.41-.4.68,0,1.08q2.57,2.52,5.09,5.08c.38.39.65.46,1.08,0,2.84-2.88,5.72-5.72,8.57-8.6A4.06,4.06,0,0,0,82.32,7ZM72.53,23.75a3.82,3.82,0,0,0-.56-.94q-4.84-4.89-9.75-9.75a1.54,1.54,0,0,0-2.41,0c-.58.54-1.15,1.11-1.69,1.69a1.57,1.57,0,0,0,0,2.53q4.8,4.84,9.64,9.63a2.1,2.1,0,0,0,1.14.57C69.94,27.63,72.56,25,72.53,23.75Zm-37,24c.07.31.09.44.13.57a1.55,1.55,0,0,0,2.71.52c1.54-1.5,3-3,4.56-4.55a1.5,1.5,0,0,1,1.85-.45.75.75,0,0,0,.69-.14c2.47-2.43,4.92-4.89,7.38-7.33.33-.34.27-.6,0-.9-1.1-1.09-2.19-2.17-3.27-3.27-.33-.33-.58-.31-.9,0-2.42,2.44-4.86,4.86-7.28,7.31-.15.15-.3.49-.23.61.52.94,0,1.56-.59,2.17-1.43,1.41-2.86,2.83-4.25,4.27A6.47,6.47,0,0,0,35.5,47.79ZM59.07,22.14c-2.63,2.61-5.3,5.28-7.92,7.89L55,33.93l7.88-8Z"/><path d="M.4,71.91c.43-1,1.23-1.26,2.3-1.26q23.17,0,46.34,0c1.62,0,2,.41,2,2.06a23.59,23.59,0,0,1-.14,2.79,3.58,3.58,0,0,1-2,2.77c-.57.29-.64.67-.71,1.24a10.48,10.48,0,0,1-.68,3,3.45,3.45,0,0,1-2.66,1.88,4.94,4.94,0,0,0-.68.23H7.34c-.25-.08-.5-.18-.76-.25a3.94,3.94,0,0,1-3.07-3,7.88,7.88,0,0,1-.12-1.89,1.18,1.18,0,0,0-.71-1.17A3.87,3.87,0,0,1,.61,75.41a2.57,2.57,0,0,0-.21-.52Zm25.42,1.27H4.5a3.94,3.94,0,0,0-.91,0,.66.66,0,0,0-.43.38c-.47,1.67.31,2.69,2,2.69H46.35a5.62,5.62,0,0,0,.82,0c.95-.15,1.43-1,1.36-2.31-.05-1.06-.83-.77-1.4-.77Zm0,8.73h9.58c2.92,0,5.84,0,8.76,0,1.11,0,1.6-.78,1.58-2.24,0-1.12-.83-.82-1.42-.82H7.34a4.49,4.49,0,0,0-.9,0,.7.7,0,0,0-.47.36,1.88,1.88,0,0,0,2,2.68Z"/><path d="M36.88,62.06a5.39,5.39,0,0,1-5.4,5.48,5.47,5.47,0,1,1,0-10.93A5.37,5.37,0,0,1,36.88,62.06Zm-2.52,0a3,3,0,0,0-2.91-3,3,3,0,1,0,0,5.92A3,3,0,0,0,34.36,62.07Z"/><path d="M9.05,40.83a4.1,4.1,0,0,1,4.07-4A4.2,4.2,0,0,1,17.18,41,4.16,4.16,0,0,1,13.12,45,4.06,4.06,0,0,1,9.05,40.83Zm4.07,1.57a1.49,1.49,0,1,0,0-3,1.46,1.46,0,0,0-1.5,1.51A1.5,1.5,0,0,0,13.12,42.4Z"/><path d="M42.64,8.42c0,1.28,0,1.28-1.27,1.28-1.63,0-1.61,0-1.65,1.61,0,.39-.16,1.09-.33,1.12a7.35,7.35,0,0,1-2,0c-.08,0-.16-.44-.17-.67-.06-2-.06-2-2.07-2-.58,0-.76-.22-.75-.78,0-2.06-.21-1.72,1.68-1.74,1.13,0,1.12,0,1.14-1.12,0-1.92-.35-1.67,1.79-1.7.59,0,.76.23.77.78.07,2,.08,2,2.08,2C42.94,7.15,42.57,7.9,42.64,8.42Z"/><path d="M16,14.28c1.21,0,1.21,0,1.21,1.3s0,1.21-1.37,1.21c-1.14,0-1.14,0-1.13-1.38C14.68,14.28,14.68,14.28,16,14.28Z"/><path d="M28.74,26.71c0-1.18,0-1.18,1.33-1.18s1.19,0,1.19,1.33,0,1.18-1.34,1.18S28.74,28,28.74,26.71Z"/></svg>