<svg id="Layer_1" data-name="Layer 1" xmlns="http://www.w3.org/2000/svg" viewBox="0 0 85.04 80.75"><title>الايقونات جاهزة2</title><path d="M81.15,20.47c-4.51-4.5-9-9-13.52-13.47C66.07,5.43,64.55,3.83,63,2.2A15,15,0,0,1,62,.74,1.26,1.26,0,0,0,61.59.3,2.12,2.12,0,0,0,59.1,1a2.35,2.35,0,0,1-.64.52Q41.57,12.31,24.66,23a3.12,3.12,0,0,1-1.55.43q-8,.06-16.1,0a1.69,1.69,0,0,0-1.52.77c-.91,1.22-1.87,2.4-2.79,3.61-.77,1-1.54,2-2.44,3.17H10.75a1.9,1.9,0,0,1,.42,0h.16c.23,0,.45,0,.67,0h4.59q16.13,0,32.26,0c1.17,0,2.21,0,2.7,1.3a1.31,1.31,0,0,0,.27.31,6.17,6.17,0,0,0,4.66,2l.23,0h8.41a5.35,5.35,0,0,1,1.06,0c1.24,0,1.24,0,1.24-1.2,0-.47,0-.94,0-1.41s.17-.83.74-.82c1.55,0,3.1,0,4.65,0,.57,0,.77.26.75.82,0,.92,0,1.83,0,2.75,0,1.93-.36,1.68,1.79,1.72.6,0,.78-.24.77-.79,0-.89,0-1.77,0-2.66,0-2,0-2,2-1.84.57,0,.77.28.75.83,0,.92,0,1.83,0,2.74,0,1.93-.32,1.68,1.72,1.72.61,0,.82-.21.81-.82,0-1.21,0-2.43,0-3.65,0-.56.24-.82.79-.81s.83,0,1.25,0a1.54,1.54,0,0,0,1.5-.64V24.41C83.67,23.09,82.43,21.75,81.15,20.47ZM60.48,2.41A2.06,2.06,0,0,1,60.74,2c.1.73.18,1.25.25,1.77.14,1.23.29,2.45.44,3.69.09.65-.34.7-.82.69s-.69-.22-.64-.72C60.15,5.75,60.31,4.08,60.48,2.41Zm-1,10.12c.09-.81.2-1.63.29-2.45s.67-.48,1.09-.52.84-.09.9.55c.08,1,.17,1.92.34,2.86s-.24,1.08-1,1h-.34C59.37,14,59.32,13.91,59.49,12.53Zm-50.33,17H3.22l3.1-4,3,3.82Zm2.17-1.29A.81.81,0,0,1,10.05,28c-.66-.93-1.38-1.82-2.22-2.9h8.84l.07.14a5.12,5.12,0,0,1-.62.45C14.53,26.52,12.91,27.36,11.33,28.27Zm9.38,1.28H12.29a4.3,4.3,0,0,1,.63-.52c1.59-.88,3.2-1.73,4.79-2.63a.69.69,0,0,1,1.05.18c.69.94,1.42,1.86,2.14,2.78Zm1.18-1.31c-.76-.87-1.45-1.82-2.14-2.75a1.72,1.72,0,0,1-.17-.43h10a7.58,7.58,0,0,1-.76.51c-2,.95-4,1.9-6,2.8A1,1,0,0,1,21.89,28.24Zm12.56,1.33H24.1a6.23,6.23,0,0,1,.65-.51c1.91-.9,3.84-1.79,5.75-2.71a1,1,0,0,1,1.38.25c.87.94,1.8,1.82,2.71,2.73Zm.9-1.46c-.74-.81-1.55-1.56-2.33-2.35-.16-.17-.27-.37-.52-.7h7.76l.24.29a6,6,0,0,0-.71.37c-1.09.8-2.17,1.61-3.24,2.44C36.11,28.5,35.77,28.56,35.35,28.11Zm2,1.45a7,7,0,0,1,.67-.71c1.32-1,2.65-2,4-3a.81.81,0,0,1,1.27,0c1,1,2,2,3,2.92.17.16.32.37.63.74Zm12-.18c0,.06-.1.11-.2.23L44.62,25c1.55,0,3,0,4.44,0,.12,0,.34.25.34.38C49.41,26.74,49.38,28.06,49.35,29.38Zm1-9.51c0,1,0,1.94,0,2.91,0,.45-.12.72-.66.72-7.41,0-14.82,0-22.23,0a3.63,3.63,0,0,1-.5-.15L58.71,3.1l.24.18c-.11,1.2-.23,2.4-.34,3.61-.2,2.08-.44,4.16-.6,6.25-.06.72-.41.85-1,.84a6.74,6.74,0,0,0-3.53.71A5.78,5.78,0,0,0,50.31,19.87Zm14.08,8c-2.44-.07-4.91,0-7.34-.29a5.93,5.93,0,0,1-5-5.89,9.58,9.58,0,0,1,.49-3.16c.8-2.18,2.65-3,4.83-3.14,2.43-.11,4.86,0,7.29,0,.65,0,.8.28.79.85,0,1.8,0,3.59,0,5.38s0,3.49,0,5.23C65.44,27.57,65.08,27.9,64.39,27.87Zm8.49,1.92H68.07c-.44,0-.65-.18-.65-.64,0-1.12,0-2.26,0-3.39a.79.79,0,0,1,.56-.57c1.63-.05,3.26,0,4.89,0,.45,0,.65.16.64.63,0,1.1,0,2.21,0,3.32C73.57,29.59,73.38,29.81,72.88,29.79Zm6-.6c0,.22-.37.4-.58.6,0,0-.11,0-.16,0-2.15,0-2,.32-2-1.89,0-.69,0-1.38,0-2.07,0-.46.2-.69.7-.68,2.44,0,2-.26,2.05,1.89v.42h0A11.11,11.11,0,0,1,78.83,29.19Zm.06-8.11c-.1.64,0,1.32-.06,2,0,.22-.36.57-.56.57-2.48,0-2.15.4-2.14-1.93,0-.86-.27-1.09-1.1-1.06-1.65.07-1.46-.14-1.48,1.47,0,1.79.21,1.53-1.52,1.54-1.25,0-2.5,0-3.74,0-.71,0-.88-.25-.88-.91,0-2.62,0-5.25,0-7.87,0-.68-.19-1-.89-.92s-1.38,0-2.07,0-.82-.18-.88-.8c-.31-2.91-.69-5.81-1-8.7,0-.11,0-.21,0-.61.78.67,1.4,1.16,2,1.72,1.32,1.34,2.58,2.73,3.89,4.06q5,5,9.94,10A1.54,1.54,0,0,1,78.89,21.08Zm4.46,6.35v1.24c0,1-.57,1.47-1.56,1.08a.87.87,0,0,1-.38-.63c0-1.1,0-2.21,0-3.3,0-.86.66-.62,1.13-.66s.87.08.82.71S83.35,26.91,83.35,27.43Z"/><path d="M12,31c-.22,0-.44,0-.67,0Z"/><path d="M70.49,77.42c0-.61-.19-.82-.81-.82-1.74,0-3.49,0-5.23,0-1.27,0-1.27,0-1.27-1.23V35.87c0-.22-.08-.48,0-.65a1.06,1.06,0,0,1,.57-.57l.1,0h-3.6a2.58,2.58,0,0,1,.08.26L57.65,37l-.24-.08c0-.66,0-1.32,0-2,0-.09.21-.27.33-.27.51,0,1,0,1.51,0H55.49c.35.07.5.28.48.7s0,.61,0,.91V66.78c0,2.93,0,5.87,0,8.8,0,.76-.2,1.08-1,1.06-1.71-.07-3.42,0-5.14,0-.56,0-.81.18-.78.77a13.22,13.22,0,0,1,0,2c-.07.77.24,1,1,1,3.4,0,6.81,0,10.21,0,3.12,0,6.26,0,9.38,0,.63,0,.92-.18.88-.85A18,18,0,0,1,70.49,77.42ZM61.18,57.78c-1.06-2.24-2.1-4.49-3.18-6.72a.79.79,0,0,1,.29-1.18c1.06-.78,2.09-1.61,3.33-2.56V58.43A5.7,5.7,0,0,1,61.18,57.78Zm.42,2.74V68.9l-.17.08L60,67.1c-.61-.82-1.24-1.62-1.82-2.46-.15-.21-.26-.66-.16-.78,1.1-1.18,2.24-2.33,3.37-3.49Zm-3.21-22.3c1-.75,2-1.55,3.22-2.46v9.91c-.22-.29-.35-.42-.44-.56-1-1.87-2-3.74-3.06-5.59A.84.84,0,0,1,58.39,38.22Zm-.94,3.62.2-.08c.22.36.45.73.66,1.09.55,1,1.08,2,1.65,3a.67.67,0,0,1-.21,1c-.72.52-1.42,1.08-2.3,1.76Zm0,11.81a5.73,5.73,0,0,1,.41.48c.75,1.58,1.52,3.14,2.21,4.74a1.18,1.18,0,0,1-.18,1c-.7.8-1.49,1.52-2.23,2.27L57.45,62Zm0,20.65V66.53l.22-.11,1,1.27c.65.86,1.32,1.71,1.92,2.59.15.22.22.7.08.85-.91,1-1.87,2-2.83,3A1.21,1.21,0,0,1,57.45,74.3Zm4.2,1.5c0,.14-.21.39-.33.39-1,0-2.06,0-3.09,0,0-.09-.07-.19-.1-.29l3.31-3.48.23.1C61.67,73.63,61.67,74.71,61.65,75.8ZM7.23,55.94c.1-1,.43-1.29,1.42-1.22a1.7,1.7,0,0,0,1.84-1.21,1.63,1.63,0,0,0-1-2c-.57-.22-.61-.58-.61-1.09,0-6.14,0-12.28,0-18.42,0-.65.17-1,.61-1H7.24c1,0,1.21.18,1.21,1.22,0,6,0,12.06,0,18.09a1.92,1.92,0,0,1-.54,1.3,2.1,2.1,0,0,0-.65,2,1.26,1.26,0,0,1-.28.9,3.28,3.28,0,0,0,1,5.32,2.85,2.85,0,0,0,3.95-1.57c-.35.17-.65.35-1,.47A2.72,2.72,0,0,1,7.23,55.94ZM10.74,31H9.91A7.66,7.66,0,0,0,10.74,31Z"/></svg>