<svg id="Layer_1" data-name="Layer 1" xmlns="http://www.w3.org/2000/svg" viewBox="0 0 85.04 85.04"><title>الايقونات جاهزة2</title><path d="M67.31,30.86v2.48H76.7a21.6,21.6,0,0,1,3.6,0,1.9,1.9,0,0,1,.39.11,1.19,1.19,0,0,1,0,2.23,1.27,1.27,0,0,1-.26,0c-3.54.12-7.09.06-10.63.06H67.28l-.18,2.39c2.51,0,4.83-.11,7.14.06.78.06,1.5.82,2.25,1.26a6.56,6.56,0,0,1-2.16,1.06c-2.11.14-4.25-.05-6.37.11A2.44,2.44,0,0,0,66.27,42c-1,2.12-1.57,4.4-2.57,6.49s-2.34,4-3.63,6.21l4.62,3.89c1.55-1,2.94.13,4.36,1.59,3.16,3.26,6.44,6.39,9.57,9.68a1.14,1.14,0,0,1,.18.25,1.22,1.22,0,0,1-1.58,1.68,2.9,2.9,0,0,1-.29-.19,33.7,33.7,0,0,1-3.14-3.21l-5.17,5L77.5,82l4.59-4.55a2.85,2.85,0,0,0,0-.51c-.17-.85-.35-1.7-.53-2.56.63.11,1.41,0,1.86.35,1.15.87,2.3,2,1.24,3.57a26.46,26.46,0,0,1-3,3.26c-4.67,4.83-4.37,4.65-9,0C68.34,77.09,64,72.74,59.59,68.4c-1-1-1.79-2-1-3.55.17-.33-.1-1-.38-1.4-1-1.31-2-2.55-2.57-3.22L39.55,67.52c0,1.69.09,4.15-.06,6.6,0,.73-.75,1.42-1.16,2.12-.43-.69-1.19-1.35-1.24-2.07-.2-2.82,0-5.66-.08-8.74h-2.3c-.14,3.69.21,7.31-.1,10.87-.17,1.93,1.26,5.45-1.14,5.47-2.57,0-1-3.46-1.2-5.34-.29-2.94-.08-5.93-.08-9L29.76,67c0,2.55.08,4.94-.06,7.33,0,.66-.75,1.28-1.15,1.91-.44-.61-1.21-1.21-1.25-1.85-.15-2.53-.06-5.08-.06-7.72a35.39,35.39,0,0,1-14.43-6.58A33.64,33.64,0,0,1,29.93.17,33.12,33.12,0,0,1,55.38,8c.57.48.62,1.59.92,2.41-.85-.18-1.93-.08-2.53-.57a31.14,31.14,0,0,0-50.6,17C-1,44.67,12.29,62.79,30.49,64.5a31.22,31.22,0,0,0,34-27.16A30.36,30.36,0,0,0,59.26,16c-.2-.29-.54-.55-.6-.86,0-.14,0-.29-.07-.43a1.19,1.19,0,0,1,2.12-.91h0a28.77,28.77,0,0,1,5.61,12.38c.38,2,1.31,2.5,3.2,2.33a30.38,30.38,0,0,1,5.31,0,1.14,1.14,0,0,1,.47.18,1.17,1.17,0,0,1-.06,2,1.12,1.12,0,0,1-.45.14C72.34,30.93,69.87,30.86,67.31,30.86ZM62.84,68.08l5.06-5.59L66.37,61l-5.49,5.17ZM70.34,65,64.8,70.09,66,71.39l5.31-5.15ZM56.72,58,61,62.32l1.19-1.25-4.08-4.34Z"/><path d="M62.31,34.13C61.85,44.82,57,53.46,47.14,58.77S27.26,63.32,17.7,57.39a3.84,3.84,0,0,1-1.33-1c-.28-.45-.47-1.3-.23-1.62a1.73,1.73,0,0,1,1.61-.28A27.51,27.51,0,0,1,20.27,56C30,61.35,39.66,61.28,48.7,54.84S61.45,39,59.06,28C56.71,17.14,49.58,10.45,38.82,8,28.31,5.58,17.26,10.52,11.54,19.75a25.9,25.9,0,0,0,1.52,30c.21.28.54.54.62.85l.06.31A1.22,1.22,0,0,1,12,52.27l-.17-.14a26.17,26.17,0,0,1-6.71-16C4.06,19.32,15.76,6.08,32.6,4.93c14.57-1,28.75,11.57,29.55,26.19C62.19,32,62.24,32.82,62.31,34.13Z"/><path d="M17.84,32.82c0-4.13,0-8.16,0-12.19,0-2.44.57-3,3-3,2.25,0,4.5,0,7,0,0-1.32.05-2.44,0-3.55-.09-2,.91-2.81,2.84-2.77,2.2.05,4.4,0,6.59,0,2.4,0,3,.66,3.07,3,0,3,0,5.95,0,8.93a5.31,5.31,0,0,0,.13.75c2.23,0,4.54,0,6.85,0s2.87.47,2.91,2.84c0,2,0,3.95,0,6a4.87,4.87,0,0,1,1.64.2c.48.27,1.15.81,1.13,1.21s-.68,1-1.18,1.2a3.36,3.36,0,0,1-1.46.08H17.64c-.42,0-.94.14-1.25,0A9.1,9.1,0,0,1,15,34.12,6.72,6.72,0,0,1,16.29,33,4.44,4.44,0,0,1,17.84,32.82Zm19.76,0V14H30.39V32.81ZM20.49,20.26V32.73H27.7V20.26ZM47.55,32.82V26.6H40.46v6.22Z"/><path d="M33.28,50.77h-.06a1.52,1.52,0,0,1-1.4-1.09c-1.29-4.49-2-7-2.4-8.41l-3.31,3.59-.3.33H19.17v-2h5.76c4.62-5.07,4.63-5.07,5.35-4.79l.64.25v.57c.1.35.54,1.94,2.43,8.52l4-10.55,4.35,6.33,7.12,0v2l-8.18.06-2.78-4.06-3.16,8.32A1.53,1.53,0,0,1,33.28,50.77Z"/><circle cx="82.17" cy="75.36" r="1.29"/><path d="M81.81,74.55,81,75.86l.27.41,1.56,1.59,1-.73V75.84l.08-.74-1.1-.83"/></svg>