<svg id="Layer_1" data-name="Layer 1" xmlns="http://www.w3.org/2000/svg" viewBox="0 0 85.04 68"><title>الايقونات جاهزة2</title><path d="M82.63,28.13c-.87.09-1.09-.27-1.08-1.08,0-3,0-5.91,0-8.86,0-1.2,0-1.2-1.16-1.2-1.33,0-2.66-.07-4,0a1.69,1.69,0,0,1-1.75-1c-2.63-4.63-5.3-9.23-8-13.84a1.22,1.22,0,0,0-1.24-.73q-17.37,0-34.75-.11a1.3,1.3,0,0,0-1.3.77C26.9,6.52,24.28,11,21.71,15.42c-.38.66-.67.7-1.26.26-2.93-2.19-5.9-4.36-8.84-6.54C9.54,7.62,7.48,6.09,5.4,4.58c-.2-.14-.68-.22-.81-.1A18.08,18.08,0,0,0,3.39,6L17.54,16.48l-.12.28c-.32,0-.64,0-1,0-4.19,0-8.38,0-12.57,0-1.16,0-1.16,0-1.17,1.19l0,7.78c0,2.3,0,2.31-2.33,2.12a2.1,2.1,0,0,1-.24-.06v5.14H2c.47,0,.69.21.67.71,0,.81,0,1.61,0,2.4s.22,1,1,1c4.21,0,8.44,0,12.66,0,1.3,0,1.3,0,1.49-1.31,0-.24.09-.49.12-.74a5.32,5.32,0,0,1,10.55,1.18c0,.74.26.94,1,.91,1.38,0,2.76,0,4.14,0s1.36,0,1.36,1.35c0,.61.19.84.81.8s1.33,0,2,0,.87.25.87.91q-.07,12.35-.07,24.68c0,.7-.24.9-.91.89-2,0-4.08,0-6.12,0-1,0-.93,0-1,1.23,0,.76.06,1.16,1,1.15,5,0,10,0,15.07,0,2.29,0,4.58,0,6.87,0,.61,0,.88-.18.82-.8a2.15,2.15,0,0,1,0-.67c.07-.68-.2-.91-.9-.9-2,0-4,0-6,0-.84,0-1.07-.26-1.06-1.09.05-7.67.06-15.35.08-23,0-2.38,0-2.38,2.38-2.37,1.26,0,1.29,0,1.28-1.22,0-.67.21-1,.9-.92a31.63,31.63,0,0,0,3.23,0c.8,0,1.11.27,1.31,1a7.61,7.61,0,0,0,14.65,0,1.14,1.14,0,0,1,1.33-1c3.06.05,6.12,0,9.19.06.69,0,.93-.21.89-.9s0-1.49,0-2.24.3-1,1-1,1.61,0,2.4,0V28C84.16,28.06,83.39,28.05,82.63,28.13ZM62.77,41.3A5.24,5.24,0,0,1,57.5,36a5.3,5.3,0,1,1,10.59.06A5.16,5.16,0,0,1,62.77,41.3Zm16.42-7.17c0,.57-.19.77-.76.77-2.43,0-4.86,0-7.28,0-.61,0-.79-.27-.94-.8a7.62,7.62,0,0,0-14.69-.29,1.2,1.2,0,0,1-1.42,1.05c-3.73-.05-7.45,0-11.18-.05s-7.51,0-11.26,0a1,1,0,0,1-1.14-.88,7.66,7.66,0,0,0-14.78,0c-.15.58-.38.86-1.06.86-2.89,0-5.79-.06-8.68,0-.7,0-.93-.26-.93-.91q0-6.91,0-13.82c0-.72.35-.85,1-.85,5.09,0,10.16,0,15.24.08a1.44,1.44,0,0,0,1.43-.83c2.64-4.59,5.33-9.15,8-13.74a1.71,1.71,0,0,1,1.7-1q15.72.09,31.45.1a1.66,1.66,0,0,1,1.64.92c2.64,4.66,5.34,9.28,8,13.93a1.27,1.27,0,0,0,1.3.76c1.25-.05,2.48,0,3.73,0,.53,0,.72.19.71.72Q79.2,27.1,79.19,34.13Z"/><path d="M27.13,58.1c0-1.59,0-1.59-1.6-1.66-.11,0-.22,0-.58-.1a7.84,7.84,0,0,0,2.7-6.21,7.67,7.67,0,0,0-12.48-5.67,7.64,7.64,0,0,0-2.71,4.34c-.65,2.9.35,5.34,2.56,7.61-.62,0-.94,0-1.25,0-.72-.09-1,.2-.95.93,0,1.1,0,2.21,0,3.31,0,.54.18.8.77.8l12.82,0c.53,0,.74-.2.73-.74C27.1,59.86,27.12,59,27.13,58.1ZM20,55.75a5.3,5.3,0,1,1,5.32-5.32A5.32,5.32,0,0,1,20,55.75Z"/><path d="M54,7.33c2.15,0,4.3,0,6.45,0,.66,0,.93.15.92.87,0,3.37,0,6.73,0,10.1,0,.67-.24.84-.87.84q-6.54-.06-13.08,0c-.67,0-.84-.25-.83-.88,0-3.36,0-6.73,0-10.09,0-.67.23-.85.87-.84C49.68,7.34,51.86,7.32,54,7.33Z"/><path d="M26.57,18.93c.91-1.58,1.77-3.08,2.64-4.57,1.24-2.12,2.49-4.23,3.7-6.36a1.3,1.3,0,0,1,1.32-.74c2.87,0,5.73,0,8.6,0,.63,0,.88.17.87.84,0,3.39,0,6.78,0,10.17,0,.47-.06.79-.66.79L27,19A2.36,2.36,0,0,1,26.57,18.93Z"/><path d="M69.68,19.15c-1.76,0-3.32,0-4.88,0-.17,0-.45-.49-.45-.75,0-2.73,0-5.46,0-8.45Z"/></svg>