<svg id="Layer_1" data-name="Layer 1" xmlns="http://www.w3.org/2000/svg" viewBox="0 0 85.04 73.59"><title>الايقونات جاهزة2</title><path d="M42.6,29.27H54.31c1.21,0,1.39.18,1.39,1.42q0,5.14,0,10.28c0,1.28-.15,1.43-1.47,1.43-2.56,0-5.13,0-7.69,0-.8,0-1.13.2-1.11,1.09.06,2.45,0,4.9,0,7.36,0,.65.2.87.86.86q8.54,0,17.06,0a1.1,1.1,0,0,0,1.12-.77,11.82,11.82,0,0,1,6.45-6.34,11.51,11.51,0,0,1,13.95,5.52A3.36,3.36,0,0,1,85,51a3.05,3.05,0,0,1-.85,0,14.93,14.93,0,0,0-6.93-.46,4.81,4.81,0,0,0-4,4.59,10.57,10.57,0,0,0,.09,2.64,5.11,5.11,0,0,0,5.17,4.13,18,18,0,0,0,5.7-.65,2.71,2.71,0,0,1,.85,0,2.92,2.92,0,0,1-.16.86,11,11,0,0,1-8.2,6c-5.75,1-9.89-2-12.16-6.72a1.26,1.26,0,0,0-1.34-.82q-8.35,0-16.72,0c-.82,0-1,.25-1,1,0,3.52,0,7,0,10.54,0,1.06-.09,1.15-1.15,1.15s-2.17,0-3.26,0c-.73,0-1-.29-1-1,0-3.57,0-7.14,0-10.7,0-.82-.24-1-1-1q-8.65,0-17.32,0a1.15,1.15,0,0,0-1.2.77,11.74,11.74,0,0,1-6.3,6.28A11.51,11.51,0,0,1,.29,62.41,4.93,4.93,0,0,1,0,61.25a5.7,5.7,0,0,1,1.1.08,14.64,14.64,0,0,0,6.61.38A4.8,4.8,0,0,0,11.8,57a9.79,9.79,0,0,0-.08-2.48,5.07,5.07,0,0,0-5-4.16A16.85,16.85,0,0,0,.89,51,3.59,3.59,0,0,1,0,51a2.79,2.79,0,0,1,.13-.93,11,11,0,0,1,8.14-5.92c5.89-1,9.91,2,12.23,6.72a1.21,1.21,0,0,0,1.26.82q8.66,0,17.31,0c.78,0,1-.25,1-1,0-2.42,0-4.85,0-7.27,0-.78-.26-1-1-1-2.64,0-5.29,0-7.94,0-1.54,0-1.64-.1-1.64-1.59v-10c0-1.48.11-1.59,1.55-1.59Z"/><path d="M83.76,38.59c0,.87,0,1.73,0,2.59a1.58,1.58,0,0,1-2.57,1.42,14.86,14.86,0,0,0-7.82-2.35A8.71,8.71,0,0,0,66,43.79c-.2.27-.39.55-.6.81a1.43,1.43,0,0,1-1.73.65,1.51,1.51,0,0,1-1-1.59c0-1,0-2,0-3a22.81,22.81,0,0,0-3.43-11.38,16.13,16.13,0,0,0-10.06-7.09,26.3,26.3,0,0,0-14.66.4,16.25,16.25,0,0,0-10,9,25.25,25.25,0,0,0-2.34,11.09c0,.48,0,.95,0,1.42a1.49,1.49,0,0,1-1,1.63c-.79.27-1.26-.18-1.71-.72a24.91,24.91,0,0,0-2-2.26,9,9,0,0,0-7.14-2.33,14.47,14.47,0,0,0-6.61,2.14c-1.44.89-2.63,0-2.63-1.53s-.08-3.23,0-4.85a31.73,31.73,0,0,1,1.55-8.34c.13-.39.28-.78.44-1.17.52-1.26,1.18-1.55,2.44-1.05,2.51,1,5,2,7.52,3,1.13.46,1.1.44,1.73-.57S16.13,26,16.87,25a.88.88,0,0,0-.13-1.4c-1.84-1.74-3.64-3.53-5.45-5.3-1-1-1-1.49-.25-2.69A33.5,33.5,0,0,1,22.28,4.79,28.83,28.83,0,0,1,33.76,1c.31,0,.61-.12.91-.14a1.64,1.64,0,0,1,1.91,1.54c.34,2.53.69,5.07,1,7.6.08.61.29.92,1,.91,2.56-.05,5.13,0,7.69,0,.65,0,.9-.24,1-.84.33-2.5.68-5,1-7.51A1.72,1.72,0,0,1,50.39.85a30.66,30.66,0,0,1,13.3,4.6A34,34,0,0,1,74.07,15.94c.55.85.44,1.41-.38,2.22C71.86,20,70,21.77,68.18,23.53c-.52.49-.61.85-.16,1.46.8,1.1,1.53,2.26,2.23,3.43a.81.81,0,0,0,1.21.39c2.59-1.08,5.21-2.11,7.82-3.14,1.3-.52,1.94-.27,2.46,1a26.63,26.63,0,0,1,1.86,8c.1,1.31.16,2.61.24,3.92ZM3.82,39c5.51-1.82,10.65-2.5,15.44,1.33a6.67,6.67,0,0,0,.22-.94,25.93,25.93,0,0,1,2.05-8.14A19.59,19.59,0,0,1,33.71,19.8,29.54,29.54,0,0,1,48,19a19.74,19.74,0,0,1,10.48,5,22.58,22.58,0,0,1,6.72,13.32c.13.8.24,1.61.37,2.51,5-3.59,10.1-2.64,15.28-1.06a3.06,3.06,0,0,0,.06-.46,31.47,31.47,0,0,0-1.16-8.74c-.2-.71-.5-.77-1.13-.51-2.6,1.07-5.21,2.11-7.83,3.14-1.14.44-1.65.21-2.27-.82-1.23-2-2.48-4-3.77-6-.78-1.21-.79-1.7.23-2.69,1.82-1.77,3.62-3.55,5.48-5.28.58-.54.56-.92.1-1.53a31.41,31.41,0,0,0-5.92-6.21A28.25,28.25,0,0,0,51.7,3.92c-.5-.09-.73.05-.77.56,0,.25-.09.49-.12.74-.34,2.37-.65,4.73-1,7.1-.16,1-.65,1.41-1.72,1.41H36.8c-1.12,0-1.59-.4-1.75-1.48-.35-2.45-.68-4.9-1-7.35-.14-1-.18-1.08-1.18-.9-.52.09-1.05.17-1.56.29A28.85,28.85,0,0,0,14.18,16a.77.77,0,0,0,.11,1.2c1.86,1.76,3.7,3.56,5.53,5.34,1.12,1.09,1.13,1.52.28,2.82-1.23,1.85-2.45,3.71-3.56,5.64-.86,1.5-1.13,1.67-2.76,1-2.54-1-5.07-2-7.6-3.06-.59-.24-.88-.11-1,.48-.27,1.22-.62,2.43-.79,3.67C4.13,35,4,36.87,3.82,39Z"/></svg>