<svg id="Layer_1" data-name="Layer 1" xmlns="http://www.w3.org/2000/svg" viewBox="0 0 85.04 85.04"><title>الايقونات جاهزة2</title><path d="M15.19,66c-1.25-.1-2.33-.15-3.39-.27A12.11,12.11,0,0,1,.72,53.49c0-6.15,0-12.3,0-18.45,0-7.95,4.84-13,12.77-13.31l1.71-.07c0-2.41,0-4.8,0-7.18,0-8.81,5-13.77,13.72-13.77q14,0,28,0c7.46,0,12.64,5,12.9,12.47.09,2.78,0,5.56,0,8.45,1.08.06,1.91.1,2.75.16A12.24,12.24,0,0,1,84.32,34.21c0,6.15,0,12.3,0,18.45,0,8-4.81,12.91-12.82,13.23-.47,0-.93.08-1.66.14,0,3.11,0,6.2,0,9.29,0,6.25-2.77,9-8.94,9H24c-6,0-8.8-2.8-8.83-8.88C15.18,72.35,15.19,69.25,15.19,66ZM15.12,53c-.59-.08-1.2,0-1.47-.24-.82-.75-2.13-1.68-2.09-2.48s1.38-1.66,2.28-2.32c.36-.26,1.06,0,1.61,0H69.59c.63,0,1.42-.22,1.83.08.85.61,2,1.48,2.08,2.29S72.4,52,71.62,52.69c-.38.34-1.12.27-1.77.39v7.73c6,.51,9.41-2.2,9.52-7.5q.19-9.57,0-19.14c-.08-4.38-2.75-7-7.1-7.43-.77-.07-1.55-.09-2.33-.09H15.09a22.82,22.82,0,0,0-2.33.1c-4.27.39-7,2.95-7.07,7.19-.15,6.61-.18,13.23,0,19.84.15,5,4.32,8,9.42,6.86Zm49.81,0H20.41a2.9,2.9,0,0,0-.25.77c0,7.55-.07,15.1,0,22.65,0,2.43.87,3,3.69,3q18.69,0,37.36,0c3,0,3.7-.65,3.72-3.74,0-5.37,0-10.74,0-16.11ZM20.41,21.53H64.93c0-2.68.06-5.17,0-7.65-.16-5.53-2.95-8.23-8.5-8.24-9.26,0-18.52,0-27.78,0a12.78,12.78,0,0,0-2.55.2c-3,.57-5.18,2.38-5.56,5.27C20.06,14.52,20.41,18,20.41,21.53Z"/><path d="M17.65,37.13c-1.32,0-2.74.31-3.92-.1-.93-.33-2.17-1.52-2.17-2.34a3.19,3.19,0,0,1,2.15-2.31,37.91,37.91,0,0,1,8.11,0c.81.08,2.15,1.49,2.08,2.17A3.65,3.65,0,0,1,21.79,37c-1.25.42-2.75.1-4.14.1Z"/><path d="M42.66,58.4c1.93,0,3.87,0,5.8,0,1.73,0,3,.67,3,2.45s-1.21,2.44-2.81,2.45c-4.11,0-8.21,0-12.32,0-1.6,0-2.79-.83-2.77-2.48s1.16-2.43,2.81-2.42C38.47,58.41,40.56,58.4,42.66,58.4Z"/><path d="M42.5,73.66c-2.09,0-4.18,0-6.27,0-1.59,0-2.62-.82-2.66-2.31s1-2.52,2.69-2.52q6.29,0,12.55,0a2.36,2.36,0,0,1,2.66,2.33c0,1.59-1,2.52-2.7,2.5C46.68,73.65,44.59,73.66,42.5,73.66Z"/></svg>