<svg id="Layer_1" data-name="Layer 1" xmlns="http://www.w3.org/2000/svg" viewBox="0 0 78.92 84.42"><title>الايقونات جاهزة2</title><path d="M78.55,58.35a12.85,12.85,0,0,0-18.68-9.92c-2.2,1.13-4.31,2.44-6.47,3.66a10.16,10.16,0,0,1-.95.43c0-.5-.07-.85-.07-1.19,0-4.23,0-8.45,0-12.68A8.86,8.86,0,0,0,50.48,33c-1.92-2.53-3.67-5.18-5.73-7.57a8.3,8.3,0,0,1-2.22-6.84,1.31,1.31,0,0,1,.73-1.21,4.55,4.55,0,0,0,2.57-4.24c0-2.58,0-5.14,0-7.7a4.63,4.63,0,0,0-4-4.49,5.9,5.9,0,0,1-.67-.23H11.51a2.14,2.14,0,0,1-.43.21A4.8,4.8,0,0,0,6.84,6c0,2.27,0,4.53,0,6.79a5,5,0,0,0,2.71,4.7,1.3,1.3,0,0,1,.54.93,25.64,25.64,0,0,1,0,3.28,2.72,2.72,0,0,1-.47,1.4Q6,28,2.34,32.81a8.79,8.79,0,0,0-2,5.33c0,10.7-.07,21.38,0,32.08a7.58,7.58,0,0,0,3.92,6.59A9.13,9.13,0,0,0,9.2,78q12.36,0,24.71,0a1.34,1.34,0,0,1,1.29.62,12.87,12.87,0,0,0,17.29,3.9C59,78.78,65.61,75.06,72.09,71.2,76.91,68.32,79.2,64,78.55,58.35ZM9.84,12.89c-.06-2.35-.05-4.69,0-7,0-1.41.73-2,2.15-2H39.15a3.71,3.71,0,0,1,3.71,3.7c0,1.73,0,3.47,0,5.21a1.81,1.81,0,0,1-2,2.06H11.93C10.57,14.85,9.87,14.27,9.84,12.89ZM4.38,35.11l0,0C6,32.91,7.64,30.77,9.25,28.6c1-1.36,2.07-2.7,3.05-4.07a4.5,4.5,0,0,0,.79-2.43c0-1.13,0-2.26,0-3.39,0-.55.19-.76.76-.76q12.53,0,25,0c.55,0,.72.21.69.73a9.76,9.76,0,0,0,0,1.71,2.65,2.65,0,0,1,0,.4v2.39a1.76,1.76,0,0,0,.78,1.53,1.93,1.93,0,0,1,.6.58c2.37,3.19,4.77,6.37,7.16,9.56l.18.24A1.64,1.64,0,0,1,47,37.7H5.73A1.64,1.64,0,0,1,4.38,35.11ZM33.24,74.87c-.27,0-.57,0-.86,0H8.33c-3.18,0-5.4-2.71-5-6.28,0-.19.3-.43.51-.49a2.91,2.91,0,0,1,.89-.05H32c.24,0,.49,0,.73,0,.4,0,.59.17.52.62a15.05,15.05,0,0,0,.1,5.83A1,1,0,0,1,33.24,74.87ZM35,64.42a1.29,1.29,0,0,1-1.25.69q-14.76,0-29.54,0c-.77,0-1-.26-1-1q0-11.12,0-22.26c0-.78.26-1,1-1,7.36,0,14.72,0,22.09,0H48.23c1.17,0,1.17,0,1.17,1.12,0,3.77,0,7.54,0,11.3a1.64,1.64,0,0,1-1,1.67q-4.83,2.74-9.61,5.59A11.41,11.41,0,0,0,35,64.42ZM59.29,75.16c-2.91,1.66-5.79,3.36-8.72,5a8.48,8.48,0,0,1-4.7,1.13A9.9,9.9,0,0,1,40.55,63c2.87-1.77,5.84-3.38,8.76-5.1.59-.36.8,0,1,.4l8.21,14.23c.31.55.61,1.1.94,1.63S59.78,74.89,59.29,75.16Zm12-7C68.59,69.87,65.78,71.37,63,73c-.59.34-.76,0-1-.41-2.86-5-5.72-9.9-8.58-14.87-.94-1.64-.94-1.65.68-2.59,2.18-1.27,4.38-2.54,6.57-3.79a10,10,0,0,1,14.81,6.83c.1.53.13,1.08.18,1.56a1.51,1.51,0,0,1,0,.3C75.5,63.47,74.2,66.31,71.28,68.16Z"/><path d="M27.83,49.13c0,.71,0,1.42,0,2.13s.22.76.78.75q1.8,0,3.6,0a3.84,3.84,0,0,1,1.12.16,1.44,1.44,0,0,1,0,2.77,3.89,3.89,0,0,1-1.12.16c-1.15,0-2.29,0-3.44,0-.7,0-1,.19-1,.92.05,1.27,0,2.56,0,3.84,0,1.1-.52,1.67-1.45,1.67a1.49,1.49,0,0,1-1.52-1.66c0-1.34,0-2.67,0-4,0-.55-.16-.78-.74-.76-1.15,0-2.29,0-3.44,0a4.47,4.47,0,0,1-.73,0c-1.06-.17-1.69-.81-1.63-1.6A1.7,1.7,0,0,1,20.12,52c1.27,0,2.56,0,3.84,0,.74,0,.93-.24.9-.93-.05-1.31,0-2.62,0-3.93a1.45,1.45,0,0,1,1.51-1.57c.91,0,1.42.57,1.45,1.59v2Z"/><path d="M19.62,23.05a1.38,1.38,0,0,1-1.53,1.33,1.44,1.44,0,1,1,.21-2.86A1.37,1.37,0,0,1,19.62,23.05Z"/><rect x="21.25" y="21.52" width="17.03" height="2.86" rx="1.41" ry="1.41"/></svg>