<svg id="Layer_1" data-name="Layer 1" xmlns="http://www.w3.org/2000/svg" viewBox="0 0 85.04 66.03"><title>الايقونات جاهزة2</title><path d="M0,18.59c.14-1,.25-2.07.41-3.1C1.6,7.82,7.41,1.32,15.22.2a15.55,15.55,0,0,1,9.16,1.53c1.87.9,3.74,1.82,5.5,2.89a3.19,3.19,0,0,0,3.67,0A68,68,0,0,1,40.2,1.25c6.56-2.87,14-.41,18.4,4.66a18.31,18.31,0,0,1,4.47,9.89c.14,1.13.29,1.25,1.2.8C73,12.3,82.46,18.15,84.45,27.15c.2.88.24,1.8.37,2.7.05.29.15.57.22.86v.5a3,3,0,0,0-.21.7c-.3,7-2.39,13.47-5.09,19.79a107.51,107.51,0,0,1-5,9.73,22.72,22.72,0,0,1-2.64,3.28,3.38,3.38,0,0,1-.78.62c-2,1.33-3.86.76-4.63-1.47-.71-2-1.22-4.07-1.86-6.1C64,55,63.1,52.23,62.13,49.5a10.94,10.94,0,0,0-1.53-2.64C59.21,45,57.32,45.07,56,47a24.12,24.12,0,0,0-3,7c-.92,3-1.77,5.93-2.67,8.89a9.75,9.75,0,0,1-.51,1.4,2.8,2.8,0,0,1-4.35,1.26,13.27,13.27,0,0,1-3.67-4,59.88,59.88,0,0,1-5.59-11.18A64,64,0,0,1,32.28,37c-.19-1.14-.49-1.52-1.77-.82a6.49,6.49,0,0,0-2.18,2.18A30.6,30.6,0,0,0,25,46.32c-1.12,3.67-2.18,7.36-3.34,11C20.61,60.74,18,61.4,15.36,59a27.19,27.19,0,0,1-5.21-7.15,87.2,87.2,0,0,1-9-24.4c-.51-2.48-.62-5-.92-7.55,0-.32-.15-.63-.22-.95Zm71.48,5.5v.34c-1.07.22-2.13.48-3.21.66a16.55,16.55,0,0,1-8.17-.66c-2.33-.8-4.18-2.34-6.15-3.72a13,13,0,0,0-6.61-2.66c-5.08-.34-8.77,2-11.21,6.35-2,3.53-1.87,7.32-1.27,11.14a63.67,63.67,0,0,0,3.62,13.07,49.7,49.7,0,0,0,7.19,13.48,8.27,8.27,0,0,0,1.24,1,9.81,9.81,0,0,0,.66-1.29c1.17-3.77,2.29-7.56,3.5-11.32A17.14,17.14,0,0,1,53.9,45c2.37-3,6.07-3.16,8.57-.28a11.19,11.19,0,0,1,2.1,3.35c1.2,3.29,2.21,6.65,3.28,10,.46,1.45.86,2.92,1.33,4.36.27.85.58.89,1.21.26.11-.12.23-.24.33-.37,1.06-1.62,2.25-3.17,3.16-4.87,4.23-7.93,7.4-16.23,8.11-25.3a13.11,13.11,0,0,0-4.51-11.42,10.27,10.27,0,0,0-9.26-2.49c-2.65.55-4.95,2-7.27,3.36a2.75,2.75,0,0,0-.46.51,4.13,4.13,0,0,0,.44.29C64.28,23.9,67.89,23.91,71.48,24.09ZM46.22,10.67v.15A1.74,1.74,0,0,1,46,11a20.78,20.78,0,0,1-7.72.69,18.45,18.45,0,0,1-9.48-3.84,38.32,38.32,0,0,0-4.49-3A13.28,13.28,0,0,0,12.39,4,15.39,15.39,0,0,0,3.15,18,40.5,40.5,0,0,0,4,26.61a79.78,79.78,0,0,0,9.28,24.72A43.72,43.72,0,0,0,17.48,57c.63.77,1.07.59,1.37-.38q1.42-4.63,2.81-9.28a49.56,49.56,0,0,1,3.52-9.46c1.32-2.45,2.92-4.61,6-4.92.17,0,.41-.39.43-.61.09-1,.05-2.1.17-3.14a15.3,15.3,0,0,1,7.51-12.06,12.17,12.17,0,0,1,9.31-1.7,36.34,36.34,0,0,1,6,2.36c1.08.48,2.07,1.17,3.14,1.68a2,2,0,0,0,2.6-1.77A16.15,16.15,0,0,0,55.59,7c-3.76-3.6-8.24-5.08-13.31-3.36A54.82,54.82,0,0,0,35.2,7.07a6.06,6.06,0,0,0-1.11,1,6.36,6.36,0,0,0,1.28.83,24.22,24.22,0,0,0,8.83,1.64C44.87,10.53,45.54,10.62,46.22,10.67Z"/><path d="M84.74,29.81c-.13-.89-.17-1.81-.37-2.7-1.92-8.68-10.77-14.42-19.25-11a.43.43,0,0,0-.12.05c-.64.3-4,1.86-5.31,2.73a3.32,3.32,0,0,1-.42.32h0l-.28.13h0a1.56,1.56,0,0,1-1.3,0c-1.08-.51-2.06-1.2-3.14-1.68a34.44,34.44,0,0,0-6-2.36,12.15,12.15,0,0,0-9.3,1.69,15.33,15.33,0,0,0-7.51,12.06c-.11.94-.09,1.89-.15,2.84,0,0,.22,2.65.5,4.43a5.13,5.13,0,0,1,.13.58A64.42,64.42,0,0,0,36,50.25a59.88,59.88,0,0,0,5.59,11.18,13.28,13.28,0,0,0,3.67,4,2.8,2.8,0,0,0,4.35-1.26,9.21,9.21,0,0,0,.51-1.39c.89-3,1.75-5.94,2.67-8.89a23.73,23.73,0,0,1,3-7c1.36-1.91,3.26-2,4.64-.11a10.31,10.31,0,0,1,1.54,2.64c1,2.72,1.83,5.5,2.7,8.25.64,2,1.16,4.1,1.86,6.11.79,2.23,2.7,2.79,4.65,1.47a4.61,4.61,0,0,0,.77-.63,21.68,21.68,0,0,0,2.64-3.28,106,106,0,0,0,5-9.72c2.7-6.33,4.79-12.84,5.09-19.8a2.89,2.89,0,0,1,.21-.69v-.5C84.89,30.39,84.78,30.1,84.74,29.81ZM81.9,32.09c-.7,9.07-3.88,17.37-8.1,25.3-.9,1.71-2.1,3.25-3.16,4.86a4.24,4.24,0,0,1-.33.39c-.63.63-.94.58-1.21-.26-.48-1.45-.87-2.91-1.33-4.37-1.07-3.33-2.08-6.69-3.28-10a11.11,11.11,0,0,0-2.1-3.36c-2.51-2.88-6.2-2.7-8.57.28A17.29,17.29,0,0,0,51,50.48c-1.21,3.76-2.32,7.54-3.51,11.31a8.2,8.2,0,0,1-.65,1.29,8.27,8.27,0,0,1-1.24-1c-3.25-4-5.34-8.7-7.19-13.48A63.5,63.5,0,0,1,34.79,35.5c-.6-3.82-.7-7.61,1.27-11.13C38.5,20,42.19,17.68,47.27,18a13.08,13.08,0,0,1,6.61,2.66c2,1.38,3.83,2.92,6.15,3.73a16.64,16.64,0,0,0,8.16.65c1.08-.18,2.15-.44,3.22-.65,0-.12,0-.23,0-.34-3.59-.19-7.2-.2-10.55-1.72a2.36,2.36,0,0,1-.44-.29,3.74,3.74,0,0,1,.45-.51c2.33-1.35,4.63-2.8,7.28-3.36a10.27,10.27,0,0,1,9.25,2.49A13.06,13.06,0,0,1,81.9,32.09Z"/></svg>