<svg id="Layer_1" data-name="Layer 1" xmlns="http://www.w3.org/2000/svg" viewBox="0 0 85.04 56.12"><title>الايقونات جاهزة2</title><path d="M.87,8.88A5.26,5.26,0,0,0,1.1,8,7.41,7.41,0,0,1,6.18,1.77c0,1.55,0,3.14,0,4.72a9.56,9.56,0,0,0,8,9.71,5.25,5.25,0,0,0,1.05.07q27.28,0,54.58,0a9.3,9.3,0,0,0,8.85-7.94c.2-2.17,0-4.37,0-6.63a7.06,7.06,0,0,1,3.84,2.75A6.76,6.76,0,0,1,84,8.2a3,3,0,0,0,.22.68V23.52c-.19.78-.32,1.57-.56,2.33A7.52,7.52,0,0,1,76.7,31.1c-.82,0-1.63,0-2.44,0-.61,0-.83-.26-.9-.79-.11-.8-.27-1.6-.33-2.41a3.38,3.38,0,0,0-1.66-2.65,10,10,0,0,0-5-1.65c-2-.14-4-.17-5.92-.17q-19.2,0-38.38,0A14.58,14.58,0,0,0,15,25a4.39,4.39,0,0,0-2.44,3.15A20,20,0,0,1,12,30.44c-.08.26-.37.64-.57.64-1.83,0-3.7.29-5.46-.45A7.46,7.46,0,0,1,1.1,24.28a4.15,4.15,0,0,0-.23-.76Z"/><path d="M42.67,31.12H15.84c-1.07,0-1,0-.93-1.07a3.47,3.47,0,0,1,3-3.52,22.41,22.41,0,0,1,4.78-.79q20.09-.09,40.17,0a19.72,19.72,0,0,1,5.39,1,3.24,3.24,0,0,1,2.33,3.88c0,.18-.3.39-.5.46a1.91,1.91,0,0,1-.72,0Z"/><path d="M49.61,47.89a5.35,5.35,0,0,0-1.19-3,7.43,7.43,0,0,1-1.68-3.9,5.77,5.77,0,0,1,2-5.06,1.47,1.47,0,0,1,1.93.13,1.33,1.33,0,0,1,0,1.9c-1.48,1.41-1.39,3.28-.18,4.92a7.8,7.8,0,0,1,1.85,5.4,12.75,12.75,0,0,1-3.19,7.15,1.36,1.36,0,0,1-1.9.16,1.46,1.46,0,0,1-.23-2,27.88,27.88,0,0,0,1.67-2.77A21.68,21.68,0,0,0,49.61,47.89Z"/><path d="M64.91,36.85A4.81,4.81,0,0,1,64.28,38c-1.37,1.34-1.26,3.06-.23,4.66a18.24,18.24,0,0,1,1.62,2.89,7.13,7.13,0,0,1,0,4.78A14.32,14.32,0,0,1,63,55.16a1.49,1.49,0,0,1-2.07.42,1.51,1.51,0,0,1-.21-2.11,25.26,25.26,0,0,0,1.6-2.63,5.55,5.55,0,0,0-.46-6.3,6.08,6.08,0,0,1-.74-7A4.27,4.27,0,0,1,62.44,36,2.07,2.07,0,0,1,64,35.78C64.37,35.89,64.59,36.45,64.91,36.85Z"/><path d="M25.07,47.71a12.84,12.84,0,0,1-3.17,7.62,1.4,1.4,0,0,1-2,.21,1.46,1.46,0,0,1-.22-2c.51-.82,1.1-1.61,1.54-2.47,1.15-2.26,1.27-4.41-.37-6.6-2-2.72-2-5.63-.1-7.91a3.19,3.19,0,0,1,1.36-.93,1,1,0,0,1,1.41.63,2.67,2.67,0,0,1-.16,1.57c-.18.49-.69.85-.9,1.33a3.53,3.53,0,0,0,.56,3.45,9.21,9.21,0,0,1,1.89,4C25,47,25,47.37,25.07,47.71Z"/><path d="M37.58,36.85A4.81,4.81,0,0,1,37,38c-1.38,1.36-1.24,3.08-.23,4.66a17.48,17.48,0,0,1,1.62,2.89,7.07,7.07,0,0,1,0,4.78,14.46,14.46,0,0,1-2.6,4.84,1.5,1.5,0,0,1-2.07.41,1.52,1.52,0,0,1-.21-2.11,25.59,25.59,0,0,0,1.9-3.38,5.19,5.19,0,0,0-.72-5.49C33,42.43,32.43,40,33.83,37.49A4.27,4.27,0,0,1,35.11,36a2.07,2.07,0,0,1,1.57-.17C37,35.89,37.26,36.45,37.58,36.85Z"/><path d="M42.55,1.27q15.71,0,31.4,0c.78,0,1.16.26,1.28,1a15.1,15.1,0,0,1-.08,6.28,5.89,5.89,0,0,1-5.54,4.36c-1.3,0-2.6,0-3.91,0q-24.68,0-49.37,0A6.39,6.39,0,0,1,11,10.67,4.85,4.85,0,0,1,9.73,7.74c-.05-1.72-.06-3.45,0-5.18.05-1.14.31-1.29,1.48-1.29Zm-.49,4.27H70.93c1.06,0,1.54-.29,1.53-.9S72,3.76,70.9,3.76H13.25c-1.06,0-1.54.28-1.53.9s.47.88,1.55.88Zm.14,3.1H13.25c-1.07,0-1.54.28-1.53.9s.47.88,1.56.88H70.93c1.07,0,1.54-.29,1.53-.91S72,8.64,70.9,8.64Z"/></svg>