<svg id="Layer_1" data-name="Layer 1" xmlns="http://www.w3.org/2000/svg" viewBox="0 0 79.05 85.04"><title>الايقونات جاهزة2</title><path d="M79,42.79c0-7-.05-14,0-21a3.36,3.36,0,0,0-2.16-3.58C64.94,12.48,53.05,6.62,41.11.9A4.08,4.08,0,0,0,38,.87c-12,5.75-24,11.61-36,17.4a3.08,3.08,0,0,0-2,3.22Q.11,42.61,0,63.71A3.1,3.1,0,0,0,2,67C14,72.78,26.06,78.68,38.13,84.46a3.83,3.83,0,0,0,2.9,0c12-5.76,24-11.63,36-17.39a3.23,3.23,0,0,0,2-3.45C79,56.64,79,49.72,79,42.79ZM75.42,65c-11.12,5.33-22.2,10.76-33.3,16.15-.36.18-.75.28-1.33.51V79.59c0-12.72,0-25.45,0-38.18,0-1.46.34-2.29,1.77-2.87a55.12,55.12,0,0,0,6.23-3c.42-.23.65-.84.92-1.38a2.58,2.58,0,0,1,.19-.37l-.23-.06c-.67-.19-1.41-.55-1.92-.34a64.48,64.48,0,0,0-6.44,3.09,3,3,0,0,1-3.48,0,3.2,3.2,0,0,0-1.51-.68,6,6,0,0,0-1.79.54c.23.53.37,1.46.7,1.54,3.48.83,3.09,3.48,3.08,6.11-.05,11.74,0,23.47,0,35.21V81.8c-3.89-1.88-7.53-3.63-11.16-5.41C19.35,72.62,11.59,68.86,3.88,65a2.71,2.71,0,0,1-1.31-2c-.08-13.36-.06-26.73,0-40.09a5.67,5.67,0,0,1,.15-.86l24.6,12a7.19,7.19,0,0,0,1.9.87,8,8,0,0,0,2.2-.26c-.38-.64-.59-1.58-1.14-1.87-3.67-1.9-7.41-3.67-11.13-5.49L4.18,20c3.85-1.86,7.35-3.6,10.89-5.23l16.11-7.9h0C33.88,5.58,36.42,4.33,39,3.14a2.12,2.12,0,0,1,1.55.21q16.63,8.06,33.26,16.17a8,8,0,0,1,.85.64c-3.25,1.57-6.3,3.08-9.39,4.52a1.86,1.86,0,0,1-1.33-.06l-.43-.21A3.45,3.45,0,0,1,65.27,28a2.2,2.2,0,0,1,1.23-1.11c3.29-1.52,6.53-3.15,10-4.86V62.61C76.54,63.57,76.65,64.4,75.42,65Z"/><path d="M18.43,57.88c-.8.08-1.72.47-2.35.19-3.24-1.45-6.43-3-9.59-4.66a2.53,2.53,0,0,1-1-1.61,4.47,4.47,0,0,1,.44-1.65l.79.74c.45.17.91.34,1.35.55,3,1.46,6.05,2.87,9,4.45C17.7,56.23,18,57.19,18.43,57.88Z"/><path d="M13.13,61.31a1.51,1.51,0,0,1-1.37.53A64.09,64.09,0,0,1,6,59c-.31-.17-.47-1-.38-1.44s.68-.55,1.11-.87c2.15,1.1,4.22,2.11,6.21,3.25A1.44,1.44,0,0,1,13.13,61.31Z"/><path d="M49.64,33.69l.23.06a2.58,2.58,0,0,0-.19.37Z"/><path d="M65.26,28a2.14,2.14,0,0,1-.12.44A1.5,1.5,0,0,1,65.26,28Z"/><path d="M63.48,24.34h0C52.21,18.89,41,13.4,29.35,7.76L14.8,14.87l1-.48a2.77,2.77,0,0,1,2,.35c11.29,5.47,22.56,11,33.86,16.44a2.64,2.64,0,0,1,1.77,2.87c-.1,4,0,7.92,0,11.88,0,2.32.65,2.74,2.67,1.77,2.53-1.2,5-2.5,7.57-3.67a2.3,2.3,0,0,0,1.51-2.45c-.07-4.17,0-8.35-.06-12.52a3.3,3.3,0,0,1,0-.65,0,0,0,0,1,0,0,2.32,2.32,0,0,0,.1-.42s0,0,0,0A3.42,3.42,0,0,0,63.48,24.34Zm-9.91,4.95C42.46,23.94,31.39,18.52,20.32,13.12a5.73,5.73,0,0,1-.73-.55c2.26-1.11,4.33-2.18,6.46-3.15a1.85,1.85,0,0,1,1.37.2Q44.24,17.77,61,26c.12.05.17.2.43.52-2.05,1-4,2-6,2.87A2.63,2.63,0,0,1,53.57,29.29Zm9,11.68a1.8,1.8,0,0,1-.9,1.19c-1.79.94-3.62,1.77-5.77,2.79,0-4.27,0-8.3,0-12.34a1.32,1.32,0,0,1,.64-.9c1.9-1,3.84-1.91,6-3C62.65,33,62.68,37,62.61,41Z"/></svg>