<svg id="Layer_1" data-name="Layer 1" xmlns="http://www.w3.org/2000/svg" viewBox="0 0 59.4 85.04"><title>الايقونات جاهزة2</title><path d="M59.11,50.71a13.77,13.77,0,0,0-1.46-5.78C54.89,39.36,51.81,34,49,28.41a9.34,9.34,0,0,1-1-4c-.12-5.48,0-11-.07-16.44S45,0,39.72,0H8C2.55,0,0,2.58,0,8V76c0,5.79,2.56,8.4,8.36,8.41q23.88,0,47.75,0c2.77,0,3.1-.34,3.11-3.11C59.19,71.13,59.25,60.91,59.11,50.71ZM2.89,6.29A3.83,3.83,0,0,1,6.68,2.82q17.2-.06,34.43,0a3.57,3.57,0,0,1,3.64,3.09,37.86,37.86,0,0,1,.31,5.22H2.87C2.87,9.41,2.77,7.84,2.89,6.29ZM23.3,47.86c-.19,2.2-1.26,3-3.38,2.8-3-.32-5.59.44-6.87,3.47a5.5,5.5,0,0,0,4.76,7.68,50.66,50.66,0,0,0,7,.06,3.65,3.65,0,0,1,4,2.15A31.06,31.06,0,0,0,31,67.43H2.92V14.22h42V59.27c-.9-.32-2-.37-2.41-.93-2.6-3.38-5.06-6.87-7.69-10.5a7.62,7.62,0,0,0-3.25-2.77H27.38A11.11,11.11,0,0,0,23.3,47.86Zm2,11.25c-2.54,0-4.63.06-6.71,0s-3.29-1.28-3.13-3c.18-2,1.47-2.52,3.27-2.61,2.11-.11,3.91,0,4.63,2.52C23.65,57,24.51,57.86,25.32,59.11ZM7.38,81.63c-3,0-4.51-1.68-4.54-4.65,0-2.1,0-4.19,0-6.43H32.31a16.69,16.69,0,0,0,6.62,11.1C27.9,81.65,17.64,81.69,7.38,81.63Zm48.91-1.12a12.93,12.93,0,0,1-.2,1.31,104,104,0,0,1-10.9-.61c-5.29-.83-9.14-5.3-9.94-10.58a11.44,11.44,0,0,0-1.62-4.31c-2.35-3.74-4.93-7.35-7.38-11-1.75-2.63-1.45-5.06.73-6.5s4.35-.83,6.17,1.65c2.49,3.38,4.92,6.81,7.41,10.21.91,1.24,5.6,2,6.57.86a4.43,4.43,0,0,0,.75-2.67c0-7.67,0-15.33,0-23V33.08c.53.74.83,1.08,1,1.46,2.13,4,4.3,7.91,6.33,11.92a8.48,8.48,0,0,1,1,3.62C56.33,60.22,56.3,70.37,56.29,80.51Z"/><path d="M27.52,5.57A33.3,33.3,0,0,1,32,5.63a1.15,1.15,0,0,1,.49.23,1.45,1.45,0,0,1,0,2.3.71.71,0,0,1-.38.14c-3.2.12-6.41.12-9.61,0a.6.6,0,0,1-.34-.13,1.45,1.45,0,0,1,.23-2.47.46.46,0,0,1,.2-.05A44.8,44.8,0,0,1,27.52,5.57Z"/><path d="M28,76.75a4,4,0,0,1-.9,1.81c-3,3.6-7.5.74-7.46-2.63a4.22,4.22,0,1,1,8.36.82Z"/><circle cx="16.29" cy="7.19" r="1.39"/><path d="M39.53,28.73c-1.54-.64-1.88-1.84-2.45-3.14a9.4,9.4,0,0,0-8.83-5.91q-4.38-.12-8.78,0a9.76,9.76,0,0,0-9.28,6.93A2.82,2.82,0,0,1,9.35,28c-2.74,1.83-3.17,3.4-1.3,6,.66.92.49,1.77.61,2.74A42.32,42.32,0,0,0,11,46.28c.33.88,2.41,1.39,3.72,1.5,2.84.22,5.7.07,8.59.07a11.21,11.21,0,0,1,4.08-2.79H14.87c-1.68,0-2.49-.74-2.09-2.67h22.1c.49,2-.39,2.67-2.06,2.67H31.53a7.55,7.55,0,0,1,3.24,2.77c2.56-1.17,3.34-3.14,3.28-5.7,0-.87,1-1.78.93-2.65a23,23,0,0,1,1.67-8.33A2.69,2.69,0,0,0,39.53,28.73Zm-19.9-6.19c2.93,0,5.85-.05,8.78,0,3.21.07,5.49,2,6.34,5.41H12.88C14,24.28,16.19,22.57,19.63,22.54ZM34.18,39.29c-3.44.13-6.9.06-10.34.06s-6.89.07-10.34-.06A2.68,2.68,0,0,1,11.4,38c-.35-1.27.81-1.33,1.84-1.56a21.58,21.58,0,0,1,6.12-.22,57.28,57.28,0,0,0,9,0c2.14-.16,4.13-.39,6.11.31a7.91,7.91,0,0,1,2,1.52C35.66,38.49,34.94,39.26,34.18,39.29ZM33.08,33c-1.34-1.11-2.22-1.38-3.6-.07a2.77,2.77,0,0,1-4.06-.14c-1.06-1-1.93-1.17-3.05-.08a2.93,2.93,0,0,1-4.41,0c-1.16-1.08-1.91-.9-3.05.06-2,1.69-4.1,1-5.07-1.76H37.75C37.08,33.53,34.94,34.49,33.08,33Z"/></svg>