<svg id="Layer_1" data-name="Layer 1" xmlns="http://www.w3.org/2000/svg" viewBox="0 0 85.04 32.59"><title>الايقونات جاهزة2</title><path d="M85,24.86c-2.21-.31-2.24-.31-2.22,1.92,0,.71-.22.94-.91.92-2.12,0-4.25,0-6.38,0a.93.93,0,0,0-1.07.77,5.61,5.61,0,0,1-10.78,0,.9.9,0,0,0-1-.75q-19.77,0-39.55,0a.91.91,0,0,0-1,.74,5.62,5.62,0,0,1-10.81,0,.86.86,0,0,0-1-.7c-2.51,0-5,0-7.54,0-.75,0-1.11-.19-1-1a1.93,1.93,0,0,0,0-.34c0-1.73,0-1.75-1.73-1.51V20.41a1.65,1.65,0,0,0,.32.07c1.41.08,1.41.08,1.41-1.39,0-2,0-3.93,0-5.9,0-.72.23-.92.91-.92,3.78,0,7.57,0,11.35,0a1.41,1.41,0,0,0,1.43-.86c1.76-3.2,3.59-6.35,5.33-9.55A1.84,1.84,0,0,1,22.71.77q23.91,0,47.84,0a1.66,1.66,0,0,1,1.69,1C74,5,75.83,8.19,77.61,11.41a1.41,1.41,0,0,0,1.5.89c1-.07,1.93,0,2.9,0,.62,0,.81.23.8.85,0,2.14,0,4.27,0,6.41,0,.75.2,1.06.93,1,.44-.06.88-.06,1.32-.09Zm-42.16.77c6.55,0,13.1,0,19.66,0a1,1,0,0,0,1.18-.84,5.59,5.59,0,0,1,10.73.08c.15.43.27.77.82.76,1.64,0,3.27,0,4.9,0,.21,0,.6-.36.6-.55,0-3.36,0-6.73,0-10.09a.83.83,0,0,0-.57-.58,13.83,13.83,0,0,0-2.32,0,1.27,1.27,0,0,1-1.32-.78c-1.84-3.34-3.73-6.66-5.58-10a1.41,1.41,0,0,0-1.37-.85q-23.07,0-46.13,0a1.27,1.27,0,0,0-1.26.74c-1.86,3.37-3.77,6.7-5.63,10.07a1.36,1.36,0,0,1-1.37.82c-3.51,0-7,0-10.54,0-.62,0-.88.16-.87.86,0,3.22,0,6.45,0,9.67,0,.6.2.79.77.78,1.83,0,3.65-.05,5.48,0a1.18,1.18,0,0,0,1.37-1,5.57,5.57,0,0,1,5.42-3.86,5.64,5.64,0,0,1,5.21,3.93,1.07,1.07,0,0,0,1.24.88C29.82,25.62,36.35,25.63,42.88,25.63ZM16.76,22.9A3.73,3.73,0,0,0,13,26.68a3.87,3.87,0,0,0,3.7,3.84,3.75,3.75,0,0,0,3.73-3.84A3.63,3.63,0,0,0,16.76,22.9Zm52.33,0a3.62,3.62,0,0,0-3.71,3.71,3.76,3.76,0,0,0,3.67,3.91,3.89,3.89,0,0,0,3.77-3.86A3.74,3.74,0,0,0,69.09,22.9Z"/><path d="M48.36,14c-4.5,0-9,0-13.51,0-.81,0-1-.27-1-1.08.05-2.19,0-4.39,0-6.58,0-.72.16-1,.92-1q13.72,0,27.44,0c.7,0,.9.24.89.94,0,2.25,0,4.5,0,6.75,0,.77-.25,1-.95,1C57.54,14,53,14,48.36,14Z"/><path d="M19.22,14l2.23-4c.75-1.33,1.46-2.68,2.27-4a1.42,1.42,0,0,1,1-.63c2-.06,3.92,0,5.88,0,.5,0,.76.15.75.73q0,3.59,0,7.17c0,.42-.07.74-.57.74Z"/><path d="M73.88,14c-.36,0-.55.09-.73.09-2.21,0-4.42,0-6.62,0-.62,0-.9-.18-.89-.87,0-2.3,0-4.61,0-6.91,0-.6.18-.86.8-.87C69,5.33,69,5.31,70.32,7.63,71.48,9.7,72.64,11.76,73.88,14Z"/></svg>