<svg id="Layer_1" data-name="Layer 1" xmlns="http://www.w3.org/2000/svg" viewBox="0 0 84.17 85.04"><title>الايقونات جاهزة2</title><path d="M15.49,84.67c0-2,.06-4,.07-6A6.43,6.43,0,0,1,22.17,72H35.71a6.28,6.28,0,0,1,6.64,5.86c0,.11,0,.21.24.35.07-.29.18-.57.22-.86a6.37,6.37,0,0,1,5.94-5.17c4.92,0,9.85,0,14.77,0a6.2,6.2,0,0,1,5.93,6q0,3.25.07,6.51H64.4c0-2,0-4-.11-6a1,1,0,0,0-.57-.79c-.54-.13-.69.37-.69.79,0,2,0,4,0,6H49c0-1.21,0-2.41,0-3.62,0-.83,0-1.66,0-2.47,0-.27-.4-.5-.61-.74-.2.25-.58.49-.59.74,0,2,0,4.06.05,6.09H37.14c0-2.11.06-4.22,0-6.33,0-.22-.36-.44-.56-.67-.23.25-.66.5-.67.75,0,2.09,0,4.17,0,6.25h-14l0-5.59a2,2,0,0,0-.09-.81c-.11-.23-.37-.39-.57-.59-.2.23-.56.45-.57.67,0,2.11,0,4.22.05,6.32Z"/><path d="M18.8,20.23c-.15-.8-.23-1.61-.45-2.39a2.16,2.16,0,0,1,.35-2,1.79,1.79,0,0,0,0-2.45,4.11,4.11,0,0,1-.35-.77h3A13,13,0,0,0,20.76,14c-.11.31-.25.79-.1,1,1.1,1.42.92,2.91.4,4.45a3.48,3.48,0,0,0-.12.73s0,0,.12.21c.17-.33.33-.58.44-.85.82-2,1.67-4.07,2.44-6.13a1.21,1.21,0,0,1,1.34-.9c1.81,0,3.58.05,5.08,1.29a5.88,5.88,0,0,1,2.23,4.51c0,1.29,0,2.59,0,3.88,0,.29,0,.58.07,1,.4-.2.69-.32,1-.48,1.4-.87,2.79-1.76,4.21-2.61a2.39,2.39,0,0,1,3.74,1.4,2.34,2.34,0,0,1-1.25,2.71c-2.2,1.4-4.43,2.76-6.65,4.14-.61.38-1.23.75-1.83,1.14a2.54,2.54,0,0,1-2.79.23,2.65,2.65,0,0,1-1.27-2.52c0-2.7,0-5.4,0-8.09,0-.22.07-.49,0-.65a4.47,4.47,0,0,0-.65-.73,3.2,3.2,0,0,0-.61.73,2,2,0,0,0,0,.82q0,17.92,0,35.85c0,.74-.15,1.18-.93,1.36a3,3,0,0,0-1.25.61,2.91,2.91,0,0,1-3.1.51c.27-1.06.6-2.12.81-3.21a8.24,8.24,0,0,0-.91-5.1,4.1,4.1,0,0,1-.42-1.63c0-3.39,0-6.78,0-10.16,0-.57-.07-1-.78-1s-.87.26-.86.89c0,2.78,0,5.56,0,8.34v.68l-3.87-1.56-.16,0c-1.77-.35-1.77-.35-1.77-2.21,0-7.71,0-15.42,0-23.12,0-.63.34-1.67-.62-1.69s-.66,1-.66,1.64c0,3.8,0,7.6,0,11.4,0,2.12-.06,4.24-.13,6.36A2.21,2.21,0,0,1,10,39.34,2.28,2.28,0,0,1,7.31,38a3.66,3.66,0,0,1-.22-1.36q0-9.21.06-18.42a5.8,5.8,0,0,1,5.5-5.73c.68,0,1.37,0,2.06-.06a1,1,0,0,1,1.09.76c.78,2.12,1.61,4.21,2.42,6.32.11.26.24.51.37.76Z"/><path d="M38,18V4.53c0-1.59.63-2.21,2.26-2.21H79.57c1.79,0,2.4.59,2.4,2.35V33.5c0,1.75-.62,2.37-2.4,2.37H40.33c-1.73,0-2.34-.61-2.34-2.32a22.77,22.77,0,0,1,0-2.48,1.55,1.55,0,0,1,.57-1c.81-.6,1.71-1.09,2.74-1.73,0,1.13,0,2.14,0,3.13,0,.77.24,1,1,1q17.69,0,35.36,0c.8,0,1-.3,1-1q0-12.3,0-24.61c0-.81-.28-1-1.06-1q-17.6,0-35.19,0c-.82,0-1.1.2-1.08,1.05,0,2.89,0,5.79,0,8.68a1,1,0,0,1-.67,1C39.79,16.92,39,17.43,38,18Z"/><path d="M20.73,61a8.91,8.91,0,0,0,.37,7.7c-1.12.37-2.24.65-3.28,1.08a9,9,0,0,0-3.56,2.87,1.39,1.39,0,0,1-.93.51c-2,0-4.07,0-6.11,0-.6,0-.76-.24-.75-.79,0-1.68,0-3.36,0-5,0-.48-.05-.94-.65-.94s-.67.46-.67.94c0,1.65,0,3.3,0,5,0,.62-.16.89-.83.87-1.21,0-2.43,0-3.63,0-.24,0-.65-.31-.65-.48A52.34,52.34,0,0,1,.22,66a5.68,5.68,0,0,1,5.61-5c4.78-.1,9.57-.05,14.36-.05A3.35,3.35,0,0,1,20.73,61Z"/><path d="M63.85,69a8.94,8.94,0,0,0,.35-8c.34,0,.58,0,.81,0q6.36,0,12.71,0a6.22,6.22,0,0,1,6.44,6.46c0,1.68,0,3.36,0,5,0,.57-.19.78-.77.76-1.21,0-2.42,0-3.63,0-.58,0-.77-.21-.76-.77,0-1.63,0-3.25,0-4.87,0-.5,0-1-.67-1s-.65.53-.65,1c0,1.59,0,3.19,0,4.78,0,.58-.12.86-.77.85-1.73,0-3.47,0-5.2,0a1.1,1.1,0,0,1-.8-.28A9.64,9.64,0,0,0,63.85,69Z"/><path d="M48.76,68.9a17.62,17.62,0,0,0-2.8.7c-1,.43-1.89,1.09-2.85,1.61-.21.12-.62.21-.75.1a9.41,9.41,0,0,0-5.81-2.46.16.16,0,0,1-.08,0,23.17,23.17,0,0,0,.84-3.91,23.34,23.34,0,0,0-.5-4,5.2,5.2,0,0,1,.58-.05H47.46c1,0,1,.05.69,1A8.7,8.7,0,0,0,48.76,68.9Z"/><path d="M56.3,59.14a5.54,5.54,0,0,1,5.52,5.52,5.38,5.38,0,0,1-5.54,5.47,5.29,5.29,0,0,1-5.46-5.45A5.43,5.43,0,0,1,56.3,59.14Z"/><path d="M23.34,64.5A5.58,5.58,0,0,1,28.88,59a5.38,5.38,0,0,1,5.47,5.55A5.26,5.26,0,0,1,28.88,70C25.64,70,23.52,67.65,23.34,64.5Z"/><path d="M70.71,58.82a5.41,5.41,0,1,1,5.44-5.36A5.35,5.35,0,0,1,70.71,58.82Z"/><path d="M18.89,53.39a5.43,5.43,0,1,1-5.42-5.49A5.47,5.47,0,0,1,18.89,53.39Z"/><path d="M49,53.38a5.45,5.45,0,0,1-5.39,5.43,5.46,5.46,0,1,1,0-10.91A5.44,5.44,0,0,1,49,53.38Z"/><path d="M44,19.55,42.37,17.7c1.39-1.09,2.76-2.18,4.13-3.27.65-.51,1.28-1,2-1.5a1.25,1.25,0,1,1,1.51,2c-1.9,1.53-3.83,3-5.76,4.54A.79.79,0,0,1,44,19.55Z"/><circle cx="19.7" cy="5.3" r="5.2"/></svg>