<svg id="Layer_1" data-name="Layer 1" xmlns="http://www.w3.org/2000/svg" viewBox="0 0 58.47 85.04"><title>الايقونات جاهزة2</title><path d="M4.06,84.91a4.36,4.36,0,0,0-.6-.23,4.46,4.46,0,0,1-1.13-8.41A1.18,1.18,0,0,0,3.16,75c0-5.69,0-11.39,0-17.08a1.75,1.75,0,0,0-.48-1.21,5.62,5.62,0,0,1-2-4.39q0-10.95,0-21.88a4.78,4.78,0,0,1,3.86-5c.56-.16.62-.49.62-1q0-6.71,0-13.42a9,9,0,0,1,7.31-9,33,33,0,0,1,5.28-.25,2.28,2.28,0,0,0,1.46-.55A13.82,13.82,0,0,1,21.47,0H37.72a5.54,5.54,0,0,1,2.81,1.61c.13.16.51.11.78.13A38.31,38.31,0,0,1,47,2.08a8.94,8.94,0,0,1,7.06,8.85q0,6.77,0,13.51c0,.49,0,.86.62,1a4.76,4.76,0,0,1,3.85,5c0,5.58,0,11.17,0,16.75a5.67,5.67,0,0,1-1.92,4.33,1.81,1.81,0,0,0-.53,1.19c0,7.49,0,15,0,22.46a1,1,0,0,0,.68,1.06,4.45,4.45,0,0,1-1.07,8.49,2.53,2.53,0,0,0-.51.22Zm25.5-2.4H54.92a2.2,2.2,0,0,0,.53-4.35A5,5,0,0,0,54.22,78H18.49c-1.3,0-1.88-.33-1.91-1.08s.55-1.1,1.94-1.1H52.59c1.24,0,1.26,0,1.26-1.24V54.06c0-1.2,0-1.2-1.17-1.23a5.34,5.34,0,0,1-5.09-5c-.07-3.29,0-6.58-.06-9.87a5.56,5.56,0,0,0-.28-1.86,2.24,2.24,0,0,0-2.42-1.33A2.29,2.29,0,0,0,43,37.11c0,4.33,0,8.67,0,13a6.3,6.3,0,0,1-1.42,4.23,5.46,5.46,0,0,1-6.16,1.54A5.72,5.72,0,0,1,32,50.43a60.41,60.41,0,0,0-.18-7.84,2.24,2.24,0,0,0-2.26-2,2.3,2.3,0,0,0-2.19,2.11c-.1,1.43-.07,2.87-.15,4.3a5.44,5.44,0,0,1-7.76,4.44,5.78,5.78,0,0,1-3.2-5.56c0-2.38,0-4.75,0-7.13a2.19,2.19,0,0,0-2-2.21,2.22,2.22,0,0,0-2.43,1.87,8.21,8.21,0,0,0-.12,1.48c0,4.37,0,8.74-.06,13.1a5.31,5.31,0,0,1-5.06,5c-1.19,0-1.19,0-1.19,1.21v15c0,1.67,0,1.67,1.65,1.67h5.56a1.06,1.06,0,0,1,1.19,1A1.13,1.13,0,0,1,12.6,78c-.22,0-.44,0-.66,0C9.48,78,7,78,4.56,78.07a3.48,3.48,0,0,0-1.92.74,1.92,1.92,0,0,0-.41,2.43,2,2,0,0,0,2,1.27Q16.92,82.5,29.56,82.51Zm-9.65-55H5.81a2.56,2.56,0,0,0-2.75,1.81,6.4,6.4,0,0,0-.18,1.64q0,10.36,0,20.73a7.26,7.26,0,0,0,.2,1.8,3.28,3.28,0,0,0,3.57,2.33,3.29,3.29,0,0,0,2.79-3.21c0-4.42,0-8.85,0-13.27a5.11,5.11,0,0,1,1.15-3.45,4.44,4.44,0,0,1,7.81,3.3c-.08,2.58,0,5.18.19,7.76A3.2,3.2,0,0,0,22,49.81,3.31,3.31,0,0,0,25,46.45c0-1.44,0-2.88.17-4.3a4.44,4.44,0,0,1,5.47-3.59,4.77,4.77,0,0,1,3.48,4.87c0,2.46,0,4.92,0,7.38a3.21,3.21,0,0,0,3,3.28,3.29,3.29,0,0,0,3.38-2.38,10.49,10.49,0,0,0,.33-2.36c0-1.71,0-3.43,0-5.14a51.18,51.18,0,0,0-.09-6.79A4.46,4.46,0,0,1,47,32.94a4.63,4.63,0,0,1,2.79,4.59c0,3.32,0,6.63,0,9.95a3.23,3.23,0,0,0,4.62,2.85,3.51,3.51,0,0,0,1.93-3.48c0-5.42,0-10.83,0-16.25,0-2.24-1-3.13-3.24-3.13H39.72c-.89,0-1.4-.4-1.42-1.05s.54-1.12,1.45-1.12h5.8c1.15,0,1.16,0,1.16-1.15V11.69a9.5,9.5,0,0,0-.1-1.06,1.5,1.5,0,0,0-1.48-1.42q-2-.11-4.05-.06a1.54,1.54,0,0,0-.9.48,3.36,3.36,0,0,1-2.5,1.11H21.52A3.34,3.34,0,0,1,19,9.64a1.33,1.33,0,0,0-.81-.48c-1.44,0-2.88,0-4.31.07a1.4,1.4,0,0,0-1.28,1.23,5.65,5.65,0,0,0-.13,1.23q0,6.21,0,12.44c0,1.15,0,1.15,1.15,1.15H33.7a3.27,3.27,0,0,1,.83,0,1,1,0,0,1,.94,1.16,1,1,0,0,1-1,1c-.28,0-.56,0-.83,0Zm9.7-25.06c-2.62,0-5.24,0-7.87,0-.94,0-1.32.36-1.34,1.28,0,1.19,0,2.37,0,3.56,0,.91.41,1.28,1.35,1.28H37.41c1,0,1.37-.38,1.38-1.42s0-2.21,0-3.31-.36-1.4-1.39-1.4C34.81,2.4,32.21,2.41,29.61,2.41ZM10.27,17.85c0-2.21,0-4.42,0-6.63A3.94,3.94,0,0,1,13.86,7a19,19,0,0,1,2.39-.11c2.2-.07,1.94.48,2-2.06,0-.62-.26-.85-.84-.85-.93,0-1.87,0-2.81,0A7,7,0,0,0,8.9,6.57a7.66,7.66,0,0,0-1.56,5q0,5.79,0,11.6c0,2.45-.27,2,2.14,2.08.61,0,.81-.19.8-.81C10.26,22.27,10.27,20.06,10.27,17.85Zm38.65-.1v5.64c0,1.91,0,1.88,1.94,1.91.78,0,1-.26,1-1,0-4.31,0-8.62,0-12.93a7,7,0,0,0-4.07-6.75A10.48,10.48,0,0,0,43.07,4C40.67,4,41,3.7,41,6.21c0,.49.2.69.7.68.89,0,1.77,0,2.65,0,2.92,0,4.58,1.67,4.59,4.58C48.93,13.56,48.92,15.65,48.92,17.75Z"/><path d="M29.59,66.61a6,6,0,0,1-4.24-1.79c-.48-.48-.7-1-.21-1.6s1-.54,1.67,0c2,1.6,3.54,1.6,5.58,0,.67-.53,1.23-.53,1.67,0s.27,1.12-.22,1.61A6.08,6.08,0,0,1,29.59,66.61Z"/><path d="M15.92,62.76c0,.44,0,.88,0,1.32a1,1,0,0,1-1.05,1,1,1,0,0,1-1.1-1,26.15,26.15,0,0,1,0-2.8,1,1,0,0,1,1-1,1,1,0,0,1,1.09,1c0,.46,0,.93,0,1.4Z"/><path d="M43.28,62.76c0-.47,0-.94,0-1.41a1,1,0,0,1,1.09-1,1,1,0,0,1,1,1,25.33,25.33,0,0,1,0,2.89,1.07,1.07,0,0,1-2.12-.06C43.25,63.69,43.28,63.22,43.28,62.76Z"/><path d="M58.52,30.42a4.74,4.74,0,0,0-3.85-5,1,1,0,0,1-.3-.11H39.43c-.72.09-1.15.5-1.13,1.11s.53,1,1.41,1H53.06c2.24,0,3.22.89,3.24,3.13,0,5.41,0,10.84,0,16.25a3.54,3.54,0,0,1-1.94,3.49,3.24,3.24,0,0,1-4.62-2.86c0-3.31,0-6.63,0-9.94A4.63,4.63,0,0,0,46.94,33a4.45,4.45,0,0,0-6.17,4.48,51,51,0,0,1,.1,6.78c0,1.71,0,3.43,0,5.14a11.09,11.09,0,0,1-.33,2.36,3.29,3.29,0,0,1-3.38,2.38,3.19,3.19,0,0,1-3-3.28c0-2.46,0-4.92,0-7.39a4.76,4.76,0,0,0-3.48-4.86,4.44,4.44,0,0,0-5.47,3.59C25,43.57,25.06,45,25,46.45a3.32,3.32,0,0,1-3.09,3.37,3.21,3.21,0,0,1-3.35-2.91c-.17-2.58-.27-5.17-.19-7.75a4.44,4.44,0,0,0-7.81-3.31A5.16,5.16,0,0,0,9.44,39.3c0,4.43,0,8.85,0,13.27a3.28,3.28,0,0,1-2.79,3.21,3.27,3.27,0,0,1-3.56-2.33,7.21,7.21,0,0,1-.21-1.8q0-10.38,0-20.73a6.45,6.45,0,0,1,.18-1.64A2.58,2.58,0,0,1,5.8,27.47H33.58a7.67,7.67,0,0,0,.83,0,1,1,0,0,0,1.05-1,1,1,0,0,0-.94-1.17H4.78a1,1,0,0,1-.27.12,4.75,4.75,0,0,0-3.85,5q0,10.94,0,21.88a5.71,5.71,0,0,0,1,3.29l.23.31c.11.14.22.26.32.37l.43.43A4.31,4.31,0,0,0,5.7,58,4.11,4.11,0,0,1,6.54,58a5.31,5.31,0,0,0,5.05-5c.08-4.37.05-8.74.07-13.1a8.24,8.24,0,0,1,.11-1.49,2.25,2.25,0,0,1,4.47.34c0,2.38,0,4.76,0,7.13a5.77,5.77,0,0,0,3.19,5.57A5.45,5.45,0,0,0,27.2,47c.08-1.43.05-2.87.16-4.3a2.3,2.3,0,0,1,2.18-2.11,2.27,2.27,0,0,1,2.27,2A62.27,62.27,0,0,1,32,50.43a5.73,5.73,0,0,0,3.38,5.46,5.44,5.44,0,0,0,6.16-1.54,6.23,6.23,0,0,0,1.41-4.23c0-4.33,0-8.67,0-13a2.29,2.29,0,0,1,1.88-2.29,2.24,2.24,0,0,1,2.42,1.33A5.56,5.56,0,0,1,47.52,38c0,3.29,0,6.59.07,9.87a5.32,5.32,0,0,0,5.08,5h.18a6.21,6.21,0,0,0,3.6-1.17,1.29,1.29,0,0,1,.15-.17,5.44,5.44,0,0,0,.42-.41v0a5.64,5.64,0,0,0,1.49-3.9C58.55,41.57,58.56,36,58.52,30.42Z"/></svg>