<svg id="Layer_1" data-name="Layer 1" xmlns="http://www.w3.org/2000/svg" viewBox="0 0 85.04 85.04"><defs><style>.cls-1{fill:#fff;}</style></defs><title>الايقونات جاهزة2</title><path class="cls-1" d="M49,82c.89-2,.73-4.14.73-6.25V42.11c0-3.14-1.53-5.36-4.29-6.23-1.61-.52-1.61-.52-1.61-2.23,0-1.07,0-2.14,0-3.22,0-.7.21-1,.95-1s1.21,0,1.81,0c1.14,0,1.66-.51,1.66-1.66,0-3.58,0-7.15,0-10.74,0-1,0-2.09,0-3.14a1.46,1.46,0,0,0-1.68-1.65c-3.49,0-7,0-10.49,0a1.67,1.67,0,0,1-.33,0H31.87a1.76,1.76,0,0,1-.41,0c-1.31-.06-2.64,0-3.95,0-.72,0-1,.18-1,.92.05,1.55,0,3.09,0,4.63a1.57,1.57,0,1,1-3.12,0c0-1.56,0-3.14,0-4.7,0-.71-.24-.92-.91-.88a23.82,23.82,0,0,1-2.39,0c-.64,0-.89.17-.87.84,0,1.59,0,3.19,0,4.78A1.57,1.57,0,0,1,18,19.5a1.45,1.45,0,0,1-1.67-.78,2.37,2.37,0,0,1-.19-.95c0-1.52-.05-3,0-4.55,0-.79-.25-1-1-1a17.64,17.64,0,0,1-2.3,0c-.65,0-.88.17-.87.84,0,1.59,0,3.19,0,4.79a1.53,1.53,0,0,1-1.19,1.58,1.41,1.41,0,0,1-1.7-.7,2,2,0,0,1-.21-.94c0-1.56,0-3.13,0-4.7,0-.63-.18-.89-.85-.87-1.54,0-3.08,0-4.62,0A1.45,1.45,0,0,0,1.8,13.9q0,7,0,14c0,1.1.55,1.6,1.64,1.62.66,0,1.32,0,2,0s.83.25.83.84c0,1.51,0,3,0,4.53,0,.57-.26.78-.77.87a5.68,5.68,0,0,0-5,5.2,2.39,2.39,0,0,1-.22.52v5.62A6,6,0,0,1,1,47q9,0,18,0a4.49,4.49,0,0,1,4.53,3.27,7.86,7.86,0,0,1,.24,1.87q0,8.13,0,16.25c0,2-.59,3.66-2.48,4.58a5.35,5.35,0,0,1-2.21.56c-6.13,0-12.26,0-18.4,0a2.76,2.76,0,0,1-.4-.06v5.61a2,2,0,0,1,.21.51,5.86,5.86,0,0,0,5.22,5.23,1.72,1.72,0,0,1,.51.21H49V82.14C49,82.05,48.94,82,49,82ZM38,15.33c0-.14.38-.36.6-.38.54,0,1.09,0,1.64,0,.71-.07,1,.21,1,.92,0,.28,0,.55,0,.83h.05c-.06.55-.08,1.1-.18,1.63a1.42,1.42,0,0,1-1.43,1.22,1.31,1.31,0,0,1-1.52-1.09A20,20,0,0,1,38,15.33Zm-4.19,1.52v1.07a1.54,1.54,0,0,1-1.34,1.61,1.52,1.52,0,0,1-1.72-1.29,19.79,19.79,0,0,1,0-2.88c0-.15.36-.38.56-.4.6-.06,1.21,0,1.8,0s.78.23.73.78C33.81,16.08,33.83,16.47,33.83,16.85Zm11,56.68c-1.53,0-3.08,0-4.62,0-3.23,0-5.13-1.79-5.17-5,0-5.51,0-11,0-16.51,0-3.29,1.91-5,5.2-5.05H46C47,47,47,47,47,48.1a11,11,0,0,0,0,1.15c.08.73-.24,1-.95,1-2,0-3.9,0-5.86,0-1.61,0-1.95.35-1.95,1.93v16.1c0,1.75.3,2,2.09,2s3.79,0,5.69,0c.76,0,1,.25,1,1C47,73.92,47.41,73.5,44.84,73.53Z"/><path class="cls-1" d="M84.56,6.07A6.06,6.06,0,0,0,79.19.7a3.59,3.59,0,0,1-.68-.22h-40a4.54,4.54,0,0,1-.68.23A6,6,0,0,0,32.5,6.45c0,1.51,0,3,0,4.51H35c0-1.46,0-2.92.11-4.37a3.46,3.46,0,0,1,3.58-3.36,4,4,0,0,1,.49,0q19.32,0,38.64,0a5.5,5.5,0,0,1,1.94.33A3.55,3.55,0,0,1,82,6.93c0,.24,0,.49,0,.74q0,35.1,0,70.18a6.86,6.86,0,0,1-.27,2c-.48,1.56-1.88,2.4-3.83,2.4H50.31V85h28.2a3.59,3.59,0,0,1,.68-.22,6.06,6.06,0,0,0,5.37-5.37,3.59,3.59,0,0,1,.22-.68v-72A3.18,3.18,0,0,1,84.56,6.07Z"/><path class="cls-1" d="M.23,58.77V56c.21,0,.43.06.65.06h12a3.78,3.78,0,0,0,1.05-.17,1.42,1.42,0,0,0,1-1.44,1.47,1.47,0,0,0-1.09-1.48A2.81,2.81,0,0,0,13,52.8l-12.78,0V50.19l1.15,0h17c1.82,0,2.08.28,2.08,2.12v16c0,1.62-.3,1.93-1.92,1.93H1.38c-.39,0-.77,0-1.15,0V67.69c2.46,0,4.93,0,7.4-.09a1.4,1.4,0,0,0,1.43-1.48,1.49,1.49,0,0,0-1.44-1.6c-2.46,0-4.93,0-7.39,0v-2.8a1,1,0,0,0,.23.06c3.32,0,6.64,0,10,0A1.56,1.56,0,0,0,12,60.25a1.58,1.58,0,0,0-1.67-1.55q-3.33,0-6.67,0C2.52,58.7,1.38,58.75.23,58.77Z"/><path class="cls-1" d="M55.79,42.76V8.59a6.52,6.52,0,0,1,0-1,1.2,1.2,0,0,1,1.07-1.09,1.13,1.13,0,0,1,1.37.79,4.17,4.17,0,0,1,.19,1.37q0,34.13,0,68.25a4,4,0,0,1-.18,1.29,1.16,1.16,0,0,1-1.38.79,1.2,1.2,0,0,1-1.08-1.17c0-.33,0-.66,0-1Z"/><path class="cls-1" d="M64.54,66.1a5.67,5.67,0,1,1,11.34,0,5.67,5.67,0,0,1-11.34,0Z"/><path class="cls-1" d="M64.54,17.91a5.66,5.66,0,0,1,5.71-5.62A5.59,5.59,0,0,1,75.87,18a5.57,5.57,0,0,1-5.67,5.66A5.64,5.64,0,0,1,64.54,17.91Z"/><path class="cls-1" d="M64.54,34a5.73,5.73,0,0,1,5.69-5.66,5.7,5.7,0,0,1,0,11.4A5.71,5.71,0,0,1,64.54,34Z"/><path class="cls-1" d="M64.54,50a5.67,5.67,0,1,1,5.63,5.69A5.66,5.66,0,0,1,64.54,50Z"/></svg>