<svg id="Layer_1" data-name="Layer 1" xmlns="http://www.w3.org/2000/svg" viewBox="0 0 79.39 85.04"><defs><style>.cls-1{fill:#fff;}</style></defs><title>الايقونات جاهزة2</title><path class="cls-1" d="M70.68,59.39a15.11,15.11,0,0,0-6.94,1.28,6.64,6.64,0,0,1-5.63-.1A9.71,9.71,0,0,0,56,59.8c-.54-.1-.69-.34-.62-.91.51-3.68,1-7.38,1.43-11.08.37-2.88.77-5.76,1.1-8.63.08-.74.29-1.09,1.1-1a14.54,14.54,0,0,0,2,0,1.33,1.33,0,0,0,1.46-1.38c0-1.9.05-3.81,0-5.71,0-.91-.63-1.37-1.63-1.38-1.58,0-3.15,0-4.73,0-.37,0-.57-.08-.66-.31H52.56c-.08.23-.3.32-.69.31-2.6,0-5.19,0-7.79,0s-5.13,0-7.69,0c-.42,0-.65-.08-.74-.32H32.72c-.09.24-.32.31-.71.32-1.12,0-1.64,0-1.87-.32H27.07c-.09.23-.3.32-.69.31-2.6,0-5.19,0-7.79,0s-5.14,0-7.7,0c-.4,0-.61-.09-.69-.32H7.27c-.09.24-.31.33-.73.32-1.51-.06-3,0-4.55,0-1.25,0-1.75.51-1.75,1.77,0,1.66,0,3.31,0,5,0,1.25.49,1.72,1.77,1.74.66,0,1.33,0,2,0,.46,0,.67.12.74.63Q5.85,47.68,7,56.55q1.21,9.36,2.42,18.71c.22,1.73.43,3.45.68,5.17.18,1.3.59,1.63,1.92,1.63H43.86a2.07,2.07,0,0,1,1.68.64,8.31,8.31,0,0,0,3.59,2,.2.2,0,0,1,.1.12s-.06.07-.09.11H55.6s-.15-.14,0-.18c1.43-.4,2.71-1.21,4.19-1.5a7,7,0,0,1,3.74.3,26.07,26.07,0,0,0,2.94,1.11c.1,0,.3.08.11.27H73c-.17-.38.18-.29.32-.34a8.52,8.52,0,0,0,6.14-8.65c0-2.54,0-5.08,0-7.62A8.55,8.55,0,0,0,70.68,59.39ZM57,63.17a9.65,9.65,0,0,0,8.33-.09,11.39,11.39,0,0,1,6.9-.66,5.53,5.53,0,0,1,4.38,5.91,5.66,5.66,0,0,1-5.47,5.22,12.7,12.7,0,0,1-6.21-1,9.21,9.21,0,0,0-8,.11,11.56,11.56,0,0,1-7,.73,5.63,5.63,0,0,1,.51-11.09c.65-.07,1.32-.07,2-.1A10,10,0,0,1,57,63.17ZM41.6,32.52h8.2c3,0,6,0,9,0,.67,0,.85.21.85.84,0,2,0,2-2,2-5.61,0-11.21,0-16.81,0-.87,0-1-.26-1-1.06C39.89,32.52,39.85,32.52,41.6,32.52Zm-23.38,0c6,0,11.94,0,17.9,0,.73,0,.94.18.93.91,0,2.88,0,5.75,0,8.62a1.82,1.82,0,0,0,1.17,1.88c2.61,1.28,5.18,2.58,7.78,3.87a1.88,1.88,0,0,1,1.25,1.61A1.7,1.7,0,0,1,44.68,51c-1.74-.84-3.46-1.72-5.19-2.59C38,47.69,37,48.27,37,50V63.42a2.88,2.88,0,0,1-2.06,3c-.57.18-.78.08-.77-.56,0-3.67,0-7.35,0-11,0-.79-.13-1.11-1-1.07-1.83.08-1.83,0-1.83,1.84,0,3.39,0,6.78,0,10.18,0,.57-.13.77-.73.77-2.1,0-2.1,0-2.1-2.12,0-3.28,0-6.57,0-9.85,0-.62-.16-.81-.79-.81-2.05,0-2.05,0-2.05,2,0,3.29,0,6.57,0,9.87,0,.65-.12.91-.85.9-2,0-2,0-2-2,0-3.32,0-6.63,0-9.95,0-.64-.17-.86-.84-.85-2,0-2,0-2,2,0,3.34,0,6.69,0,10,0,.75-.24.85-.87.62a2.81,2.81,0,0,1-2-2.69c0-1,0-2,0-3.07V48.41c0-4.94,0-9.89,0-14.83C17.19,32.79,17.34,32.49,18.22,32.5ZM3.72,35.35c-.48,0-.66-.13-.67-.65,0-2.18-.07-2.18,2.12-2.18,2.79,0,5.57,0,8.36,0,.64,0,.86.16.86.82,0,2,0,2-2,2H8.69C7,35.34,5.38,35.33,3.72,35.35Zm39,33c0,1.6,0,3.2,0,4.81,0,2-.21,4,.48,6.07h-.9c-9.51,0-19,0-28.52,0-.8,0-1-.29-1.08-1Q11.3,67.52,9.9,56.79q-1.15-9-2.33-18c-.08-.59.17-.64.63-.64,1.79,0,3.59,0,5.39,0,.61,0,.8.19.8.81,0,3.12,0,6.24,0,9.36,0,5,0,10,0,15A5.63,5.63,0,0,0,19,69.19a7.36,7.36,0,0,0,1.4.12H33.89a5.65,5.65,0,0,0,6-6c0-3.78,0-7.57,0-11.51l3.39,1.69a4.59,4.59,0,1,0,4.09-8.21C45,44.13,42.74,43,40.44,41.86a.86.86,0,0,1-.6-.94c0-.72,0-1.44,0-2.15,0-.42.11-.6.56-.59,4.72,0,9.44,0,14.17,0,.6,0,.6.3.54.74-.42,3.23-.82,6.46-1.24,9.7s-.87,6.57-1.26,9.85c-.08.72-.32.95-1.06,1A8.5,8.5,0,0,0,42.67,68.35ZM71.22,82A13.48,13.48,0,0,1,64.76,81a9,9,0,0,0-7.86.17,11.39,11.39,0,0,1-6.73.75,5.46,5.46,0,0,1-4.63-5.11c-.08-.79,0-1.58,0-2.42,4,2.67,8.15,2.64,12.34.93a7.73,7.73,0,0,1,6.42,0,13.93,13.93,0,0,0,9.31.63,8.1,8.1,0,0,0,2.89-1.58C77.4,78.79,74.72,81.83,71.22,82Z"/><path class="cls-1" d="M58.25,66.53c0,1.38,0,1.38-1.41,1.38s-1.42,0-1.42-1.38,0-1.46,1.5-1.46C58.25,65.07,58.25,65.07,58.25,66.53Z"/><path class="cls-1" d="M70.92,67.91c-1.62,0-1.35.18-1.37-1.42,0-1.42,0-1.42,1.45-1.42s1.38,0,1.38,1.42S72.38,67.91,70.92,67.91Z"/><path class="cls-1" d="M52.6,67.84c0,1.47,0,1.47-1.5,1.47-1.33,0-1.33,0-1.33-1.37s0-1.46,1.49-1.46S52.6,66.48,52.6,67.84Z"/><path class="cls-1" d="M65.31,69.31c-1.41,0-1.41,0-1.41-1.43s0-1.4,1.37-1.4,1.45,0,1.45,1.47S66.72,69.31,65.31,69.31Z"/><path class="cls-1" d="M60.37,0H43c0,.43-.32.29-.52.35a12.62,12.62,0,0,0-9.5,10.19,10.05,10.05,0,0,0-.2,2,1.42,1.42,0,0,0,1.56,1.62c.69,0,1.38,0,2.07,0,.45,0,.68.12.61.61a.86.86,0,0,0,0,.16c.37,2.06-.44,3.53-2,5-2.86,2.67-2.25,1.45-2.3,5.39,0,1.25,0,2.5,0,3.73,0,.6-.2.73-.76.73h4.32c-.57,0-.76-.18-.75-.78,0-1.71,0-3.42,0-5.13a1.28,1.28,0,0,1,.39-1c.9-.86,1.78-1.74,2.64-2.62a1.21,1.21,0,0,1,.94-.41c2.07,0,4.14,0,6.21,0a1.28,1.28,0,0,1,1,.44c1.79,1.8,3.58,3.6,5.38,5.38a1.26,1.26,0,0,1,.45,1c0,.78,0,1.55,0,2.32,0,.57-.15.75-.7.75H56c-.51,0-.68-.17-.66-.7,0-1,0-1.93,0-2.89A2.55,2.55,0,0,0,54.5,24c-1.91-1.87-3.79-3.79-5.7-5.67a1.48,1.48,0,0,1-.52-1.22,26.22,26.22,0,0,0,0-2.66,1.75,1.75,0,0,1,.79-1.66c1.41-1,1.39-1.08,2.16.45s1.7,3.35,2.5,5.05c.27.55.48.73,1.1.41,1.81-.93,1.84-.91.91-2.77S53.92,12.26,53,10.44a.65.65,0,0,1,.2-.95,3.42,3.42,0,0,1,2.83-1,33.65,33.65,0,0,0,3.48,0A1.38,1.38,0,0,0,61,6.93c0-1.79,0-3.59,0-5.39C61.07.88,60.52.55,60.37,0Zm-17,17c-.94,0-1.87,0-2.81,0-.54,0-.77-.1-.77-.72,0-2.12,0-2.12,2.09-2.12h.74c.72,0,1.43,0,2.15,0,.47,0,.68.09.69.63C45.54,17,45.55,17,43.38,17Zm7.07-8.83a29.66,29.66,0,0,0-3.58,2.81,1.55,1.55,0,0,1-1,.37c-1.56,0-3.14,0-4.72,0s-3.09,0-4.62,0c-.72,0-.79-.22-.66-.85a9.94,9.94,0,0,1,9.11-7.62c2.34-.09,4.69,0,7,0,.4,0,.64.09.59.55a.43.43,0,0,0,0,.16A4.07,4.07,0,0,1,50.45,8.13Zm6.42-2.49c-1.49,0-1.49,0-1.49-1.45s0-1.37,1.34-1.37c1.49,0,1.49,0,1.49,1.45S58.21,5.64,56.87,5.64ZM26.39,29.7h5.15c-1.64,0-1.64-.12-1.64-2.06,0-2.79,0-5.58,0-8.36a3.57,3.57,0,0,0-.87-2.49c-1.49-1.78-2.9-3.63-4.36-5.42a1.82,1.82,0,0,1-.46-1.28c0-2.43,0-4.86,0-7.29,0-1,.11-2-.68-2.8H13.45c.05,0,.23,0,.12.12a2.83,2.83,0,0,0-.64,2.38c0,2.55,0,5.09,0,7.62a1.77,1.77,0,0,1-.42,1.21c-1.55,1.9-3.07,3.84-4.62,5.75a2.69,2.69,0,0,0-.64,1.81c0,3.34,0,6.68,0,10,0,.59-.15.79-.71.79H10.8c-.55,0-.7-.18-.7-.75q0-4.21,0-8.44c0-.54.17-.71.7-.71H26.38c.54,0,.7.17.7.71,0,2.82,0,5.63,0,8.45C27.09,29.52,26.93,29.7,26.39,29.7ZM15.77,6.3c0-.93,0-1.87,0-2.81,0-.47.1-.69.64-.68q2.19,0,4.38,0c.53,0,.65.19.64.67,0,1.94,0,3.86,0,5.8,0,.43-.09.65-.59.64q-2.23,0-4.47,0c-.49,0-.61-.19-.6-.63C15.79,8.29,15.77,7.3,15.77,6.3ZM11.7,16.89l3.18-4c.19-.23.44-.18.68-.18h6a.83.83,0,0,1,.75.23l3.11,3.91Z"/></svg>