<svg id="Layer_1" data-name="Layer 1" xmlns="http://www.w3.org/2000/svg" viewBox="0 0 85.04 78.37"><defs><style>.cls-1{fill:#fff;}</style></defs><title>الايقونات جاهزة2</title><path class="cls-1" d="M77.34,48.25c-.06-.12-.12-.24-.19-.36Q70.82,35.64,64.47,23.38,58.83,12.49,53.19,1.6C52.55.36,52,.15,50.91.79q-10.6,6.48-21.22,13c-1.13.69-1.26,1.33-.62,2.57l21.1,40.79c.12.24.21.5.38.89a10.26,10.26,0,0,1,5.15,6.58l.4-1.07Q66.38,57.32,76.61,51C77.93,50.22,78.07,49.7,77.34,48.25ZM40.25,10.52c1-.67,2-1.28,3-1.9a.9.9,0,0,1,.21-.08l.3-.32a2.78,2.78,0,0,0,.17.66c.53,1,1.09,2,1.59,3.07a.86.86,0,0,1-.17.76c-.94.65-1.91,1.22-2.86,1.83-.34.22-.55.12-.73-.24-.53-1-1.1-2-1.6-3.05A.83.83,0,0,1,40.25,10.52Zm2,25.91q-4-7.83-8.08-15.62c-.76-1.48-1.51-3-2.3-4.44-.27-.5-.18-.76.27-1,1.61-1,3.22-1.94,4.81-2.94.53-.33.78-.19,1.06.36.73,1.44,1.5,2.86,2.26,4.27.58,1.07,1.15,1.25,2.13.65,1.83-1.12,3.64-2.24,5.43-3.42a5.39,5.39,0,0,0,1-1.13c-.21-.54-.32-.93-.5-1.28-.72-1.38-1.44-2.76-2.2-4.12-.29-.52-.24-.8.26-1.1,1.46-.86,2.92-1.74,4.36-2.65.46-.29.69-.2.95.29q5.21,10.13,10.45,20.2c.33.61,0,.8-.38,1.05L45.26,35.64c-.62.37-1.25.72-1.84,1.13S42.6,37,42.3,36.43Zm15.5.08c-1,.69-2.08,1.32-3.12,2l-.14.06-.22.24a6.19,6.19,0,0,0-.23-.6c-.54-1-1.07-2-1.62-3-.19-.34-.17-.59.18-.8,1-.58,1.91-1.21,2.89-1.76a.71.71,0,0,1,.7.21c.59,1,1.12,2,1.63,3A.75.75,0,0,1,57.8,36.51ZM74.13,49.45c-3.39,2-6.77,4.13-10.14,6.19-2.73,1.67-5.46,3.32-8.17,5-.56.36-.84.31-1.17-.33q-5.09-9.91-10.22-19.78c-.14-.28-.26-.58-.43-.94l3.27-2c.7-.43,1.42-.84,2.1-1.3.47-.32.74-.24,1,.29.73,1.44,1.5,2.86,2.26,4.28.6,1.12,1.16,1.31,2.17.68q2.7-1.66,5.37-3.37a1.53,1.53,0,0,0,.58-2.33C60,34.44,59.3,33,58.53,31.65c-.33-.58-.2-.85.3-1.15,1.42-.84,2.84-1.67,4.22-2.58.56-.36.8-.22,1.1.36q4.65,9,9.34,18c.31.62.6,1.26,1,1.85S74.71,49.11,74.13,49.45Z"/><path class="cls-1" d="M84.24,52.35c-.56-1-.56-1-1.57-.46Q69.85,59,57,66c-.29.16-.61.29-1,.47a11.57,11.57,0,0,0-.36-1.53l.16-.36A10.52,10.52,0,0,0,50.2,58a16,16,0,0,0-2.68-.73,1.86,1.86,0,0,1-1.6-1.18Q35.26,36.28,24.54,16.51c-2-3.69-3.94-7.41-6-11A6.82,6.82,0,0,0,12.26,1.9c-2.28,0-4.55,0-6.83,0-1.51,0-3,0-4.52-.07v2.8a1.65,1.65,0,0,1,.32-.06c3.71,0,7.41,0,11.11,0a4.54,4.54,0,0,1,4.05,2.55Q25.64,24.26,34.9,41.42a3.83,3.83,0,0,1,.45,1.79c0,7.87,0,15.74,0,23.61A16.31,16.31,0,0,0,35.53,69,10.25,10.25,0,0,0,55.3,70.89a3,3,0,0,1,1.49-1.71q13.71-7.5,27.39-15c.25-.14.49-.32.75-.49C84.68,53.16,84.47,52.75,84.24,52.35ZM38.13,47.79l.21-.06c1.7,3.14,3.4,6.28,5,9.28l-5.22,3ZM45.67,75a7.58,7.58,0,1,1,7.56-7.6A7.53,7.53,0,0,1,45.67,75Z"/><path class="cls-1" d="M45.7,63.08a4.33,4.33,0,0,0-4.39,4.27,4.42,4.42,0,0,0,4.28,4.34A4.35,4.35,0,0,0,50,67.43,4.23,4.23,0,0,0,45.7,63.08ZM45.64,69a1.53,1.53,0,0,1-1.55-1.57A1.57,1.57,0,1,1,45.64,69Z"/></svg>