<svg id="Layer_1" data-name="Layer 1" xmlns="http://www.w3.org/2000/svg" viewBox="0 0 85.04 82.53"><defs><style>.cls-1{fill:#fff;}</style></defs><title>الايقونات جاهزة2</title><path class="cls-1" d="M.54,32.57c2.56.63,5.14,1.22,7.7,1.88a12.06,12.06,0,0,1,5.57,2.79A6.4,6.4,0,0,1,15.91,42c0,4.89,0,9.79,0,14.68,0,.83.23,1.08,1.06,1.07,3.17-.05,6.34.06,9.51,0a5,5,0,0,1,5.2,5.24c-.1,6.2,0,12.4,0,18.61v1c-.72,0-1.36,0-2,0-.16,0-.37-.27-.43-.46a2.73,2.73,0,0,1,0-.81q0-8.85,0-17.71a12,12,0,0,0-.06-1.47,2.38,2.38,0,0,0-2.63-2H14.6c-1.1,0-1.1,0-1.1-1.14,0-5.24-.06-10.49,0-15.74.05-3.17-1.19-4.71-4-5.73-1.91-.7-3.92-1.13-5.89-1.67a2.81,2.81,0,0,0-.51,0v.91q0,12.25,0,24.52a5.83,5.83,0,0,0,6.12,6.13c4.4,0,8.8,0,13.2,0,.83,0,1.15.15,1.25,1.07.52,4.58,1.14,9.14,1.72,13.71a1.65,1.65,0,0,1-.06.38,18.73,18.73,0,0,1-2,0c-.18,0-.42-.38-.45-.61-.51-3.75-1-7.51-1.46-11.27-.08-.66-.36-.72-.89-.72-3.75,0-7.49,0-11.23,0a8.4,8.4,0,0,1-7-3.39A7.67,7.67,0,0,1,.73,62.79a6.66,6.66,0,0,0-.19-.7Z"/><path class="cls-1" d="M84.5,62.09a20.78,20.78,0,0,1-1,3.24,8.11,8.11,0,0,1-7.57,4.57c-3.77,0-7.55,0-11.32,0-.6,0-.9.08-1,.8-.43,3.71-1,7.41-1.41,11.11-.07.58-.27.76-.81.73s-1.09,0-1.73,0c.12-1.1.22-2.12.35-3.13.47-3.71,1-7.41,1.4-11.12.09-.8.39-.9,1.06-.9q6.6,0,13.2,0c3.86,0,6.29-2.44,6.29-6.3V35.73c-.87.21-1.61.35-2.33.56-1.47.42-2.95.8-4.38,1.33a5.1,5.1,0,0,0-3.37,3.11,7.2,7.2,0,0,0-.3,2.17c0,5.36,0,10.72,0,16.07,0,1.13,0,1.14-1.1,1.14H58.72a2.55,2.55,0,0,0-2.17.74,3,3,0,0,0-.62,1.37,19.54,19.54,0,0,0-.07,2.54q0,8.28,0,16.56c0,1.21,0,1.21-1.19,1.21H53.44c0-.35,0-.64,0-.93,0-6.29,0-12.57,0-18.86a4.92,4.92,0,0,1,5-5.07c3.25.08,6.51,0,9.76,0,.75,0,1-.22,1-1,0-4.56.12-9.13,0-13.69a7.47,7.47,0,0,1,5.49-7.8c3-1,6.09-1.64,9.15-2.44l.78-.22Z"/><path class="cls-1" d="M84.5,24.87c-.13.55-.24,1.11-.39,1.66a8,8,0,0,1-7.84,5.86c-2,0-4.09,0-6.14,0-.75,0-.95-.26-.92-.95.05-.93,0-1.86,0-2.78,0-.53-.22-.73-.74-.72-.93,0-1.85,0-2.88,0,.12-.32.19-.55.28-.77.73-1.67,1.51-3.32,2.18-5a32.53,32.53,0,0,0,1.36-4.08,7.61,7.61,0,0,1,14.84.26c.08.42.15.85.23,1.27Zm-15.14.67c.65,0,1.13,0,1.61,0s.73.16.71.7c0,1,0,2,0,2.95,0,.56.18.79.75.78,1.26,0,2.52,0,3.77,0,3.23-.12,5.59-2.21,5.72-5.14.08-1.78.08-3.55,0-5.33a5.13,5.13,0,0,0-4.39-4.68,5,5,0,0,0-5.62,3.87,18.94,18.94,0,0,1-1.49,4.39Z"/><path class="cls-1" d="M.54,19.62c.17-.71.3-1.43.51-2.12A7.56,7.56,0,0,1,15.75,19a4.77,4.77,0,0,0,.39,1.32c1,2.28,2,4.55,3,6.82.1.24.19.49.33.84-1,0-2,0-2.89,0-.53,0-.74.2-.74.72,0,.95,0,1.91,0,2.86,0,.62-.16.88-.83.86-2.29,0-4.59,0-6.88,0A8,8,0,0,1,.74,25.73a8.26,8.26,0,0,0-.2-.86Zm15.13,5.92-.44-1.11a32.17,32.17,0,0,1-2.12-5.88c-.47-2.58-2.95-4.05-5.72-3.73a5.1,5.1,0,0,0-4.26,4.72c-.06,1.74-.06,3.49,0,5.24a5.34,5.34,0,0,0,4.81,5c1.55.11,3.1.07,4.66.13.62,0,.8-.25.78-.83,0-.9,0-1.81,0-2.7s.25-1,.94-.9C14.68,25.57,15.09,25.54,15.67,25.54Z"/><polygon class="cls-1" points="52.9 11.53 52.9 20.25 33.73 20.25 33.73 17.64 50.47 17.64 50.47 11.53 52.9 11.53"/><polygon class="cls-1" points="50.47 11.53 52.9 11.53 52.9 20.25 33.73 20.25 33.73 17.64 50.47 17.64 50.47 11.53"/><path class="cls-1" d="M60.92,14.39a2.73,2.73,0,0,1-.54-1.54c-.06-1.64-.05-3.28,0-4.92,0-.66-.25-.85-.86-.83-.79,0-1.58,0-2.37,0h-8c-6.18,0-12.36,0-18.53,0-.72,0-1,.17-1,1,0,6.13,0,12.25,0,18.37,0,.27,0,.52,0,.79h30.7c0-1.14,0-2.23,0-3.32,0-.76-.18-1.75.22-2.19s1.38-.16,2.11-.17c1.29,0,2.58,0,4,0C64.7,19.06,62.77,16.74,60.92,14.39Zm-2,4.62c-.75-.07-1,.17-1,.94.06,1.26,0,2.51,0,3.77,0,.32,0,.63-.07,1H32.18V20.9h-.06v-4h0c0-2.17,0-4.35,0-6.52,0-.52.09-.79.7-.79H57.16c.59,0,.77.22.76.77,0,1,0,2.07,0,3.11a2.84,2.84,0,0,0,.79,2.21c.9,1,1.72,2.1,2.76,3.37C60.43,19,59.65,19.07,58.89,19Z"/><polygon class="cls-1" points="52.9 11.53 52.9 20.25 33.73 20.25 33.73 17.64 50.47 17.64 50.47 11.53 52.9 11.53"/><polygon class="cls-1" points="52.9 11.53 52.9 20.25 33.73 20.25 33.73 17.64 50.47 17.64 50.47 11.53 52.9 11.53"/><path class="cls-1" d="M22.21.06c0,2,0,3.93,0,5.86a2.46,2.46,0,0,1-.47,1.33C20.18,9.2,18.58,11.11,17,13c-.36.43-.7.88-1.15,1.44h5.06c1.36,0,1.29-.21,1.29,1.26v4.43h5.28V17.7c-.73,0-1.4,0-2.08,0s-.78-.18-.77-.75c0-1.42,0-2.84,0-4.26,0-.56-.17-.77-.75-.75-.85.05-1.71,0-2.76,0L22,10.8c.85-1.05,2-2,2.47-3.21a12,12,0,0,0,.12-4.07c0-.77.19-1,1-1,7.94,0,15.9,0,23.86,0,.28,0,.58,0,.9.05V5.5h2.54V.06Z"/><path class="cls-1" d="M44.38,52.08H41.62V81.4c0,1.13,0,1.13-1.17,1.13H39.12V53.14C39.12,52,39.12,52,38,52c-5.52,0-11,0-16.56,0-.7,0-.95-.17-.94-.91,0-2,0-4,0-6.06,0-.64.19-.85.84-.85q21.15,0,42.31,0c.64,0,.85.19.84.83q0,3.07,0,6.15c0,.64-.19.83-.84.83-5.28,0-10.55,0-15.82,0h-.91v30.5c-.79,0-1.49,0-2.18,0-.13,0-.31-.25-.36-.42a2.34,2.34,0,0,1,0-.65V52.08Zm-1.87-2.56h18c1.71,0,1.52.26,1.53-1.52,0-1.31,0-1.31-1.35-1.31h-36c-2.08,0-1.7-.21-1.79,1.79,0,.82.19,1.07,1,1.07C30.17,49.5,36.34,49.52,42.51,49.52Z"/><path class="cls-1" d="M43.78,37.08H41.27V35.17s0-.06,0-.08c.51-.78,1.28-.23,1.91-.37.37-.08.62.08.6.54S43.78,36.4,43.78,37.08Z"/><path class="cls-1" d="M33.87,37.13V36.05c0-1.44-.24-1.35,1.35-1.33.35,0,1,.11,1,.24a9.55,9.55,0,0,1,0,2c0,.07-.27.16-.41.16C35.2,37.14,34.61,37.13,33.87,37.13Z"/><path class="cls-1" d="M50,37.13c-1.25,0-1.25,0-1.25-1.22s0-1.21,1.29-1.2,1.15,0,1.17,1.36C51.18,37.13,51.17,37.13,50,37.13Z"/></svg>