<svg id="Layer_1" data-name="Layer 1" xmlns="http://www.w3.org/2000/svg" viewBox="0 0 85.04 85.04"><defs><style>.cls-1{fill:#fff;}</style></defs><title>الايقونات جاهزة2</title><path class="cls-1" d="M54.48.54A2.14,2.14,0,0,0,55,.76a3.89,3.89,0,0,1,3.44,3.18,15.29,15.29,0,0,0,4.17,7.31A65.56,65.56,0,0,0,77.27,22.51L79.65,24a4.16,4.16,0,0,1,2,3.89c0,1.78-.18,3.55-.3,5.32a76.63,76.63,0,0,1-1.9,12.61c-.1.4-.15.81-.28,1.2a1.1,1.1,0,0,1-1.42.77A1.08,1.08,0,0,1,77,46.41c.55-2.92,1.15-5.84,1.62-8.77.3-1.91.43-3.85.59-5.78.1-1.25.1-2.51.16-3.77a2.47,2.47,0,0,0-1.28-2.44c-3.47-2.19-6.89-4.45-10.31-6.71-.47-.3-.74-.34-1,.19-.44.81-1,1.58-1.41,2.4a1.25,1.25,0,0,0,0,1c2,3.21.54,7-3.06,7.83a6.8,6.8,0,0,1-2.65-.1c-.52-.08-.9-.09-1.22.35l0,.06c-1,1-1.7,1.76-1.09,3.46.74,2-.15,4-2,5.23a4.82,4.82,0,0,1-5.48.28.84.84,0,0,0-1.1.05c-.71.59-1.46,1.13-2.5,1.94a3.72,3.72,0,0,1,.87.47,6.46,6.46,0,0,1,0,9.5c-.6.57-.42.84,0,1.36,1.08,1.26,2.11,2.57,3.09,3.91a1.15,1.15,0,0,1-.28,1.78c-.59.3-1.16,0-1.68-.61-1.14-1.42-2.33-2.81-3.5-4.21a1.27,1.27,0,0,0-1.39-.43,2.94,2.94,0,0,1-1.38,0,1.74,1.74,0,0,0-1.83.55,17.76,17.76,0,0,0-5.7,10.63c-.58,4.4.91,8.2,5,10a8.14,8.14,0,0,0,11.2-6.72,15,15,0,0,0-.46-5.51c-.21-.84.06-1.44.68-1.63a1.13,1.13,0,0,1,1.49.9c1,3.53,1.17,7-.68,10.35a10,10,0,0,1-9.77,5.51c-5.41-.22-9.74-5-9.85-10.5a19.06,19.06,0,0,1,5.32-13.45,6.5,6.5,0,0,1,.52-.53c.66-.53.62-.91,0-1.53a6.52,6.52,0,0,1,.13-9.4c.58-.55.54-.85-.09-1.21a1.49,1.49,0,0,1-.2-.15,2.68,2.68,0,0,0-3.41-.69c-1.91.86-3.78.13-5.2-1.4a4.77,4.77,0,0,1-.94-5.33A1,1,0,0,0,27.9,32a4.06,4.06,0,0,1-.44-.49,2.33,2.33,0,0,0-2.72-1,4.57,4.57,0,0,1-5.07-2.25,4.82,4.82,0,0,1,0-5.49,1.08,1.08,0,0,0,0-1.33C19,20.21,18.26,19,17.48,17.73c-.63.52-1.16,1-1.72,1.4-2.92,2.16-5.83,4.34-8.8,6.44a2.83,2.83,0,0,0-1.33,2.61c.31,11,2.34,21.55,7.19,31.47C16,66.19,20.18,72,26.06,76.43a27.28,27.28,0,0,0,13.81,5.62A26,26,0,0,0,57,77.79,40.9,40.9,0,0,0,69.84,63.91a63.1,63.1,0,0,0,5.41-11.75,2.27,2.27,0,0,1,.46-1A1.64,1.64,0,0,1,77,50.67c.34.11.57.68.76,1.09.08.18-.06.48-.14.71A58.46,58.46,0,0,1,66.31,72.69C61.61,78,56,82,49,83.7a27.73,27.73,0,0,1-20.59-3,41,41,0,0,1-14.3-14.07A66.47,66.47,0,0,1,4.47,40.26c-.52-3.5-.71-7-1-10.59a17.07,17.07,0,0,1,0-2.77A3.92,3.92,0,0,1,5.29,24c2.67-1.91,5.39-3.76,8-5.77A43.32,43.32,0,0,0,22.7,8.65a12.72,12.72,0,0,0,2-4.55A4,4,0,0,1,28.18.76,2.31,2.31,0,0,0,28.7.54H39.53a1.94,1.94,0,0,1,.63.37c.22.28.52.65.49,1a1.62,1.62,0,0,1-.63,1,1.85,1.85,0,0,1-1,.12H29.29c-1.45,0-2.14.5-2.41,1.83a13.56,13.56,0,0,1-2.6,5.61,62.08,62.08,0,0,1-4.19,4.82c-.67.69-.76,1.19-.24,1.95a26.27,26.27,0,0,1,1.54,2.61A1.2,1.2,0,0,0,23,20.5a4.67,4.67,0,0,1,4.78,1.64,4.36,4.36,0,0,1,.92,4.95c-.76,1.49-.3,2.28.73,3.15a1.7,1.7,0,0,1,.22.24c.28.38.58.34,1,.2a9.8,9.8,0,0,1,2.13-.48,1,1,0,0,1,1.18,1,1.07,1.07,0,0,1-.9,1.19c-.21,0-.43.08-.64.12a2.73,2.73,0,0,0-2.26,2,2.78,2.78,0,0,0,1,2.94,2.73,2.73,0,0,0,3.36.06,2.77,2.77,0,0,0,1-3.2l-.19-.54a1.08,1.08,0,0,1,.55-1.45,1,1,0,0,1,1.47.48,4.57,4.57,0,0,1,.34,4.1A.89.89,0,0,0,38,38.08c.87.62,1.69,1.31,2.58,1.89a3.27,3.27,0,0,0,1.29.37,4.29,4.29,0,0,0,1.29,0A3.39,3.39,0,0,0,44.51,40c.9-.58,1.71-1.29,2.58-1.89a1,1,0,0,0,.43-1.31,4.89,4.89,0,0,1,1.22-5.08,4.48,4.48,0,0,1,4.88-1.3,2,2,0,0,0,2.73-.93c.11-.15.33-.26.38-.42a1.37,1.37,0,0,0,.06-.86,4.91,4.91,0,0,1,.29-5.76,4.85,4.85,0,0,1,5.38-1.85.73.73,0,0,0,.95-.38c.48-.82,1-1.66,1.49-2.45a.82.82,0,0,0-.19-1.25C63.38,15.26,62,14,60.82,12.72a17,17,0,0,1-4.45-7.64C56,3.41,55.42,3,53.69,3H45.48c-.73,0-1.53.12-1.83-.83s.5-1.14,1-1.58ZM46.84,46.85a4.3,4.3,0,1,0-4.32,4.35A4.35,4.35,0,0,0,46.84,46.85ZM24,28.21a2.76,2.76,0,0,0,2.79-2.74,2.9,2.9,0,0,0-2.85-2.82,2.83,2.83,0,0,0-2.77,2.79A2.73,2.73,0,0,0,24,28.21Zm28.37,4.28a2.75,2.75,0,0,0-2.79,2.81,2.84,2.84,0,0,0,2.81,2.76,2.9,2.9,0,0,0,2.81-2.86A2.78,2.78,0,0,0,52.35,32.49Zm8.73-4.28a2.73,2.73,0,0,0,2.84-2.75,2.83,2.83,0,0,0-2.83-2.81,2.78,2.78,0,0,0-2.74,2.8A2.68,2.68,0,0,0,61.08,28.21Z"/><path class="cls-1" d="M42.48,73.4a6.58,6.58,0,0,1,.12-13.16,6.58,6.58,0,1,1-.12,13.16Zm0-2.32a4.27,4.27,0,1,0-4.28-4.24A4.24,4.24,0,0,0,42.52,71.08Z"/></svg>