<svg id="Layer_1" data-name="Layer 1" xmlns="http://www.w3.org/2000/svg" viewBox="0 0 83.91 76.2"><defs><style>.cls-1{fill:#fff;}</style></defs><title>الايقونات جاهزة2</title><path class="cls-1" d="M83.79,26.87a5.27,5.27,0,0,0-5.4-4.68l-26.78,0c-.64,0-1.26,0-1.89,0a4.35,4.35,0,0,0-4.17,3.23,10.07,10.07,0,0,0-.3,2.68q0,23.37,0,46.75c0,1.11,0,1.11,1.15,1.11H82.86c.38,0,.77,0,1.15.07V27.39A1.7,1.7,0,0,1,83.79,26.87ZM80.67,73.51c-4.35,0-8.71,0-13.06,0-6.35,0-12.71,0-19.07,0-.74,0-1-.2-1-1,0-7.59,0-15.17,0-22.75s0-15,0-22.44c0-1.87.78-2.69,2.65-2.82a5.37,5.37,0,0,1,.57,0q13.59,0,27.19,0a4.56,4.56,0,0,1,1.59.29,2.9,2.9,0,0,1,2,2.84c0,.33,0,.66,0,1V71.88a4.57,4.57,0,0,0,0,.74C81.65,73.3,81.34,73.51,80.67,73.51Z"/><path class="cls-1" d="M29.84,51.76a3,3,0,0,0-.3-1.18Q20.48,31.65,11.43,12.73c-.32-.69-.64-.76-1.3-.43-3,1.49-6.06,2.93-9.09,4.39l-1,.51a9.5,9.5,0,0,0,.39.88q2.17,4.52,4.36,9,6.86,14.24,13.72,28.48a3.06,3.06,0,0,0,.59.86c3.3,3.1,6.61,6.17,9.92,9.26.19.18.41.33.79.64,0-.47.07-.71.07-.94C29.89,60.85,29.88,56.3,29.84,51.76ZM11.33,18.65c-2.05,1-4.13,2-6.2,3-.41.2-.64.08-.83-.32-.4-.87-.82-1.74-1.25-2.58-.19-.38-.19-.67.25-.88l6.28-3a2.8,2.8,0,0,1,.36-.11,2.32,2.32,0,0,1,.39.47c.44.88.88,1.76,1.25,2.67A.8.8,0,0,1,11.33,18.65ZM29,59.84c-.4,1.18-1.65,1.11-2.48,1.63a1.07,1.07,0,0,1-1-.23c-1.89-1.7-3.76-3.42-5.59-5.19a8,8,0,0,1-1-1.6l.2-.24,4.13,1.65c.13-1.08.26-2.07.41-3.25l3.06,1.62c.51-1.37,1-2.66,1.46-3.94l.31,0A6.9,6.9,0,0,1,29,51.8c.05,2.62.05,5.25.06,7.88A.86.86,0,0,1,29,59.84Z"/><path class="cls-1" d="M60.27,13.76a1.8,1.8,0,0,0-.61-1.44Q53.68,6.39,47.74.44a1.89,1.89,0,0,0-1.45-.61c-5.95,0-11.89,0-17.83,0s-12.06,0-18.09,0c-.71,0-.95.21-.93.93,0,1.89,0,3.78,0,5.67,0,2.19,0,2.16,2.17,2.15.68,0,.84-.26.82-.87,0-1.29,0-2.58,0-3.86,0-.86.28-1,1.09-1q14.66,0,29.33,0C43.94,2.83,44,2.83,44,4c0,4.17,0,8.33,0,12.5,0,.8.26,1,1,1,2.21,0,4.43,0,6.66,0,1.61,0,3.22,0,4.84,0,.27,0,.72.23.77.44.31,1.17.28,1.18,1.51,1.18.22,0,.44,0,.66,0,.63.07.87-.16.86-.82C60.23,16.77,60.23,15.26,60.27,13.76Zm-3.83.72c-2.87,0-5.75,0-8.62,0-.67,0-.9-.19-.89-.88,0-2.92,0-5.85,0-8.78a4,4,0,0,1,0-.44L57,14.44C56.91,14.44,56.67,14.48,56.44,14.48Z"/><path class="cls-1" d="M9.58,46c.9,1.88,1.81,3.74,2.68,5.62a2.63,2.63,0,0,1,.16,1.12q0,9.59,0,19.15c0,1.13,0,1.14,1.13,1.14H41.42c1.08,0,1.08,0,1.08,1.08,0,1.89,0,1.89-1.91,1.89q-15,0-30.08,0c-.8,0-1.08-.18-1.07-1,0-9.64,0-19.28,0-28.92Z"/><path class="cls-1" d="M77.28,29.42q-12.78,0-25.54,0c-.68,0-.91.2-.9.88,0,2.63,0,5.25,0,7.89,0,.74.19,1,1,1,4.24,0,8.49,0,12.72,0s8.54,0,12.82,0c.63,0,.86-.2.85-.84q-.06-4,0-8C78.21,29.55,77.91,29.42,77.28,29.42Zm-11.44,5c0,.62,0,1.26,0,1.88S65.48,37,65,37s-.87-.06-.81-.69c0-.41,0-.83,0-1.24s0-.93-.7-.93c-.14,0-.41-.3-.41-.48a1.16,1.16,0,0,1,.3-.74,5.09,5.09,0,0,1,1.09-.87,1.59,1.59,0,0,1,1-.22c.16,0,.36.41.38.65C65.87,33.14,65.84,33.81,65.84,34.46ZM70.58,37H67.46a1.28,1.28,0,0,1-.26-.07,1.88,1.88,0,0,1,.91-2c.41-.32.87-.56,1.27-.89a.83.83,0,0,0,.21-.57c0-.06-.22-.24-.29-.21a1.47,1.47,0,0,0-.5.32c-.18.19-.3.53-.48.57a1.4,1.4,0,0,1-1-.13c-.15-.11-.11-.6,0-.89a2.07,2.07,0,0,1,2.65-1.28,1.49,1.49,0,0,1,1.27,2A7,7,0,0,1,70,35.54c.12,0,.36,0,.6,0,.58-.05.83.19.83.8S71.07,37,70.58,37Zm4.34-.17a2.35,2.35,0,0,1-3.18-.9,3,3,0,0,1,0-1c.45.07.91.13,1.35.23.09,0,.12.28.23.32a1.33,1.33,0,0,0,.6.1c.08,0,.24-.24.22-.28a1.44,1.44,0,0,0-.42-.43,1.85,1.85,0,0,0-.47-.09v-1l.86-.25a2.64,2.64,0,0,0,0-.28c-.23,0-.62-.14-.69,0-.43.59-1,.43-1.53.39-.06-.07-.12-.1-.13-.15a1.35,1.35,0,0,1,.87-1.5,2.28,2.28,0,0,1,2.48.16,1.39,1.39,0,0,1,.46,1.62,1.4,1.4,0,0,0,.07.81A1.61,1.61,0,0,1,74.92,36.83Z"/><path class="cls-1" d="M56.88,46.39c-1.75,0-3.5,0-5.25,0-.55,0-.8-.17-.77-.75s0-1.21,0-1.8a.86.86,0,0,1,.55-.58c3.61,0,7.22,0,10.83,0,.48,0,.62.23.61.67s0,1.15,0,1.72-.18.78-.75.77C60.39,46.37,58.63,46.39,56.88,46.39Z"/><path class="cls-1" d="M72.25,43.25c1.73,0,3.45,0,5.17,0,.57,0,.8.18.77.76s0,1.21,0,1.8a.81.81,0,0,1-.56.56c-3.61,0-7.22,0-10.83,0-.48,0-.61-.24-.6-.67s0-1.15,0-1.72.19-.77.76-.76C68.7,43.26,70.48,43.25,72.25,43.25Z"/><path class="cls-1" d="M55.65,52.13c0,.6,0,1.21,0,1.81s-.2.67-.69.66c-1.09,0-2.19,0-3.28,0-.5,0-.68-.19-.67-.68,0-1.2,0-2.41,0-3.61,0-.5.2-.67.69-.66,1.09,0,2.18,0,3.28,0,.5,0,.69.19.67.68S55.65,51.53,55.65,52.13Z"/><path class="cls-1" d="M62.91,52.18c0,.58,0,1.15,0,1.73s-.14.7-.66.69c-1.12,0-2.24,0-3.36,0-.47,0-.63-.2-.62-.65q0-1.85,0-3.69c0-.47.21-.62.65-.61h3.37c.46,0,.63.2.62.65C62.9,50.92,62.91,51.55,62.91,52.18Z"/><path class="cls-1" d="M70.47,52.13c0,.6,0,1.2,0,1.8s-.2.68-.68.67c-1.1,0-2.19,0-3.29,0-.49,0-.68-.18-.67-.67,0-1.21,0-2.41,0-3.62,0-.5.2-.67.68-.66,1.1,0,2.19,0,3.29,0,.49,0,.69.18.67.67S70.47,51.53,70.47,52.13Z"/><path class="cls-1" d="M78.21,52.15c0,2.45,0,2.45-2.44,2.45H74.71c-1.15,0-1.15,0-1.15-1.19,0-1,0-2,0-3,0-.52.17-.74.71-.73,1.07,0,2.14,0,3.21,0,.59,0,.77.24.74.79S78.21,51.57,78.21,52.15Z"/><path class="cls-1" d="M55.65,59.51a16.82,16.82,0,0,1,0,1.88.84.84,0,0,1-.56.57c-1.14.06-2.29,0-3.44,0-.46,0-.62-.21-.61-.65,0-1.23,0-2.46,0-3.68,0-.45.18-.65.63-.65,1.12,0,2.24,0,3.35,0,.51,0,.68.23.66.7S55.65,58.91,55.65,59.51Z"/><path class="cls-1" d="M62.91,59.56c0,2.43,0,2.43-2.43,2.43-2.21,0-2.21,0-2.21-2.17,0-.74,0-1.48,0-2.21a.84.84,0,0,1,.56-.57c1.15,0,2.29,0,3.44,0,.47,0,.62.23.61.67C62.9,58.3,62.91,58.93,62.91,59.56Z"/><path class="cls-1" d="M65.67,59.52c0-.6,0-1.2,0-1.8s.13-.72.64-.71q1.68,0,3.36,0c.44,0,.66.18.65.63,0,1.23,0,2.46,0,3.69,0,.5-.22.67-.7.67-1.09,0-2.19,0-3.28,0-.48,0-.7-.17-.68-.67S65.67,60.12,65.67,59.52Z"/><path class="cls-1" d="M55.49,66.77c0,.58,0,1.15,0,1.73s-.13.76-.69.75c-1.1,0-2.19,0-3.29,0-.5,0-.68-.2-.67-.68,0-1.2,0-2.41,0-3.61,0-.51.21-.68.69-.67,1.1,0,2.19,0,3.29,0,.5,0,.68.2.66.69S55.49,66.17,55.49,66.77Z"/><path class="cls-1" d="M58.11,66.76c0-.6,0-1.21,0-1.81s.2-.68.69-.67c1.09,0,2.19,0,3.28,0,.5,0,.69.19.68.68,0,1.2,0,2.41,0,3.61,0,.5-.2.68-.69.67-1.09,0-2.19,0-3.28,0-.5,0-.69-.18-.68-.67S58.11,67.36,58.11,66.76Z"/><path class="cls-1" d="M65.76,66.72c.08-.78-.11-1.81.31-2.25s1.44-.17,2.2-.18c2.2,0,2.2,0,2.2,2.18,0,.71,0,1.43,0,2.14,0,.45-.18.64-.63.63H66.47c-.45,0-.65-.17-.64-.63,0-.63,0-1.26,0-1.88Z"/><path class="cls-1" d="M78.08,66.75c0,.6,0,1.2,0,1.8s-.18.7-.68.69H74c-.44,0-.65-.15-.65-.62,0-1.22,0-2.45,0-3.68,0-.51.23-.67.7-.66,1.09,0,2.19,0,3.28,0,.54,0,.73.24.71.74S78.08,66.17,78.08,66.75Z"/><path class="cls-1" d="M73.4,59.43c0-.57,0-1.14,0-1.72s.15-.71.66-.7c1.12,0,2.23,0,3.35,0,.5,0,.68.23.68.7,0,1.18,0,2.35,0,3.52,0,.57-.29.77-.82.76-1.07,0-2.13,0-3.19,0-.5,0-.69-.2-.68-.68C73.42,60.69,73.4,60.06,73.4,59.43Z"/></svg>