<svg id="Layer_1" data-name="Layer 1" xmlns="http://www.w3.org/2000/svg" viewBox="0 0 85.04 85.04"><defs><style>.cls-1{fill:#fff;}</style></defs><title>الايقونات جاهزة2</title><path class="cls-1" d="M22.64,70.85c0-1.09.11-3.23-.08-5.35,0-.6-.93-1.22-1.55-1.65C14.7,59.43,9.24,54.22,7.6,46.45A22.57,22.57,0,0,1,10.88,29c2.64-4,6.47-4.64,10.57-1.91.7-.6,1.38-1.27,2.15-1.83,2.23-1.62,4.16-1.6,6.51-.25a4.47,4.47,0,0,0,2.79.59c4.47-.87,8.2.54,9.9,4.68,5.21,12.65,3,26.63-10.23,34.38a2.93,2.93,0,0,0-1.33,2c-.18,1.93-.06,3.88-.06,6.32,2.25-2.47,4.2-4.67,6.21-6.8A89.39,89.39,0,0,1,55,51.8a3.45,3.45,0,0,0,1.64-3.07c-.13-2.31-.1-4.64,0-7a2.24,2.24,0,0,0-1.46-2.4A12,12,0,0,1,48.22,29,40.3,40.3,0,0,1,53.6,5.77a14.12,14.12,0,0,1,1.53-2.22c3.74-4.64,8-4.73,11.48.17a37.31,37.31,0,0,1,6.67,26.6A11,11,0,0,1,67.18,39a3.31,3.31,0,0,0-2.13,3.81,31.64,31.64,0,0,1,0,3.54,24.07,24.07,0,0,1,3.17-1c.66-.11,1.84,0,2,.29A2.74,2.74,0,0,1,70,47.79,12.28,12.28,0,0,1,67.6,51c-2.94,2.59-2.75,5.86-2.41,9.21,2.25-3.4,4.2-7,6.8-10.14a123.38,123.38,0,0,1,9.89-9.78c.5-.47,1.44-.47,2.17-.69.18.79.67,1.66.5,2.37C81.46,54.73,76,66.25,66.52,75.6c-1.7,1.69-1.41,3.46-1.43,5.34,0,3.4,0,3.41-3.36,3.4-5.58,0-5.18.67-5.18-5.22,0-4.35,0-8.69,0-13,0-.71-.07-1.42-.11-2.17-4.15,3.34-8,6.78-12.22,9.74-3.67,2.59-7.73,4.61-11.57,6.95-.6.37-1.38,1.07-1.4,1.64-.06,1.75-.94,2.18-2.46,2.11-1.13,0-2.26,0-3.39,0-1.36,0-2.5,0-2.86-1.78-.12-.62-1.09-1.13-1.75-1.57C13,75.75,6.37,69.47,2,61a20.82,20.82,0,0,1-1.52-3.5c0-.05,0-.11,0-.17a1.69,1.69,0,0,1,2.16-2,1.23,1.23,0,0,1,.23.11c3.88,2.7,7.74,5.43,11.47,8.33C17.34,66.17,20.16,68.74,22.64,70.85ZM43,43.4c-.92-4-1.46-8.09-2.87-11.88S34,26.88,31,29.76A12.52,12.52,0,0,0,28,34.37a67.93,67.93,0,0,0-4.52,23.44c0,5.27,2.42,6.68,7.29,4.49a4.27,4.27,0,0,0,.61-.29C38.34,57.8,42.47,51.89,43,43.4ZM20,59.51c.88-5.73,1.37-11.78,2.83-17.58,1-4.08,0-7.32-1.82-10.62-2.35-4.14-5.76-4.16-8.31-.12C7,40.29,11,54.69,20,59.51ZM56.69,6.19c-4.39,7.49-6.4,15.18-5.56,23.46.38,3.71,2.76,6.19,6.16,7.68,1.2.53,2.25.46,2.65-1,.9-3.21,2.16-6.41,2.48-9.68A28,28,0,0,0,56.69,6.19ZM64.61,50C52.28,54.63,37.3,68.75,31.43,78,45.05,71.37,55.49,61.46,64.61,50Zm-2-12.55a8.76,8.76,0,0,0,7.79-7.06,32.85,32.85,0,0,0-3.61-20.17c-1,1.73-2.64,3.73-2.3,5.3C66.12,23,65.82,30.22,62.6,37.47ZM65.31,72.9C73,64.76,77.66,55.35,81,44.54A53.79,53.79,0,0,0,67.28,63.28C66,66.2,64.42,69.08,65.31,72.9Zm-3.18,8.57V57.9c-1.82,1.35-2.85,2.7-2.75,4.94.18,3.88,0,7.78,0,11.67v6.91c.59.07.88.13,1.17.13S61.49,81.51,62.13,81.47ZM5.33,60.63c3.91,7.61,9.93,13.23,17.21,17.64C18.48,70.81,12.34,65.32,5.33,60.63Zm20.37,5.6V81.4h2.55V66.23ZM58.78,3.94,63,10.69c2.87-3.83,2.89-4,.68-6.25C61.86,2.63,60.77,2.51,58.78,3.94Zm.79,44.56.69.32c.74-.62,1.79-1.19,1.91-1.91a40,40,0,0,0,.1-6h-2.7ZM25,33.07l3.63-5.46c-1.3-1.19-2.46-.79-3.75.11C22.31,29.55,24.43,31.16,25,33.07Z"/><path class="cls-1" d="M70.24,45.66c-.14-.33-1.33-.4-2-.28l-.2,0a9.62,9.62,0,0,0-1.37.41l-.13.05-.2.07-.27.1c-3,1.23-10.73,5.61-11.75,6.2l-.1.06q-2,1.27-3.94,2.67A89.06,89.06,0,0,0,37.4,66.26c-2,2.13-4,4.32-6.22,6.8,0-2.44-.11-4.4.06-6.33a2.88,2.88,0,0,1,1.26-2C45.75,57,48,43,42.81,30.33c-1.71-4.13-5.44-5.54-9.91-4.68a4.4,4.4,0,0,1-2.79-.59c-2.34-1.34-4.28-1.37-6.51.26-.76.55-1.45,1.22-2.14,1.82-4.1-2.73-7.94-2.1-10.58,1.92A22.5,22.5,0,0,0,7.61,46.49c1.63,7.77,7.09,13,13.4,17.4.63.43,1.5,1,1.56,1.66a52.79,52.79,0,0,1,.07,5.34c-2.48-2.11-5.3-4.67-8.3-7C10.6,61,6.75,58.26,2.87,55.56a1,1,0,0,0-.23-.12,1.7,1.7,0,0,0-2.16,2,.84.84,0,0,0,.05.17A20.32,20.32,0,0,0,2,61.08c4.33,8.43,11,14.71,18.75,20,.66.45,1.63.95,1.75,1.58.37,1.76,1.51,1.81,2.86,1.77,1.13,0,2.26,0,3.39,0,1.53.08,2.4-.35,2.46-2.1,0-.57.8-1.28,1.4-1.65,3.85-2.34,7.9-4.36,11.58-6.94,4.19-3,8.06-6.41,12.22-9.74l10-11.63,0,0h0a7.55,7.55,0,0,1,1.13-1.23A12.89,12.89,0,0,0,70,47.84,2.8,2.8,0,0,0,70.24,45.66Zm-64.9,15c7,4.7,13.14,10.19,17.2,17.64C15.26,73.9,9.25,68.28,5.34,60.67Zm19.57-32.9c1.29-.91,2.45-1.31,3.76-.11L25,33.11C24.43,31.21,22.31,29.59,24.91,27.77ZM22.85,42c-1.47,5.81-2,11.85-2.83,17.59C11,54.73,7,40.34,12.72,31.24c2.54-4,6-4,8.3.12C22.89,34.65,23.88,37.9,22.85,42Zm5.4,39.47H25.7V66.27h2.55Zm-4.8-23.58A68.07,68.07,0,0,1,28,34.42,12.56,12.56,0,0,1,31,29.8c3-2.87,7.71-2.1,9.14,1.77s2,7.9,2.88,11.87c-.56,8.5-4.7,14.41-11.68,18.62-.2.11-.41.19-.62.29C25.87,64.54,23.44,63.12,23.45,57.86Zm8,20.22c5.87-9.29,20.85-23.41,33.18-28C55.49,61.5,45.05,71.41,31.43,78.08Z"/></svg>