<svg id="Layer_1" data-name="Layer 1" xmlns="http://www.w3.org/2000/svg" viewBox="0 0 85.04 85.04"><defs><style>.cls-1{fill:#fff;}</style></defs><title>الايقونات جاهزة2</title><path class="cls-1" d="M76.19.85Q42.53.79,8.87.85C3.87.86.46,4.43.46,9.41q0,24.83,0,49.65c0,5.09,3.49,8.5,8.65,8.5h25V75c-.84.06-1.53.09-2.22.17a8.34,8.34,0,0,0-7.41,7c-.31,2,.3,2.84,2.26,2.85,10.52,0,21,0,31.56,0,1.86,0,2.47-1,2.24-2.71a8.39,8.39,0,0,0-7.67-7.17c-.67-.06-1.35-.1-2-.15V67.56H76c5.13,0,8.61-3.42,8.62-8.53q0-24.83,0-49.65A8.13,8.13,0,0,0,76.19.85ZM52.83,78.54c1.89,0,3.2,1.13,4.21,3.16H28.25a4,4,0,0,1,4-3.15C39.12,78.46,46,78.48,52.83,78.54ZM37.74,75V67.66H47.4V75ZM81.25,60a4.68,4.68,0,0,1-4.43,4.28c-.63,0-1.27,0-1.9,0H10.14c-4.82,0-6.38-1.57-6.39-6.43V54.58H81.27C81.27,56.47,81.38,58.22,81.25,60ZM81.34,51H78.4v.07H8.27V51H3.87c0-.65-.11-1.33-.11-2q0-19.24,0-38.5c0-4.73,1.71-6.43,6.48-6.43H74.83c4.78,0,6.5,1.69,6.5,6.42q0,19.24,0,38.5Z"/><path class="cls-1" d="M41,57.81a30.53,30.53,0,0,1,4.59.07,1.26,1.26,0,0,1,.53.21,1.62,1.62,0,0,1,.11,2.59,1,1,0,0,1-.57.26,89.5,89.5,0,0,1-9.41,0,.88.88,0,0,1-.4-.14A1.62,1.62,0,0,1,35.94,58a1.23,1.23,0,0,1,.44-.16A29.37,29.37,0,0,1,41,57.81Z"/><path class="cls-1" d="M70.84,13.21H61c-3.12,0-3.4.28-3.4,3.32V51.08H61V16.67h9.63v2.87c-.12-.12-.24-.25-.34-.37l-2.75,2.38L70,23.74c.17-.15.35-.29.54-.44v3.81C69.3,28.19,68.41,29,67.51,29.7L70,31.88l.57-.43v3.91l-3,2.61c.83.74,1.67,1.46,2.5,2.18l.6-.27v5.28L67.51,47.8,70,50l.64-.44c0,.51,0,1,.08,1.55H74V16.33C74,13.49,73.7,13.21,70.84,13.21ZM50.25,24.1c-1.73-3.27-3.64-6.47-5.53-9.66-1.08-1.79-2.27-1.81-3.33,0-2,3.23-3.88,6.49-5.65,9.83-1.68,3.18-1.1,6.21,1,9.05a3.06,3.06,0,0,1,.78,1.78c-.46,5.3-1,10.6-1.52,16H39.6V49.59H46v1.49h3.4c-.24-3.61-.47-7.16-.71-10.71a22,22,0,0,0-.26-2.29,5.68,5.68,0,0,1,1.25-5.49C51.82,30.14,51.77,27,50.25,24.1ZM39.67,46c.33-3.39.67-6.68,1-9.88h4.2c.33,3.19.67,6.43,1,9.88Zm6.44-14.2a4.87,4.87,0,0,1-6,.07,4.73,4.73,0,0,1-1.49-6c1.31-2.55,2.82-5,4.43-7.78,1.59,2.77,3,5.16,4.34,7.61A4.91,4.91,0,0,1,46.11,31.78ZM21.69,15.16a3.78,3.78,0,0,0-2-1.77c-.52-.07-1.44,1-1.82,1.69q-3,5.67-5.74,11.45a6.66,6.66,0,0,0-.54,2.84c-.05,6.94,0,13.88,0,20.82v.89H15V29.76h3V51.08h3.54V29.74h3V51.08H28c0-.12,0-.26,0-.38A85,85,0,0,1,28,40.6C29.13,31.27,26.67,22.92,21.69,15.16ZM15.9,26.29c1.31-2.64,2.49-5,3.83-7.69l3.85,7.69Z"/></svg>