<svg id="Layer_1" data-name="Layer 1" xmlns="http://www.w3.org/2000/svg" viewBox="0 0 67.54 85.04"><defs><style>.cls-1{fill:#fff;}</style></defs><title>الايقونات جاهزة2</title><path class="cls-1" d="M4.06,0H63.69A1.1,1.1,0,0,0,64,.18c2.77.73,3.67,1.88,3.67,4.75V73.24c0,2.49,0,5,0,7.46a4,4,0,0,1-3.32,3.87,3,3,0,0,0-.59.23H4.06a1.22,1.22,0,0,0-.35-.2C1.2,84,.15,82.71.13,80.12c0-2.4,0-4.81,0-7.21V5.51c0-.47,0-.94,0-1.41A4,4,0,0,1,3.47.23,3.59,3.59,0,0,0,4.06,0ZM33.84,73.61h30c1.28,0,1.28,0,1.28-1.25V23.77c0-1.29,0-1.29-1.25-1.29H3.9c-1.24,0-1.24,0-1.24,1.22V72.38c0,1.23,0,1.23,1.21,1.23Zm-.05-53.69H63.92c1.17,0,1.17,0,1.17-1.13V4.71c0-1.48-.5-2-2-2H4.65c-1.49,0-2,.49-2,2V18.62c0,1.3,0,1.3,1.32,1.3Zm.14,56.27H4.46l-1.15,0c-.49,0-.67.23-.66.72,0,1,0,2.1,0,3.15,0,1.48.5,2,2,2H63.08c1.53,0,2-.48,2-2V77.79c0-1.6,0-1.6-1.62-1.6Z"/><path class="cls-1" d="M33.87,70.49A22.46,22.46,0,1,1,56.33,48.12,22.47,22.47,0,0,1,33.87,70.49Zm0-2.51A19.92,19.92,0,1,0,14,48.06,19.87,19.87,0,0,0,33.86,68Z"/><path class="cls-1" d="M12.67,5.85a5.34,5.34,0,0,1,5.5,5.49,5.39,5.39,0,0,1-5.49,5.46,5.4,5.4,0,0,1-5.5-5.52A5.34,5.34,0,0,1,12.67,5.85Zm2.9,5.43a2.82,2.82,0,0,0-2.92-2.91,2.82,2.82,0,0,0-2.87,3,2.9,2.9,0,1,0,5.79-.05Z"/><path class="cls-1" d="M36.77,5.85a5.48,5.48,0,1,1-5.57,5.43A5.43,5.43,0,0,1,36.77,5.85Zm2.85,5.44a2.92,2.92,0,1,0-5.83,0,2.92,2.92,0,1,0,5.83,0Z"/><path class="cls-1" d="M24.65,9.71c-.69,0-1.37,0-2.06,0a1.13,1.13,0,0,1-1.23-1.07,1.1,1.1,0,0,1,1-1.36,41.88,41.88,0,0,1,4.62,0,1.1,1.1,0,0,1,1,1.35A1.11,1.11,0,0,1,26.8,9.7C26.08,9.72,25.37,9.71,24.65,9.71Z"/><path class="cls-1" d="M24.6,15.36h-2a1.15,1.15,0,0,1-1.26-1c-.1-.75.25-1.33,1-1.37a40.42,40.42,0,0,1,4.67,0,1.08,1.08,0,0,1,1,1.37,1.14,1.14,0,0,1-1.25,1Z"/><path class="cls-1" d="M48,9.71c-.47,0-.93,0-1.4,0a1.14,1.14,0,0,1-1.21-1.1,1.09,1.09,0,0,1,1-1.32,18.08,18.08,0,0,1,3.29,0,1.11,1.11,0,0,1,1,1.28A1.18,1.18,0,0,1,49.4,9.71Z"/><path class="cls-1" d="M57.9,9.7c-.5,0-1,0-1.48,0a1.11,1.11,0,0,1-1.13-1.09c-.07-.67.22-1.24.87-1.29a19.6,19.6,0,0,1,3.51,0,1.05,1.05,0,0,1,.87,1.29A1.14,1.14,0,0,1,59.38,9.7C58.89,9.72,58.39,9.7,57.9,9.7Z"/><path class="cls-1" d="M48.05,12.86a10.89,10.89,0,0,1,1.4,0,1.34,1.34,0,0,1,1.23,1.32,1.24,1.24,0,0,1-1.35,1.16c-.9,0-1.81,0-2.72,0a1.14,1.14,0,0,1-1.23-1.08,1.15,1.15,0,0,1,1-1.35,14.71,14.71,0,0,1,1.64-.12Z"/><path class="cls-1" d="M57.94,15.35c-.5,0-1,0-1.48,0a1.11,1.11,0,0,1-1.16-1c-.08-.66.18-1.26.83-1.31a19.46,19.46,0,0,1,3.58,0c.61.05.89.63.83,1.24a1.11,1.11,0,0,1-1.12,1.1c-.5,0-1,0-1.48,0Z"/><path class="cls-1" d="M50.7,48.1A16.83,16.83,0,1,1,34,31.23,16.88,16.88,0,0,1,50.7,48.1Zm-4.84-7.61A14.11,14.11,0,0,0,30.4,34.22,14.27,14.27,0,0,0,19.71,49.66,14.45,14.45,0,0,0,32.84,62.32c4.69.48,11.67-3,13-6.74a8.38,8.38,0,0,1,0-15.09ZM47,43c-1.81.46-3.4,2.74-3.38,5.16s1.63,4.66,3.41,5C48.43,50.8,48.41,45,47,43Z"/><path class="cls-1" d="M22.69,47.6A11.18,11.18,0,0,1,32.59,37a6.12,6.12,0,0,1,1.54,0,1.11,1.11,0,0,1,1,1.17,1.13,1.13,0,0,1-1,1.22c-.7.13-1.42.17-2.12.31a8.56,8.56,0,0,0-6.65,7.61,6.33,6.33,0,0,1-.12.74c-.14.88-.59,1.3-1.33,1.26a1.33,1.33,0,0,1-1.2-1.43Z"/></svg>