<svg id="Layer_1" data-name="Layer 1" xmlns="http://www.w3.org/2000/svg" viewBox="0 0 85.04 79.71"><defs><style>.cls-1{fill:#fff;}</style></defs><title>الايقونات جاهزة2</title><path class="cls-1" d="M64.27,45.68a19.53,19.53,0,0,0,3.28-5.52c-.13.29-.26.59-.4.89l-.09.2c-3.38-4.12-5.43-8.26-4-13.53a15.68,15.68,0,0,0,.08-5.43c-.46-5.51-2.67-9.87-8.27-11.84-.19-.07-.34-.28-.51-.44A7,7,0,0,1,58.5,4.29c1.13-.53,2.4-1.07,1.69-2.56s-2.12-1-3.28-.4a10.94,10.94,0,0,0-5.65,7,2.75,2.75,0,0,1-1.72,1.63c-3.76.64-6.9,2.42-8.44,5.83a49.28,49.28,0,0,0-3.39,11,11.07,11.07,0,0,1-3.23,6.35c-1.43,1.35-2.74,2.82-4.09,4.25l-.5.52c-.21.22-.43.46-.65.68a2.52,2.52,0,0,1-1.13.76.28.28,0,0,1-.13,0l-.15,0a15.65,15.65,0,0,1,3.64,1.57l.06,0a57.41,57.41,0,0,1,4.18-4.41,14.37,14.37,0,0,0,5.41-10.09,26,26,0,0,1,2.71-8.73c1.73-3.56,5-4.89,8.68-4.3a7.75,7.75,0,0,1,6.89,6.83,28.67,28.67,0,0,1,.17,8.67,15,15,0,0,0,2.26,10.8C64,43.15,65,44,64.45,45.34A1.86,1.86,0,0,1,64.27,45.68ZM32.83,42l-.15-.11v0a1.72,1.72,0,0,0,.44.33Z"/><path class="cls-1" d="M57.06,24.52a32,32,0,0,1-.61,5c-.24.87-1.17,1.54-1.78,2.31-.49-.84-1.33-1.66-1.38-2.52-.12-1.72.47-3.49.27-5.18s-1-3-1.51-4.54a15.84,15.84,0,0,1-.37-2.29c.85-.06,2.09-.51,2.48-.11a10.76,10.76,0,0,1,2.34,3.66A16.46,16.46,0,0,1,57.06,24.52Z"/><path class="cls-1" d="M84.54,34.67A5.82,5.82,0,0,0,83.8,33c-1.14-2.21-2.24-4.44-3.46-6.59-.41-.73-1-1.69-1.74-1.85a5.36,5.36,0,0,0-6.38,4.9,10.74,10.74,0,0,1-.77,3.38c-.63,1.37-1.65,2.56-2.36,3.89C68.52,37.78,68,38.91,67.54,40a.17.17,0,0,0,0,.05,8.2,8.2,0,0,1-.37,1l-.09.2a23.37,23.37,0,0,1-2.61,4.09l-.21.28h0a13.37,13.37,0,0,1-1.4,1.69l-.41.45c-.09.11-.19.21-.3.33l-.13.16-.2.2-.11.13c-.28.3-.57.61-.88,1-5,5.64-13.23,10.29-19.4,11.11.37-7.7-2.33-13.79-8.31-18.54h0l-.41-.32,0,0c-.39-.3-.8-.59-1.23-.88l0,0,0,0a15.23,15.23,0,0,0-3.39-1.51l-.32-.1-.05,0c-.92-.18-1.82-.44-2.73-.69l-2.22-.62h-4a3.77,3.77,0,0,1-1.38.48C8.66,40,2.87,45.18.72,53.79s.5,15.92,7.47,21.27S23,80.9,30.87,76.73a3.76,3.76,0,0,1,3.49-.25,38.19,38.19,0,0,0,23,2C76.74,74,87.54,51.91,84.54,34.67ZM9.63,72.06A17.36,17.36,0,1,1,37.76,61.6H35.28c-.34-2.51-.52-5-1.09-7.37C34,53.48,32.77,53,32,52.36a9.23,9.23,0,0,0-.85,2.76c.06,2.07.41,4.13.69,6.75-2.53-.39-4.45-.65-6.34-1-2.84-.56-6.6,2.37-6.48,5.28a3.17,3.17,0,0,0,1.27,2.06c2.63,2,5.37,3.87,8.05,5.77C25.16,76.88,15.57,77.22,9.63,72.06Zm47.74,3c-10.35,2.62-19.86.2-28.81-5.1-2-1.19-3.9-2.62-5.85-4,0-.34,0-.69,0-1,.92-.2,1.9-.74,2.74-.56,21.48,4.26,39.68-9.18,46.58-26,.49-1.18,1.54-2.14,2-3.32.64-1.58,1-3.28,1.49-4.9a22,22,0,0,1,1-2.31c1.61,2.54,3,4.69,4.35,6.88a3.86,3.86,0,0,1,.52,1.54C83.54,51.23,74.16,70.76,57.37,75Z"/><path class="cls-1" d="M32.67,41.79l.41.32A1.49,1.49,0,0,1,32.67,41.79Z"/><path class="cls-1" d="M30.39,37.34v.52h-.5Z"/><path class="cls-1" d="M25.89,29a5.35,5.35,0,0,0-1.83.67c-1.19-3.86-3.52-6.65-7.42-7.33-5.31-.93-7.23-.13-5.83,6.19,1,4.44,4.3,6.58,8.52,7.41.17,1-.07,1.56-.57,1.9h4c.47-3,1.36-4,4.37-5.85.65-.4.85-1.55,1.26-2.35A11.69,11.69,0,0,0,25.89,29Zm-5.28,3.41c-4.39,0-7-2.68-6.67-7C18.58,25.65,21.2,28.46,20.61,32.43Z"/></svg>