<svg id="Layer_1" data-name="Layer 1" xmlns="http://www.w3.org/2000/svg" viewBox="0 0 85.04 84.13"><defs><style>.cls-1{fill:#fff;}</style></defs><title>الايقونات جاهزة2</title><path class="cls-1" d="M19.85,68.06v-15a52.21,52.21,0,0,1-7.27-.86A15.72,15.72,0,0,1,.91,37.64,16,16,0,0,1,11.42,21.8a3.34,3.34,0,0,0,1.69-1.74,11.5,11.5,0,0,1,13.08-7.48c1.33.25,1.68-.42,2.26-1.21C39.8-4.11,63.48-2,71.59,15.21a35.62,35.62,0,0,1,2.19,7.53c.29,1.3.56,2.14,2,2.76a14.08,14.08,0,0,1,8.12,15.72A14.33,14.33,0,0,1,70.19,52.76c-1,0-2.3.24-2.29-1.34,0-1.42,1.2-1.24,2.16-1.29A11.7,11.7,0,0,0,81.33,40.08,11.4,11.4,0,0,0,73.25,27.4c-1.54-.49-1.84-1.39-2-2.74-1-12.36-10.68-21.3-23-21-7.79.17-14,3.77-18.24,10.3-1,1.51-1.81,2-3.68,1.49A8.5,8.5,0,0,0,15.7,21.26a3.72,3.72,0,0,1-3.07,3A13.11,13.11,0,0,0,3.54,36.87c.17,6.07,4,11.36,9.54,12.7a32.06,32.06,0,0,0,7.22.53c1.72,0,2.32.65,2.3,2.34q-.09,8.12,0,16.23c0,1.65-.62,2.31-2.21,2.16-1.86-.17-3.3,0-4.38,2-1.2,2.26-4.27,2.92-6.61,2A5.81,5.81,0,0,1,9.93,64c2.74-.67,5.32.27,6.51,2.79C17.22,68.39,18.31,68.27,19.85,68.06ZM14.6,69.7a3.15,3.15,0,0,0-2.9-3.22,3.12,3.12,0,0,0-3.28,3,3.09,3.09,0,0,0,6.18.17Z"/><path class="cls-1" d="M65.09,67.91c1.9.67,2.84.12,3.68-1.46A5.49,5.49,0,0,1,75.27,64a5.77,5.77,0,0,1-.23,11,5.43,5.43,0,0,1-6.28-2.49,3,3,0,0,0-3.24-1.79c-3.07.09-3.08,0-3.08-3.15q0-7.08,0-14.14a3.71,3.71,0,0,0-.22-.73c-2.07,0-4.26.1-6.44-.05-.7,0-1.85-.67-1.94-1.18-.24-1.36,1-1.4,2-1.41,2.35,0,4.71.06,7.06,0,1.74-.06,2.3.7,2.28,2.37C65,57.61,65.09,62.73,65.09,67.91Zm11.54,1.7a3.16,3.16,0,0,0-3-3.15,3.08,3.08,0,1,0-.17,6.15A3.22,3.22,0,0,0,76.63,69.61Z"/><path class="cls-1" d="M48.28,52.78c-2.46,0-4.61.1-6.74-.05-.69,0-1.84-.69-1.92-1.2-.22-1.37,1-1.38,2-1.39,2.35,0,4.71.06,7.07,0,1.76-.06,2.28.75,2.26,2.39-.05,6.1,0,12.21,0,18.31a2.39,2.39,0,0,0,1.44,2.59,5.33,5.33,0,0,1,2.75,6.5,5.69,5.69,0,0,1-11-.06,5.76,5.76,0,0,1,2.79-6.55c.56-.35,1.33-1,1.34-1.51C48.31,65.56,48.28,59.33,48.28,52.78Zm1.28,22.5a3.11,3.11,0,0,0-3,3.1,3,3,0,0,0,3.19,3.05,3,3,0,0,0,2.89-3.16A3.13,3.13,0,0,0,49.56,75.28Z"/><path class="cls-1" d="M34.12,52.78c-2.46,0-4.6.1-6.73-.05-.71,0-1.87-.69-1.95-1.19-.2-1.34,1-1.39,2-1.4,2.36,0,4.72,0,7.08,0,1.74-.06,2.29.74,2.27,2.39,0,6.1,0,12.21,0,18.31a2.38,2.38,0,0,0,1.45,2.59,5.44,5.44,0,0,1,2.74,6.52,5.73,5.73,0,1,1-8.21-6.63c.56-.35,1.32-1,1.33-1.51C34.15,65.56,34.12,59.33,34.12,52.78Zm1.41,22.5a3.12,3.12,0,0,0-3.13,3,3,3,0,1,0,6.07.19A3.11,3.11,0,0,0,35.53,75.28Z"/><path class="cls-1" d="M49.13,8c5.65.31,9.81,2.24,13.07,5.94.48.54.34,1.62.48,2.45-.77-.2-1.8-.16-2.28-.66a16.12,16.12,0,0,0-11-5.11c-.62,0-1.18-.86-1.78-1.32Z"/><path class="cls-1" d="M67.12,25.67l-1.39,1.51c-.48-.57-1.19-1.08-1.39-1.75a23,23,0,0,1-.89-4.65c-.06-.66.5-1.37.78-2.05a7.34,7.34,0,0,1,1.71,1.38,6.21,6.21,0,0,1,.68,2.16C66.81,23.22,66.91,24.19,67.12,25.67Z"/></svg>