<svg id="Layer_1" data-name="Layer 1" xmlns="http://www.w3.org/2000/svg" viewBox="0 0 85.04 75.1"><defs><style>.cls-1{fill:#fff;}</style></defs><title>الايقونات جاهزة2</title><path class="cls-1" d="M85,67.37a3.58,3.58,0,0,0-.23.77,7.06,7.06,0,0,1-6.5,6.44c-5.22.15-10.45.16-15.67.16A2.38,2.38,0,0,1,60,71.88c.19-1.18,1.23-1.92,2.8-1.94,2.11,0,4.21,0,6.31,0h1v-5.1c-.28,0-.57,0-.87,0-2.13,0-4.26,0-6.39,0-1.83,0-2.91-1-2.86-2.5S61.08,60,62.79,60c2.13,0,4.26,0,6.39,0,.29,0,.59,0,.94,0v-5.1c-1.81,0-3.57,0-5.33,0a21.36,21.36,0,0,1-2.89-.14A2.16,2.16,0,0,1,60,52.44a2.21,2.21,0,0,1,2-2.3A7.34,7.34,0,0,1,63.41,50H70.1v-5.1c-.29,0-.58,0-.87,0-2.13,0-4.26,0-6.39,0-1.83,0-2.91-1-2.85-2.51s1.09-2.28,2.8-2.3c2.13,0,4.26,0,6.39,0,.3,0,.6,0,.94,0V34.9c-1.87,0-3.69,0-5.5,0a20.72,20.72,0,0,1-2.73-.14A2.16,2.16,0,0,1,60,32.5a2.2,2.2,0,0,1,1.87-2.28,7.3,7.3,0,0,1,1.4-.14h6.86V25c-.3,0-.59-.05-.89-.05-2.13,0-4.26,0-6.39,0-1.66,0-2.69-.81-2.83-2.1-.16-1.63.91-2.69,2.8-2.71,2.07,0,4.15,0,6.22,0h1.07V15c-2,0-4,0-6.06,0a13.9,13.9,0,0,1-2.14-.14A2.18,2.18,0,0,1,60,12.57a2.2,2.2,0,0,1,1.88-2.28,7.3,7.3,0,0,1,1.4-.14h6.85V5.05c-.31,0-.6,0-.89,0C67.09,5,65,5,62.82,5c-2,0-3.06-1.15-2.8-2.84.19-1.22,1.24-2,2.87-2,3.48,0,7,0,10.46,0C75,.2,76.71.25,78.4.34a7.24,7.24,0,0,1,6.41,6.37,4.37,4.37,0,0,0,.23.86Z"/><path class="cls-1" d="M0,62.22.39,60a12.15,12.15,0,0,1,11.19-9.88,13.58,13.58,0,0,1,3.12.2c.8.16,1.12-.09,1.43-.78,1.72-3.8,3.48-7.59,5.22-11.38q6.11-13.26,12.22-26.52C35,8.52,36.49,5.36,37.94,2.19,39-.16,41-.44,42.54,1.6a9.64,9.64,0,0,1,1.09,10.53q-6,13.23-12,26.43-4,8.67-7.93,17.35a1.8,1.8,0,0,0,0,1.63,12.19,12.19,0,0,1-9.4,17A12.21,12.21,0,0,1,.21,63.33,3.76,3.76,0,0,0,0,62.55Zm12.43,7.72A7.53,7.53,0,0,0,20,62.47a7.62,7.62,0,0,0-7.5-7.66,7.57,7.57,0,1,0-.1,15.13Z"/><path class="cls-1" d="M35.54,42.72c1.1,2.39,2.15,4.61,3.14,6.86a1.08,1.08,0,0,0,1.43.77A12.16,12.16,0,0,1,54.52,60.52a12.31,12.31,0,0,1-24.31,3.83A11,11,0,0,1,31,57.86a2.24,2.24,0,0,0-.08-2.39,2.36,2.36,0,0,1-.06-2.61c1.53-3.19,2.95-6.43,4.42-9.65C35.33,43.09,35.4,43,35.54,42.72ZM42.3,69.94a7.54,7.54,0,0,0,7.63-7.44,7.57,7.57,0,1,0-15.14-.19A7.5,7.5,0,0,0,42.3,69.94Z"/><path class="cls-1" d="M19.27,30c-2.86-6.32-5.79-12.5-8.44-18.78C9.29,7.54,10.1,4.06,12.71,1.07c1.2-1.38,3.17-1,4,.77,1,2,1.88,4.06,2.82,6.1,1.56,3.39,3.13,6.77,4.66,10.18a1.66,1.66,0,0,1,0,1.22c-1.55,3.48-3.16,6.94-4.76,10.41A1.7,1.7,0,0,1,19.27,30Z"/></svg>