<svg id="Layer_1" data-name="Layer 1" xmlns="http://www.w3.org/2000/svg" viewBox="0 0 85.04 73.59"><defs><style>.cls-1{fill:#fff;}</style></defs><title>الايقونات جاهزة2</title><path class="cls-1" d="M0,55.34V4.79c.14-.48.26-1,.43-1.44C1.2,1.2,3.17,0,6,0H79.28c3.19,0,5.36,1.89,5.56,4.44,0,.12.13.23.2.34V55.34a2.83,2.83,0,0,0-.22.59,4.68,4.68,0,0,1-3.44,4,6.19,6.19,0,0,1-1.87.23H55.27c-1.12,0-1.14,0-1.15,1.14,0,.7,0,1.41,0,2.11a6.89,6.89,0,0,0,1.31,4.26,6.6,6.6,0,0,0,5.33,2.5c1.79,0,3.59,0,5.39,0a1.75,1.75,0,0,1,1.76,1.62,1.67,1.67,0,0,1-1.42,1.8,5.1,5.1,0,0,1-1.23.14H19.79a4.57,4.57,0,0,1-.83,0c-1.22-.19-1.9-.92-1.81-1.92s.84-1.61,2.09-1.62c1.68,0,3.37,0,5.06,0a6.26,6.26,0,0,0,6.4-4.84,21.62,21.62,0,0,0,.24-4c0-1.22,0-1.22-1.23-1.22H5.06A4.87,4.87,0,0,1,.25,56,3.8,3.8,0,0,0,0,55.34ZM42.53,41.49H80.14c1.14,0,1.15,0,1.15-1.1V5.64c0-1.57-.49-2-2.07-2H5.84c-1.58,0-2.06.48-2.06,2.05q0,17.37,0,34.75c0,1.1,0,1.1,1.15,1.1Zm0,3.58H4.9c-1.1,0-1.12,0-1.12,1.09,0,2.83,0,5.67,0,8.5,0,1.48.42,1.9,1.89,1.9H79.38c1.48,0,1.9-.41,1.91-1.89V46.33c0-1.25,0-1.26-1.28-1.26Zm-10.14,25h20.2a10.12,10.12,0,0,1-.54-.89,12.56,12.56,0,0,1-1.17-2.74,36.55,36.55,0,0,1-.37-4.81c-.06-1.47,0-1.47-1.48-1.47H36.8c-2.28,0-2.31,0-2.28,2.22a11.54,11.54,0,0,1-1,5.9C33.18,68.82,32.84,69.37,32.44,70.05Z"/><path class="cls-1" d="M30.78,29.84a1.86,1.86,0,0,1-1.71-2.64,3.92,3.92,0,0,1,.71-.88q6.49-6.36,13-12.7a2.13,2.13,0,0,1,2.1-.85A1.69,1.69,0,0,1,46,15.42a3.37,3.37,0,0,1-.42.5q-6.69,6.53-13.38,13A8.28,8.28,0,0,1,30.78,29.84Z"/><path class="cls-1" d="M47.3,29.5a2,2,0,0,1-1.69-1.05,1.52,1.52,0,0,1,.17-1.82c.52-.59,1.09-1.14,1.65-1.69,1.29-1.26,2.56-2.53,3.88-3.76A1.88,1.88,0,0,1,54,21a1.77,1.77,0,0,1-.14,2.66c-1.72,1.71-3.45,3.41-5.22,5.08A5.91,5.91,0,0,1,47.3,29.5Z"/><path class="cls-1" d="M44.46,50.88a1.93,1.93,0,1,1-1.9-1.94A2,2,0,0,1,44.46,50.88Z"/></svg>