<svg id="Layer_1" data-name="Layer 1" xmlns="http://www.w3.org/2000/svg" viewBox="0 0 85.04 85.04"><defs><style>.cls-1{fill:#fff;}</style></defs><title>الايقونات جاهزة2</title><path class="cls-1" d="M32.15,38.46c-3.18-3.07-6.06-5.92-9-8.67a2.86,2.86,0,0,0-2.1-.48c-4.24.68-7.41-.69-9.71-4.41-2.85-4.61-5.85-9.11-8.88-13.6-1-1.47-.92-2.54.38-3.73C4.55,6,6.26,4.27,7.86,2.49,9.16,1.05,10.29.88,12,2c4.54,3.1,9.15,6.09,13.81,9,3.58,2.24,4.63,5.43,4.1,9.42a2.93,2.93,0,0,0,.37,2.08c2.77,3,5.66,5.82,8.62,8.82,3.63-3.57,7.14-7,10.59-10.48a2.91,2.91,0,0,0,.5-1.55,42.25,42.25,0,0,0,.89-6.37c0-5.24,3.08-8.1,7.41-10.12,4.13-1.92,8.4-3,13-2.27a13.78,13.78,0,0,1,3.64,1.08c.72.34,1.61,1.11,1.67,1.75s-.74,1.49-1.39,1.93c-2,1.41-4.19,2.61-6.22,4-3,2.08-3.3,4-1.28,7.08s4.55,4,7.41,2.31c2-1.16,3.94-2.41,6-3.5,1.73-.93,2.77-.32,2.91,1.59.2,2.66,0,5.13-2.06,7.27s-4,5-6.2,7.25a6,6,0,0,1-4.11,1.77c-6.47-.63-11.56,1.35-15.42,6.69-1.14,1.58-2.88,2.72-4.21,3.93l4.7,4.91c.89-1,1.87-2.13,2.86-3.24a2,2,0,0,1,3.28-.09c6.35,6.38,12.83,12.64,19,19.17C86.1,69,85.57,75.71,81,80.35s-11.3,5.31-15.88,1c-6.62-6.22-12.91-12.77-19.35-19.18a1.87,1.87,0,0,1,.09-3.08c1.11-1,2.25-2,3.45-3.09l-4.89-4.5c-3.57,3.6-7.27,7.3-10.9,11.07a3.25,3.25,0,0,0-.59,2c-.11,2.47.07,5-.21,7.4a6.77,6.77,0,0,1-1.59,4,64.59,64.59,0,0,1-9.65,7.78c-1.58,1-4.11.52-6.2.47a3.29,3.29,0,0,1-.56-2.44c1-2.14,2.38-4.13,3.58-6.19,1.62-2.81.76-5.39-2.43-7.41-3-1.89-5-1.59-6.94,1.24-1.45,2.09-2.74,4.3-4.12,6.44-1.21,1.88-2.85,1.93-3.44-.15A27.24,27.24,0,0,1,.06,66.81a25.64,25.64,0,0,1,2.38-8.18c1.74-4.09,4.48-7.27,9.45-7.14,6.26.16,10.78-2.83,14.59-7.49A73.78,73.78,0,0,1,32.15,38.46Zm7.31,7.73-11,11c-.9.9-1.89,2.08-3.17.72s-.06-2.16.79-3c3.66-3.65,7.33-7.29,10.81-10.75l-2.73-3.2C30.36,44.76,26.75,48.46,23,52a7,7,0,0,1-3.27,1.61c-2.49.52-5,.71-7.55,1.13a9.36,9.36,0,0,0-3.61,1C5.3,57.9,1.8,67.19,3.52,71c6.32-7.67,8.26-8.72,12.81-6.3,7.82,4.15,7.34,9.94,2.69,16.55,3-1.94,5.49-4,8.08-6a5,5,0,0,0,2.33-4.81,29.12,29.12,0,0,1,.23-6.66,7.17,7.17,0,0,1,1.67-3.71c3.57-3.72,7.31-7.26,11.17-11ZM49,60.66C55.1,66.81,61.05,73,67.24,78.92c3.23,3.1,7.93,2.55,11.32-.86s4-8.07.84-11.32C73.46,60.57,67.25,54.64,61,48.47c-3.5,3.51-7,7.05-10.55,10.6C50,59.56,49.51,60.08,49,60.66ZM70.82,3.89c-5.29-.71-9.59.81-13.64,3.37a6,6,0,0,0-2.91,4.9A56.62,56.62,0,0,1,53.17,20a8.77,8.77,0,0,1-2,3.86c-3.15,3.37-6.48,6.56-9.56,9.63l2.73,3.32c3.46-3.51,6.7-6.8,10-10.07.9-.91,1.88-2.08,3.18-.73s.06,2.16-.79,3l-10,9.84,3,2.93a47,47,0,0,0,5-5.12c4-5.54,9.36-7.4,15.9-6.71.76.08,1.88.11,2.27-.33,2.74-3.07,5.34-6.28,8.24-9.73-3.41,1.17-6.15,2.71-9,2.95-3.3.28-5.89-1.95-7.34-4.88a12.14,12.14,0,0,1-1.49-5.84C63.57,7.78,67.66,6.42,70.82,3.89ZM5.46,9.9c3.11,4.76,6.1,9.45,9.21,14.06,1.88,2.79,5.45,3.07,8.13.78,4.07-3.49,5-7.37,2.44-9.95a3.87,3.87,0,0,0-.56-.44L10.45,5Zm20,17L51.75,53.13l1.71-2L27.24,24.86Z"/><path class="cls-1" d="M75.36,73.18a13.23,13.23,0,0,1-3.1.72c-.49,0-1-.76-1.41-1.21-4.16-4.15-8.35-8.26-12.41-12.51-.56-.59-.41-1.86-.59-2.81.95.18,2.22,0,2.81.59,4.42,4.22,8.72,8.57,13,12.9A22,22,0,0,1,75.36,73.18Z"/><path class="cls-1" d="M81.84,64.46c-6.2-6.53-12.67-12.78-19-19.16a2,2,0,0,0-3.27.09c-1,1.1-2,2.23-2.87,3.23l-3.15-3.3-3.75-3.59h0L49,41l-.69-.67-.41-.4L44.5,36.69l-.08.07c-.21-.26-.43-.51-.63-.77l-4.87-4.66,0,0-.73-.74c-2.69-2.73-5.33-5.36-7.88-8.08a2.84,2.84,0,0,1-.37-2.08c.52-4-.53-7.18-4.11-9.43q-7-4.36-13.8-9c-1.67-1.14-2.8-1-4.1.48C6.32,4.27,4.61,6,2.85,7.57c-1.3,1.2-1.37,2.27-.38,3.73,3,4.49,6,9,8.87,13.6,2.3,3.73,5.47,5.1,9.71,4.42a2.92,2.92,0,0,1,2.11.47c2,1.85,4,3.76,6,5.74l3,2.94-.1.08,7.57,7.81,2.87,2.69-.12.13,4.4,4.54L49.31,56c-1.19,1.06-2.34,2.06-3.45,3.09a1.88,1.88,0,0,0-.09,3.08c6.44,6.4,12.74,13,19.35,19.18,4.58,4.3,11.24,3.68,15.88-1S86.15,69,81.84,64.46Zm-59-39.71c-2.68,2.29-6.25,2-8.12-.78-3.11-4.61-6.1-9.3-9.21-14.07L10.5,5c4.68,3.06,9.46,6.18,14.23,9.32a4.71,4.71,0,0,1,.56.44C27.88,17.37,26.93,21.26,22.85,24.75Zm2.68,2.11,1.76-2,26.23,26.3c-.51.57-1.18,1.35-1.72,2C43,44.31,34.33,35.66,25.53,26.86ZM78.61,78.07c-3.39,3.41-8.08,4-11.32.86C61.1,73,55.15,66.82,49,60.67c.53-.58,1-1.1,1.48-1.6l10.55-10.6c6.25,6.18,12.45,12.1,18.4,18.28C82.58,70,82,74.63,78.61,78.07Z"/><path class="cls-1" d="M75.42,73.18a12.34,12.34,0,0,1-3.11.72c-.49,0-1-.75-1.41-1.2-4.16-4.15-8.35-8.27-12.4-12.52-.57-.59-.42-1.85-.6-2.81,1,.18,2.23,0,2.82.59,4.42,4.22,8.71,8.57,13,12.91A22.39,22.39,0,0,1,75.42,73.18Z"/></svg>