<svg id="Layer_1" data-name="Layer 1" xmlns="http://www.w3.org/2000/svg" viewBox="0 0 83.49 85.04"><defs><style>.cls-1{fill:#fff;}</style></defs><title>الايقونات جاهزة2</title><path class="cls-1" d="M15.06,84.9a2.79,2.79,0,0,0-.61-.22,4.43,4.43,0,0,1-2.76-7.28c.5-.57.35-.81-.13-1.24A28.44,28.44,0,0,1,16.74,30,2,2,0,0,0,18,27.83c-.09-1.4,0-2.82,0-4.23a3.32,3.32,0,0,1,3.38-3.35c.69,0,1.38,0,2.07,0s1.05-.21,1-1c0-4.46-.05-8.91,0-13.36a4.74,4.74,0,0,1,.72-2.22,2.28,2.28,0,0,1,2.07-1c2,0,4,0,6,0s3.18,1.12,3.32,3.21c.11,1.64.1,1.6,1.78,1.65A31.09,31.09,0,0,1,61.72,18.53a34.92,34.92,0,0,1,2.75,3.74.86.86,0,0,0,1.34.34c1-.55,2.14-1.24,3.36-.67a5.2,5.2,0,0,1,1.75,1.41,1.24,1.24,0,0,1-.32,1.83,1.23,1.23,0,0,1-1.77-.25.84.84,0,0,0-1.16-.21c-1.67.81-3.34,1.61-5,2.38-.55.25-.68.59-.41,1.12s.45.87.72,1.4c.32-.21.58-.36.8-.54a12.19,12.19,0,1,1-4.61,11.08,11.53,11.53,0,0,1,1.42-7.28,1.59,1.59,0,0,0,0-1.77c-.36-.61-.63-1.29-.93-1.94a3.1,3.1,0,0,1,1.53-4.38l1.37-.72c-1.29-1.64-2.4-3.26-3.72-4.68a28.44,28.44,0,0,0-16.58-8.85c-1.6-.27-3.24-.26-4.87-.38-.6-.05-.89.13-.88.83,0,2.82,0,5.64,0,8.46,0,.63.23.83.83.81s1.49,0,2.24,0A3.38,3.38,0,0,1,43,23.09a1.52,1.52,0,0,1-1,1.78,1.31,1.31,0,0,1-1.64-1.1,1,1,0,0,0-1.15-.84H21.71c-.52,0-1,.15-1,.72-.05,1.4,0,2.81,0,4.34.4-.09.69-.13,1-.21a28.41,28.41,0,0,1,25.13,3.71A28.25,28.25,0,0,1,57.63,46.23a27.68,27.68,0,0,1,1.2,11.37,28.23,28.23,0,0,1-8.55,17.76c-.45.44-1.16.82-1.28,1.34s.53,1,.82,1.5a4.43,4.43,0,0,1-3.2,6.47,3.49,3.49,0,0,0-.69.23ZM30.47,82h15.1a2.63,2.63,0,0,0,1.12-.2,1.58,1.58,0,0,0,.92-1.7,1.75,1.75,0,0,0-1.7-1.54,1.45,1.45,0,0,1-1.33-1.17c-.14-.67.27-1.07.76-1.44,8.21-6.23,11.95-14.44,10.6-24.72a24.6,24.6,0,0,0-11.23-17.8,24.88,24.88,0,0,0-18-4A24.65,24.65,0,0,0,12.2,36.74,25.07,25.07,0,0,0,5,58.74,25,25,0,0,0,14.81,75.3a2.76,2.76,0,0,0,1.58.51c7.11,0,14.22,0,21.32,0,.31,0,.61,0,.91,0a1.36,1.36,0,0,1,1.24,1.33,1.34,1.34,0,0,1-1.17,1.31,3.06,3.06,0,0,1-.74,0H23.76c-2.77,0-5.53,0-8.3,0a3.13,3.13,0,0,0-1.74.73A1.39,1.39,0,0,0,13.51,81a1.71,1.71,0,0,0,1.7.95ZM80.69,38.7a9.46,9.46,0,1,0-9.38,9.45A9.4,9.4,0,0,0,80.69,38.7Zm-47-25.9c0-2.24,0-4.48,0-6.71,0-.58-.19-.78-.76-.77-1.69,0-3.37,0-5.06,0-.58,0-.79.24-.78.78q0,6.68,0,13.34c0,.6.25.83.85.82,1.63,0,3.26,0,4.89,0,.7,0,.88-.26.87-.92C33.71,17.16,33.73,15,33.73,12.8Z"/><path class="cls-1" d="M12.12,12.51c-1,0-2,0-3.06,0a1.37,1.37,0,0,1-1.51-1.22A1.45,1.45,0,0,1,9,9.83a13.71,13.71,0,0,1,1.57,0c1.54,0,3.09,0,4.63,0,1,0,1.66.58,1.64,1.37s-.66,1.29-1.61,1.3-2,0-3.06,0Z"/><path class="cls-1" d="M15.91,20c-.27-.22-.82-.43-1-.81a1.59,1.59,0,0,1,.13-1.41,32.14,32.14,0,0,1,3.17-2.64,1.13,1.13,0,0,1,1.56.3A1.09,1.09,0,0,1,19.93,17c-1.1,1-2.32,1.93-3.5,2.87C16.36,19.93,16.22,19.92,15.91,20Z"/><path class="cls-1" d="M14.68,2.39a7.51,7.51,0,0,1,1,.31c1,.47,1.93.94,2.87,1.46s1.13,1.18.75,1.9a1.38,1.38,0,0,1-2,.49c-1-.5-2-1-3-1.55a1.22,1.22,0,0,1-.58-1.63C13.88,3,14.38,2.68,14.68,2.39Z"/><path class="cls-1" d="M13.31,21.94A1.46,1.46,0,0,1,12,23.25a1.33,1.33,0,0,1-1.29-1.43A1.26,1.26,0,0,1,12,20.59,1.38,1.38,0,0,1,13.31,21.94Z"/><path class="cls-1" d="M2.12,1.83A1.31,1.31,0,0,1,3.46,3.1,1.42,1.42,0,0,1,2.11,4.49,1.32,1.32,0,0,1,.84,3.13,1.24,1.24,0,0,1,2.12,1.83Z"/><path class="cls-1" d="M2.74,20.79A1.24,1.24,0,0,1,1.47,22.1,1.31,1.31,0,0,1,.13,20.83a1.39,1.39,0,0,1,1.34-1.39A1.32,1.32,0,0,1,2.74,20.79Z"/><path class="cls-1" d="M11.51,1.43a1.3,1.3,0,0,1-1.29,1.33A1.4,1.4,0,0,1,8.87,1.44,1.31,1.31,0,0,1,10.21.14,1.22,1.22,0,0,1,11.51,1.43Z"/><path class="cls-1" d="M3.61,12.58a1.32,1.32,0,0,1-1.27-1.37A1.21,1.21,0,0,1,3.66,10,1.32,1.32,0,0,1,5,11.27,1.42,1.42,0,0,1,3.61,12.58Z"/><path class="cls-1" d="M30.49,63.13c-1.8,0-3.59,0-5.39,0a3.2,3.2,0,0,1-1.73-.58,11.33,11.33,0,0,1-4.45-8.18,11.6,11.6,0,1,1,23.16-.76,11.27,11.27,0,0,1-4.54,9A2.94,2.94,0,0,1,36,63.1C34.14,63.17,32.31,63.13,30.49,63.13Zm0-2.71c1.44,0,2.88-.07,4.31,0a2.58,2.58,0,0,0,2.29-1c2.42-2.85,3.09-6.07,1.59-9.49a8.46,8.46,0,0,0-8.35-5.41,8.87,8.87,0,0,0-5.81,15.44,2.08,2.08,0,0,0,1.25.46C27.31,60.45,28.89,60.42,30.46,60.42Z"/><path class="cls-1" d="M30.48,8.45a1.22,1.22,0,0,1,1.29,1.3,1.33,1.33,0,0,1-1.31,1.33,1.43,1.43,0,0,1-1.33-1.34A1.32,1.32,0,0,1,30.48,8.45Z"/></svg>