<svg id="Layer_1" data-name="Layer 1" xmlns="http://www.w3.org/2000/svg" viewBox="0 0 69.96 85.04"><defs><style>.cls-1{fill:#fff;}</style></defs><title>الايقونات جاهزة2</title><path class="cls-1" d="M41.92,0a1.56,1.56,0,0,0,.28.16,3.78,3.78,0,0,1,3.13,4.13V25.43c0,2.62,0,5.23,0,7.85,0,.56-.15.78-.74.76q-1.86,0-3.72,0c-.58,0-.74-.2-.74-.76,0-2.45,0-4.9,0-7.35,0-.25,0-.49,0-.8-.27,0-.5-.06-.74-.06-2.17,0-4.35,0-6.52,0-.68,0-.91.19-.9.88,0,2.56,0,5.12,0,7.68a1,1,0,0,1-.7,1.1A5.18,5.18,0,0,0,28,39.83c0,6.3,0,12.61,0,18.91,0,1.1,0,1.11-1.14,1.11-2.75,0-5.5,0-8.26,0-.75,0-1,.17-1,1,0,7.66,0,15.31,0,23,0,.27,0,.55.05.82H3.91A9.36,9.36,0,0,1,2.24,84,3.89,3.89,0,0,1,.46,80.22q0-37.92,0-75.83c0-.25,0-.5,0-.74A3.67,3.67,0,0,1,3.21.22c.24-.06.47-.15.7-.22Zm-28,49.21c0-1.68,0-3.36,0-5,0-.51-.12-.75-.68-.75q-3.39,0-6.78,0c-.59,0-.74.25-.74.79q0,5,0,10.08c0,.52.17.75.71.75,2.26,0,4.51,0,6.77,0,.6,0,.73-.26.73-.8C13.86,52.56,13.88,50.88,13.88,49.21Zm5.19-.05c0,1.68,0,3.36,0,5,0,.59.15.85.78.85q3.35,0,6.69,0c.58,0,.74-.23.74-.79q0-5,0-10.08c0-.59-.22-.75-.78-.75-2.2,0-4.4,0-6.6,0-.67,0-.85.24-.84.87C19.09,45.91,19.07,47.54,19.07,49.16ZM13.75,71.68a1.48,1.48,0,0,0,.11-.35c0-3.55,0-7.1,0-10.65,0-.59-.35-.57-.75-.57-2.18,0-4.35,0-6.52,0-.73,0-1,.22-.94.94q.06,4.86,0,9.74c0,.75.27.93,1,.92,1.63,0,3.25,0,4.87,0Zm.13-64.15H6.23c-.53,0-.54.32-.54.7,0,3.36,0,6.71,0,10.06,0,.56.16.78.75.78,2.22,0,4.45,0,6.68,0,.63,0,.78-.21.78-.81,0-3,0-6,0-9Zm13.33.14c-.1-.06-.15-.1-.2-.1l-7.42,0c-.54,0-.52.34-.52.71,0,3.36,0,6.71,0,10.07,0,.57.18.76.75.76,2.18,0,4.35-.05,6.52,0,.79,0,1-.26.94-1,0-3.22,0-6.44,0-9.65C27.26,8.17,27.23,7.9,27.21,7.67Zm12.9-.14c-2.58,0-5,0-7.53,0-.56,0-.61.31-.61.74,0,3.33,0,6.66,0,10,0,.6.19.82.81.81,2,0,4.07,0,6.11,0h1.23ZM13.83,25.07c-2.6,0-5.13,0-7.65,0-.17,0-.47.41-.47.64,0,3.38,0,6.76,0,10.14,0,.53.18.72.72.71,1.45,0,2.91,0,4.37,0h3.06ZM27.26,36.58c0-3.78,0-7.41,0-11,0-.17-.42-.46-.64-.46-2.28,0-4.56,0-6.85,0-.48,0-.68.13-.68.65q0,5.12,0,10.23c0,.51.2.66.68.65,1,0,2,0,3.06,0Z"/><path class="cls-1" d="M34.64,84.61c-2.76-1.07-2.76-1.07-2.76-4.14V39.92a2.25,2.25,0,0,1,2.06-2.51,9,9,0,0,1,1.64-.16H66.13a9.06,9.06,0,0,1,1.56.15,2.25,2.25,0,0,1,2.12,2.54V81.73c0,1.7-.52,2.32-2.23,2.69a5.1,5.1,0,0,0-.55.19H55.63q0-6.64,0-13.29c0-.62-.36-.64-.81-.64-2.59,0-5.18,0-7.76,0-.63,0-.81.21-.8.82,0,1.89,0,3.79,0,5.69q0,3.72.05,7.43Zm5.13-16.53c.9,0,1.81,0,2.72,0,.53,0,.8-.14.79-.74,0-1.71,0-3.41,0-5.11,0-.52-.16-.76-.7-.76H37c-.53,0-.72.22-.71.75,0,1.7,0,3.41,0,5.11,0,.6.26.76.8.75C38,68.06,38.86,68.08,39.77,68.08Zm-.09-20.15c.94,0,1.87,0,2.81,0,.53,0,.8-.15.79-.75,0-1.7,0-3.41,0-5.11,0-.52-.17-.75-.71-.75-1.86,0-3.73,0-5.6,0-.53,0-.72.22-.71.74,0,1.71,0,3.41,0,5.11,0,.6.25.77.79.76C37.93,47.91,38.8,47.93,39.68,47.93Zm22.38,0h2.72c.51,0,.78-.15.77-.7,0-1.73,0-3.47,0-5.2,0-.49-.19-.7-.68-.7-1.87,0-3.74,0-5.62,0-.53,0-.71.21-.7.74,0,1.71,0,3.41,0,5.12,0,.6.25.76.79.75C60.24,47.91,61.15,47.93,62.06,47.93Zm0,13.55c-.9,0-1.81,0-2.72,0-.54,0-.79.16-.78.75,0,1.71,0,3.42,0,5.12,0,.54.18.74.71.74,1.84,0,3.69,0,5.53,0,.51,0,.77-.16.76-.71,0-1.73,0-3.47,0-5.2,0-.56-.28-.71-.77-.7C63.87,61.49,63,61.48,62.05,61.48Zm-11-13.55c.91,0,1.82,0,2.73,0,.55,0,.78-.17.77-.76,0-1.71,0-3.41,0-5.12,0-.54-.19-.74-.71-.73-1.85,0-3.69,0-5.54,0-.55,0-.68.24-.68.75,0,1.71,0,3.41,0,5.12,0,.53.17.75.71.74C49.24,47.91,50.15,47.93,51.06,47.93ZM47.65,61.47c0,2.13,0,4.11,0,6.09,0,.18.41.49.63.49,1.85,0,3.69,0,5.53,0,.52,0,.74-.17.73-.72,0-1.71,0-3.41,0-5.12,0-.58-.2-.78-.76-.77-1.49,0-3,0-4.46,0Zm-7.87-3.74c.91,0,1.81,0,2.72,0,.55,0,.79-.14.78-.74,0-1.7,0-3.4,0-5.1,0-.53-.18-.73-.72-.73-1.87,0-3.73,0-5.6,0-.48,0-.7.15-.7.65,0,1.76,0,3.52,0,5.28,0,.45.18.63.64.62C37.86,57.71,38.82,57.73,39.78,57.73Zm22.25,0c.93,0,1.87,0,2.8,0,.48,0,.72-.12.72-.64q0-2.64,0-5.28c0-.44-.18-.64-.65-.63H59.21c-.44,0-.66.12-.66.61,0,1.78,0,3.57,0,5.36,0,.43.16.59.58.58C60.1,57.71,61.07,57.73,62,57.73ZM39.77,70.85c-.93,0-1.87,0-2.8,0-.47,0-.72.12-.71.64,0,1.76,0,3.52,0,5.28,0,.44.16.64.63.64q2.88,0,5.76,0c.47,0,.63-.2.63-.65,0-1.75,0-3.51,0-5.27,0-.52-.24-.65-.71-.64C41.64,70.86,40.7,70.85,39.77,70.85ZM62.16,71c-1,0-2,0-3,0-.45,0-.64.14-.64.61q0,2.64,0,5.28c0,.52.21.67.69.67q2.81,0,5.61,0c.5,0,.7-.19.7-.68,0-1.73,0-3.46,0-5.2,0-.55-.23-.7-.75-.68C63.92,71,63,71,62.16,71ZM54.54,57.7c0-2.09,0-4.09,0-6.09,0-.15-.45-.4-.7-.41-1.81,0-3.63,0-5.45,0-.6,0-.74.22-.73.78,0,1.48,0,3,0,4.46V57.7Z"/></svg>