<svg id="Layer_1" data-name="Layer 1" xmlns="http://www.w3.org/2000/svg" viewBox="0 0 85.04 76.16"><defs><style>.cls-1{fill:#fff;}</style></defs><title>الايقونات جاهزة2</title><path class="cls-1" d="M64.2,76H20.73a8,8,0,0,1-.84,0,3.6,3.6,0,0,1-3.29-3.31c0-.37,0-.73,0-1.1V30.13l-4.49,1.32-.11,0c-2.41.71-4,0-5.14-2.22L.66,17.07A4.43,4.43,0,0,1,.2,13.61a4.45,4.45,0,0,1,2.54-2.44q6.6-3,13.19-6.09A53.49,53.49,0,0,1,27.75,1.6l.16,0c1-.22,3.56-.37,4.53,3a10.22,10.22,0,0,0,7.37,7.53A10.29,10.29,0,0,0,52.45,5l.07-.23c0-.14.07-.27.11-.41A3.69,3.69,0,0,1,57.2,1.57,56.8,56.8,0,0,1,70.58,5.74c2.75,1.35,5.6,2.64,8.36,3.89l3.49,1.6a4.14,4.14,0,0,1,2.41,2.38,4.11,4.11,0,0,1-.39,3.3q-3.15,6.25-6.32,12.48a3.81,3.81,0,0,1-4.9,2.14l-3.6-1.05-1.18-.35V72.25a3.6,3.6,0,0,1-3.72,3.69ZM20.53,72h44V28.86c0-.3,0-.59,0-.93l.13-2.75,2.6.54a7.55,7.55,0,0,1,.81.18l2.67.78c1.19.35,2.38.71,3.57,1.05l.19.05.1-.18q3.17-6.23,6.32-12.47l.08-.19a1.2,1.2,0,0,0-.23-.12L77.3,13.23c-2.78-1.26-5.66-2.57-8.46-3.94A52.58,52.58,0,0,0,56.43,5.45a.14.14,0,0,1,0,.06l-.16.6a14.27,14.27,0,0,1-17.53,9.75A14.08,14.08,0,0,1,28.65,5.64l-.06-.18h0a50.28,50.28,0,0,0-11,3.19Q11,11.74,4.39,14.76L4,15l.16.33q3.08,6.11,6.17,12.19c.07.14.13.24.17.31l.34-.09.11,0c2-.6,4.08-1.2,6.11-1.82a2.59,2.59,0,0,1,2.56.37,2.55,2.55,0,0,1,.88,2.38,1,1,0,0,0,0,.25V72Z"/><path class="cls-1" d="M51.69.23,51,3.32A8.94,8.94,0,0,1,42.52,10a9,9,0,0,1-8.47-6.69L33.36.25l2.83.67a27.09,27.09,0,0,0,12.66,0Z"/></svg>