<svg id="Layer_1" data-name="Layer 1" xmlns="http://www.w3.org/2000/svg" viewBox="0 0 85.04 34.01"><defs><style>.cls-1{fill:#fff;}</style></defs><title>الايقونات جاهزة2</title><path class="cls-1" d="M0,32.4C2.15,29.69,4.23,27,6.39,24.3a2.49,2.49,0,0,0,.54-2.47C6,18.07,5.3,14.27,4.58,10.47c-.17-.89-.45-1.21-1.33-1.16-1.4.09-1.52-.09-1.52-1.56,0-1.2,0-2.4,0-3.6A1.07,1.07,0,0,1,2.58,3,59.6,59.6,0,0,1,14.82.48C17.38.29,20,.13,22.52.16a48,48,0,0,1,14.9,2.55,15.5,15.5,0,0,0,10.24,0,51.81,51.81,0,0,1,19-2.55A63.71,63.71,0,0,1,82.5,3a1.06,1.06,0,0,1,.85,1.2c0,1.34,0,2.69,0,4,0,.84-.37,1.14-1.12,1.15-1.48,0-1.45.05-1.77,1.57-.82,3.93-1.69,7.84-2.5,11.77a1.49,1.49,0,0,0,.34,1.05C80.17,26.15,82.09,28.54,84,31c.37.47.71,1,1.06,1.45v.18c-1.2,1.55-2.83,1.66-4.52,1.44a5.93,5.93,0,0,1-3.69-2.17C76,30.89,75.1,30,74.25,29c-.27-.3-.5-.48-.91-.2a13.35,13.35,0,0,1-8.27,2c-8.4-.31-14.57-4.49-18.56-12.28a1,1,0,0,0-1.29-.67c-2,.37-4.1.61-6.14,1a1.64,1.64,0,0,0-1,.73A21,21,0,0,1,24.2,30.31a16.74,16.74,0,0,1-11.52-1c-1.49-.73-1.44-.73-2.66.53a27.06,27.06,0,0,1-3.77,3.51A4.91,4.91,0,0,1,1,33.46a4.76,4.76,0,0,1-1-.88Zm65.33-3.21c.93-.09,1.87-.13,2.8-.27a9.72,9.72,0,0,0,8.38-7.3c.59-1.94,1-3.94,1.39-5.94.45-2.28.79-4.59,1.2-6.88.09-.55.2-1.11.92-1.14.54,0,1.32.07,1.55-.24s.13-1.17.15-1.78c0-.11,0-.23,0-.35a.79.79,0,0,0-.68-1A61.18,61.18,0,0,0,65.33,1.83,50.25,50.25,0,0,0,48,4.37a16.67,16.67,0,0,1-11,0A50.26,50.26,0,0,0,20.39,1.82,58.59,58.59,0,0,0,5,4.05c-1.7.48-1.7.47-1.7,2.32,0,1.26,0,1.26,1.24,1.28,1.08,0,1.2.2,1.42,1.35.81,4.14,1.52,8.3,2.52,12.39a9.34,9.34,0,0,0,6.9,7.2,16.14,16.14,0,0,0,6.74.36,19.25,19.25,0,0,0,14-9.38,33.18,33.18,0,0,0,3.11-7.8,3.41,3.41,0,0,1,3.28-2.7c1.55,0,2.69.95,3.26,2.72.34,1.05.66,2.11,1,3.15C49.67,23.56,56.93,29.1,65.37,29.19ZM45.47,16.1l-1.23-3.88a1.8,1.8,0,0,0-1.67-1.46c-.78,0-1.4.48-1.73,1.47-.45,1.34-.88,2.69-1.31,4a5.81,5.81,0,0,0-.14.74ZM8,24.89,2.26,32.14a4.06,4.06,0,0,0,4.28-.94c1.1-1.06,2.1-2.25,3.12-3.4a.74.74,0,0,0,.1-.65C9.23,26.4,8.65,25.7,8,24.89Zm74.79,7.22-5.73-7.24-2,2.62c1.32,1.38,2.55,2.85,4,4.09A3.54,3.54,0,0,0,82.79,32.11Z"/><path class="cls-1" d="M64.13,4.29c2.92.26,5.84.41,8.74.81,3.34.46,5.31,3.68,4.59,7.3q-.81,4-1.76,8.09c-1,4.35-3.76,6.74-8,7.32C58.93,29,50.81,23.44,47.94,14.86c-1.48-4.45.69-8.44,5.07-9.31A70.38,70.38,0,0,1,64.13,4.29ZM64.29,6A65.15,65.15,0,0,0,53.41,7.21c-3.51.68-5.11,3.55-3.92,7.12,2.64,7.91,10.15,12.89,18,11.8A7.15,7.15,0,0,0,74,20.45c.71-2.84,1.32-5.72,1.87-8.6a4.11,4.11,0,0,0-3.54-5.12C69.68,6.45,67,6.25,64.29,6Z"/><path class="cls-1" d="M21.07,4.28a70.13,70.13,0,0,1,11.2,1.3,6.63,6.63,0,0,1,4.95,8.9c-2.43,7.35-7.33,11.78-14.55,13.25a15.24,15.24,0,0,1-6.75-.18,8,8,0,0,1-6.11-5.7c-1-3.39-1.63-6.89-2.26-10.38a5.52,5.52,0,0,1,4.7-6.38C15.18,4.71,18.13,4.55,21.07,4.28Zm0,2c-1.36,0-2.71-.06-4.06,0s-2.75.29-4.12.42a4.09,4.09,0,0,0-3.76,5.08c.56,3,1.2,6,2,9a6.68,6.68,0,0,0,5.12,5.07,13.7,13.7,0,0,0,6,.2c6.6-1.32,11.1-5.32,13.38-12,1.09-3.23-.52-6.15-3.69-6.79A43.62,43.62,0,0,0,21.11,6.26Z"/><path class="cls-1" d="M74.88,10.83c0,.55,0,1.1-.72,1.16s-.86-.44-.87-1.07c0-.92-.61-1.26-1.36-1.36-1.15-.14-2.31-.33-3.46-.37-2.32-.09-4.64-.09-7-.13A1.79,1.79,0,0,1,60.77,9c-.23-.13-.54-.4-.55-.63a1.2,1.2,0,0,1,.4-.84,1.2,1.2,0,0,1,.78-.18c3.62.17,7.23.31,10.84.54A2.82,2.82,0,0,1,74.88,10.83Z"/><path class="cls-1" d="M21.13,7.35A48.66,48.66,0,0,1,31.82,8.42a3.69,3.69,0,0,1,3,4.36c-.08.59-.28,1.16-1,1.08s-.69-.6-.65-1.19a2.13,2.13,0,0,0-1.94-2.61A52.45,52.45,0,0,0,18.63,9h-.25c-.57,0-1.2,0-1.18-.83s.61-.87,1.19-.87Z"/></svg>