<svg id="Layer_1" data-name="Layer 1" xmlns="http://www.w3.org/2000/svg" viewBox="0 0 65.19 85.04"><defs><style>.cls-1{fill:#fff;}</style></defs><title>الايقونات جاهزة2</title><path class="cls-1" d="M5.86,14.38c-3.19-.62-4-3-4.36-5.51-.44-2.94-.19-5.8,2.1-8A4.28,4.28,0,0,1,6.31.08c16.54,0,33.08,0,49.63,0a3.89,3.89,0,0,1,3.91,2.5,11.45,11.45,0,0,1,0,9.43,5.59,5.59,0,0,0-.41,3.11c.76,3.61,1.57,7.24,2.67,10.76a77.35,77.35,0,0,1,3.14,25.68c-.27,10.19-.06,20.39-.06,30.59,0,2.83-.09,2.91-3,2.91H2.83C0,85-.09,84.94-.09,82.09c0-14-.23-28,.13-41.92.11-4.51,1.72-9,2.75-13.47C3.72,22.66,4.79,18.66,5.86,14.38ZM2.74,82.07H48.07V79.5c0-9.74.2-19.48-.06-29.21a73,73,0,0,1,3-23.66c1.23-4,2-8.14,3.08-12.44-14.86,0-29.43,0-44,.08-.54,0-1.38,1-1.56,1.61C7.14,20.9,6,26,4.62,31A52.54,52.54,0,0,0,2.69,46.17c.17,11.1.05,22.2.05,33.3Zm59.57-2.29V77.19c0-10.12-.35-20.26.1-30.36.47-10.52-3.64-20-5.73-30a87.64,87.64,0,0,0-2.62,9.29C53,30.87,51.3,35.63,51.13,40.44,50.71,52.74,51,65.06,51,77.37c0,.71.07,1.42.13,2.48,2.49-2.17,4.31-3.87,4.19-7.45-.35-9.88-.13-19.78-.12-29.67A4,4,0,0,1,55.31,41a2.25,2.25,0,0,1,1.43-1.12c.34,0,1,.64,1.15,1.12A6.14,6.14,0,0,1,58,43c0,9.67.2,19.34-.1,29C57.79,75.59,59.25,77.74,62.31,79.78ZM52.65,3a6.37,6.37,0,0,0-.87-.11c-15,0-29.9,0-44.85,0a2.24,2.24,0,0,0-2.5,2.26,15.18,15.18,0,0,0-.12,3.16c.23,2.74.72,3.14,3.5,3.14H52.65Zm4,8.32c1.9-2.89,1.74-6.52-.27-8.2A6.72,6.72,0,0,0,56.69,11.29Zm0,67.64-3,3.12h6.12Z"/><path class="cls-1" d="M17,42.22A20,20,0,0,1,17,38.74c.13-.66.81-1.22,1.24-1.83.51.63,1.3,1.19,1.46,1.9a16.24,16.24,0,0,1,.07,3.52h2.8a19.81,19.81,0,0,1,.07-3.78c.11-.62,1-1.1,1.47-1.64.42.55,1.17,1.08,1.19,1.64.13,3,.54,6.05-1.38,8.74C22.71,49,22.61,51,22.77,53.1c.47,6.1.74,12.21,1,18.32.17,3.42-1.64,5.11-5.35,5.13S12.84,75.07,13,71.61c.26-6.49.72-13,.91-19.46a8.9,8.9,0,0,0-1.13-4.68c-1.73-2.78-1.61-5.75-1.45-8.74,0-.63.85-1.21,1.3-1.81A11.67,11.67,0,0,1,14,38.83a4,4,0,0,1,.05,1.56C14.12,42.66,14.14,42.67,17,42.22Zm2.87,9-.75-.67c-.78.59-2.18,1.13-2.23,1.78-.5,6.46-.77,12.93-1.11,19.4-.1,1.94,1.24,1.9,2.59,1.92s2.67,0,2.57-1.93Q20.4,61.5,19.85,51.24Zm-4.41-5.73c.05,2.41,1.44,2.76,3.43,2.73S21,46.9,21.4,45.51Z"/><path class="cls-1" d="M38,50.1c.43,6.69.83,13.38,1.29,20.07.33,4.89-1.65,6.86-6.51,6.34a4.3,4.3,0,0,1-4.16-4.9c.32-5,.63-10.07,1.06-15.1A2.17,2.17,0,0,0,28.39,54c-.68-.37-1.51-1.57-1.36-2.16A59.16,59.16,0,0,1,30.43,41c.83-1.71,3.08-3,5-3.86s2.77,0,2.79,2.13c.05,3.62,0,7.24,0,10.86Zm-5.52,6.75c-.33,5.09-.66,10-1,15-.09,1.52.84,1.9,2.17,1.86s2.88.18,2.79-1.71c-.23-5-.66-10-1-15.11Zm2.23-2.58.49-.74V39.92c-4.09,3.13-4.48,7.45-5.39,11.71Z"/></svg>