<svg id="Layer_1" data-name="Layer 1" xmlns="http://www.w3.org/2000/svg" viewBox="0 0 85.04 72.1"><defs><style>.cls-1{fill:#fff;}</style></defs><title>الايقونات جاهزة2</title><path class="cls-1" d="M27.3,72.17c1.3-7.16,6.86-5.72,11.58-6.08V14.65H15.49c.51.89.9,1.61,1.34,2.31,2.7,4.29,5.39,8.58,8.11,12.86.71,1.12,1.11,2.41-.32,3a3,3,0,0,1-2.57-1.17c-2.82-4.19-5.45-8.5-8.37-13.12L8.24,27.1c-.89,1.41-1.76,2.82-2.66,4.22-.69,1-1.38,2.48-2.92,1.52s-.68-2.33,0-3.48c1.47-2.35,3-4.69,4.43-7s3.11-5,4.6-7.33a11,11,0,0,1-2.19-2.16c-1-1.87.51-3.69,3.08-3.71,5.46,0,10.93,0,16.4,0,3.74,0,6.11-2.29,7.8-5.2C38.16,1.63,40.11,0,42.66.13s4.27,1.5,5.6,3.77c1.7,2.91,4.06,5.19,7.8,5.2H71.52c1.67,0,3.76-.21,4,1.92.15,1.28-1,2.7-1.75,4.66L82,28.75c.3.47.81.94.83,1.42,0,.22,0,.45,0,.67a1.7,1.7,0,0,1-2.49,1.37,1.07,1.07,0,0,1-.37-.33c-2.36-3.46-4.53-7-6.77-10.6-.5-.8-1-1.59-1.75-2.73-1.64,2.56-3.16,4.92-4.66,7.28-1.23,1.94-2.33,4-3.72,5.79-.54.69-1.95,1.43-2.57,1.18-1.44-.56-1-1.87-.34-3q4.26-6.72,8.48-13.46c.29-.46.54-.93.95-1.65H46.24V66c3.37.72,7.45-.87,10.1,2.53a21,21,0,0,1,1.77,3.67Z"/><path class="cls-1" d="M27,35c1.23,6-3.56,12.6-9.93,14.17A13.73,13.73,0,0,1,.07,37.56C-.06,36.45-.52,35,1.49,35H27Z"/><path class="cls-1" d="M57.93,35c8.75,0,17.22,0,25.69,0,1.57,0,1.53,1,1.46,2.08a13.71,13.71,0,0,1-24.14,7.62A12.41,12.41,0,0,1,57.93,35Z"/></svg>