<svg id="Layer_1" data-name="Layer 1" xmlns="http://www.w3.org/2000/svg" viewBox="0 0 60.96 85.04"><defs><style>.cls-1{fill:#fff;}</style></defs><title>الايقونات جاهزة2</title><path class="cls-1" d="M17.6,66.1a1.19,1.19,0,0,1-.85-1.29c0-3.54,0-7.1,0-10.64V54H14.24v.21c0,3.58,0,7.16,0,10.74a1,1,0,0,1-.76,1.17,5.48,5.48,0,0,0-3.37,6.17,5.61,5.61,0,0,0,5.13,4.42,5.53,5.53,0,0,0,5.64-4.32A5.39,5.39,0,0,0,17.6,66.1Zm-2.1,8a3,3,0,0,1-2.91-3,2.9,2.9,0,0,1,2.95-2.91,2.94,2.94,0,0,1,2.94,3A3,3,0,0,1,15.5,74.12Z"/><path class="cls-1" d="M53.23,67.52a8.13,8.13,0,0,0-4.47-3,1,1,0,0,1-.87-1.13c0-3.17,0-6.36,0-9.53H45.37c0,.73,0,1.47,0,2.21,0,2.43,0,4.86,0,7.29a1,1,0,0,1-.86,1.15,8.31,8.31,0,0,0-6.25,8.18c0,.82,0,1.66,0,2.48a1.33,1.33,0,0,0,1.44,1.45c1.08,0,2.16,0,3.23,0,.46,0,.69-.16.66-.62V76c0-2.18.18-1.77-1.71-1.8-1.07,0-1.12-.06-1.11-1.12a5.9,5.9,0,0,1,4.34-6,5.73,5.73,0,0,1,7.23,5.42c0,1.91.29,1.72-1.7,1.73-1.12,0-1.12,0-1.12,1.08a2.55,2.55,0,0,0,0,.83c.11.23.36.57.56.58,1.19.06,2.38.06,3.56,0a1.09,1.09,0,0,0,1.17-1C55,72.8,55.17,70,53.23,67.52Z"/><path class="cls-1" d="M57.93,84.89h2.82c0-.31-.07-.64-.08-1,0-5.36,0-10.73,0-16.08a29.21,29.21,0,0,0-.31-4A15.32,15.32,0,0,0,45.72,51.15c-1.8,0-3.59,0-5.39,0-.68,0-.91-.23-.89-.91,0-1.69,0-3.37,0-5.06a1.38,1.38,0,0,1,.75-1.33,16.16,16.16,0,0,0,4.58-4.37,17.21,17.21,0,0,0,3.13-9.11c0-.57.23-.7.77-.8a5.3,5.3,0,0,0,4.65-4,5.33,5.33,0,0,0-2.09-5.94,1.37,1.37,0,0,1-.48-.71c-.21-1.13-.38-2.27-.49-3.43a1.56,1.56,0,0,1,.35-1.06,8.09,8.09,0,0,0,2.49-5.77,7.52,7.52,0,0,0-4-7,7.6,7.6,0,0,0-8,.06,2.2,2.2,0,0,1-2.34.11A18.68,18.68,0,0,0,26.73.66,19.62,19.62,0,0,0,11.42,19.83a1.53,1.53,0,0,1-.65,1.39A5,5,0,0,0,8.68,25.6c.25,3.2,1.8,4.8,5,5.37a.83.83,0,0,1,.78.88,9.8,9.8,0,0,0,.28,1.62,16.52,16.52,0,0,0,7.4,10.47,1.18,1.18,0,0,1,.6,1.16c0,1.65-.05,3.31,0,5,0,.83-.21,1.09-1.06,1.09a53.69,53.69,0,0,0-6.95.19A14.73,14.73,0,0,0,3.92,58.28a15.79,15.79,0,0,0-2.44,8.81c0,5.61,0,11.21,0,16.83,0,.33-.05.66-.08,1H4.21A8.65,8.65,0,0,1,4.13,84V66.1a12.78,12.78,0,0,1,9.16-11.9,8.16,8.16,0,0,1,.88-.14s0,.08,0,.11H17a4.94,4.94,0,0,0,.19-.49,4.18,4.18,0,0,1,1.08.73c3.82,5,7.6,10.1,11.4,15.16,1,1.39,1.82,1.39,2.85,0Q38.19,62,43.88,54.41a1.77,1.77,0,0,1,.42-.51,1.13,1.13,0,0,1,.74-.17c.12,0,.23.2.28.38H48A.17.17,0,0,0,48,54a11,11,0,0,1,5.24,2.45,12.41,12.41,0,0,1,4.79,10c0,5.81,0,11.61,0,17.41C58,84.25,58,84.58,57.93,84.89ZM51,24.09A3.11,3.11,0,0,1,48.55,27c-.49.07-.65-.11-.64-.58,0-.8,0-1.59,0-2.4s0-1.49,0-2.23c0-.51.17-.7.7-.62A3.13,3.13,0,0,1,51,24.09ZM49.83,4.88c1.71,2.21,1.43,5.75-.69,7.22a20.52,20.52,0,0,0-6.66-8.19A5.22,5.22,0,0,1,49.83,4.88ZM14.2,27.93c0,.17-.35.47-.54.48a3,3,0,0,1-2.53-3,2.77,2.77,0,0,1,3.11-2.67C14.24,24.51,14.25,26.22,14.2,27.93Zm-.09-9.08A17.21,17.21,0,0,1,31,2.76,17.26,17.26,0,0,1,48,17.22c.06.43.11,1.12-.12,1.29-.54.4-1-.13-1.41-.5A29,29,0,0,1,39.86,9.1c-.06-.13-.11-.25-.17-.37-.33-.67-.58-1.44-1.55-1.36S37,8.2,36.77,8.9A11.83,11.83,0,0,1,31.19,15,37.8,37.8,0,0,1,19,19.14c-1.26.25-2.55.42-3.82.63C14.18,19.92,14,19.81,14.11,18.85ZM17.2,33a17.18,17.18,0,0,1-.42-3.51c-.06-2.13,0-4.25,0-6.39,0-.68.17-1,.94-1.14a47.87,47.87,0,0,0,12.06-3.42,18.4,18.4,0,0,0,8.08-6.24c.1-.14.17-.29.35-.61A26.33,26.33,0,0,0,40,14.5c1.54,1.86,3.2,3.64,4.77,5.47a2.22,2.22,0,0,1,.59,1.27c0,3.37.15,6.76-.16,10.09a13.32,13.32,0,0,1-7.7,11.14A14.15,14.15,0,0,1,17.2,33ZM31.08,67.21l-10-13.3a2.15,2.15,0,0,0,.14-.26h2.35c1.23,0,1.65-.4,1.66-1.63,0-1.71,0-3.42,0-5.14,0-1.29,0-1.3,1.23-1a16.34,16.34,0,0,0,9.22,0c1.13-.33,1.18-.3,1.2.93,0,1.71,0,3.43,0,5.14,0,1.28.42,1.66,1.7,1.67.7,0,1.39,0,2.08,0a2,2,0,0,1,.42.16C37.77,58.28,34.47,62.67,31.08,67.21Z"/><path class="cls-1" d="M29.93,22.45l2.36.78c-.41,1.24-.81,2.43-1.22,3.61-.26.79-.53,1.57-.81,2.35-.17.49,0,.7.51.74,1.62.12,1.59.13,1.57,1.78,0,.6-.26.75-.8.73-.94,0-1.88,0-2.82,0-1.38,0-1.91-.7-1.48-2,.74-2.31,1.52-4.61,2.29-6.91C29.64,23.16,29.78,22.84,29.93,22.45Z"/><path class="cls-1" d="M37.6,34.93a10.89,10.89,0,0,1-6.83,3.13c-.33,0-.66,0-1,0-1.63,0-1.39.13-1.47-1.48,0-.87.27-1.07,1.09-1.05a8.34,8.34,0,0,0,5.81-1.95c.35-.31.62-.34,1,0S37.06,34.45,37.6,34.93Z"/><path class="cls-1" d="M25.22,24.13a2.63,2.63,0,0,1-2.59,2.66,2.77,2.77,0,0,1-2.75-2.64,2.68,2.68,0,0,1,2.69-2.68A2.56,2.56,0,0,1,25.22,24.13Z"/><path class="cls-1" d="M39.63,21.47a2.69,2.69,0,0,1,2.63,2.66,2.76,2.76,0,0,1-2.73,2.66,2.62,2.62,0,0,1-2.61-2.72A2.57,2.57,0,0,1,39.63,21.47Z"/></svg>