<svg id="Layer_1" data-name="Layer 1" xmlns="http://www.w3.org/2000/svg" viewBox="0 0 85.04 85.04"><defs><style>.cls-1{fill:#fff;}</style></defs><title>الايقونات جاهزة2</title><path class="cls-1" d="M50.63,84.91V67.84l2.67-.32c.55-2.49-.43-3.87-3.18-4.3-8.31-1.31-16.6-2.78-24.95-3.79-5.93-.72-10.63-4.06-15.73-6.54-.73-.35-.73-2.2-1.17-3.72H.17V44l4-.18Q8.83,14.11,38.28,8.57c-.24-1.23-.89-2.68-.67-4A6.58,6.58,0,0,1,39.7,1.09a4.86,4.86,0,0,1,6.09.24c2,1.65,2.19,3.89.75,7.41A38.19,38.19,0,0,1,71.33,21.68a37.71,37.71,0,0,1,9,18.91c.57,3.15.5,3.16,3.59,3.28.28,0,.55.07,1,.12v5H71a54,54,0,0,1,3.84,4A5.12,5.12,0,0,1,76,55.72c.12,3.87.05,7.76.05,11.78l3.79.27V84.91ZM75.27,43.72c-1.12-15.71-15.36-31-35.4-29.83C24.73,14.76,8.93,30.25,9.92,43.72ZM70.8,67.62a16.42,16.42,0,0,1,0-2.74c1.17-6.28-1.06-11.1-6.21-14.67A5,5,0,0,0,62,49.16q-23.25-.09-46.49,0a8.22,8.22,0,0,0-1.29.2l-.13.57c3.31,1.34,6.51,3.23,9.95,3.89,8.8,1.7,17.72,2.82,26.58,4.25,5.09.82,7.3,3.18,8.14,8.29.08.48.64,1.24,1,1.25C63.38,67.66,67,67.62,70.8,67.62Zm-15,5.44v6.62H74.65V73.06Z"/><path class="cls-1" d="M20.72,39.83l-5-1.2c2.45-7.49,6.89-13,14.23-16.48l2.18,4.72C26.38,29.54,22.81,34,20.72,39.83Z"/><path class="cls-1" d="M61.09,75v3.2H57.84V75Z"/><path class="cls-1" d="M80.29,40.6a37.65,37.65,0,0,0-9-18.91A38.27,38.27,0,0,0,46.53,8.74C48,5.22,47.74,3,45.78,1.33A4.84,4.84,0,0,0,39.7,1.1a6.4,6.4,0,0,0-2.1,3.48c-.22,1.31.43,2.76.67,4q-29,5.41-34,34.21H9.87c-.22-13.24,15.19-28,30-28.89,19.64-1.13,33.7,13.52,35.31,28.89h5.59A13.61,13.61,0,0,1,80.29,40.6Z"/><path class="cls-1" d="M20.71,39.83l-5.05-1.2c2.45-7.49,6.89-13,14.23-16.48l2.18,4.72C26.37,29.54,22.8,34,20.71,39.83Z"/></svg>