<svg id="Layer_1" data-name="Layer 1" xmlns="http://www.w3.org/2000/svg" viewBox="0 0 85.04 85.04"><defs><style>.cls-1{fill:#fff;}</style></defs><title>الايقونات جاهزة2</title><path class="cls-1" d="M39.52,56.41l.5-.47c-.83.79-2.43,2.13-4.18,3.55l.57-.35c.14,1.29.34,2.42.39,3.56.1,2.14.2,4.29.16,6.43a23.46,23.46,0,0,1-.54,3.9c-.38,2-2,3.06-3.46,4.55-.16-1.22-.31-2.18-.42-3.15-.43-3.43-.84-6.87-1.28-10.3a1.75,1.75,0,0,1,.11-1.08l-2.73,2.13c.43,3.3.83,6.45,1.22,9.61.24,1.93.46,3.87.71,5.81.07.62.33,1.27,1,1.36a1.9,1.9,0,0,0,1.4-.38c1.55-1.45,3.08-2.94,4.5-4.51,1.87-2.06,2.12-4.73,2.33-7.33.33-4.11-.32-8.19-.65-12.27A1.51,1.51,0,0,1,39.52,56.41ZM24.66,50.12c2.13-2.8,4.09-5.34,4.09-5.34-.18.17-.34.35-.51.52a1.12,1.12,0,0,1-.78.34c-1,0-2-.14-3-.29a42.49,42.49,0,0,0-10.86-.43,9.15,9.15,0,0,0-5,1.7,71.16,71.16,0,0,0-5.19,5.09,1.26,1.26,0,0,0,.73,2.16,5.08,5.08,0,0,0,.65.15l12.56,1.86c.83.12,1.65.28,2.52.43a3.87,3.87,0,0,1-.14.4c.51-.73,1.4-1.93,2.42-3.3a1.3,1.3,0,0,1-1,.2c-3.33-.52-6.69-1-10-1.41-1.1-.15-2.2-.33-3.38-.5a8.47,8.47,0,0,1,7-4,71,71,0,0,1,10.1.55,7.55,7.55,0,0,1,1,.22,8,8,0,0,1-.52.82Z"/><path class="cls-1" d="M82.49,2C80.78.19,78.59.14,76.4.52A22.35,22.35,0,0,0,65.7,6a88.8,88.8,0,0,0-6.42,6.45,2.31,2.31,0,0,1-2.27.71c-2-.29-4.09-.54-6.14-.77-3.16-.36-6.34-.69-9.51-1-3.36-.37-6.72-.76-10.08-1.1-3-.32-6-.63-9-.87s-6.2-.58-9.31-.61A17.08,17.08,0,0,0,.63,13.9c-1.23,1.19-1,2.18.63,2.75l4.85,1.69L40.48,30.41c.35.12.69.26,1.11.43-.18.25-.26.43-.38.56q-7,7.44-14,14.84l0,0,0,0c-.17.24-1.69,2.21-3.46,4.54l-.6.79c-.72,1-1.45,1.93-2.15,2.93a1.74,1.74,0,0,1-.34.37h0c-1,1.35-1.89,2.55-2.4,3.28l-.11.14-.28.42-.09.13a.33.33,0,0,1-.06.1,15.07,15.07,0,0,0-1.88,5.57c-.46,2.79,1.36,5.07,3.95,4.85a14.42,14.42,0,0,0,6.49-2.25c.24-.16.5-.28.86-.48h0l2.74-2.14a1.72,1.72,0,0,1,.49-.53c1.27-.91,2.5-1.91,3.74-2.86a.74.74,0,0,1,.17-.12l.06,0c1.75-1.42,3.35-2.75,4.17-3.54l0,0q7.27-6.94,14.58-13.86a9.66,9.66,0,0,1,.76-.6c.16.38.28.66.38.94l7.39,21q3.24,9.22,6.49,18.47c.53,1.51,1.6,1.73,2.75.59a17.76,17.76,0,0,0,4.66-8.15c1-3.69.38-7.39.1-11.09-.19-2.63-.5-5.25-.77-7.87-.24-2.35-.47-4.71-.72-7.05-.3-2.85-.62-5.68-.94-8.52-.29-2.68-.6-5.35-.91-8-.24-2.05-.47-4.1-.74-6.14a1.7,1.7,0,0,1,.64-1.59c1.48-1.36,2.95-2.74,4.38-4.15A24.29,24.29,0,0,0,84,7,5.93,5.93,0,0,0,82.49,2ZM81.21,7.63A21.51,21.51,0,0,1,75,19.15c-1.74,1.76-3.56,3.45-5.39,5.13a2.66,2.66,0,0,0-.91,2.44c.43,3.62.88,7.25,1.29,10.88s.79,7.43,1.2,11.15.87,7.65,1.26,11.47c.29,2.79.45,5.59.73,8.38a18.52,18.52,0,0,1-.37,6.88,13.08,13.08,0,0,1-2.67,5.21c-.18-.4-.35-.7-.46-1Q62.81,60.29,56,40.89c-.08-.24-.15-.47-.25-.7a1.47,1.47,0,0,0-2.53-.56c-1.63,1.49-3.23,3-4.85,4.52C44,48.26,39.68,52.47,35.19,56.47c-2.54,2.27-5.37,4.21-8.08,6.3-1.73,1.33-3.34,2.82-5.52,3.38a19.61,19.61,0,0,1-2.43.44c-.64.09-.95-.21-.95-.9a8.74,8.74,0,0,1,1.57-5.13c2.51-3.56,5.08-7.08,7.77-10.49,1.56-2,3.42-3.68,5.14-5.5L44.54,32a4.23,4.23,0,0,0,.59-.69,1.38,1.38,0,0,0-.75-2.24c-1.69-.62-3.38-1.2-5.06-1.8L4.87,15.11c-.31-.1-.59-.24-1.11-.46.72-.48,1.27-.93,1.87-1.26a15,15,0,0,1,8.59-1.89c3.65.3,7.3.53,10.94.88,3.88.37,7.76.84,11.64,1.26,3.66.4,7.33.78,11,1.2,3.43.41,6.88.83,10.31,1.28a2.12,2.12,0,0,0,2-.74Q62.33,13,64.6,10.55a24.43,24.43,0,0,1,10.81-7,9.05,9.05,0,0,1,1.68-.38C80,2.75,81.73,4.64,81.21,7.63Z"/></svg>