<svg id="Layer_1" data-name="Layer 1" xmlns="http://www.w3.org/2000/svg" viewBox="0 0 84.06 83.71"><defs><style>.cls-1{fill:#fff;}</style></defs><title>الايقونات جاهزة2</title><path class="cls-1" d="M74.21,59.9A23.84,23.84,0,0,1,69.77,74a23.26,23.26,0,0,1-14.15,9.28c-1.15.26-2.32.31-3.48.46-.46.06-.9.16-1.36.24h-.16c-.81-.09-1.62-.17-2.42-.27A23.62,23.62,0,0,1,38,80a22.61,22.61,0,0,1-9.78-13.31,52,52,0,0,1-.91-5.89c-.08-.6,0-1.41-.34-1.74s-1.17-.25-1.8-.32a33.32,33.32,0,0,1-14.7-5.44,7.13,7.13,0,0,1-2.94-8,1.59,1.59,0,0,0-.35-1.57,45,45,0,0,1-3-4.2A27.47,27.47,0,0,1,.21,25.82,3.85,3.85,0,0,0,0,25V12.14a3.55,3.55,0,0,0,.22-.77A7.15,7.15,0,0,1,6.67,5l3.2-.23c.06-1,.07-1.91.22-2.85A2.14,2.14,0,0,1,12.3,0a2.21,2.21,0,0,1,2.29,1.93,6.29,6.29,0,0,1,.12,1.13q0,4.15,0,8.3a7,7,0,0,1-.15,1.3,2.22,2.22,0,0,1-2.27,1.77,2.13,2.13,0,0,1-2.17-1.76c-.17-1-.18-1.95-.26-3a21.37,21.37,0,0,0-3.2,0,2.26,2.26,0,0,0-1.8,2.35c0,4.82-.15,9.64,0,14.45a23,23,0,0,0,5,13.14,3,3,0,0,1,.36.45c.4.69.86.77,1.62.46a6.72,6.72,0,0,1,6.22.5,22.07,22.07,0,0,0,8.26,3.26A20,20,0,0,0,40,41.68a9.56,9.56,0,0,1,4-1.58,6.41,6.41,0,0,1,3.57.6.7.7,0,0,0,1-.22,23,23,0,0,0,5.5-12.68c.27-3.18.16-6.39.2-9.6,0-2,0-4,0-6.07A2.44,2.44,0,0,0,51.78,9.6H49.31c-.08,1-.08,2-.24,2.93a2.14,2.14,0,0,1-2.21,1.9,2.21,2.21,0,0,1-2.27-1.86,6.24,6.24,0,0,1-.13-1.22q0-4.14,0-8.3a6.23,6.23,0,0,1,.15-1.29A2.21,2.21,0,0,1,46.88,0a2.12,2.12,0,0,1,2.17,1.76c.17,1,.18,2,.26,3L52.6,5a7.06,7.06,0,0,1,6.3,6.32c.14,4.38.21,8.76.16,13.14a29,29,0,0,1-4.14,15.24C54.06,41.1,53,42.41,52,43.76a1.39,1.39,0,0,0-.37,1.39,7.13,7.13,0,0,1-2.88,8.14,33,33,0,0,1-14.7,5.46l-.48.08C32,59.11,32,59.11,32,60.72A18.77,18.77,0,0,0,68.5,66.4a16.77,16.77,0,0,0,.94-6.13c0-1,0-1,1-.93a17,17,0,0,0,3-.06C74,59.23,74.22,59.34,74.21,59.9Z"/><path class="cls-1" d="M84.14,42.21c-.13.72-.25,1.44-.38,2.16a12.11,12.11,0,1,1,.12-4.08c.08.54.18,1.06.26,1.6Z"/><path class="cls-1" d="M33.66,25.5c-.62-.56-.55-.9,0-1.41.93-.8,1.81-1.66,2.68-2.53a9.43,9.43,0,0,0,2.71-9.17A9.72,9.72,0,1,0,22,20.6,42.45,42.45,0,0,0,25.38,24c.82.8.82.79,0,1.55C23.89,27,22.35,28.47,20.85,30a3.41,3.41,0,0,0-.83,1.2,2.22,2.22,0,0,0,.92,2.65,2.31,2.31,0,0,0,2.87-.29c1.7-1.59,3.4-3.18,5.05-4.82.56-.55.93-.51,1.47,0q2.39,2.37,4.88,4.63a8.43,8.43,0,0,0,1.56.95,2.66,2.66,0,0,0,2.29-1.43,2.25,2.25,0,0,0-.47-2.64C37,28.62,35.34,27,33.66,25.5Zm-3.48-4.44c-.41.42-.73.47-1.16,0C28,20,26.83,19,25.8,17.94A4.85,4.85,0,0,1,25,12.43a4.56,4.56,0,0,1,4.51-2.82,4.81,4.81,0,0,1,5,3.47,7.89,7.89,0,0,1,.19,1.45,4.63,4.63,0,0,1-1.56,3.74C32.11,19.21,31.13,20.12,30.18,21.06Z"/></svg>