<svg id="Layer_1" data-name="Layer 1" xmlns="http://www.w3.org/2000/svg" viewBox="0 0 85.04 85.04"><defs><style>.cls-1{fill:#fff;}</style></defs><title>الايقونات جاهزة2</title><path class="cls-1" d="M.71,32.24H66v6.49c2.62,0,5,0,7.32,0,8.11,0,12.14,5.18,10.21,13-.56,2.32-1.12,4.64-1.72,6.95C80,66,74.25,71.14,66.84,71,62,71,58.16,72,55.33,76a18.22,18.22,0,0,1-2.74,2.46H65.92v5.86H.93V78.7H14.2c-1.61-1.53-2.72-2.54-3.78-3.6A31.6,31.6,0,0,1,.71,51.85C.73,45.42.71,39,.71,32.24Zm5.72,5.87c0,4.88,0,9.46,0,14a26.76,26.76,0,0,0,17.16,24.7,27.34,27.34,0,0,0,29.57-6.73c8.83-9.32,7.14-20.75,7.06-32ZM64.26,65.16A10,10,0,0,0,75.9,58.25c1-3,1.69-6,2.38-9,.51-2.27-.75-4.29-2.93-4.44-3-.21-6,0-8.57,0C65.92,51.75,65.09,58.43,64.26,65.16Z"/><path class="cls-1" d="M68,.2h3.83C73.61,9.55,68.33,17.93,59.32,20a16.72,16.72,0,0,1-3.46.35c-5.91,0-11.81,0-17.71,0-2.66,0-3.47.85-3.51,3.5,0,1.22,0,2.44,0,3.78H30.69a46.22,46.22,0,0,1,0-6c.42-3.16,3.35-5.4,6.86-5.43,6.1-.05,12.19,0,18.29,0A11.87,11.87,0,0,0,68,4.14C68.05,2.86,68,1.58,68,.2Z"/><path class="cls-1" d="M25.27,27.63H21.48C19.27,14.91,28.83,7.09,37.7,7.41c5.76.2,11.54,0,17.31,0,2.86,0,3.65-.82,3.67-3.73V.1h4.24a50.24,50.24,0,0,1-.5,6.63,6.37,6.37,0,0,1-6.37,4.74c-5.77,0-11.55,0-17.32,0C30.1,11.5,25.27,16.36,25.27,25,25.26,25.86,25.27,26.69,25.27,27.63Z"/></svg>